<svg width="64" height="64" viewBox="0 0 64 64" fill="none" xmlns="http://www.w3.org/2000/svg">
<path d="M54.0002 44.2839V19.7159C55.3647 19.366 56.6123 18.6613 57.6164 17.6734C58.6204 16.6854 59.3452 15.4493 59.7171 14.0907C60.089 12.732 60.0948 11.2991 59.7339 9.93753C59.373 8.57591 58.6582 7.33404 57.6622 6.33798C56.6661 5.34192 55.4242 4.62716 54.0626 4.26624C52.701 3.90532 51.2681 3.91111 49.9095 4.28302C48.5508 4.65493 47.3148 5.37971 46.3268 6.38378C45.3388 7.38785 44.6341 8.63546 44.2842 9.99995H19.7162C19.3663 8.63546 18.6616 7.38785 17.6736 6.38378C16.6856 5.37971 15.4496 4.65493 14.0909 4.28302C12.7323 3.91111 11.2994 3.90532 9.93777 4.26624C8.57616 4.62716 7.33428 5.34192 6.33823 6.33798C5.34217 7.33404 4.6274 8.57591 4.26648 9.93753C3.90557 11.2991 3.91136 12.732 4.28326 14.0907C4.65517 15.4493 5.37995 16.6854 6.38402 17.6734C7.38809 18.6613 8.6357 19.366 10.0002 19.7159V44.2839C8.6357 44.6339 7.38809 45.3386 6.38402 46.3265C5.37995 47.3145 4.65517 48.5506 4.28326 49.9092C3.91136 51.2679 3.90557 52.7008 4.26648 54.0624C4.6274 55.424 5.34217 56.6659 6.33823 57.6619C7.33428 58.658 8.57616 59.3727 9.93777 59.7337C11.2994 60.0946 12.7323 60.0888 14.0909 59.7169C15.4496 59.345 16.6856 58.6202 17.6736 57.6161C18.6616 56.612 19.3663 55.3644 19.7162 53.9999H44.2842C44.6341 55.3644 45.3388 56.612 46.3268 57.6161C47.3148 58.6202 48.5508 59.345 49.9095 59.7169C51.2681 60.0888 52.701 60.0946 54.0626 59.7337C55.4242 59.3727 56.6661 58.658 57.6622 57.6619C58.6582 56.6659 59.373 55.424 59.7339 54.0624C60.0948 52.7008 60.089 51.2679 59.7171 49.9092C59.3452 48.5506 58.6204 47.3145 57.6164 46.3265C56.6123 45.3386 55.3647 44.6339 54.0002 44.2839ZM52.0002 7.99995C52.7913 7.99995 53.5647 8.23454 54.2225 8.67407C54.8803 9.1136 55.393 9.73831 55.6957 10.4692C55.9985 11.2001 56.0777 12.0044 55.9233 12.7803C55.769 13.5562 55.388 14.269 54.8286 14.8284C54.2692 15.3878 53.5565 15.7687 52.7806 15.9231C52.0046 16.0774 51.2004 15.9982 50.4695 15.6955C49.7386 15.3927 49.1138 14.88 48.6743 14.2222C48.2348 13.5644 48.0002 12.7911 48.0002 11.9999C48.0014 10.9395 48.4232 9.92275 49.1731 9.17286C49.923 8.42298 50.9397 8.00116 52.0002 7.99995ZM8.00019 11.9999C8.00019 11.2088 8.23479 10.4355 8.67431 9.77767C9.11384 9.11987 9.73855 8.60718 10.4695 8.30443C11.2004 8.00168 12.0046 7.92247 12.7806 8.07681C13.5565 8.23115 14.2692 8.61211 14.8286 9.17152C15.388 9.73093 15.769 10.4437 15.9233 11.2196C16.0777 11.9955 15.9985 12.7998 15.6957 13.5307C15.393 14.2616 14.8803 14.8863 14.2225 15.3258C13.5647 15.7654 12.7913 15.9999 12.0002 15.9999C10.9397 15.9989 9.92285 15.5771 9.17293 14.8272C8.42302 14.0773 8.00125 13.0605 8.00019 11.9999ZM12.0002 55.9999C11.2091 55.9999 10.4357 55.7654 9.77791 55.3258C9.12011 54.8863 8.60742 54.2616 8.30467 53.5307C8.00192 52.7998 7.92271 51.9955 8.07705 51.2196C8.23139 50.4437 8.61235 49.7309 9.17176 49.1715C9.73117 48.6121 10.4439 48.2311 11.2198 48.0768C11.9958 47.9225 12.8 48.0017 13.5309 48.3044C14.2618 48.6072 14.8865 49.1199 15.3261 49.7777C15.7656 50.4355 16.0002 51.2088 16.0002 51.9999C15.999 53.0604 15.5772 54.0771 14.8273 54.827C14.0774 55.5769 13.0607 55.9987 12.0002 55.9999ZM44.2842 49.9999H19.7162C19.358 48.6249 18.6395 47.3702 17.6347 46.3655C16.6299 45.3607 15.3753 44.6421 14.0002 44.2839V19.7159C15.3752 19.3576 16.6297 18.639 17.6345 17.6342C18.6392 16.6295 19.3578 15.3749 19.7162 13.9999H44.2842C44.6424 15.375 45.3609 16.6297 46.3657 17.6344C47.3705 18.6392 48.6251 19.3578 50.0002 19.7159V44.2839C48.6251 44.642 47.3704 45.3605 46.3656 46.3653C45.3608 47.3701 44.6423 48.6248 44.2842 49.9999ZM52.0002 55.9999C51.2091 55.9999 50.4357 55.7654 49.7779 55.3258C49.1201 54.8863 48.6074 54.2616 48.3047 53.5307C48.0019 52.7998 47.9227 51.9955 48.077 51.2196C48.2314 50.4437 48.6124 49.7309 49.1718 49.1715C49.7312 48.6121 50.4439 48.2311 51.2198 48.0768C51.9958 47.9225 52.8 48.0017 53.5309 48.3044C54.2618 48.6072 54.8865 49.1199 55.3261 49.7777C55.7656 50.4355 56.0002 51.2088 56.0002 51.9999C55.9988 53.0604 55.5769 54.077 54.827 54.8268C54.0772 55.5766 53.0606 55.9985 52.0002 55.9999Z" fill="#0E4D6C"/>
</svg>
