<svg width="55" height="54" viewBox="0 0 55 54" fill="none" xmlns="http://www.w3.org/2000/svg">
<g clip-path="url(#clip0_154_3841)">
<path d="M54.0794 35.9274C53.7065 34.64 52.516 33.7038 50.6777 33.2258C52.3489 29.1514 52.2208 25.7992 50.2771 24.5086C49.8727 24.2401 49.2806 23.9916 48.4727 23.9881C49.3721 20.7989 48.9927 18.3476 47.3765 17.2746C46.1998 16.4934 44.5783 16.6049 42.7624 17.5499C43.0004 14.6967 42.2712 12.6372 40.6816 11.8667C39.1246 11.1118 37.0918 11.7819 35.0333 13.6629C34.5841 11.3344 33.5318 9.83381 32.018 9.44224C30.4735 9.04236 28.7611 9.90824 27.2003 11.838C25.6399 9.90835 23.9277 9.04248 22.3826 9.44224C20.8687 9.83392 19.8165 11.3344 19.3673 13.6629C17.3088 11.7821 15.2762 11.1121 13.719 11.8668C12.1295 12.6372 11.4002 14.6967 11.6381 17.5499C9.8222 16.6048 8.20068 16.4932 7.02422 17.2746C5.40786 18.3476 5.0287 20.7993 5.92792 23.9881C5.12021 23.9916 4.52794 24.2401 4.12362 24.5086C2.17981 25.7992 2.05167 29.1514 3.72292 33.2259C1.88468 33.7039 0.69417 34.64 0.321091 35.9274C-0.245315 37.8822 1.19609 40.1154 4.27563 42.0546C6.97542 43.7546 10.15 44.6532 13.4561 44.6532H40.9443C44.2505 44.6532 47.4251 43.7546 50.1249 42.0546C53.2045 40.1153 54.6458 37.8821 54.0794 35.9274ZM49.065 40.371C46.683 41.871 43.875 42.6637 40.9444 42.6637H13.4562C10.5258 42.6637 7.71772 41.871 5.33577 40.371C3.1956 39.0234 1.94834 37.4601 2.23201 36.4811C2.44593 35.7429 3.58108 35.1716 5.2686 34.9528C5.58492 34.9118 5.86251 34.7215 6.01476 34.4412C6.16712 34.1608 6.17567 33.8245 6.03793 33.5367C4.17101 29.6378 4.22519 26.8291 5.22413 26.166C5.43091 26.0287 5.68193 25.9763 5.94478 25.9763C6.32722 25.9763 6.73447 26.0872 7.06647 26.2091C7.43335 26.3436 7.84516 26.2513 8.11912 25.9724C8.39308 25.6935 8.47815 25.2801 8.33679 24.9156C7.03885 21.5693 7.3169 19.4681 8.12462 18.9319C8.90893 18.4108 10.5692 18.9838 12.3534 20.3924C12.6841 20.6534 13.1434 20.6779 13.5002 20.4531C13.8568 20.2283 14.0329 19.8033 13.9399 19.3921C13.2891 16.5153 13.5552 14.1569 14.5867 13.6569C15.5874 13.1722 17.5497 14.3611 19.3608 16.5468C19.6248 16.8653 20.0583 16.9868 20.449 16.8531C20.8402 16.7191 21.1077 16.3571 21.1209 15.9439C21.2003 13.4588 21.9076 11.62 22.8807 11.3681C23.7826 11.1353 25.1497 12.1982 26.365 14.0768C26.5483 14.3601 26.8627 14.5312 27.2002 14.5312C27.5377 14.5312 27.852 14.3601 28.0354 14.0768C29.2507 12.1983 30.6181 11.1349 31.5196 11.3681C32.4927 11.6199 33.2 13.4587 33.2795 15.9439C33.2927 16.3571 33.5602 16.7191 33.9514 16.8531C34.3424 16.9869 34.7759 16.8652 35.0397 16.5467C36.851 14.3607 38.8147 13.1722 39.8136 13.6569C40.8452 14.1569 41.1112 16.5154 40.4603 19.3921C40.3674 19.8033 40.5435 20.2283 40.9001 20.4531C41.2567 20.6778 41.7162 20.6536 42.0469 20.3924C43.831 18.984 45.4909 18.4106 46.2759 18.932C47.0834 19.4682 47.3616 21.5694 46.0637 24.9158C45.9224 25.2802 46.0077 25.6936 46.2814 25.9725C46.5553 26.2514 46.9669 26.3438 47.3341 26.2093C47.8943 26.0035 48.6689 25.8289 49.1764 26.1661C50.1752 26.8293 50.2294 29.6379 48.3626 33.537C48.2249 33.8246 48.2334 34.1611 48.3858 34.4413C48.5381 34.7217 48.8156 34.9119 49.1319 34.953C50.8194 35.1717 51.9545 35.743 52.1684 36.4812C52.4523 37.4601 51.205 39.0234 49.065 40.371Z" fill="#0E4C6B"/>
<path d="M17.686 33.3354C15.9762 33.3354 14.585 34.7265 14.585 36.4365C14.585 38.1465 15.9762 39.5376 17.686 39.5376C19.3959 39.5376 20.7871 38.1465 20.7871 36.4365C20.7871 34.7265 19.3959 33.3354 17.686 33.3354ZM17.686 37.5482C17.0732 37.5482 16.5744 37.0495 16.5744 36.4365C16.5744 35.8235 17.0732 35.3249 17.686 35.3249C18.2989 35.3249 18.7977 35.8235 18.7977 36.4365C18.7977 37.0495 18.2989 37.5482 17.686 37.5482Z" fill="#0E4C6B"/>
<path d="M35.9419 33.3354C34.232 33.3354 32.8408 34.7265 32.8408 36.4365C32.8408 38.1465 34.232 39.5376 35.9419 39.5376C37.6519 39.5376 39.0431 38.1465 39.0431 36.4365C39.0431 34.7265 37.6519 33.3354 35.9419 33.3354ZM35.9419 37.5482C35.329 37.5482 34.8303 37.0495 34.8303 36.4365C34.8303 35.8235 35.329 35.3249 35.9419 35.3249C36.5549 35.3249 37.0536 35.8235 37.0536 36.4365C37.0536 37.0495 36.5549 37.5482 35.9419 37.5482Z" fill="#0E4C6B"/>
<path d="M27.2007 18.114C25.4908 18.114 24.0996 19.5051 24.0996 21.2151C24.0996 22.9251 25.4908 24.3162 27.2007 24.3162C28.9105 24.3162 30.3018 22.9251 30.3018 21.2151C30.3018 19.5051 28.9105 18.114 27.2007 18.114ZM27.2007 22.3267C26.5878 22.3267 26.0891 21.8281 26.0891 21.2151C26.0891 20.6021 26.5878 20.1035 27.2007 20.1035C27.8135 20.1035 28.3123 20.6021 28.3123 21.2151C28.3123 21.8281 27.8135 22.3267 27.2007 22.3267Z" fill="#0E4C6B"/>
<path d="M26.814 29.2869C25.1041 29.2869 23.7129 30.678 23.7129 32.3879C23.7129 34.0979 25.1041 35.489 26.814 35.489C28.5238 35.489 29.915 34.0979 29.915 32.3879C29.915 30.678 28.5238 29.2869 26.814 29.2869ZM26.814 33.4996C26.2011 33.4996 25.7023 33.0009 25.7023 32.3879C25.7023 31.775 26.2011 31.2763 26.814 31.2763C27.4268 31.2763 27.9256 31.775 27.9256 32.3879C27.9256 33.0009 27.4268 33.4996 26.814 33.4996Z" fill="#0E4C6B"/>
<path d="M18.6323 27.1147C18.6323 25.4048 17.2411 24.0137 15.5312 24.0137C13.8214 24.0137 12.4302 25.4048 12.4302 27.1147C12.4302 28.8247 13.8214 30.2159 15.5312 30.2159C17.2411 30.2159 18.6323 28.8246 18.6323 27.1147ZM14.4196 27.1147C14.4196 26.5018 14.9184 26.0031 15.5312 26.0031C16.1441 26.0031 16.6429 26.5018 16.6429 27.1147C16.6429 27.7277 16.1441 28.2265 15.5312 28.2265C14.9183 28.2264 14.4196 27.7277 14.4196 27.1147Z" fill="#0E4C6B"/>
<path d="M38.8693 24.0137C37.1593 24.0137 35.7681 25.4048 35.7681 27.1147C35.7681 28.8247 37.1593 30.2159 38.8693 30.2159C40.5791 30.2159 41.9703 28.8247 41.9703 27.1147C41.9703 25.4048 40.5792 24.0137 38.8693 24.0137ZM38.8693 28.2264C38.2563 28.2264 37.7575 27.7277 37.7575 27.1146C37.7575 26.5016 38.2563 26.003 38.8693 26.003C39.4821 26.003 39.9809 26.5016 39.9809 27.1146C39.9809 27.7277 39.4822 28.2264 38.8693 28.2264Z" fill="#0E4C6B"/>
</g>
<defs>
<clipPath id="clip0_154_3841">
<rect width="54" height="54" fill="white" transform="translate(0.200195)"/>
</clipPath>
</defs>
</svg>
