<svg width="55" height="54" viewBox="0 0 55 54" fill="none" xmlns="http://www.w3.org/2000/svg">
<path d="M42.4996 47.9999H42.4831C42.2051 38.0879 37.8184 29.7842 31.8736 27C37.8184 24.2158 42.2051 15.9121 42.4831 6.00013H42.4996C44.1538 6.00013 45.4996 4.65436 45.4996 3.00006C45.4999 1.34577 44.1538 0 42.4996 0H12.5001C10.8458 0 9.5 1.34577 9.5 3.00006C9.5 4.65436 10.8458 6.00013 12.5001 6.00013H12.5165C12.7945 15.9121 17.1812 24.2158 23.1261 27C17.1812 29.7842 12.7948 38.0879 12.5165 47.9999H12.5001C10.8458 47.9999 9.5 49.3456 9.5 50.9999C9.5 52.6542 10.8458 54 12.5001 54H42.4998C44.1541 54 45.4999 52.6542 45.4999 50.9999C45.4999 49.3454 44.1538 47.9999 42.4996 47.9999ZM12.4998 4.00018C11.9394 3.99989 11.4999 3.56042 11.4999 3.00006C11.4999 2.44834 11.9481 1.99995 12.5001 1.99995H42.4998C43.0602 1.99995 43.5 2.43942 43.5 3.00006C43.5 3.55178 43.0518 4.00018 42.4998 4.00018H41.4997H13.4999H12.4998ZM14.5147 5.99984H40.4852C40.1611 17.1171 34.4606 25.9999 27.5001 25.9999C20.539 25.9999 14.839 17.1171 14.5147 5.99984ZM27.5001 27.9998C30.4086 27.9998 33.0895 29.5663 35.2576 32.1828L30.1571 32.7233L28.3739 29.5143C28.0222 28.8794 26.9774 28.8794 26.6257 29.5143L24.5095 33.3228L18.4377 33.9671C20.7816 30.2798 23.9777 27.9998 27.5001 27.9998ZM14.5826 46.8662C14.5915 46.7229 14.5973 46.5778 14.6079 46.4354C14.9104 42.6772 15.8443 39.0932 17.3193 36.0975L25.2374 35.2568C25.5615 35.2225 25.8478 35.0332 26.0061 34.748L27.5001 32.0596L28.7305 34.2734C28.9259 34.6251 29.3135 34.8251 29.7099 34.7822L36.536 34.0587C38.8945 37.7529 40.3036 42.7489 40.4786 47.9999H14.5204C14.5334 47.6203 14.5567 47.243 14.5826 46.8662ZM42.4996 51.9998H12.5001C11.9394 51.9998 11.4999 51.5603 11.4999 50.9996C11.4999 50.4479 11.9481 49.9995 12.5001 49.9995H13.0665C13.1989 50.0643 13.3428 50.108 13.5002 50.108H41.5C41.6574 50.108 41.8013 50.0643 41.9337 49.9995H42.4998C43.0602 49.9995 43.5 50.439 43.5 50.9996C43.4997 51.5517 43.0513 51.9998 42.4996 51.9998Z" fill="#0E4C6B"/>
</svg>
