<svg width="55" height="54" viewBox="0 0 55 54" fill="none" xmlns="http://www.w3.org/2000/svg">
<g clip-path="url(#clip0_154_3809)">
<path d="M13.3165 14.3067L11.696 15.9271C11.2699 16.3533 11.2699 17.0442 11.696 17.4705C11.9092 17.6837 12.1886 17.7902 12.4677 17.7902C12.747 17.7902 13.0264 17.6837 13.2394 17.4705L14.8598 15.8501C15.286 15.4239 15.286 14.733 14.8598 14.3067C14.4338 13.8805 13.7428 13.8806 13.3165 14.3067Z" fill="#0E4C6B"/>
<path d="M7.83789 19.7854L6.84016 20.7831C6.41396 21.2092 6.41396 21.9002 6.84016 22.3264C7.05331 22.5396 7.33259 22.6461 7.61176 22.6461C7.89105 22.6461 8.17043 22.5396 8.38337 22.3264L9.3811 21.3287C9.8072 20.9026 9.8072 20.2116 9.3811 19.7854C8.95501 19.3593 8.26409 19.3593 7.83789 19.7854Z" fill="#0E4C6B"/>
<path d="M54.1803 19.4522L41.5306 6.80248C41.1044 6.37639 40.4134 6.37639 39.9873 6.80248L34.8579 11.9319C34.6532 12.1366 34.5382 12.4141 34.5382 12.7036C34.5382 12.993 34.6532 13.2705 34.8579 13.4752L35.2884 13.9057L33.7589 15.4352C33.2141 15.9799 32.5285 16.2997 31.6053 16.4383L22.9077 16.4504C22.3083 16.4504 21.7525 16.6425 21.2973 16.9675L20.6064 16.2767L21.0333 15.8499C21.2379 15.6453 21.3529 15.3677 21.3529 15.0783C21.3529 14.7889 21.2379 14.5113 21.0333 14.3067L15.0126 8.28611C14.5866 7.85991 13.8955 7.85991 13.4693 8.28611L0.819675 20.9357C0.615066 21.1403 0.5 21.4179 0.5 21.7073C0.5 21.9967 0.615066 22.2743 0.819675 22.4789L6.84035 28.4996C7.0535 28.7127 7.33278 28.8193 7.61196 28.8193C7.89124 28.8193 8.17062 28.7127 8.38356 28.4996L8.74363 28.1395L10.3455 29.7415C10.8742 30.2701 11.2831 30.8902 11.5608 31.5844L11.6227 31.739C12.0107 32.7095 12.5823 33.576 13.3212 34.3149L25.5871 46.5808C26.2112 47.2049 27.0311 47.5171 27.8512 47.5171C28.6712 47.5171 29.491 47.2051 30.1153 46.5808C30.4291 46.2668 30.6647 45.9038 30.8219 45.5162C31.9953 46.0312 33.4168 45.8092 34.3763 44.8497C34.6631 44.5629 34.8892 44.2312 35.0481 43.8702C36.2615 44.5266 37.8128 44.3427 38.8371 43.3184C39.8624 42.2931 40.0497 40.742 39.3989 39.5247C39.7479 39.3711 40.0742 39.1518 40.359 38.8671C40.3601 38.866 40.3671 38.859 40.3683 38.8578C41.6228 37.6033 41.6228 35.562 40.3683 34.3074L40.2891 34.2282L42.3526 32.1648C42.9662 31.5511 43.8366 30.45 44.267 29.3736L44.3328 29.2125C44.6097 28.5204 45.0189 27.9006 45.5492 27.3703L47.1512 25.7684L47.5076 26.1248C47.7123 26.3295 47.9899 26.4445 48.2793 26.4445C48.5687 26.4445 48.8463 26.3295 49.0509 26.1248L54.1803 20.9954C54.6065 20.5694 54.6065 19.8784 54.1803 19.4522ZM7.97202 25.8246C7.9715 25.8251 7.97097 25.8258 7.97023 25.8265L7.61185 26.1849L3.1346 21.7073L14.241 10.6009L18.7184 15.0783L18.2934 15.5033C18.2929 15.5038 18.2921 15.5044 18.2915 15.505L7.97202 25.8246ZM38.8287 37.3109C38.8276 37.3121 38.8206 37.319 38.8195 37.3202C38.4185 37.7212 37.7851 37.7164 37.378 37.3089C37.3157 37.2466 30.9978 30.9729 30.9978 30.9729C30.8769 30.8522 30.7345 30.7667 30.583 30.7145C30.3007 30.617 29.9867 30.6373 29.7186 30.7782C29.6236 30.8282 29.5342 30.8931 29.4544 30.9729C29.2148 31.2126 29.1098 31.5361 29.1398 31.8493C29.1431 31.8841 29.1481 31.9187 29.1548 31.953C29.168 32.0218 29.1881 32.0895 29.2147 32.1552C29.2679 32.2866 29.3478 32.4097 29.4543 32.5162C29.4543 32.5162 37.3628 40.4165 37.4085 40.4498C37.6916 40.8535 37.6539 41.4151 37.2935 41.7753C36.8961 42.1728 36.2494 42.1728 35.8521 41.7753L27.4024 33.3699C27.3225 33.2901 27.2332 33.2251 27.1382 33.1751C26.7264 32.9587 26.2052 33.0236 25.859 33.3699C25.6015 33.6273 25.5008 33.9811 25.5543 34.3149C25.5893 34.534 25.6901 34.7444 25.859 34.9131L32.9901 42.0442C33.2279 42.4397 33.1758 42.9632 32.8328 43.3063C32.6402 43.4989 32.3842 43.6049 32.112 43.6049C31.8398 43.6049 31.5838 43.4988 31.3913 43.3063L23.5409 35.5002C23.1147 35.0741 22.4237 35.0741 21.9974 35.5002C21.9709 35.5268 21.9459 35.5545 21.9226 35.5831C21.5729 36.0117 21.5979 36.644 21.9974 37.0435L28.7293 43.7752C28.9671 44.1707 28.9149 44.6943 28.5718 45.0374C28.1744 45.4348 27.5277 45.4347 27.1304 45.0374L14.8645 32.7714C14.3358 32.2427 13.9269 31.6226 13.6493 30.9284L13.5874 30.7737C13.1993 29.8034 12.6278 28.9368 11.8889 28.1979L10.2871 26.596L19.0632 17.8199L20.146 18.9027C20.1332 19.0097 20.1257 19.1184 20.1253 19.2288C20.1253 19.2382 20.1253 19.2477 20.1255 19.2572C20.1775 21.5095 22.0324 23.3421 24.2653 23.3421L26.3073 23.3331L38.8251 35.8509C39.2286 36.2545 39.2286 36.9111 38.8287 37.3109ZM44.0058 25.828C43.2654 26.5683 42.6936 27.4353 42.3094 28.3962L42.2436 28.5586C41.9958 29.1783 41.406 30.0305 40.8092 30.6272L38.7509 32.6903L32.9514 26.8908C34.9685 26.8444 36.1188 26.2726 36.1866 26.238L35.1925 24.295L35.2033 24.2895C35.1862 24.2977 33.4986 25.0881 30.5438 24.483L27.5306 21.4699L27.5208 21.4741C27.3179 21.2805 27.0479 21.1917 26.7664 21.1917C26.7648 21.1917 26.7633 21.1917 26.7618 21.1917L24.2609 21.1812C23.214 21.1812 22.3416 20.2929 22.3084 19.2238C22.3157 18.9025 22.5878 18.6332 22.9094 18.6332L31.6858 18.621C31.7354 18.621 31.7849 18.6175 31.8339 18.6107C33.2682 18.4122 34.4028 17.8784 35.3023 16.9788L36.8319 15.4494L45.6081 24.2258L44.0058 25.828ZM48.2793 23.81L47.9233 23.4541C47.9231 23.4539 47.923 23.4537 47.9228 23.4535L37.6034 13.1342C37.6032 13.134 37.6031 13.1339 37.6029 13.1337L37.1729 12.7037L40.759 9.11751L51.8653 20.2238L48.2793 23.81Z" fill="#0E4C6B"/>
</g>
<defs>
<clipPath id="clip0_154_3809">
<rect width="54" height="54" fill="white" transform="translate(0.5)"/>
</clipPath>
</defs>
</svg>
