<svg width="64" height="64" viewBox="0 0 64 64" fill="none" xmlns="http://www.w3.org/2000/svg">
<path d="M64 27.2C64 23.3216 61.1968 19.2 56 19.2H34.3424C35.5732 11.9296 34.8384 6.0235 32.2101 2.657C30.8715 0.944 29.0923 0 27.2 0C21.1339 0 19.5669 5.94237 18.0513 11.6896C17.12 15.2214 16.0235 19.151 14.0021 22.6432C13.6309 22.4917 13.2266 22.4 12.8 22.4H3.2C1.4325 22.4 0 23.8325 0 25.6V60.8C0 62.5675 1.4325 64 3.2 64H12.8C14.0266 64 15.0592 63.2864 15.5957 62.272C16.8469 63.2534 18.5355 64 20.8 64H46.4C50.1781 64 53.056 62.2838 54.2955 59.2906C55.0699 57.4229 55.0837 55.2459 54.4427 53.2021C55.8176 52.3989 56.8672 51.2085 57.4955 49.6906C58.2699 47.8229 58.2837 45.6459 57.6427 43.6021C59.0177 42.7989 60.0672 41.6085 60.6955 40.0906C61.503 38.1408 61.4837 35.856 60.7541 33.7354C62.8832 32.1909 64 29.6469 64 27.2ZM12.8 57.6V60.8H3.2V25.6H12.8V57.6ZM56 32C59.2 35.2 59.2 41.6 52.8 41.6C56 44.8 56 51.2 49.6 51.2C52.8 54.4 52.8 60.8 46.4 60.8C43.2 60.8 24.7339 60.8 20.8 60.8C16.8672 60.8 16 57.6 16 57.6V25.6C22.4 16 20.8 3.2 27.2 3.2C30.4 3.2 33.6 9.6 30.4 22.4C43.2 22.4 49.6 22.4 56 22.4C62.4 22.4 62.4 32 56 32Z" fill="#0E4D6C"/>
</svg>
