<svg width="55" height="54" viewBox="0 0 55 54" fill="none" xmlns="http://www.w3.org/2000/svg">
<g clip-path="url(#clip0_154_3828)">
<path d="M28.4817 16.8608C28.0048 17.338 28.0048 18.1115 28.482 18.5887C28.9592 19.0659 29.7328 19.0658 30.2097 18.5884L31.2185 17.5793C31.5813 17.2163 31.6787 16.6653 31.4621 16.2C30.7889 14.7534 30.4476 13.257 30.4476 11.7519C30.4476 8.68798 31.7813 5.80216 34.031 3.80831L34.0349 11.8058C34.035 12.2064 34.2317 12.5816 34.5611 12.8097L40.3577 16.8235C40.7759 17.1131 41.3299 17.1133 41.7483 16.8238L47.5469 12.812C47.8768 12.5838 48.0736 12.2084 48.0736 11.8071L48.0727 3.81014C50.3222 5.80216 51.656 8.68566 51.6568 11.747C51.6568 14.5802 50.5537 17.2439 48.5505 19.2474C46.549 21.2495 43.8886 22.3516 41.0583 22.3516C41.0557 22.3516 41.0528 22.3516 41.05 22.3516C40.0762 22.3508 38.1646 21.8794 37.5101 21.6977C37.0858 21.5797 36.6306 21.6995 36.3192 22.0108L32.6049 25.7252C32.1278 26.2023 32.1278 26.9759 32.6049 27.4531C32.8435 27.6916 33.1561 27.8109 33.4688 27.8109C33.7814 27.8109 34.0942 27.6916 34.3327 27.4531L37.5523 24.2334C38.4499 24.4554 39.9928 24.7943 41.0481 24.795C41.0518 24.795 41.0548 24.795 41.0583 24.795C44.5409 24.7949 47.8153 23.4384 50.2783 20.9749C52.7428 18.51 54.1 15.2329 54.1 11.7468C54.0989 7.05124 51.5511 2.69703 47.451 0.383218C47.0728 0.169784 46.6096 0.173082 46.2344 0.392137C45.8593 0.611191 45.6287 1.01289 45.6288 1.44734L45.6298 11.167L41.0532 14.3332L36.4782 11.1649L36.4735 1.44453C36.4732 1.0102 36.2425 0.608625 35.8674 0.389815C35.4923 0.170883 35.0292 0.167829 34.6509 0.381386C30.5512 2.69728 28.0044 7.05417 28.0044 11.7518C28.0044 13.3386 28.3074 14.9104 28.9064 16.4362L28.4817 16.8608Z" fill="#0E4C6B"/>
<path d="M25.2465 33.0838L8.29857 50.0324C7.66169 50.6696 6.81504 51.0208 5.91463 51.0214C5.91402 51.0214 5.91353 51.0214 5.9128 51.0214C5.01264 51.0212 4.16586 50.6704 3.5291 50.0336C2.89246 49.3962 2.54232 48.5485 2.54342 47.6462C2.5444 46.7467 2.89515 45.9022 3.53264 45.2668L18.1101 30.688C18.5872 30.211 18.5872 29.4375 18.1101 28.9603C17.633 28.4833 16.8594 28.4832 16.3823 28.9604L1.80648 43.5377C0.707907 44.6325 0.101934 46.0906 0.100102 47.6434C0.0982692 49.1988 0.702165 50.661 1.80098 51.761C2.89979 52.8598 4.35999 53.4648 5.9128 53.4648C5.9139 53.4648 5.915 53.4648 5.91598 53.4648C7.4689 53.4639 8.92886 52.8583 10.0267 51.7599L26.9743 34.8117C27.4513 34.3346 27.4513 33.561 26.9743 33.0838C26.4971 32.6069 25.7236 32.6069 25.2465 33.0838Z" fill="#0E4C6B"/>
<path d="M5.89542 46.1628C5.49299 46.1631 5.11499 46.3203 4.83595 46.6008C4.24867 47.1844 4.24573 48.1381 4.82935 48.7264C4.83082 48.728 4.83228 48.7293 4.83375 48.7309C5.12635 49.0228 5.51046 49.1689 5.89518 49.1689C6.28075 49.1689 6.66694 49.022 6.96174 48.7278C7.54645 48.1403 7.54474 47.1866 6.96039 46.6041C6.67634 46.3195 6.29859 46.1628 5.8964 46.1628C5.89615 46.1628 5.89579 46.1628 5.89542 46.1628Z" fill="#0E4C6B"/>
<path d="M45.8392 39.9694C45.7126 39.8429 45.5599 39.7458 45.3918 39.6847L41.8882 38.4144L29.2327 25.7586L31.2782 23.7132C31.7553 23.2361 31.7554 22.4625 31.2782 21.9853C30.9161 21.6234 30.3833 21.5359 29.9388 21.7234L10.7967 2.58341C9.639 1.42192 8.09719 0.781252 6.45532 0.779297C6.45287 0.779297 6.45067 0.779297 6.44823 0.779297C4.80636 0.779297 3.26309 1.41777 2.10184 2.57767C0.939131 3.74038 0.299317 5.28561 0.300294 6.92882C0.301149 8.57069 0.941453 10.1145 2.10294 11.2753L21.2453 30.4169C21.0579 30.8612 21.1451 31.394 21.5073 31.7561C21.9845 32.2331 22.7581 32.2333 23.235 31.7561L25.2801 29.7111L37.9357 42.3666L39.2062 45.8703C39.2672 46.0384 39.3643 46.1912 39.4909 46.3177L46.592 53.4187C46.8306 53.6572 47.1432 53.7765 47.4559 53.7765C47.7685 53.7765 48.0813 53.6572 48.3197 53.4187L52.9402 48.7982C53.1692 48.5691 53.298 48.2584 53.298 47.9344C53.298 47.6104 53.1692 47.2997 52.9402 47.0705L45.8392 39.9694ZM26.6408 24.8947C26.6382 24.8973 26.6356 24.9001 26.633 24.9026L22.9098 28.6258L3.83045 9.54733C3.13016 8.84741 2.74422 7.91707 2.74373 6.9276C2.74324 5.93752 3.12882 5.00632 3.82911 4.30603C4.52854 3.60733 5.45852 3.22286 6.44823 3.22286C6.4497 3.22286 6.45116 3.22286 6.45251 3.22286C7.44124 3.22396 8.36926 3.60953 9.06735 4.30982L28.1476 23.3881L26.6488 24.8869C26.6462 24.8894 26.6435 24.892 26.6408 24.8947ZM47.4559 50.827L41.4108 44.782L40.1403 41.2783C40.0794 41.1102 39.9822 40.9574 39.8557 40.8309L27.0079 27.9833L27.5049 27.4865L40.3525 40.3342C40.4791 40.4606 40.6318 40.5577 40.7999 40.6188L44.3035 41.8892L50.3485 47.9342L47.4559 50.827Z" fill="#0E4C6B"/>
<path d="M7.30578 6.05645C6.8287 5.57949 6.05511 5.57949 5.57803 6.05645C5.10094 6.53353 5.10094 7.30712 5.57803 7.78433L22.4318 24.6379C22.6702 24.8764 22.983 24.9958 23.2956 24.9958C23.6083 24.9958 23.921 24.8764 24.1595 24.6379C24.6366 24.1609 24.6366 23.3873 24.1595 22.9101L7.30578 6.05645Z" fill="#0E4C6B"/>
</g>
<defs>
<clipPath id="clip0_154_3828">
<rect width="54" height="54" fill="white" transform="translate(0.100098)"/>
</clipPath>
</defs>
</svg>
