<svg width="64" height="64" viewBox="0 0 64 64" fill="none" xmlns="http://www.w3.org/2000/svg">
<path d="M31.9999 52.3637C43.2286 52.3637 52.3635 43.2286 52.3635 32.0001C52.3635 20.7716 43.2286 11.6365 31.9999 11.6365C20.7712 11.6365 11.6362 20.7716 11.6362 32.0001C11.6362 43.2286 20.7714 52.3637 31.9999 52.3637ZM31.9999 15.4998C40.0202 15.4998 47.9995 23.9797 47.9995 32.0001C47.9995 40.0205 40.0202 47.9998 31.9999 47.9998C23.9795 47.9998 15.9995 40.0205 15.9995 32.0001C15.9995 23.9797 23.9795 15.4998 31.9999 15.4998Z" fill="#0E4D6C"/>
<path d="M26.182 34.909C26.9481 34.909 27.6967 34.5987 28.2395 34.0576C28.7806 33.5146 29.0911 32.766 29.0911 31.9999C29.0911 31.2339 28.7806 30.4852 28.2395 29.9422C27.6967 29.4011 26.9481 29.0908 26.182 29.0908C25.416 29.0908 24.6672 29.4011 24.1243 29.9422C23.5833 30.4852 23.2729 31.2339 23.2729 31.9999C23.2729 32.766 23.5833 33.5165 24.1243 34.0576C24.6672 34.5987 25.416 34.909 26.182 34.909Z" fill="#0E4D6C"/>
<path d="M37.8183 34.909C38.5843 34.909 39.3329 34.5987 39.8758 34.0576C40.4169 33.5146 40.7274 32.766 40.7274 31.9999C40.7274 31.2339 40.4169 30.4852 39.8758 29.9422C39.3329 29.4011 38.5843 29.0908 37.8183 29.0908C37.0522 29.0908 36.3017 29.4011 35.7606 29.9422C35.2195 30.4852 34.9092 31.2339 34.9092 31.9999C34.9092 32.766 35.2195 33.5165 35.7606 34.0576C36.3017 34.5987 37.0522 34.909 37.8183 34.909Z" fill="#0E4D6C"/>
<path d="M63.1478 0.851976C62.6023 0.306424 61.8624 0 61.0907 0L2.9089 0.00329697C1.3023 0.00329697 0 1.30579 0 2.91239V61.0909C0 62.6975 1.3025 64 2.90909 64H61.0909C62.6975 64 64 62.6975 64 61.0909V2.90909C64 2.13741 63.6936 1.39753 63.1478 0.851976ZM60.5 60.5H4V4H60.5V60.5Z" fill="#0E4D6C"/>
</svg>
