<svg width="55" height="54" viewBox="0 0 55 54" fill="none" xmlns="http://www.w3.org/2000/svg">
<g clip-path="url(#clip0_154_3818)">
<path d="M44.6262 19.8284C42.9672 16.2375 40.6577 12.7006 37.7613 9.3157C32.8414 3.56616 27.991 0.284987 27.7869 0.148179C27.4922 -0.0493931 27.1072 -0.0493931 26.8125 0.148179C26.6085 0.284987 21.7579 3.56616 16.8381 9.3157C13.9417 12.7004 11.632 16.2375 9.9732 19.8284C7.8882 24.3419 6.83105 28.9522 6.83105 33.5314C6.83105 44.8178 16.0132 54.0001 27.2997 54.0001C38.5863 54.0001 47.7684 44.8178 47.7684 33.5314C47.7684 28.9522 46.7112 24.3419 44.6262 19.8284ZM27.2997 52.2506C16.9779 52.2506 8.58051 43.8532 8.58051 33.5314C8.58051 29.2158 9.57957 24.8607 11.5499 20.5871C13.1363 17.1464 15.3524 13.7489 18.1365 10.4894C22.021 5.94157 25.9529 2.92387 27.3 1.94592C28.6426 2.91967 32.5508 5.91743 36.4322 10.4532C39.2241 13.7161 41.4466 17.1171 43.0381 20.5623C45.0159 24.8439 46.019 29.2074 46.019 33.5314C46.019 43.8532 37.6216 52.2506 27.2997 52.2506Z" fill="#0E4C6B"/>
<path d="M42.9236 36.4137C42.4538 36.3 41.9814 36.5885 41.8677 37.058C40.8653 41.1978 38.1257 44.7316 34.351 46.7532C33.9252 46.9812 33.7649 47.5114 33.993 47.9373C34.1507 48.2316 34.4526 48.3991 34.7648 48.3991C34.9041 48.3991 35.0456 48.3658 35.177 48.2953C39.3903 46.0388 42.4487 42.0929 43.5679 37.4695C43.6816 37.0001 43.3932 36.5273 42.9236 36.4137Z" fill="#0E4C6B"/>
<path d="M43.9649 31.6009C43.9292 31.1192 43.5109 30.7582 43.028 30.7931C42.5462 30.8288 42.1846 31.2482 42.2202 31.73C42.2645 32.328 42.2869 32.934 42.2869 33.5312C42.2869 34.0144 42.6784 34.406 43.1616 34.406C43.6448 34.406 44.0364 34.0144 44.0364 33.5312C44.0364 32.8911 44.0123 32.2415 43.9649 31.6009Z" fill="#0E4C6B"/>
<path d="M23.5676 25.1924C23.0844 25.1924 22.6929 25.5839 22.6929 26.0671V30.7907H16.978V26.0671C16.978 25.5839 16.5864 25.1924 16.1032 25.1924C15.62 25.1924 15.2285 25.5839 15.2285 26.0671V37.2637C15.2285 37.7469 15.62 38.1384 16.1032 38.1384C16.5864 38.1384 16.978 37.7469 16.978 37.2637V32.5401H22.6929V37.2637C22.6929 37.7469 23.0844 38.1384 23.5676 38.1384C24.0508 38.1384 24.4423 37.7469 24.4423 37.2637V26.0671C24.4423 25.5839 24.0507 25.1924 23.5676 25.1924Z" fill="#0E4C6B"/>
<path d="M39.371 33.5315V29.7993C39.371 27.2591 37.3044 25.1924 34.7641 25.1924C32.2239 25.1924 30.1572 27.2591 30.1572 29.7993V33.5315C30.1572 36.0717 32.2239 38.1384 34.7641 38.1384C37.3044 38.1384 39.371 36.0717 39.371 33.5315ZM31.9067 33.5315V29.7993C31.9067 28.2236 33.1885 26.9418 34.7641 26.9418C36.3398 26.9418 37.6216 28.2236 37.6216 29.7993V33.5315C37.6216 35.1072 36.3398 36.3889 34.7641 36.3889C33.1885 36.3889 31.9067 35.1072 31.9067 33.5315Z" fill="#0E4C6B"/>
<path d="M27.7665 40.9375H28.233C29.487 40.9375 30.5073 39.9172 30.5073 38.6632C30.5073 37.4092 29.487 36.3889 28.233 36.3889H27.3C26.3031 36.3889 25.4922 37.1998 25.4922 38.1967C25.4922 38.6799 25.8837 39.0714 26.3669 39.0714C26.8501 39.0714 27.2416 38.6799 27.2416 38.1967C27.2416 38.1646 27.2679 38.1384 27.3 38.1384H28.233C28.5224 38.1384 28.7578 38.3739 28.7578 38.6632C28.7578 38.9526 28.5224 39.1881 28.233 39.1881H27.7665C26.5125 39.1881 25.4922 40.2083 25.4922 41.4624V42.8619C25.4922 43.3451 25.8837 43.7366 26.3669 43.7366H29.6326C30.1158 43.7366 30.5073 43.3451 30.5073 42.8619C30.5073 42.3787 30.1158 41.9872 29.6326 41.9872H27.2416V41.4624C27.2416 41.1729 27.477 40.9375 27.7665 40.9375Z" fill="#0E4C6B"/>
</g>
<defs>
<clipPath id="clip0_154_3818">
<rect width="54" height="54" fill="white" transform="translate(0.299805)"/>
</clipPath>
</defs>
</svg>
