<svg width="49" height="48" viewBox="0 0 49 48" fill="none" xmlns="http://www.w3.org/2000/svg">
<g clip-path="url(#clip0_160_1514)">
<path d="M45.624 21.1294C45.6223 21.1294 45.6206 21.1296 45.6188 21.1296C44.6882 19.5504 42.9752 18.1014 40.6104 16.8938C41.9128 12.8728 41.601 9.6428 39.7101 7.75191C38.1476 6.18938 35.6767 5.69538 32.5643 6.32316C29.8173 6.87734 26.6814 8.27967 23.4693 10.3838C22.0478 9.45314 20.6397 8.6571 19.2704 8.01275C19.2819 7.90844 19.2883 7.80265 19.2883 7.6953C19.2883 6.10949 17.9982 4.81934 16.4122 4.81934C15.3568 4.81934 14.4329 5.39124 13.9326 6.24107C11.0267 5.74434 8.71712 6.26193 7.22704 7.75191C5.33594 9.64301 5.02446 12.8728 6.32783 16.8931C2.56345 18.8146 0.5 21.3188 0.5 23.9936C0.5 26.6694 2.56314 29.1737 6.32678 31.0941C5.02446 35.1147 5.33625 38.3443 7.22693 40.2351C8.35113 41.3593 9.93945 41.9301 11.898 41.9301C12.5598 41.9301 13.2644 41.864 14.0072 41.733C14.504 42.5969 15.4357 43.1805 16.5018 43.1805C18.0876 43.1805 19.3778 41.8903 19.3778 40.3044C19.3778 40.1797 19.3689 40.057 19.3535 39.9363C20.7051 39.2943 22.0849 38.5113 23.4685 37.6046C26.6809 39.7088 29.8165 41.111 32.5633 41.6648C33.4398 41.8416 34.2652 41.9293 35.0341 41.9293C36.9954 41.9293 38.5873 41.3578 39.7101 40.235C41.6008 38.3443 41.9126 35.1151 40.6104 31.0945C42.9637 29.8934 44.6722 28.4521 45.6054 26.881C45.6117 26.881 45.6177 26.8815 45.624 26.8815C47.2098 26.8815 48.5001 25.5913 48.5001 24.0055C48.5 22.4196 47.2098 21.1294 45.624 21.1294ZM23.4687 35.7096C22.933 35.3382 22.3985 34.9485 21.8676 34.5426C22.3997 34.5591 22.9337 34.5698 23.4686 34.5698C24.0039 34.5698 24.5382 34.5591 25.0705 34.5425C24.5392 34.9487 24.0045 35.3383 23.4687 35.7096ZM23.4694 12.2785C24.0047 12.6495 24.5395 13.0394 25.0716 13.4462C24.0061 13.4135 22.9322 13.4136 21.8665 13.4463C22.3992 13.039 22.9343 12.649 23.4694 12.2785ZM19.798 32.8599C18.8807 32.0704 17.9747 31.2318 17.103 30.3602C15.069 28.3262 13.2711 26.1869 11.753 23.9947C13.2726 21.8003 15.0704 19.6608 17.103 17.6281C17.9741 16.7569 18.8802 15.9184 19.798 15.1284C22.204 14.9488 24.7354 14.9489 27.1401 15.1284C28.058 15.9185 28.9641 16.7572 29.8351 17.6281C31.8669 19.6599 33.6647 21.7993 35.185 23.9937C33.6654 26.188 31.8675 28.3276 29.8351 30.3602C28.9638 31.2315 28.0578 32.07 27.1401 32.8599C24.7358 33.0394 22.2038 33.0396 19.798 32.8599ZM15.9911 16.5162C14.0504 18.4569 12.3156 20.4946 10.8216 22.5862C9.76468 20.9116 8.91758 19.2769 8.29357 17.7076C10.7743 16.642 13.8345 15.8473 17.1428 15.4031C16.7542 15.7683 16.3688 16.1385 15.9911 16.5162ZM10.8213 25.4027C12.3143 27.4927 14.0492 29.5303 15.9911 31.4721C16.3689 31.8499 16.7543 32.22 17.1429 32.5851C13.8346 32.1408 10.7743 31.346 8.29347 30.28C8.91779 28.7093 9.76479 27.075 10.8213 25.4027ZM30.9471 31.4722C32.8878 29.5315 34.6226 27.4937 36.1168 25.402C37.1721 27.0738 38.0192 28.7082 38.6444 30.2798C36.1662 31.3449 33.1063 32.1397 29.796 32.5847C30.1843 32.2197 30.5696 31.8497 30.9471 31.4722ZM36.1167 22.5855C34.6218 20.4935 32.8872 18.4561 30.9471 16.5161C30.5696 16.1386 30.1843 15.7686 29.7959 15.4035C33.1059 15.8485 36.1657 16.6432 38.6439 17.7083C38.0212 19.2764 37.1743 20.9105 36.1167 22.5855ZM38.5981 8.86405C40.025 10.2909 40.2218 12.8866 39.1738 16.2256C36.0008 14.872 32.0864 13.9697 27.7736 13.6012C26.8224 12.7994 25.8532 12.0444 24.8789 11.3477C30.8648 7.5762 36.2986 6.5646 38.5981 8.86405ZM16.4121 6.39204C17.1308 6.39204 17.7156 6.97673 17.7156 7.6954C17.7156 8.41408 17.1309 8.99887 16.4121 8.99887C15.6935 8.99887 15.1088 8.41418 15.1088 7.6954C15.1088 6.97673 15.6935 6.39204 16.4121 6.39204ZM8.33897 8.86405C9.67305 7.52997 11.7877 7.4896 13.5382 7.76984C13.5779 9.32136 14.8514 10.5715 16.4122 10.5715C17.329 10.5715 18.1462 10.1398 18.6732 9.46981C19.778 9.99359 20.912 10.6236 22.0599 11.3475C21.087 12.0427 20.1176 12.7978 19.1646 13.6012C14.8551 13.9685 10.9408 14.8704 7.76455 16.2246C6.71584 12.8866 6.91199 10.2909 8.33897 8.86405ZM2.07259 23.9936C2.07259 21.9756 3.76869 20.0016 6.86922 18.3828C7.59712 20.192 8.59907 22.0742 9.85684 23.9946C8.59949 25.9123 7.59785 27.7939 6.86932 29.6051C3.76869 27.987 2.07259 26.0127 2.07259 23.9936ZM16.5018 41.6079C15.7831 41.6079 15.1984 41.0232 15.1984 40.3044C15.1984 39.5857 15.7831 39.001 16.5018 39.001C17.2205 39.001 17.8053 39.5857 17.8053 40.3044C17.8051 41.0232 17.2205 41.6079 16.5018 41.6079ZM16.5018 37.4286C14.9501 37.4286 13.6822 38.6641 13.6283 40.2028C11.8489 40.5012 9.69318 40.4773 8.33886 39.1232C6.9122 37.6965 6.71542 35.1011 7.76329 31.7628C10.9396 33.1176 14.8545 34.0199 19.1645 34.3872C20.1135 35.1871 21.083 35.9421 22.0599 36.6408C20.9384 37.3484 19.8243 37.969 18.7317 38.4908C18.204 37.8431 17.4005 37.4286 16.5018 37.4286ZM38.5981 39.1232C36.2978 41.4235 30.8638 40.4122 24.8778 36.6408C25.8543 35.9428 26.824 35.1877 27.7737 34.3871C32.0866 34.0185 36.0009 33.1163 39.1736 31.7629C40.2211 35.101 40.0247 37.6965 38.5981 39.1232ZM40.0688 29.6049C39.3392 27.7926 38.3374 25.9107 37.0813 23.9935C38.3399 22.0726 39.3412 20.191 40.0678 18.3832C41.9041 19.3428 43.26 20.4367 44.0545 21.5974C43.2686 22.1113 42.748 22.9985 42.748 24.0055C42.748 25.0079 43.2638 25.8917 44.0436 26.4067C43.2481 27.5618 41.8961 28.6502 40.0688 29.6049ZM45.624 25.3089C44.9054 25.3089 44.3207 24.7242 44.3207 24.0055C44.3207 23.2868 44.9054 22.702 45.624 22.702C46.3427 22.702 46.9275 23.2867 46.9275 24.0055C46.9274 24.7242 46.3427 25.3089 45.624 25.3089Z" fill="#0E4C6B"/>
</g>
<defs>
<clipPath id="clip0_160_1514">
<rect width="48" height="48" fill="white" transform="translate(0.5)"/>
</clipPath>
</defs>
</svg>
