<svg width="49" height="48" viewBox="0 0 49 48" fill="none" xmlns="http://www.w3.org/2000/svg">
<path d="M26.2754 0.95533C25.8305 0.348038 25.1833 0 24.4997 0C23.8178 0 23.1697 0.348038 22.724 0.95533C18.0521 7.32301 7.18652 22.9661 7.18652 30.6869C7.18652 40.2331 14.9535 48 24.4997 48C34.0459 48 41.8128 40.2331 41.8128 30.6869C41.8137 22.9661 30.9481 7.32301 26.2754 0.95533ZM24.4997 46.2243C15.9328 46.2243 8.96223 39.2538 8.96223 30.6869C8.96223 24.8084 16.8108 12.0162 24.1561 2.00566C24.2635 1.85916 24.3887 1.77482 24.4997 1.77482C24.6106 1.77482 24.7358 1.85916 24.8433 2.00566C32.1885 12.0171 40.0371 24.8084 40.0371 30.6869C40.038 39.2538 33.0665 46.2243 24.4997 46.2243ZM36.9003 26.3639L36.2016 26.7155C36.0124 26.8105 35.9148 27.0511 35.9743 27.2535C36.2859 28.3136 36.4439 29.4137 36.4439 30.535C36.4439 36.9409 31.2322 42.1526 24.8264 42.1526C21.6523 42.1526 18.6878 40.8963 16.4797 38.6154C16.3323 38.4645 16.3358 38.2221 16.4886 38.0747C16.6404 37.9282 16.8828 37.9317 17.0301 38.0836C19.0926 40.2144 21.8618 41.3882 24.8264 41.3882C30.8105 41.3882 35.6777 36.5192 35.6777 30.5359C35.6777 29.5362 35.5428 28.5542 35.2764 27.6051C35.2187 27.4009 35.0127 27.3157 34.8236 27.4107L34.1746 27.7383C33.9855 27.8342 33.8425 27.7392 33.855 27.5288L34.0263 24.4799C34.0387 24.2695 34.1915 24.1922 34.369 24.3085L36.9225 25.9812C37.101 26.0967 37.0912 26.268 36.9003 26.3639ZM15.4151 31.8721L14.6871 34.8367C14.6356 35.0418 14.4714 35.0897 14.3186 34.9432L12.1168 32.8293C11.9649 32.6837 12.0058 32.5158 12.2082 32.4572L12.9514 32.2424C13.1538 32.1829 13.2941 31.9654 13.2728 31.755C13.2301 31.351 13.2097 30.9435 13.2097 30.5359C13.2097 24.1301 18.4214 18.9184 24.8273 18.9184C27.4269 18.9184 29.8845 19.7574 31.9354 21.3458C32.1015 21.4754 32.1334 21.716 32.0038 21.8838C31.8742 22.0507 31.6336 22.0818 31.4666 21.9513C29.5506 20.4686 27.2547 19.6837 24.8273 19.6837C18.844 19.6837 13.9759 24.5527 13.9733 30.535C13.9733 30.8698 13.9901 31.2045 14.0212 31.5374C14.0407 31.7487 14.2272 31.8704 14.4305 31.8118L15.139 31.6067C15.3432 31.5481 15.4666 31.6671 15.4151 31.8721Z" fill="#0E4C6B"/>
</svg>
