<svg width="48" height="39" viewBox="0 0 48 39" fill="none" xmlns="http://www.w3.org/2000/svg">
<path d="M41.9103 4.64575C38.2695 1.15467 34.6296 -0.381836 31.1019 0.0801719C26.7982 0.64304 24.0229 4.00317 23.1136 5.27695C19.0718 4.32446 18.2503 0.881365 18.2145 0.721126C18.1185 0.28352 17.6882 0.000459016 17.249 0.0996931C16.8098 0.193233 16.53 0.625959 16.6243 1.06601C16.6674 1.26773 17.7492 6.0212 23.347 6.98345L23.8912 7.07536L24.1791 6.60603C24.206 6.56211 26.8861 2.26495 31.3248 1.69151C34.34 1.30026 37.522 2.69117 40.7846 5.81948C47.3307 12.0964 47.2152 20.1669 44.9247 25.6272C44.7344 26.0811 44.5262 26.522 44.3065 26.9523C44.191 26.8888 44.0642 26.8433 43.9226 26.8433C43.4736 26.8433 43.1092 27.2077 43.1092 27.6567C43.1092 27.9527 43.276 28.2008 43.5127 28.3432C43.1353 28.9491 42.7286 29.5283 42.2918 30.0773C42.2804 29.6381 41.9249 29.2835 41.4824 29.2835C41.0335 29.2835 40.6691 29.6479 40.6691 30.0968C40.6691 30.5458 41.0335 30.9102 41.4824 30.9102C41.5256 30.9102 41.5622 30.8923 41.6028 30.8858C41.0522 31.5 40.4649 32.0693 39.8443 32.5932C39.8467 32.5736 39.8565 32.5574 39.8565 32.537C39.8565 32.088 39.4921 31.7236 39.0431 31.7236C38.5941 31.7236 38.2297 32.088 38.2297 32.537C38.2297 32.9413 38.5298 33.2618 38.917 33.3252C38.3655 33.7303 37.797 34.1085 37.2048 34.442C37.056 34.2744 36.8445 34.1638 36.6029 34.1638C36.1539 34.1638 35.7895 34.5282 35.7895 34.9772C35.7895 35.0317 35.8098 35.0789 35.8204 35.1301C33.595 36.1233 31.1564 36.6333 28.6292 36.5479L28.5592 36.5462L28.4917 36.556C28.4324 36.5658 22.4954 37.3304 15.6019 33.2065L14.9861 32.8494L14.5428 33.4057C14.5201 33.4342 13.9718 34.1085 12.9893 34.1638C11.9961 34.2321 10.8142 33.6042 9.59171 32.3825C8.78076 31.5715 7.6477 31.3308 6.63177 31.7488C5.85986 32.0677 4.06714 33.2609 4.06714 37.4361C4.06714 37.8859 4.43154 38.2495 4.88053 38.2495C5.32953 38.2495 5.69393 37.8859 5.69393 37.4361C5.69393 34.8267 6.49919 33.5635 7.2532 33.2512C7.6599 33.0804 8.09344 33.1853 8.43994 33.5318C9.55999 34.6519 10.6646 35.3481 11.7488 35.6352C11.8798 35.7255 12.0295 35.7906 12.2011 35.7906C12.2621 35.7906 12.3158 35.7686 12.3727 35.7564C12.624 35.7857 12.8746 35.8012 13.1235 35.7857C14.1174 35.7182 14.8527 35.2839 15.3042 34.9178C20.3911 37.8111 24.8746 38.2544 27.148 38.2544C27.9313 38.2544 28.4527 38.2015 28.6446 38.1779C36.3125 38.3504 43.2988 33.7083 46.4246 26.2576C49.6148 18.6548 47.8847 10.3737 41.9103 4.64575Z" fill="#0E4C6B"/>
<path d="M5.21003 27.7323C8.39772 25.8347 12.9243 27.7217 14.2216 28.3367C14.2769 28.3708 14.3331 28.4001 14.3965 28.4204C14.5096 28.4766 14.586 28.5156 14.5917 28.5189L15.1709 28.8328L15.5979 28.3326C17.9771 25.5492 21.6211 26.6977 21.7715 26.7457L22.7159 27.0613L22.8363 26.073C23.1104 23.8264 26.2794 22.6144 26.3119 22.6022L26.8422 22.4038V16.8613L26.3892 16.6376C24.1312 15.5208 23.9962 12.556 23.9945 12.5292L23.9742 11.8736L23.33 11.754C13.8125 9.98893 12.4444 3.33374 12.3907 3.05068C12.3085 2.61145 11.888 2.31375 11.4455 2.39915C11.0038 2.47968 10.7102 2.90265 10.7907 3.34432C10.8493 3.66561 12.3118 11.0862 22.4361 13.2336C22.6045 14.3447 23.1901 16.5872 25.2155 17.8431V21.3049C24.2215 21.7742 22.1311 22.9715 21.4275 24.9928C20 24.7309 17.0848 24.5601 14.7991 26.8058C13.1284 26.025 8.17811 24.0761 4.38281 26.33C1.47493 28.0585 0.000244141 31.7952 0.000244141 37.4361C0.000244141 37.8859 0.364645 38.2495 0.813638 38.2495C1.26263 38.2495 1.62703 37.8859 1.62703 37.4361C1.62703 32.4126 2.83248 29.1476 5.21003 27.7323Z" fill="#0E4C6B"/>
<path d="M36.6029 26.0299C37.0522 26.0299 37.4163 25.6657 37.4163 25.2165C37.4163 24.7672 37.0522 24.4031 36.6029 24.4031C36.1537 24.4031 35.7896 24.7672 35.7896 25.2165C35.7896 25.6657 36.1537 26.0299 36.6029 26.0299Z" fill="#0E4C6B"/>
<path d="M41.4833 26.0299C41.9325 26.0299 42.2967 25.6657 42.2967 25.2165C42.2967 24.7672 41.9325 24.4031 41.4833 24.4031C41.0341 24.4031 40.6699 24.7672 40.6699 25.2165C40.6699 25.6657 41.0341 26.0299 41.4833 26.0299Z" fill="#0E4C6B"/>
<path d="M43.9235 23.5897C44.3727 23.5897 44.7369 23.2255 44.7369 22.7763C44.7369 22.3271 44.3727 21.9629 43.9235 21.9629C43.4743 21.9629 43.1101 22.3271 43.1101 22.7763C43.1101 23.2255 43.4743 23.5897 43.9235 23.5897Z" fill="#0E4C6B"/>
<path d="M19.5216 28.47C19.9709 28.47 20.335 28.1059 20.335 27.6567C20.335 27.2074 19.9709 26.8433 19.5216 26.8433C19.0724 26.8433 18.7083 27.2074 18.7083 27.6567C18.7083 28.1059 19.0724 28.47 19.5216 28.47Z" fill="#0E4C6B"/>
<path d="M24.402 28.47C24.8512 28.47 25.2154 28.1059 25.2154 27.6567C25.2154 27.2074 24.8512 26.8433 24.402 26.8433C23.9528 26.8433 23.5886 27.2074 23.5886 27.6567C23.5886 28.1059 23.9528 28.47 24.402 28.47Z" fill="#0E4C6B"/>
<path d="M29.2824 28.47C29.7316 28.47 30.0958 28.1059 30.0958 27.6567C30.0958 27.2074 29.7316 26.8433 29.2824 26.8433C28.8332 26.8433 28.469 27.2074 28.469 27.6567C28.469 28.1059 28.8332 28.47 29.2824 28.47Z" fill="#0E4C6B"/>
<path d="M34.1628 28.47C34.612 28.47 34.9762 28.1059 34.9762 27.6567C34.9762 27.2074 34.612 26.8433 34.1628 26.8433C33.7135 26.8433 33.3494 27.2074 33.3494 27.6567C33.3494 28.1059 33.7135 28.47 34.1628 28.47Z" fill="#0E4C6B"/>
<path d="M39.0431 28.47C39.4924 28.47 39.8565 28.1059 39.8565 27.6567C39.8565 27.2074 39.4924 26.8433 39.0431 26.8433C38.5939 26.8433 38.2297 27.2074 38.2297 27.6567C38.2297 28.1059 38.5939 28.47 39.0431 28.47Z" fill="#0E4C6B"/>
<path d="M12.2011 30.9102C12.6503 30.9102 13.0145 30.5461 13.0145 30.0968C13.0145 29.6476 12.6503 29.2834 12.2011 29.2834C11.7519 29.2834 11.3877 29.6476 11.3877 30.0968C11.3877 30.5461 11.7519 30.9102 12.2011 30.9102Z" fill="#0E4C6B"/>
<path d="M17.0815 30.9102C17.5307 30.9102 17.8949 30.5461 17.8949 30.0968C17.8949 29.6476 17.5307 29.2834 17.0815 29.2834C16.6322 29.2834 16.2681 29.6476 16.2681 30.0968C16.2681 30.5461 16.6322 30.9102 17.0815 30.9102Z" fill="#0E4C6B"/>
<path d="M19.5216 33.3504C19.9709 33.3504 20.335 32.9863 20.335 32.537C20.335 32.0878 19.9709 31.7236 19.5216 31.7236C19.0724 31.7236 18.7083 32.0878 18.7083 32.537C18.7083 32.9863 19.0724 33.3504 19.5216 33.3504Z" fill="#0E4C6B"/>
<path d="M21.9618 30.9102C22.4111 30.9102 22.7752 30.5461 22.7752 30.0968C22.7752 29.6476 22.4111 29.2834 21.9618 29.2834C21.5126 29.2834 21.1484 29.6476 21.1484 30.0968C21.1484 30.5461 21.5126 30.9102 21.9618 30.9102Z" fill="#0E4C6B"/>
<path d="M26.8422 30.9102C27.2914 30.9102 27.6556 30.5461 27.6556 30.0968C27.6556 29.6476 27.2914 29.2834 26.8422 29.2834C26.393 29.2834 26.0288 29.6476 26.0288 30.0968C26.0288 30.5461 26.393 30.9102 26.8422 30.9102Z" fill="#0E4C6B"/>
<path d="M21.9618 35.7906C22.4111 35.7906 22.7752 35.4264 22.7752 34.9772C22.7752 34.528 22.4111 34.1638 21.9618 34.1638C21.5126 34.1638 21.1484 34.528 21.1484 34.9772C21.1484 35.4264 21.5126 35.7906 21.9618 35.7906Z" fill="#0E4C6B"/>
<path d="M26.8422 35.7906C27.2914 35.7906 27.6556 35.4264 27.6556 34.9772C27.6556 34.528 27.2914 34.1638 26.8422 34.1638C26.393 34.1638 26.0288 34.528 26.0288 34.9772C26.0288 35.4264 26.393 35.7906 26.8422 35.7906Z" fill="#0E4C6B"/>
<path d="M24.402 33.3504C24.8512 33.3504 25.2154 32.9863 25.2154 32.537C25.2154 32.0878 24.8512 31.7236 24.402 31.7236C23.9528 31.7236 23.5886 32.0878 23.5886 32.537C23.5886 32.9863 23.9528 33.3504 24.402 33.3504Z" fill="#0E4C6B"/>
<path d="M29.2824 33.3504C29.7316 33.3504 30.0958 32.9863 30.0958 32.537C30.0958 32.0878 29.7316 31.7236 29.2824 31.7236C28.8332 31.7236 28.469 32.0878 28.469 32.537C28.469 32.9863 28.8332 33.3504 29.2824 33.3504Z" fill="#0E4C6B"/>
<path d="M31.7226 30.9102C32.1718 30.9102 32.536 30.5461 32.536 30.0968C32.536 29.6476 32.1718 29.2834 31.7226 29.2834C31.2733 29.2834 30.9092 29.6476 30.9092 30.0968C30.9092 30.5461 31.2733 30.9102 31.7226 30.9102Z" fill="#0E4C6B"/>
<path d="M36.6029 30.9102C37.0522 30.9102 37.4163 30.5461 37.4163 30.0968C37.4163 29.6476 37.0522 29.2834 36.6029 29.2834C36.1537 29.2834 35.7896 29.6476 35.7896 30.0968C35.7896 30.5461 36.1537 30.9102 36.6029 30.9102Z" fill="#0E4C6B"/>
<path d="M31.7226 35.7906C32.1718 35.7906 32.536 35.4264 32.536 34.9772C32.536 34.528 32.1718 34.1638 31.7226 34.1638C31.2733 34.1638 30.9092 34.528 30.9092 34.9772C30.9092 35.4264 31.2733 35.7906 31.7226 35.7906Z" fill="#0E4C6B"/>
<path d="M34.1628 33.3504C34.612 33.3504 34.9762 32.9863 34.9762 32.537C34.9762 32.0878 34.612 31.7236 34.1628 31.7236C33.7135 31.7236 33.3494 32.0878 33.3494 32.537C33.3494 32.9863 33.7135 33.3504 34.1628 33.3504Z" fill="#0E4C6B"/>
</svg>
