<svg width="49" height="48" viewBox="0 0 49 48" fill="none" xmlns="http://www.w3.org/2000/svg">
<g clip-path="url(#clip0_160_1228)">
<path d="M9.35185 15.0224C8.97381 12.3841 9.50209 10.5607 11.1181 8.92475C12.3201 7.70805 14.0246 6.98172 15.6774 6.98172H18.2663C19.0633 6.98172 20.2267 5.8963 20.5906 4.44353L20.6633 4.15427C20.7868 3.66288 21.2854 3.36443 21.7765 3.48817C22.2679 3.61161 22.5662 4.11013 22.4426 4.60142L22.3702 4.88997C21.8187 7.09149 20.016 8.8164 18.2663 8.8164H15.6774C14.522 8.8164 13.2751 9.35202 12.4233 10.2142C11.2093 11.4432 10.8689 12.6758 11.168 14.7622L12.3498 23.0058C12.4218 23.5073 12.0735 23.9721 11.572 24.0442C11.5279 24.0505 11.4841 24.0535 11.4406 24.0535C10.9917 24.0535 10.5993 23.7237 10.5338 23.2663L9.35185 15.0224ZM17.037 18.2335C16.9913 17.3914 16.9647 16.5159 16.9695 15.6192C16.9721 15.1126 16.5637 14.6997 16.057 14.697C15.55 14.697 15.1375 15.1027 15.1348 15.6093C15.1218 18.0322 15.3366 20.3681 15.5253 22.1325C15.5756 22.6031 15.9734 22.9524 16.4363 22.9524C16.4689 22.9524 16.5018 22.9506 16.5349 22.9471C17.0387 22.8933 17.4035 22.4412 17.3496 21.9374C17.2995 21.4687 17.2492 20.9765 17.2024 20.4647C17.9979 20.7863 18.9543 20.9659 19.9714 20.9659C21.8832 20.9659 23.5794 20.332 24.3984 19.3116C24.7155 18.9165 24.6523 18.3391 24.2571 18.022C23.8621 17.705 23.2846 17.7681 22.9675 18.1634C22.5934 18.6295 21.4962 19.1313 19.9714 19.1313C18.523 19.1312 17.4605 18.6785 17.037 18.2335ZM30.857 20.9659C32.7688 20.9659 34.4651 20.3319 35.2839 19.3116C35.4023 19.164 35.4722 18.9833 35.484 18.7945C35.4974 18.5784 35.5123 18.3597 35.5273 18.1393C35.5833 17.3138 35.6412 16.4602 35.6367 15.6095C35.634 15.1045 35.2238 14.6971 34.7195 14.6971C34.7179 14.6971 34.7161 14.6971 34.7145 14.6971C34.2079 14.6997 33.7994 15.1127 33.8021 15.6193C33.8063 16.4029 33.7506 17.2225 33.6968 18.0152C33.6893 18.1248 33.6819 18.234 33.6747 18.3428C33.1914 18.7497 32.1869 19.1313 30.857 19.1313C29.3323 19.1313 28.235 18.6295 27.8609 18.1634C27.5439 17.7682 26.9664 17.7049 26.5713 18.022C26.1762 18.3391 26.1129 18.9165 26.43 19.3116C27.249 20.332 28.9452 20.9659 30.857 20.9659ZM7.10223 23.3894C6.97431 23.8797 7.26806 24.3807 7.75833 24.5085C7.836 24.5287 7.91377 24.5384 7.99052 24.5384C8.39792 24.5384 8.76985 24.2649 8.87749 23.8524C9.38182 21.9187 8.42656 19.5521 6.54937 18.0933C6.44571 18.0139 6.33798 17.9396 6.22708 17.8703L6.45407 16.9311C6.57312 16.4387 6.2704 15.943 5.77789 15.824C5.28558 15.7043 4.78971 16.0076 4.67076 16.5002L4.51094 17.1613C3.86462 16.988 3.21963 16.8873 2.67045 16.8014C2.60012 16.7905 2.5303 16.7795 2.46221 16.7688L3.26611 11.7313C3.33603 11.7424 3.40748 11.7536 3.48046 11.7649C4.44795 11.916 5.7729 12.1231 6.52685 12.7006C6.92895 13.0086 7.50474 12.9324 7.81296 12.5303C8.12109 12.1281 8.04474 11.5523 7.64264 11.2442C6.51788 10.3825 4.92599 10.1338 3.76371 9.95227C3.36487 9.88999 2.98815 9.83118 2.77727 9.76717C2.52367 9.69001 2.24908 9.72661 2.02433 9.86706C1.79958 10.0075 1.64659 10.2386 1.6048 10.5003L0.511534 17.3495C0.43937 17.8021 0.712228 18.2386 1.15082 18.3717C1.48463 18.4732 1.90284 18.5385 2.38719 18.6141C3.35468 18.7652 4.67963 18.9723 5.42849 19.5459C6.69707 20.5317 7.41657 22.184 7.10223 23.3894ZM28.3691 4.88926C28.9207 7.09129 30.7235 8.8163 32.4731 8.8163H35.062C36.2174 8.8163 37.4643 9.35192 38.3161 10.2141C39.5301 11.4431 39.8705 12.6756 39.5715 14.762L38.9822 18.8711C38.9102 19.3726 39.2585 19.8373 39.76 19.9094C39.8042 19.9157 39.8481 19.9188 39.8914 19.9188C40.3403 19.9188 40.7327 19.5889 40.7982 19.1315L41.3876 15.0223C41.7655 12.384 41.2372 10.5606 39.6211 8.92475C38.4191 7.70805 36.7146 6.98172 35.0618 6.98172H32.4729C31.6759 6.98172 30.5125 5.8962 30.1484 4.44313L30.076 4.15457C29.9527 3.66318 29.4541 3.36464 28.963 3.48807C28.4716 3.6114 28.1732 4.10972 28.2965 4.60111L28.3691 4.88926ZM33.3773 32.8946C32.8709 32.9063 32.4698 33.3263 32.4815 33.8329C32.5278 35.8285 32.7385 37.6798 33.1256 39.4927C33.2176 39.9238 33.5982 40.2187 34.0218 40.2187C34.0853 40.2187 34.1497 40.2121 34.2143 40.1983C34.7097 40.0925 35.0256 39.6051 34.9198 39.1097C34.5568 37.41 34.3592 35.67 34.3157 33.7903C34.304 33.2838 33.8822 32.8808 33.3773 32.8946ZM37.0204 36.8174C36.5365 36.6674 36.0226 36.9385 35.8729 37.4226C35.7231 37.9066 35.994 38.4203 36.4781 38.5702C38.6022 39.2275 39.062 39.8586 39.062 39.9795C39.062 40.1368 38.4251 40.9311 35.4828 41.6657C32.7971 42.3362 29.2112 42.7054 25.3859 42.7054C21.5607 42.7054 17.9749 42.3362 15.289 41.6657C12.3467 40.9311 11.7098 40.1368 11.7098 39.9795C11.7098 39.8584 12.1696 39.2275 14.2937 38.5702C14.7777 38.4203 15.0485 37.9066 14.8988 37.4226C14.749 36.9385 14.2351 36.6674 13.7513 36.8174C11.1793 37.6134 9.87525 38.6772 9.87525 39.9794C9.87525 41.4561 11.5473 42.6224 14.8447 43.4456C17.6716 44.1514 21.4152 44.54 25.386 44.54C29.3567 44.54 33.1004 44.1514 35.9273 43.4456C39.2249 42.6224 40.8968 41.4561 40.8968 39.9794C40.8967 38.6773 39.5925 37.6134 37.0204 36.8174ZM11.2511 34.0878C11.3018 34.0807 11.3523 34.0734 11.4027 34.066L44.2113 29.2812C44.7126 29.2081 45.0598 28.7425 44.9867 28.2411C44.9136 27.7397 44.4476 27.394 43.9465 27.4657L41.8399 27.7731L41.8289 27.2501C41.8183 26.7436 41.3998 26.3462 40.8924 26.3522C40.3859 26.3628 39.9839 26.7821 39.9945 27.2887L40.0103 28.0399L34.377 28.8614L34.366 28.3384C34.3555 27.8385 33.9469 27.4404 33.4493 27.4404C33.4428 27.4404 33.4361 27.4405 33.4296 27.4406C32.9232 27.4512 32.5211 27.8705 32.5317 28.3771L32.5476 29.1283L26.9143 29.9498L26.9032 29.4269C26.8926 28.927 26.4841 28.5288 25.9864 28.5288C25.9799 28.5288 25.9734 28.5289 25.9667 28.529C25.4603 28.5396 25.0583 28.959 25.0689 29.4656L25.0847 30.2167L19.4513 31.0383L19.4403 30.5154C19.4297 30.0088 19.0119 29.6091 18.5038 29.6175C17.9973 29.6281 17.5953 30.0475 17.6059 30.554L17.6217 31.305L11.9884 32.1267L11.9774 31.6036C11.9667 31.0969 11.5463 30.6981 11.0409 30.7057C10.5343 30.7163 10.1324 31.1356 10.143 31.6422L10.1584 32.3737C7.51901 32.6419 6.42961 32.1479 5.72367 30.5185C5.12067 29.1267 4.55997 26.3524 5.12362 24.9765C5.2968 24.5538 5.51543 24.4246 5.66485 24.3641C6.13453 24.1741 6.36132 23.6394 6.17133 23.1696C5.98134 22.7001 5.44653 22.4731 4.97695 22.6632C4.28038 22.945 3.74394 23.5044 3.42583 24.2809C2.54304 26.4361 3.45854 29.9054 4.04014 31.2478C5.08907 33.669 6.98053 34.2766 8.99715 34.2766C9.72399 34.2766 10.4677 34.1976 11.1934 34.0961C11.2132 34.0937 11.2323 34.0911 11.2511 34.0878ZM47.3523 25.2912C47.2354 25.0145 47.125 24.7531 47.0364 24.526C46.1282 22.2009 44.4142 20.9834 42.4513 21.2699L7.06023 26.4313C6.55896 26.5045 6.21179 26.9701 6.28487 27.4715C6.35796 27.9728 6.82437 28.3194 7.32504 28.2468L42.7161 23.0854C44.2424 22.8619 45.0508 24.4855 45.3274 25.1934C45.4252 25.4438 45.5404 25.7165 45.6623 26.0051C46.1447 27.1474 46.8738 28.8738 46.6121 29.7567C46.3313 30.7034 45.0089 31.1275 43.6091 31.5766C41.8284 32.1478 39.8101 32.7953 39.4708 34.8613C39.3887 35.3612 39.7274 35.833 40.2273 35.9152C40.2777 35.9234 40.3277 35.9274 40.3772 35.9274C40.8184 35.9274 41.2074 35.6083 41.2813 35.1587C41.4281 34.2643 42.4704 33.8687 44.1695 33.3236C45.8779 32.7755 47.8145 32.1543 48.3711 30.2782C48.8196 28.7651 48.006 26.8389 47.3523 25.2912ZM16.3832 35.3337C16.289 36.6406 16.1152 37.8758 15.8517 39.1098C15.7459 39.6052 16.0619 40.0926 16.5574 40.1984C16.6219 40.2122 16.6863 40.2188 16.7498 40.2188C17.1734 40.2188 17.5541 39.9237 17.646 39.4928C17.9273 38.1752 18.1129 36.8579 18.2131 35.4655C18.2495 34.9602 17.8694 34.521 17.364 34.4846C16.8575 34.4479 16.4196 34.8284 16.3832 35.3337ZM24.4684 36.5119V36.8935C24.4684 37.4001 24.8791 37.8108 25.3858 37.8108C25.8924 37.8108 26.3031 37.4001 26.3031 36.8935V36.5119C26.3031 36.0052 25.8924 35.5945 25.3858 35.5945C24.8791 35.5945 24.4684 36.0052 24.4684 36.5119Z" fill="#0E4C6B"/>
</g>
<defs>
<clipPath id="clip0_160_1228">
<rect width="48" height="48" fill="white" transform="translate(0.5)"/>
</clipPath>
</defs>
</svg>
