<svg width="49" height="48" viewBox="0 0 49 48" fill="none" xmlns="http://www.w3.org/2000/svg">
<g clip-path="url(#clip0_160_1088)">
<path d="M33.2087 48H15.7915C15.5573 48 15.3405 47.876 15.2216 47.6742L14.2599 46.0396C14.1992 45.9407 14.1638 45.8246 14.1628 45.7004C14.1628 45.7001 14.1628 45.6999 14.1628 45.6995C14.1628 45.6992 14.1628 45.6988 14.1628 45.6984C14.1628 45.6979 14.1628 45.6975 14.1628 45.697C14.1628 45.6967 14.1628 45.6966 14.1628 45.6963C14.1628 45.6958 14.1628 45.6951 14.1628 45.6945V6.39484C14.1628 5.84186 14.6003 5.28318 15.0196 4.87459L14.5455 4.39128C14.4243 4.26765 14.3563 4.10157 14.3563 3.92835V2.77728C14.3563 2.41206 14.6522 2.11612 15.0174 2.11612H19.3481L24.519 0.0476397C24.8585 -0.0881612 25.2428 0.0771271 25.3785 0.415902C25.5141 0.754942 25.3492 1.13987 25.0103 1.2754L22.9084 2.11599H33.9829C34.3481 2.11599 34.6441 2.41192 34.6441 2.77715V3.92821C34.6441 4.10144 34.5761 4.26752 34.4548 4.39115L33.9808 4.87446C34.4001 5.28305 34.8375 5.84172 34.8375 6.39471V45.6945C34.8375 45.6951 34.8375 45.6958 34.8375 45.6963C34.8375 45.6966 34.8375 45.6967 34.8375 45.697C34.8375 45.6975 34.8375 45.6979 34.8375 45.6984C34.8375 45.6988 34.8375 45.6992 34.8375 45.6995C34.8375 45.6999 34.8375 45.7001 34.8375 45.7004C34.8364 45.8246 34.8011 45.9407 34.7404 46.0396L33.7787 47.6742C33.6599 47.8761 33.443 48 33.2087 48ZM16.1696 46.6777H32.8306L33.0203 46.3556H15.98L16.1696 46.6777ZM15.485 45.0334H33.5152V6.41203C33.4713 6.25177 33.1414 5.8802 32.7822 5.57594H16.218C15.8591 5.87994 15.5289 6.25177 15.485 6.41203V45.0334ZM16.2627 4.25363H32.7375L33.3217 3.65807V3.4383H19.4907C19.4805 3.43856 19.4703 3.43856 19.4604 3.4383H15.6785V3.65807L16.2627 4.25363ZM19.3427 39.6696C19.2496 39.6696 19.1552 39.6499 19.0658 39.6085C18.7631 39.4686 18.6119 39.1254 18.7132 38.8075L23.0264 25.2729H19.8177C19.6102 25.2729 19.4148 25.1756 19.2898 25.0099C19.165 24.8443 19.1251 24.6296 19.1821 24.4301L22.6626 12.2483C22.7437 11.9645 23.0031 11.7688 23.2984 11.7688H29.152C29.3702 11.7688 29.5745 11.8765 29.6977 12.0567C29.8209 12.2369 29.8473 12.4662 29.7682 12.6697L26.7962 20.312H30.5757C30.8158 20.312 31.0371 20.4421 31.1537 20.6521C31.2703 20.8621 31.2638 21.1187 31.1369 21.3226L19.9044 39.358C19.7801 39.5572 19.565 39.6696 19.3427 39.6696ZM20.6942 23.9506H23.9311C24.1422 23.9506 24.3405 24.0513 24.4649 24.2217C24.5894 24.392 24.6251 24.6115 24.5611 24.8126L21.5805 34.1657L29.385 21.6342H25.8296C25.6114 21.6342 25.4071 21.5265 25.2838 21.3463C25.1606 21.1661 25.1343 20.9368 25.2134 20.7333L28.1854 13.091H23.797L20.6942 23.9506Z" fill="#0E4C6B"/>
</g>
<defs>
<clipPath id="clip0_160_1088">
<rect width="48" height="48" fill="white" transform="translate(0.5)"/>
</clipPath>
</defs>
</svg>
