<svg width="49" height="52" viewBox="0 0 49 52" fill="none" xmlns="http://www.w3.org/2000/svg">
<g clip-path="url(#clip0_160_1370)">
<path d="M36.8514 51.1735C34.5123 51.1735 32.1218 50.3492 30.2282 48.7803C29.8091 48.4332 29.2783 48.2245 28.734 48.1932H28.7338C22.2033 47.8169 16.2717 44.6945 12.4602 39.6268C8.5657 34.4487 7.28874 27.7795 8.86441 20.8483C10.4306 13.9583 14.6425 8.64297 20.724 5.88158C26.4191 3.29573 33.156 3.2751 37.8875 5.82843C42.3196 8.2201 43.8923 12.8307 43.8923 16.052L43.8921 16.1074C43.8893 16.4305 44.0643 16.7207 44.36 16.8805C46.6438 18.1152 48.0628 20.4908 48.0628 23.0803V31.6399C48.0628 32.7523 47.8319 36.5205 44.8906 38.7179V43.8875C44.8906 46.7456 43.3873 49.0917 40.7664 50.3238C39.5503 50.8955 38.2093 51.1735 36.8514 51.1735ZM28.8294 46.529C29.7264 46.5804 30.6007 46.9242 31.2917 47.4966C33.797 49.5721 37.3191 50.1023 40.0569 48.8152C41.2394 48.2592 43.2233 46.8797 43.2233 43.8877V38.6104C43.2233 38.1447 43.4454 37.7062 43.8177 37.4376C45.7185 36.068 46.3955 33.5448 46.3955 31.6401V23.0805C46.3955 21.1041 45.3115 19.2904 43.567 18.3473C42.7312 17.8955 42.2171 17.0309 42.2248 16.0909L42.225 16.0524C42.225 13.2898 40.8816 9.33897 37.0957 7.296C32.8059 4.98129 26.6502 5.02214 21.413 7.39993C15.8173 9.94076 11.938 14.8481 10.4901 21.2182C9.02487 27.6635 10.1977 33.8453 13.7925 38.6251C17.3088 43.3 22.7896 46.1808 28.8294 46.529ZM36.9906 13.249C35.4455 13.249 34.1876 14.5069 34.1876 16.052C34.1876 17.5972 35.4455 18.8551 36.9906 18.8551C38.5357 18.8551 39.7937 17.5972 39.7937 16.052C39.7937 14.5069 38.5355 13.249 36.9906 13.249ZM33.4626 19.58H40.4635C42.4051 19.58 43.9639 21.1388 43.9639 23.0805V31.6401C43.9639 32.3101 43.4306 32.8709 42.7334 32.8709C42.036 32.8709 41.5026 32.3375 41.5026 31.6401V23.7776C41.5026 23.5862 41.3386 23.4222 41.1472 23.4222C40.9558 23.4222 40.7917 23.5862 40.7917 23.7776V44.9992C40.7917 46.052 40.0122 46.9134 39.0415 46.9134C38.0706 46.9134 37.2913 46.052 37.2913 44.9992V32.898C37.2913 32.7066 37.1273 32.5426 36.9359 32.5426C36.7445 32.5426 36.5804 32.7066 36.5804 32.898V44.9992C36.5804 46.052 35.8009 46.9134 34.8302 46.9134C33.8595 46.9134 33.08 46.052 33.08 44.9992V23.7776C33.08 23.5862 32.916 23.4222 32.7246 23.4222C32.5332 23.4222 32.3691 23.5862 32.3691 23.7776V31.6536C32.3691 32.3236 31.8358 32.8844 31.1384 32.8844C30.441 32.8844 29.9076 32.351 29.9076 31.6536V23.0803C29.9622 21.1386 31.5621 19.58 33.4626 19.58ZM8.43776 14.5819L5.17952 13.9428L4.1132 10.8339C3.94837 10.3535 3.45013 10.0449 2.95604 10.1633C2.38937 10.2992 2.07538 10.8875 2.25985 11.4254L3.33965 14.5739L1.17687 17.083C0.829367 17.4817 0.864276 18.0849 1.25522 18.4409C1.65846 18.8081 2.28484 18.772 2.64325 18.3608L4.80623 15.8515L8.06428 16.4906C8.59148 16.5937 9.10223 16.25 9.20537 15.7228C9.30871 15.1958 8.96497 14.6848 8.43776 14.5819ZM18.2617 3.27153C18.1903 2.69335 17.6409 2.3155 17.0857 2.43828L13.8362 3.15867L11.6155 0.735467C11.2723 0.360988 10.6922 0.277484 10.2868 0.583533C9.82183 0.934608 9.76907 1.59947 10.1533 2.01877L12.4021 4.47272L11.3989 7.64727C11.2374 8.1594 11.5217 8.70565 12.034 8.8671C12.5461 9.02856 13.0924 8.74433 13.2538 8.232L14.2571 5.05745L17.4655 4.34618C17.9614 4.23629 18.324 3.77573 18.2617 3.27153ZM4.67909 2.86056C5.80451 2.86056 6.71671 3.77276 6.71671 4.89818C6.71671 6.0236 5.80451 6.9358 4.67909 6.9358C3.55366 6.9358 2.64147 6.0236 2.64147 4.89818C2.64147 3.77276 3.55366 2.86056 4.67909 2.86056Z" fill="#0E4C6B"/>
</g>
<defs>
<clipPath id="clip0_160_1370">
<rect width="48" height="51.5702" fill="white" transform="translate(0.5)"/>
</clipPath>
</defs>
</svg>
