<svg width="49" height="48" viewBox="0 0 49 48" fill="none" xmlns="http://www.w3.org/2000/svg">
<g clip-path="url(#clip0_160_1666)">
<path d="M24.5007 25.3282C28.4308 25.3282 32.3392 24.1897 34.9109 23.245C36.3344 23.4988 37.8295 23.673 39.3973 23.673H39.4029C40.3413 23.673 43.5722 23.6731 46.8311 23.166C46.2685 23.6514 45.5402 24.2625 44.6719 24.9544C42.478 26.7027 39.3955 28.9629 35.8371 31.0158C32.5514 32.9114 28.1163 33.4317 24.5007 33.4317C20.8851 33.4317 16.4501 32.9114 13.1644 31.0158C9.60595 28.9629 6.52347 26.7027 4.32959 24.9544C3.46124 24.2625 2.73293 23.6514 2.17032 23.166C5.42928 23.6731 8.66019 23.673 9.5986 23.673H9.60418C11.172 23.673 12.667 23.4988 14.0906 23.245C16.6622 24.1897 20.5707 25.3282 24.5007 25.3282Z" stroke="#0E4C6B"/>
<path d="M18.2042 21.288C16.8726 21.6244 15.4961 21.9721 14.0462 22.2366C12.6232 22.4961 11.1454 22.6728 9.60418 22.6728C8.65919 22.6728 5.43616 22.6717 2.23193 22.1632C4.27046 21.2745 6.44932 20.1975 8.58694 19.1408C9.61808 18.631 10.6396 18.1261 11.6312 17.6493C13.4296 16.7845 15.1323 16.0104 16.6377 15.4531C18.1543 14.8916 19.4212 14.5693 20.3628 14.5693C21.5026 14.5693 22.0581 14.8284 22.5268 15.0866C22.5815 15.1167 22.6366 15.1479 22.6926 15.1797C23.1471 15.4374 23.6593 15.7279 24.5007 15.7279C25.3422 15.7279 25.8544 15.4374 26.3089 15.1797C26.3649 15.1479 26.42 15.1167 26.4747 15.0866C26.9434 14.8284 27.4989 14.5693 28.6387 14.5693C29.5802 14.5693 30.8472 14.8916 32.3638 15.4531C33.8691 16.0104 35.5719 16.7845 37.3703 17.6493C38.3618 18.1261 39.3834 18.631 40.4145 19.1408C42.5522 20.1975 44.731 21.2745 46.7695 22.1633C43.5653 22.6717 40.3423 22.6728 39.3973 22.6728C37.8561 22.6728 36.3783 22.4961 34.9553 22.2366C33.5054 21.9721 32.1289 21.6244 30.7972 21.288C30.349 21.1747 29.9058 21.0628 29.4666 20.9557C27.7397 20.5347 26.0763 20.19 24.5007 20.19C22.9252 20.19 21.2618 20.5347 19.5349 20.9557C19.0957 21.0628 18.6525 21.1747 18.2042 21.288Z" stroke="#0E4C6B"/>
</g>
<defs>
<clipPath id="clip0_160_1666">
<rect width="48" height="48" fill="white" transform="translate(0.5)"/>
</clipPath>
</defs>
</svg>
