<svg width="64" height="64" viewBox="0 0 64 64" fill="none" xmlns="http://www.w3.org/2000/svg">
<g clip-path="url(#clip0_290_1464)">
<path d="M32.001 33.6042C37.2342 33.6042 42.4456 32.081 45.8661 30.8212C47.7707 31.1627 49.7687 31.3973 51.863 31.3973H51.8687C53.1738 31.3973 57.805 31.3973 62.3265 30.6293C61.5313 31.3254 60.4022 32.2852 58.9997 33.4028C56.0702 35.7372 51.9532 38.7561 47.1994 41.4987C42.7799 44.0484 36.8306 44.7421 32.001 44.7421C27.1713 44.7421 21.222 44.0484 16.8026 41.4987C12.0487 38.7561 7.93176 35.7372 5.00225 33.4028C3.59978 32.2852 2.47067 31.3254 1.67547 30.6293C6.19692 31.3973 10.8282 31.3973 12.1333 31.3973H12.1389C14.2333 31.3973 16.2313 31.1627 18.1359 30.8212C21.5564 32.081 26.7677 33.6042 32.001 33.6042Z" stroke="white"/>
<path d="M32.001 27.0866C29.9219 27.0866 27.721 27.5417 25.4193 28.1028C24.8365 28.2449 24.2473 28.3937 23.6506 28.5444C21.8737 28.9933 20.0307 29.4589 18.0915 29.8127C16.1873 30.16 14.2066 30.397 12.1389 30.397C10.8248 30.397 6.18961 30.3958 1.72288 29.6226C4.58265 28.3998 7.67097 26.8732 10.7023 25.3747C12.0787 24.6943 13.4432 24.0197 14.7694 23.3821C17.1683 22.2285 19.4444 21.1937 21.4591 20.4478C23.485 19.6977 25.1973 19.259 26.4837 19.259C28.0373 19.259 28.8054 19.6146 29.4494 19.9693C29.5237 20.0103 29.5979 20.0523 29.6728 20.0947C30.2776 20.4372 30.9248 20.8037 32.001 20.8037C33.0772 20.8037 33.7244 20.4372 34.3291 20.0947C34.404 20.0523 34.4782 20.0103 34.5525 19.9693C35.1965 19.6146 35.9646 19.259 37.5182 19.259C38.8046 19.259 40.517 19.6977 42.5429 20.4478C44.5576 21.1937 46.8336 22.2285 49.2326 23.3821C50.5587 24.0197 51.9233 24.6943 53.2996 25.3746C56.331 26.8732 59.4193 28.3998 62.2791 29.6226C57.8123 30.3958 53.1771 30.397 51.863 30.397C49.7954 30.397 47.8146 30.16 45.9104 29.8127C43.9713 29.4589 42.1283 28.9933 40.3513 28.5444C39.7547 28.3937 39.1655 28.2449 38.5826 28.1028C36.281 27.5417 34.08 27.0866 32.001 27.0866Z" stroke="white"/>
</g>
<defs>
<clipPath id="clip0_290_1464">
<rect width="64" height="64" fill="white"/>
</clipPath>
</defs>
</svg>
