<svg width="49" height="57" viewBox="0 0 49 57" fill="none" xmlns="http://www.w3.org/2000/svg">
<g clip-path="url(#clip0_160_1388)">
<path d="M24.4999 4.1427C11.2664 4.1427 0.5 14.9093 0.5 28.1428C0.5 41.3761 11.2664 52.1427 24.4999 52.1427C37.7334 52.1427 48.4998 41.3761 48.4998 28.1428C48.4998 14.9093 37.7334 4.1427 24.4999 4.1427ZM24.4999 50.3649C12.2465 50.3649 2.27778 40.3962 2.27778 28.1428C2.27778 15.8892 12.2465 5.92048 24.4999 5.92048C36.7533 5.92048 46.722 15.8892 46.722 28.1428C46.722 40.3962 36.7533 50.3649 24.4999 50.3649Z" fill="#0E4C6B"/>
<path d="M37.8334 27.2496V29.0274H39.5998C39.3635 36.8052 32.8822 43.2517 24.9446 43.2517C16.8578 43.2517 10.2779 36.673 10.2779 28.5862C10.2779 28.0949 9.88034 27.6978 9.38909 27.6978C8.89774 27.6978 8.50024 28.0955 8.50024 28.5869C8.50024 37.6546 15.877 45.0293 24.9447 45.0293C33.8633 45.0293 41.1407 37.9163 41.3777 29.0274H43.1667V27.2496H37.8334Z" fill="#0E4C6B"/>
<path d="M17.3891 20.1428C16.8977 20.1428 16.5002 20.5404 16.5002 21.0317V26.365C16.5002 26.8564 16.8978 27.2539 17.3891 27.2539C17.8804 27.2539 18.2779 26.8563 18.2779 26.365V21.0318C18.2779 20.5404 17.8803 20.1428 17.3891 20.1428Z" fill="#0E4C6B"/>
<path d="M25.3888 20.1428C24.8975 20.1428 24.5 20.5404 24.5 21.0317V26.365C24.5 26.8564 24.8976 27.2539 25.3888 27.2539C25.8801 27.2539 26.2777 26.8563 26.2777 26.365V21.0318C26.2778 20.5404 25.8802 20.1428 25.3888 20.1428Z" fill="#0E4C6B"/>
</g>
<defs>
<clipPath id="clip0_160_1388">
<rect width="48" height="48" fill="white" transform="translate(0.5 4.14282)"/>
</clipPath>
</defs>
</svg>
