<svg width="51" height="51" viewBox="0 0 51 51" fill="none" xmlns="http://www.w3.org/2000/svg">
<path d="M21.6364 21.2391H22.7845V20.0909V13.1364C22.7845 7.81536 18.4574 3.48822 13.1364 3.48822C7.81536 3.48822 3.48822 7.81536 3.48822 13.1364V22.4091C3.48822 23.0552 2.96433 23.5791 2.31818 23.5791C1.67203 23.5791 1.14815 23.0552 1.14815 22.4091V13.1364C1.14815 6.52708 6.52708 1.14815 13.1364 1.14815C19.7456 1.14815 25.1246 6.52708 25.1246 13.1364V20.0909V21.2391H26.2727H48.6818C49.328 21.2391 49.8519 21.7629 49.8519 22.4091V48.6818C49.8519 49.328 49.328 49.8519 48.6818 49.8519H17.7727C17.1266 49.8519 16.6027 49.328 16.6027 48.6818V22.4091C16.6027 21.7629 17.1266 21.2391 17.7727 21.2391H21.6364Z" stroke="white" stroke-width="2.2963"/>
</svg>
