<svg width="46" height="54" viewBox="0 0 46 54" fill="none" xmlns="http://www.w3.org/2000/svg">
<path d="M14.6847 0.248013C16.9527 0.221013 19.1499 1.05633 20.8289 2.59533L18.2099 5.16201C17.2514 4.27439 15.9858 3.79008 14.6847 3.81708C12.3475 3.82551 10.282 5.32064 9.52604 7.5262C9.13961 8.64164 9.13961 9.85495 9.52604 10.9721C10.282 13.1776 12.3475 14.6728 14.6847 14.6812C15.9234 14.6812 16.9882 14.3741 17.8134 13.829C18.7719 13.1962 19.4401 12.2124 19.6409 11.0868H14.683V7.62408H23.3399C23.4462 8.22989 23.4985 8.83739 23.4985 9.45164C23.4985 12.1938 22.4962 14.5141 20.7648 16.0785C19.2444 17.4504 17.162 18.2486 14.683 18.2486C11.2287 18.2654 8.06467 16.3501 6.47336 13.2907C5.17229 10.751 5.17229 7.74558 6.47336 5.2042C8.06467 2.14476 11.2287 0.229451 14.6729 0.246326L14.6847 0.248013Z" fill="black"/>
<path d="M35.7447 2.96259C36.3732 2.15461 36.822 1.07731 36.6874 0C35.7447 0.0448878 34.6225 0.628429 33.9492 1.39152C33.3657 2.06484 32.827 3.18703 32.9617 4.21945C34.039 4.35411 35.0714 3.77057 35.7447 2.96259ZM36.6874 4.48878C35.1612 4.399 33.8594 5.34165 33.1412 5.34165C32.423 5.34165 31.3008 4.53367 30.0889 4.53367C28.5178 4.57855 27.0814 5.43142 26.2734 6.86783C24.6575 9.69576 25.8245 13.8703 27.4405 16.1596C28.2036 17.2818 29.1462 18.5387 30.3582 18.4938C31.5253 18.4489 31.9742 17.7307 33.3657 17.7307C34.7572 17.7307 35.1612 18.4938 36.4181 18.4489C37.6749 18.404 38.4829 17.3267 39.246 16.1596C40.1437 14.8579 40.5028 13.601 40.5028 13.5561C40.458 13.5112 38.034 12.6135 38.034 9.83042C37.9891 7.49626 39.9193 6.37406 40.0091 6.32918C38.9767 4.71322 37.2709 4.53367 36.6874 4.48878Z" fill="black"/>
<path d="M8.78867 27.4949C12.8491 27.4949 15.6475 30.2933 15.6475 34.2988C15.6475 38.3592 12.7942 41.1576 8.67893 41.1576H4.23442V48.2359H0.99707V27.4949H8.78867ZM4.23442 38.469H7.91074C10.7091 38.469 12.3004 36.9326 12.3004 34.3537C12.3004 31.7199 10.7091 30.2384 7.91074 30.2384H4.17955V38.469H4.23442ZM16.4705 44.0109C16.4705 41.3771 18.5007 39.731 22.1222 39.5115L26.2923 39.292V38.1397C26.2923 36.4387 25.14 35.4511 23.2745 35.4511C21.4637 35.4511 20.3663 36.329 20.092 37.6459H17.129C17.2936 34.9024 19.653 32.8722 23.3842 32.8722C27.0605 32.8722 29.4199 34.7926 29.4199 37.8654V48.2908H26.4569V45.8216H26.4021C25.5241 47.5226 23.6037 48.5651 21.6283 48.5651C18.5556 48.5651 16.4705 46.6995 16.4705 44.0109ZM26.2923 42.6391V41.432L22.5611 41.6514C20.6955 41.7612 19.653 42.5842 19.653 43.9011C19.653 45.218 20.7504 46.0959 22.3965 46.0959C24.5913 46.0959 26.2923 44.6144 26.2923 42.6391ZM32.1635 53.8875V51.3635C32.3829 51.4184 32.9316 51.4184 33.1511 51.4184C34.5778 51.4184 35.3459 50.8148 35.8398 49.2784C35.8398 49.2236 36.1141 48.3456 36.1141 48.3456L30.6271 33.2014H33.9742L37.8151 45.5472H37.87L41.7109 33.2014H45.0031L39.3515 49.1687C38.0346 52.845 36.5531 53.9973 33.4255 53.9973C33.206 53.9424 32.4378 53.9424 32.1635 53.8875Z" fill="black"/>
</svg>
