<svg width="55" height="54" viewBox="0 0 55 54" fill="none" xmlns="http://www.w3.org/2000/svg">
<g clip-path="url(#clip0_154_3558)">
<path d="M11.068 18.4713C11.6964 17.6633 12.1453 16.586 12.0106 15.5087C11.068 15.5536 9.94578 16.1372 9.27247 16.9002C8.68893 17.5736 8.15027 18.6958 8.28494 19.7282C9.36224 19.8628 10.3947 19.2793 11.068 18.4713ZM12.0106 19.9975C10.4844 19.9077 9.18269 20.8504 8.46449 20.8504C7.74628 20.8504 6.62409 20.0424 5.41212 20.0424C3.84105 20.0873 2.40464 20.9401 1.59666 22.3766C-0.0193037 25.2045 1.14778 29.3791 2.76374 31.6683C3.52683 32.7905 4.46947 34.0474 5.68144 34.0025C6.84853 33.9576 7.2974 33.2394 8.68893 33.2394C10.0804 33.2394 10.4844 34.0025 11.7413 33.9576C12.9982 33.9127 13.8061 32.8354 14.5692 31.6683C15.467 30.3666 15.8261 29.1097 15.8261 29.0648C15.7812 29.02 13.3573 28.1222 13.3573 25.3392C13.3124 23.005 15.2425 21.8828 15.3323 21.8379C14.2999 20.2219 12.5942 20.0424 12.0106 19.9975Z" fill="black"/>
<path d="M25.2076 16.8105C28.5293 16.8105 30.8185 19.0998 30.8185 22.3766C30.8185 25.6983 28.4844 27.9875 25.1178 27.9875H21.4819V33.7781H18.8335V16.8105H25.2076ZM21.4819 25.788H24.4894C26.7786 25.788 28.0804 24.5312 28.0804 22.4215C28.0804 20.2668 26.7786 19.0549 24.4894 19.0549H21.437V25.788H21.4819ZM31.4919 30.3217C31.4919 28.1671 33.1527 26.8205 36.1153 26.6409L39.5268 26.4614V25.5187C39.5268 24.1272 38.5841 23.3192 37.0579 23.3192C35.5766 23.3192 34.6789 24.0374 34.4544 25.1147H32.0305C32.1652 22.8703 34.0953 21.2095 37.1477 21.2095C40.1552 21.2095 42.0854 22.7806 42.0854 25.2943V33.823H39.6614V31.803H39.6165C38.8983 33.1945 37.3273 34.0474 35.7113 34.0474C33.1976 34.0474 31.4919 32.5212 31.4919 30.3217ZM39.5268 29.1995V28.212L36.4744 28.3915C34.9482 28.4813 34.0953 29.1546 34.0953 30.2319C34.0953 31.3092 34.9931 32.0274 36.3397 32.0274C38.1352 32.0274 39.5268 30.8155 39.5268 29.1995ZM44.3298 38.4015V36.3367C44.5093 36.3816 44.9582 36.3816 45.1377 36.3816C46.3048 36.3816 46.9332 35.8878 47.3372 34.6309C47.3372 34.586 47.5617 33.8678 47.5617 33.8678L43.0729 21.4788H45.8111L48.9532 31.5786H48.9981L52.1402 21.4788H54.8335L50.2101 34.5412C49.1327 37.5486 47.9208 38.4913 45.3622 38.4913C45.1826 38.4464 44.5542 38.4464 44.3298 38.4015Z" fill="black"/>
</g>
<defs>
<clipPath id="clip0_154_3558">
<rect width="54" height="54" fill="white" transform="translate(0.833496)"/>
</clipPath>
</defs>
</svg>
