<svg width="55" height="54" viewBox="0 0 55 54" fill="none" xmlns="http://www.w3.org/2000/svg">
<g clip-path="url(#clip0_154_3531)">
<path d="M27.1665 0C12.2787 0 0.166504 12.1122 0.166504 27C0.166504 41.8878 12.2787 54 27.1665 54C42.0543 54 54.1665 41.8878 54.1665 27C54.1665 12.1122 42.0543 0 27.1665 0ZM27.1665 51.5455C13.6319 51.5455 2.62105 40.5344 2.62105 27C2.62105 13.4656 13.6319 2.45455 27.1665 2.45455C40.7011 2.45455 51.712 13.4656 51.712 27C51.712 40.5344 40.7011 51.5455 27.1665 51.5455Z" fill="black"/>
<path d="M27.1663 4.78638C14.9176 4.78638 4.95264 14.7513 4.95264 27C4.95264 39.2487 14.9176 49.2136 27.1663 49.2136C39.4149 49.2136 49.3799 39.2487 49.3799 27C49.3799 14.7513 39.4149 4.78638 27.1663 4.78638ZM27.1663 48.4773C15.3236 48.4773 5.689 38.8427 5.689 27C5.689 15.1573 15.3236 5.52274 27.1663 5.52274C39.009 5.52274 48.6435 15.1573 48.6435 27C48.6435 38.8427 39.009 48.4773 27.1663 48.4773Z" fill="black"/>
<path d="M24.5605 27.5231H28.7262L29.7723 26.4772H25.6067L24.5605 27.5231Z" fill="black"/>
<path d="M27.1664 37.8C27.0859 37.8 27.0061 37.798 26.9254 37.7938C25.5125 37.7222 24.3599 36.8761 23.842 35.5303C23.4223 34.4402 23.4176 32.8315 24.662 31.587L25.8127 30.4366H21.8049C20.5671 32.2201 20.2826 34.4822 21.0931 36.5884C22.0276 39.0162 24.2052 40.6055 26.7747 40.7356C26.9043 40.7422 27.0351 40.7457 27.1664 40.7457C31.3622 40.7457 34.7755 37.3321 34.7755 33.1366H31.83C31.83 35.708 29.738 37.8 27.1664 37.8Z" fill="black"/>
<path d="M27.1667 16.2C27.2472 16.2 27.327 16.2019 27.4077 16.2061C28.8206 16.2778 29.9732 17.1239 30.4911 18.4697C30.9109 19.5598 30.9155 21.1685 29.6711 22.4129L28.5204 23.5636H32.5282C33.766 21.7801 34.0507 19.518 33.24 17.4118C32.3055 14.984 30.1279 13.3947 27.5585 13.2646C27.4286 13.258 27.298 13.2545 27.1667 13.2545C22.9709 13.2545 19.5576 16.6681 19.5576 20.8636H22.5031C22.5031 18.292 24.5951 16.2 27.1667 16.2Z" fill="black"/>
<path d="M34.1618 28.014H20.1709V29.9455H34.1618V28.014Z" fill="black"/>
<path d="M34.1618 24.0546H20.1709V25.986H34.1618V24.0546Z" fill="black"/>
</g>
<defs>
<clipPath id="clip0_154_3531">
<rect width="54" height="54" fill="white" transform="translate(0.166504)"/>
</clipPath>
</defs>
</svg>
