<svg width="64" height="51" viewBox="0 0 64 51" fill="none" xmlns="http://www.w3.org/2000/svg">
<g clip-path="url(#clip0_382_1977)">
<path d="M50.9894 21.826C50.9841 21.8792 50.9682 21.9323 50.9522 21.9802C50.9363 22.0333 50.915 22.0812 50.8937 22.1291C50.8725 22.2194 50.8565 22.3151 50.8459 22.4162C50.8352 22.5278 50.8299 22.6448 50.8299 22.7777V22.7884C50.8299 22.8096 50.8352 22.8309 50.8352 22.8575V40.733C50.9363 40.9829 51.0532 41.2009 51.1755 41.3817C51.2978 41.5678 51.436 41.7166 51.5796 41.8283L51.5849 41.8336C51.7125 41.9346 51.8561 42.0091 52.0156 42.0569C52.1751 42.1048 52.3559 42.126 52.5473 42.1207C53.9244 42.0091 56.5031 42.0303 57.8855 42.1154C58.2417 42.1313 58.5501 42.0941 58.8053 42.0037C59.0552 41.9134 59.2626 41.7751 59.4274 41.5837L59.438 41.5731C59.6294 41.3498 59.7836 41.052 59.9006 40.6905C60.0229 40.313 60.1026 39.861 60.1452 39.34C60.1452 34.8737 61.2511 27.8713 61.7084 23.1605C61.7084 23.1286 61.7084 23.0967 61.7137 23.0542C61.7615 22.6288 61.7456 22.2832 61.6605 22.0121C61.5808 21.7569 61.4478 21.5601 61.2617 21.4166C61.0331 21.2411 60.7194 21.1135 60.3366 21.0284C59.9378 20.9434 59.4593 20.9008 58.917 20.9008L58.8425 20.9062H53.0524C53.0364 20.9062 53.0205 20.9062 53.0045 20.9008C52.6005 20.9062 52.2549 20.9434 51.9677 21.0231C51.6859 21.1029 51.4626 21.2145 51.2925 21.3687C51.2234 21.4272 51.1649 21.4963 51.117 21.5761C51.0692 21.6558 51.0266 21.7356 50.9894 21.826ZM44.875 41.7432C44.8058 41.6741 44.7473 41.5943 44.6995 41.5093C44.6516 41.4242 44.6144 41.3338 44.5932 41.2381L36.3572 26.4145C35.9319 25.7073 35.5437 25.3458 35.1769 25.2235C34.8366 25.1118 34.5016 25.2076 34.1613 25.4096C33.8902 25.5691 33.6084 25.7818 33.3213 26.021C33.0182 26.2763 32.7258 26.5421 32.4333 26.8079L32.3802 26.8558C32.0346 27.1695 31.689 27.4832 31.3965 27.7278L29.9769 28.8975L29.9503 28.9188C29.4293 29.3335 28.8763 29.6578 28.318 29.8918C27.7225 30.1363 27.1164 30.2852 26.5262 30.3331C26.1487 30.365 25.7712 30.3543 25.4044 30.3065C25.0375 30.2586 24.6812 30.1683 24.3463 30.0406C23.9954 29.9077 23.6604 29.7323 23.3573 29.5196C23.0649 29.3122 22.7991 29.0623 22.5704 28.7805C22.3152 28.4615 22.1025 28.1 21.9483 27.6959C21.7995 27.3131 21.7038 26.8877 21.6612 26.4358C21.6612 26.4145 21.6612 26.3932 21.6612 26.372C21.6612 26.255 21.6772 26.1327 21.7144 26.021C21.7569 25.8934 21.8207 25.7658 21.9164 25.6542L26.0264 20.7626C26.5634 21.2464 27.1324 21.6931 27.7279 22.1025L23.8943 26.6644C23.9262 26.792 23.9688 26.9143 24.0166 27.0259C24.0804 27.1748 24.1655 27.3077 24.2612 27.43L24.2665 27.4407C24.3729 27.5683 24.4952 27.6799 24.6281 27.7756C24.7716 27.8767 24.9311 27.9617 25.1013 28.0255C25.2821 28.0946 25.4841 28.1372 25.6915 28.1638H25.6968C25.9041 28.185 26.1221 28.1904 26.3454 28.1744C26.7229 28.1425 27.1217 28.0468 27.5099 27.882C27.882 27.7278 28.2542 27.5098 28.5998 27.228L30.0141 26.0583C30.3119 25.8137 30.5724 25.5797 30.8223 25.3511L30.9871 25.2022C31.3168 24.8992 31.6464 24.5961 31.9814 24.3196C32.0399 24.2718 32.0984 24.2186 32.1622 24.1708C33.0873 23.8092 33.9699 23.3945 34.8047 22.9213C35.0865 22.9 35.3683 22.9213 35.6554 22.9957C36.5221 23.219 37.3728 23.9102 38.2075 25.3086C41.0042 29.9449 43.6574 35.1183 46.3105 39.8876H48.6606V22.8575C48.6606 22.8309 48.6606 22.8043 48.6659 22.7671C48.6659 22.6395 48.6712 22.5119 48.6766 22.3789C48.6819 22.2992 48.6872 22.2194 48.6978 22.145L45.9756 20.3372C45.7841 20.2096 45.5821 20.0714 45.3747 19.9278L44.6835 19.4387C43.466 18.588 42.2165 17.716 40.9138 17.163C41.2967 16.5622 41.6529 15.9295 41.9772 15.2649C42.4345 15.4723 42.8811 15.7009 43.3171 15.9561C44.2369 16.4878 45.1142 17.0992 45.9702 17.7054L46.0181 17.7426C46.385 17.9978 46.7518 18.2583 47.1772 18.5401C47.9588 19.0452 48.735 19.5822 49.5166 20.1033L49.5858 20.0235C49.6602 19.9385 49.7453 19.8534 49.841 19.7736C50.2238 19.4334 50.6864 19.1782 51.2234 19.008C51.7444 18.8432 52.3346 18.7634 52.9939 18.7581C53.0099 18.7528 53.0258 18.7528 53.0418 18.7528C54.9399 18.8379 57.056 18.6199 58.917 18.7581C59.672 18.7581 60.3525 18.8272 60.9587 18.9761C61.5861 19.1303 62.1284 19.3749 62.575 19.7205C63.0801 20.1086 63.447 20.5978 63.665 21.2039C63.8777 21.7941 63.9468 22.4906 63.8511 23.3094C63.1705 28.5838 62.7983 34.1878 62.2826 39.5101C62.2241 40.2598 62.0912 40.9244 61.8891 41.5146C61.6818 42.1048 61.4 42.6046 61.0437 43.0193C60.6556 43.4659 60.1877 43.8062 59.6401 44.0189C59.1031 44.2315 58.4916 44.3272 57.7951 44.2953C56.0884 44.2953 54.3444 44.3326 52.643 44.2953C52.1804 44.3166 51.7497 44.2634 51.351 44.1411C50.9363 44.0135 50.5588 43.8115 50.2132 43.535L50.2025 43.5244C49.9579 43.3223 49.7346 43.0937 49.5326 42.8225C49.3571 42.5939 49.2029 42.344 49.0594 42.0675H47.358C47.443 42.3972 47.4856 42.7215 47.4909 43.0405C47.5015 43.4872 47.4324 43.9178 47.2995 44.3219C47.1719 44.7154 46.9858 45.0822 46.7518 45.4119C46.5073 45.7575 46.2148 46.0606 45.8852 46.3211L45.8692 46.3317C45.5555 46.5763 45.2099 46.7837 44.8484 46.9485C44.4815 47.108 44.0934 47.2303 43.6946 47.2941C43.2958 47.3632 42.8864 47.3738 42.4823 47.3313C42.1474 47.2941 41.8124 47.2196 41.4827 47.0974C41.0893 47.4908 40.6852 47.8205 40.2758 48.081C39.8132 48.3734 39.3347 48.5861 38.8509 48.7243C38.367 48.8626 37.8726 48.9104 37.3781 48.8892C36.9368 48.8679 36.5008 48.7828 36.0595 48.6446C35.6288 49.1072 35.1769 49.4847 34.6983 49.7771C34.1773 50.1014 33.6296 50.3301 33.0554 50.4523C32.4706 50.5799 31.8644 50.6012 31.2423 50.5108C30.6734 50.4258 30.0833 50.2503 29.4824 49.9845C29.3176 50.1067 29.1528 50.2184 28.9773 50.3194C28.7647 50.447 28.5467 50.5534 28.318 50.6491C27.999 50.782 27.6747 50.8777 27.3344 50.9415C26.9994 51 26.6591 51.0266 26.3082 51.0159C25.4841 50.9894 24.7929 50.8564 24.1921 50.6278C23.5913 50.3992 23.0862 50.0748 22.6342 49.6708C22.2089 49.2933 21.858 48.8626 21.5336 48.3894C21.2146 47.9268 20.9222 47.4217 20.6085 46.8794L17.1684 40.8765H14.7971C14.7173 41.2115 14.6216 41.5252 14.4993 41.8123C14.3505 42.1632 14.1697 42.4876 13.9464 42.7747C13.5742 43.2585 13.1116 43.6254 12.5533 43.87C12.0057 44.1092 11.3623 44.2315 10.618 44.2156H5.9178C5.30103 44.3113 4.72149 44.2847 4.19511 44.1092C3.65279 43.9338 3.16895 43.6041 2.74359 43.115C2.37141 42.6843 2.06302 42.126 1.81845 41.4242C1.57918 40.7383 1.40372 39.9089 1.3027 38.9306L1.29207 38.8455L0.0904425 23.6125C-0.0318469 22.7671 -0.02653 22.0387 0.101076 21.4219C0.228683 20.7839 0.478578 20.2575 0.834813 19.8268C1.19636 19.3908 1.6483 19.0771 2.17468 18.8645C2.6851 18.6571 3.26997 18.5454 3.91332 18.5189L3.97712 18.5135H4.04092H10.3309C10.3521 18.5135 10.3681 18.5135 10.384 18.5189C10.9742 18.5135 11.5272 18.5614 12.027 18.673C12.5586 18.79 13.0319 18.9761 13.4466 19.242C13.7815 19.46 14.074 19.7205 14.3132 20.0342C14.5153 20.3 14.6748 20.6031 14.7971 20.9434H19.6567C20.2841 20.5233 20.8956 20.1458 21.5124 19.8215C22.1557 19.4865 22.7991 19.2047 23.4849 18.9867L23.4956 18.9814C23.7242 18.9123 23.9581 18.8485 24.1921 18.79C24.7451 19.4865 25.3459 20.1246 25.9892 20.7041C25.7606 20.7147 25.5373 20.7413 25.3246 20.7732C24.9099 20.8317 24.5164 20.9221 24.1336 21.0444C23.5487 21.2252 22.9798 21.4804 22.4109 21.7835C21.8367 22.0918 21.2518 22.4587 20.6457 22.8787C20.5553 22.9479 20.4543 23.001 20.3426 23.0382C20.231 23.0755 20.114 23.0967 19.9917 23.0967H15.0523V32.6619L15.0736 38.686H17.8437C18.0351 38.686 18.2265 38.7391 18.3913 38.8348C18.5508 38.9252 18.6838 39.0635 18.7848 39.2336L22.5438 45.7788C22.815 46.252 23.0702 46.6933 23.3307 47.0761C23.586 47.4536 23.8465 47.7779 24.1283 48.0331C24.3888 48.2671 24.6919 48.4585 25.0588 48.5914L25.0694 48.5967C25.4416 48.7297 25.8829 48.8094 26.4199 48.8254C26.6166 48.8307 26.8133 48.8147 27.0047 48.7828C27.1908 48.7509 27.3716 48.6978 27.5471 48.6233C27.6534 48.5808 27.7651 48.5223 27.8767 48.4638C27.9246 48.4372 27.9724 48.4053 28.0203 48.3787C27.244 46.9272 26.4518 45.4757 25.6861 44.0189C25.5479 43.7583 25.532 43.4659 25.6117 43.2054C25.6915 42.9448 25.8722 42.7109 26.1328 42.5727L26.1647 42.5567C26.4199 42.4291 26.707 42.4078 26.9622 42.4876C27.2227 42.5673 27.4514 42.7481 27.5949 43.0033C28.4669 44.6303 29.3389 46.2573 30.2055 47.8843C30.6468 48.1023 31.0722 48.2458 31.4657 48.3203C31.8804 48.3947 32.2738 48.3947 32.646 48.3149C32.981 48.2405 33.3106 48.1023 33.6296 47.9002C33.9114 47.7248 34.1826 47.4961 34.4538 47.2196L30.7213 41.4189C30.5618 41.169 30.5192 40.8766 30.5777 40.6054C30.6362 40.3342 30.801 40.0896 31.0509 39.9301C31.3008 39.7706 31.5933 39.7281 31.8644 39.7866C32.1303 39.8451 32.3802 40.0099 32.5397 40.2598L36.5114 46.4965C36.8145 46.6135 37.1122 46.6826 37.3993 46.7092C37.7077 46.7358 38.0108 46.7092 38.3032 46.6295L38.3139 46.6242C38.5957 46.5444 38.8775 46.4168 39.1646 46.2307C39.4091 46.0712 39.6537 45.8691 39.9036 45.6299L36.3466 38.9306C36.2137 38.67 36.1924 38.3776 36.2722 38.1171C36.3519 37.8565 36.5327 37.6226 36.7879 37.4843L36.8145 37.4684C37.075 37.3355 37.3674 37.3142 37.628 37.394C37.8885 37.4737 38.1171 37.6545 38.2607 37.9097L42.0038 44.9493C42.1952 45.0503 42.4026 45.1195 42.6099 45.1514C42.8598 45.1939 43.1204 45.1939 43.3703 45.1514C43.5829 45.1141 43.7956 45.0503 43.9977 44.9653C44.1997 44.8749 44.3964 44.7632 44.5666 44.6303C44.7367 44.4974 44.8856 44.3432 45.0026 44.173C45.1142 44.0189 45.2046 43.8434 45.2631 43.6679C45.3269 43.4606 45.3588 43.2373 45.3428 42.998C45.3269 42.7694 45.2684 42.5301 45.1674 42.2749L44.875 41.7432ZM7.48098 35.2778C7.85848 35.2778 8.20408 35.432 8.45397 35.6819C8.70387 35.9318 8.85806 36.2774 8.85806 36.6549C8.85806 37.0324 8.70387 37.378 8.45397 37.6279L8.43802 37.6439C8.18813 37.8831 7.85316 38.032 7.48098 38.032C7.10347 38.032 6.75787 37.8778 6.50798 37.6279C6.25808 37.378 6.10389 37.0324 6.10389 36.6549C6.10389 36.2774 6.25808 35.9318 6.50798 35.6819C6.75787 35.4267 7.10347 35.2778 7.48098 35.2778ZM56.2106 35.2778C56.5882 35.2778 56.9338 35.432 57.1836 35.6819C57.4335 35.9318 57.5877 36.2774 57.5877 36.6549C57.5877 37.0324 57.4335 37.378 57.1836 37.6279C56.9338 37.8778 56.5935 38.032 56.2106 38.032C55.8331 38.032 55.4875 37.8778 55.2377 37.6279C54.9878 37.378 54.8336 37.0324 54.8336 36.6549C54.8336 36.2774 54.9878 35.9318 55.2377 35.6819L55.2536 35.666C55.5035 35.4214 55.8385 35.2778 56.2106 35.2778ZM12.8777 30.6734L12.8458 21.9961C12.8085 21.7675 12.7394 21.5761 12.6437 21.4219C12.5533 21.2677 12.431 21.1454 12.2875 21.055C12.0748 20.9168 11.809 20.8211 11.4899 20.7626C11.1656 20.6988 10.7987 20.6722 10.3947 20.6775C10.3787 20.6828 10.3574 20.6828 10.3362 20.6828C8.23598 20.6828 6.09857 20.7201 4.0037 20.6828C3.64747 20.6988 3.33377 20.752 3.07856 20.8424C2.83398 20.9274 2.63725 21.0497 2.50433 21.2145C2.35546 21.39 2.25443 21.6399 2.20658 21.9749C2.15341 22.3311 2.16936 22.783 2.24912 23.336C2.80208 27.4726 3.42416 34.5707 3.48264 38.7019C3.5624 39.4676 3.68469 40.0896 3.8442 40.5894C3.99839 41.0733 4.1898 41.4348 4.40779 41.69C4.56198 41.8708 4.74807 41.9878 4.95543 42.0463C5.17343 42.1101 5.41801 42.1101 5.68917 42.0622C5.72107 42.0569 5.75297 42.0516 5.78488 42.0463L5.82209 42.041C5.84336 42.0356 5.85931 42.0356 5.88058 42.0356H10.602C10.6339 42.0356 10.6711 42.0356 10.7137 42.041C11.0859 42.0463 11.4049 41.9931 11.6601 41.8868C11.91 41.7857 12.112 41.6369 12.2609 41.4348C12.4523 41.1902 12.5959 40.8712 12.6916 40.4831C12.7926 40.095 12.8458 39.643 12.867 39.1326L12.8617 39.0847V30.7637C12.8617 30.7318 12.867 30.6999 12.8777 30.6734Z" fill="white"/>
<path fill-rule="evenodd" clip-rule="evenodd" d="M32.0451 0C35.6287 2.27033 38.8614 3.34435 41.6422 3.08914C42.126 12.9042 38.5052 18.6943 32.0823 21.1135C32.0398 21.0976 32.0026 21.0816 31.96 21.0657C31.9175 21.0816 31.8803 21.0976 31.8378 21.1135C25.4149 18.6996 21.7941 12.9042 22.2779 3.08914C25.0533 3.34435 28.2914 2.27033 31.875 0L31.96 0.0638032L32.0451 0ZM26.2231 9.6715L28.3179 9.64491L28.4775 9.68213C28.9028 9.92671 29.2963 10.2032 29.6738 10.5222C29.9449 10.7508 30.2001 10.9954 30.4394 11.2666C31.1891 10.0596 31.9919 8.94839 32.8373 7.92754C33.7625 6.81099 34.342 6.19422 35.3735 5.26908L35.5756 5.18932H37.8618L37.3993 5.69975C35.985 7.27356 35.097 8.50177 33.9379 10.1766C32.7735 11.8568 31.7367 13.5901 30.8116 15.3712L30.5245 15.9242L30.2586 15.3606C29.7695 14.3132 29.1899 13.3561 28.4934 12.5001C27.7969 11.6441 26.9887 10.8784 26.0423 10.2351L26.2231 9.6715Z" fill="white"/>
</g>
<defs>
<clipPath id="clip0_382_1977">
<rect width="63.9148" height="51" fill="white"/>
</clipPath>
</defs>
</svg>
