<svg width="82" height="56" viewBox="0 0 82 56" fill="none" xmlns="http://www.w3.org/2000/svg">
<path d="M67.0395 40.8748C65.0359 40.8748 63.1324 41.6595 61.6964 43.0788C60.2604 44.5147 59.459 46.3848 59.459 48.3885C59.459 50.3922 60.2438 52.2623 61.6964 53.6982C63.1491 55.1175 65.0359 55.9022 67.0395 55.9022C71.147 55.9022 74.4865 52.5294 74.4865 48.3885C74.4865 44.2476 71.147 40.8748 67.0395 40.8748ZM67.0395 52.5628C64.7353 52.5628 62.7984 50.6593 62.7984 48.3885C62.7984 46.1177 64.7353 44.2142 67.0395 44.2142C69.3103 44.2142 71.147 46.0843 71.147 48.3885C71.147 50.6927 69.3103 52.5628 67.0395 52.5628Z" fill="white"/>
<path d="M68.9762 15.8457C68.6756 15.5619 68.2749 15.4116 67.8575 15.4116H59.2918C58.3734 15.4116 57.6221 16.163 57.6221 17.0813V30.7731C57.6221 31.6914 58.3734 32.4428 59.2918 32.4428H72.8833C73.8017 32.4428 74.553 31.6914 74.553 30.7731V21.6063C74.553 21.1388 74.3527 20.6879 74.002 20.3707L68.9762 15.8457ZM71.2136 29.1033H60.9615V18.7344H67.2063L71.2136 22.341V29.1033Z" fill="white"/>
<path d="M26.2646 40.8748C24.261 40.8748 22.3575 41.6595 20.9215 43.0788C19.4855 44.5147 18.6841 46.3848 18.6841 48.3885C18.6841 50.3922 19.4689 52.2623 20.9215 53.6982C22.3742 55.1175 24.261 55.9022 26.2646 55.9022C30.3721 55.9022 33.7116 52.5294 33.7116 48.3885C33.7116 44.2476 30.3721 40.8748 26.2646 40.8748ZM26.2646 52.5628C23.9604 52.5628 22.0235 50.6593 22.0235 48.3885C22.0235 46.1177 23.9604 44.2142 26.2646 44.2142C28.5354 44.2142 30.3721 46.0843 30.3721 48.3885C30.3721 50.6927 28.5354 52.5628 26.2646 52.5628Z" fill="white"/>
<path d="M15.1277 42.9286H11.7716V38.4871C11.7716 37.5688 11.0202 36.8174 10.1018 36.8174C9.1835 36.8174 8.43213 37.5688 8.43213 38.4871V44.5983C8.43213 45.5166 9.1835 46.268 10.1018 46.268H15.1277C16.0461 46.268 16.7974 45.5166 16.7974 44.5983C16.7974 43.6799 16.0461 42.9286 15.1277 42.9286Z" fill="white"/>
<path d="M23.5932 33.8287C23.5932 32.9103 22.8418 32.1589 21.9234 32.1589H1.66972C0.751374 32.1589 0 32.9103 0 33.8287C0 34.747 0.751374 35.4984 1.66972 35.4984H21.9234C22.8418 35.4984 23.5932 34.7637 23.5932 33.8287Z" fill="white"/>
<path d="M5.05906 27.8009L25.3128 27.9178C26.2311 27.9178 26.9825 27.1831 26.9992 26.2647C27.0159 25.3297 26.2645 24.5783 25.3462 24.5783L5.09245 24.4614C5.07576 24.4614 5.07576 24.4614 5.07576 24.4614C4.15741 24.4614 3.40603 25.1961 3.40603 26.1144C3.38934 27.0495 4.14071 27.8009 5.05906 27.8009Z" fill="white"/>
<path d="M8.46562 20.2203H28.7193C29.6377 20.2203 30.3891 19.4689 30.3891 18.5506C30.3891 17.6322 29.6377 16.8809 28.7193 16.8809H8.46562C7.54727 16.8809 6.7959 17.6322 6.7959 18.5506C6.7959 19.4689 7.54727 20.2203 8.46562 20.2203Z" fill="white"/>
<path d="M81.3822 17.9662L69.427 8.06475C69.1265 7.81429 68.7591 7.68072 68.3584 7.68072H54.2994V1.66972C54.2994 0.751374 53.548 0 52.6296 0H10.1018C9.1835 0 8.43213 0.751374 8.43213 1.66972V13.8921C8.43213 14.8104 9.1835 15.5618 10.1018 15.5618C11.0202 15.5618 11.7716 14.8104 11.7716 13.8921V3.33944H50.9766V42.9285H37.2849C36.3666 42.9285 35.6152 43.6799 35.6152 44.5982C35.6152 45.5166 36.3666 46.268 37.2849 46.268H57.6722C58.5905 46.268 59.3419 45.5166 59.3419 44.5982C59.3419 43.6799 58.5905 42.9285 57.6722 42.9285H54.3161V11.0202H67.774L78.6606 20.0367L78.5437 42.8951H76.8072C75.8889 42.8951 75.1375 43.6465 75.1375 44.5648C75.1375 45.4832 75.8889 46.2346 76.8072 46.2346H80.1967C81.1151 46.2346 81.8665 45.4999 81.8665 44.5816L82 19.2686C81.9833 18.7677 81.7663 18.2834 81.3822 17.9662Z" fill="white"/>
</svg>
