<svg width="20" height="20" viewBox="0 0 20 20" fill="none" xmlns="http://www.w3.org/2000/svg">
<path fill-rule="evenodd" clip-rule="evenodd" d="M10 0C4.3662 0 0 4.12676 0 9.7002C0 12.6157 1.19517 15.1348 3.14085 16.8753C3.30382 17.0221 3.40241 17.2254 3.41046 17.4447L3.46479 19.2233C3.4829 19.7907 4.06841 20.159 4.58753 19.9316L6.57143 19.0563C6.74044 18.9819 6.92757 18.9678 7.10463 19.0161C8.0161 19.2676 8.98793 19.4004 10 19.4004C15.6338 19.4004 20 15.2736 20 9.7002C20 4.12676 15.6338 0 10 0Z" fill="url(#paint0_linear_154_3476)"/>
<path fill-rule="evenodd" clip-rule="evenodd" d="M3.99587 12.5372L6.9335 7.87721C7.4003 7.13677 8.40231 6.95166 9.10251 7.47681L11.4385 9.22933C11.6538 9.39029 11.9476 9.38828 12.1609 9.22731L15.3158 6.83295C15.7363 6.51303 16.2876 7.01806 16.0039 7.46474L13.0683 12.1227C12.6015 12.8631 11.5995 13.0482 10.8993 12.5231L8.56328 10.7706C8.34799 10.6096 8.05422 10.6116 7.84094 10.7726L4.684 13.169C4.26348 13.4889 3.71217 12.9839 3.99587 12.5372Z" fill="white"/>
<defs>
<linearGradient id="paint0_linear_154_3476" x1="10" y1="0" x2="10" y2="19.9997" gradientUnits="userSpaceOnUse">
<stop stop-color="#00B2FF"/>
<stop offset="1" stop-color="#006AFF"/>
</linearGradient>
</defs>
</svg>
