<svg width="25" height="26" viewBox="0 0 25 26" fill="none" xmlns="http://www.w3.org/2000/svg">
<g clip-path="url(#clip0_154_3141)">
<path d="M25 13C25 6.09643 19.4036 0.499998 12.5 0.499998C5.59644 0.499998 0 6.09643 0 13C0 19.2391 4.57107 24.4104 10.5469 25.3481V16.6133H7.37305V13H10.5469V10.2461C10.5469 7.11328 12.413 5.38281 15.2683 5.38281C16.6359 5.38281 18.0664 5.62695 18.0664 5.62695V8.70312H16.4902C14.9374 8.70312 14.4531 9.66667 14.4531 10.6552V13H17.9199L17.3657 16.6133H14.4531V25.3481C20.4289 24.4104 25 19.2391 25 13Z" fill="#008BD0"/>
<path d="M17.3657 16.6133L17.9199 13H14.4531V10.6552C14.4531 9.66667 14.9374 8.70312 16.4902 8.70312H18.0664V5.62695C18.0664 5.62695 16.6359 5.38281 15.2683 5.38281C12.413 5.38281 10.5469 7.11328 10.5469 10.2461V13H7.37305V16.6133H10.5469V25.3481C11.1833 25.448 11.8355 25.5 12.5 25.5C13.1645 25.5 13.8167 25.448 14.4531 25.3481V16.6133H17.3657Z" fill="white"/>
</g>
<defs>
<clipPath id="clip0_154_3141">
<rect width="25" height="25" fill="white" transform="translate(0 0.5)"/>
</clipPath>
</defs>
</svg>
