<svg width="55" height="54" viewBox="0 0 55 54" fill="none" xmlns="http://www.w3.org/2000/svg">
<g clip-path="url(#clip0_154_3554)">
<path d="M54.1667 22.4994L47.118 38.2488H44.9377L47.5567 32.7375L42.9161 22.4977H45.2094L48.5675 30.3463H48.6114L51.8632 22.4977L54.1667 22.4994ZM24.8818 27.3695V33.75H22.6661V18.0005H28.5285C29.9257 17.9651 31.2791 18.4494 32.3253 19.3623C33.3632 20.2145 33.9335 21.4194 33.9167 22.6935C33.9335 23.9861 33.3446 25.2247 32.3253 26.033C31.3061 26.9291 30.0405 27.3695 28.5285 27.3695H24.8818ZM24.8733 19.9428V25.4357H28.5825C29.3992 25.4627 30.1991 25.164 30.7712 24.6273C31.3432 24.1177 31.6588 23.4225 31.6588 22.7019C31.6588 21.9729 31.3415 21.2777 30.7712 20.7765C30.1822 20.2145 29.3908 19.9158 28.5825 19.9412L24.8733 19.9428ZM38.3548 22.4994C39.7605 22.4994 40.8776 22.8943 41.6943 23.6773C42.5111 24.4603 42.9161 25.5318 42.9161 26.8937V33.4057H41.0885V31.9376H41.0092C40.2178 33.1425 39.1715 33.7483 37.862 33.7483C36.7365 33.7483 35.805 33.4057 35.049 32.7105C34.3098 32.0608 33.8981 31.1107 33.915 30.1269C33.915 29.0368 34.3098 28.1677 35.1097 27.5163C35.9012 26.8751 36.9643 26.5494 38.2907 26.5494C39.4247 26.5494 40.3562 26.7688 41.0852 27.1991V26.7418C41.0936 26.0735 40.8033 25.4323 40.3022 24.9834C39.801 24.5177 39.1412 24.2544 38.456 24.2628C37.3929 24.2628 36.5492 24.7286 35.9248 25.6601L34.2457 24.57C35.1688 23.1896 36.539 22.496 38.3497 22.496L38.3548 22.4994ZM35.886 30.1725C35.8775 30.6821 36.1138 31.1563 36.5188 31.4651C36.9407 31.8077 37.4688 31.9933 38.0038 31.9832C38.8037 31.9832 39.5765 31.649 40.1486 31.0601C40.7544 30.4982 41.0987 29.7067 41.0987 28.8798C40.5013 28.3871 39.6744 28.1407 38.6113 28.1407C37.8283 28.1407 37.187 28.3348 36.669 28.7212C36.1509 29.1161 35.886 29.592 35.886 30.1708V30.1725ZM9.35172 18.0005C11.6197 17.9735 13.8168 18.8088 15.4959 20.3478L12.8769 22.9145C11.9184 22.0269 10.6528 21.5426 9.35172 21.5696C7.01453 21.578 4.94904 23.0732 4.19304 25.2787C3.8066 26.3942 3.8066 27.6075 4.19304 28.7246C4.94904 30.9302 7.01453 32.4253 9.35172 32.4337C10.5903 32.4337 11.6552 32.1266 12.4803 31.5815C13.4388 30.9487 14.1071 29.9649 14.3079 28.8393H9.35003V25.3766H18.0069C18.1132 25.9824 18.1655 26.5899 18.1655 27.2042C18.1655 29.9463 17.1632 32.2667 15.4318 33.831C13.9113 35.2029 11.829 36.0011 9.35003 36.0011C5.89572 36.018 2.73166 34.1027 1.14035 31.0432C-0.160715 28.5035 -0.160715 25.4981 1.14035 22.9567C2.73166 19.8973 5.89572 17.982 9.33991 17.9988L9.35172 18.0005Z" fill="black"/>
</g>
<defs>
<clipPath id="clip0_154_3554">
<rect width="54" height="54" fill="white" transform="translate(0.166504)"/>
</clipPath>
</defs>
</svg>
