<svg width="82" height="82" viewBox="0 0 82 82" fill="none" xmlns="http://www.w3.org/2000/svg">
<path d="M19.4625 21.7246L17.0019 24.1852C16.3548 24.8324 16.3548 25.8816 17.0019 26.5289C17.3255 26.8526 17.7498 27.0144 18.1737 27.0144C18.5978 27.0144 19.0221 26.8526 19.3454 26.5289L21.8061 24.0683C22.4533 23.4211 22.4533 22.3719 21.8061 21.7246C21.1592 21.0774 20.1099 21.0776 19.4625 21.7246Z" fill="white"/>
<path d="M11.143 30.0441L9.62797 31.5592C8.98078 32.2062 8.98078 33.2556 9.62797 33.9027C9.95165 34.2264 10.3757 34.3882 10.7997 34.3882C11.2238 34.3882 11.648 34.2264 11.9714 33.9027L13.4864 32.3877C14.1335 31.7406 14.1335 30.6913 13.4864 30.0441C12.8394 29.3971 11.7902 29.3971 11.143 30.0441Z" fill="white"/>
<path d="M81.5146 29.5383L62.3058 10.3295C61.6586 9.68248 60.6093 9.68248 59.9622 10.3295L52.173 18.1187C51.8623 18.4294 51.6876 18.8509 51.6876 19.2904C51.6876 19.7299 51.8623 20.1514 52.173 20.4621L52.8268 21.1159L50.5042 23.4384C49.677 24.2656 48.6358 24.7512 47.234 24.9617L34.0266 24.9801C33.1162 24.9801 32.2724 25.2717 31.5812 25.7653L30.532 24.7163L31.1801 24.0682C31.4908 23.7575 31.6656 23.3359 31.6656 22.8965C31.6656 22.457 31.4908 22.0355 31.1801 21.7248L22.0376 12.5824C21.3907 11.9352 20.3412 11.9352 19.6941 12.5824L0.485433 31.791C0.17473 32.1018 0 32.5233 0 32.9628C0 33.4022 0.17473 33.8237 0.485433 34.1345L9.62794 43.277C9.95161 43.6006 10.3757 43.7624 10.7996 43.7624C11.2237 43.7624 11.648 43.6006 11.9713 43.277L12.5181 42.7302L14.9506 45.1628C15.7534 45.9655 16.3743 46.9072 16.796 47.9614L16.89 48.1961C17.4793 49.6697 18.3471 50.9856 19.4692 52.1076L38.0952 70.7336C39.043 71.6814 40.288 72.1555 41.5332 72.1555C42.7785 72.1555 44.0233 71.6816 44.9713 70.7336C45.4479 70.2568 45.8057 69.7056 46.0444 69.117C47.8263 69.899 49.9848 69.5619 51.4418 68.105C51.8772 67.6693 52.2206 67.1656 52.462 66.6176C54.3046 67.6142 56.6601 67.3351 58.2156 65.7797C59.7726 64.2226 60.0569 61.8674 59.0687 60.0189C59.5987 59.7855 60.0942 59.4525 60.5266 59.0203C60.5284 59.0185 60.5389 59.0079 60.5407 59.0062C62.4458 57.1011 62.4458 54.0013 60.5407 52.0963L60.4204 51.976L63.5539 48.8427C64.4857 47.9107 65.8074 46.2387 66.461 44.6042L66.561 44.3596C66.9814 43.3085 67.6028 42.3674 68.4081 41.5622L70.8407 39.1296L71.382 39.6709C71.6927 39.9816 72.1142 40.1563 72.5537 40.1563C72.9932 40.1563 73.4147 39.9816 73.7254 39.6709L81.5146 31.8817C82.1618 31.2348 82.1618 30.1855 81.5146 29.5383ZM11.3464 39.2149C11.3456 39.2157 11.3448 39.2168 11.3437 39.2178L10.7995 39.762L4.0007 32.9628L20.8659 16.0975L27.665 22.8965L27.0196 23.5419C27.0188 23.5427 27.0177 23.5435 27.0167 23.5445L11.3464 39.2149ZM58.2029 56.6572C58.2012 56.6589 58.1906 56.6694 58.1888 56.6713C57.5799 57.2802 56.6182 57.2728 56 56.6541C55.9053 56.5595 46.3115 47.0328 46.3115 47.0328C46.128 46.8494 45.9116 46.7197 45.6816 46.6404C45.2529 46.4922 44.7761 46.5232 44.369 46.7371C44.2247 46.813 44.089 46.9115 43.9678 47.0328C43.6039 47.3968 43.4445 47.888 43.49 48.3635C43.4952 48.4164 43.5027 48.4689 43.5128 48.5211C43.533 48.6255 43.5634 48.7283 43.6037 48.8281C43.6846 49.0277 43.8059 49.2146 43.9676 49.3763C43.9676 49.3763 55.9769 61.373 56.0463 61.4236C56.4761 62.0367 56.4189 62.8895 55.8717 63.4364C55.2682 64.0401 54.2861 64.0401 53.6828 63.4364L40.8518 50.6726C40.7305 50.5514 40.5949 50.4527 40.4506 50.3768C39.8253 50.0482 39.0338 50.1468 38.5081 50.6726C38.1171 51.0636 37.9642 51.6007 38.0454 52.1076C38.0985 52.4403 38.2516 52.7598 38.5081 53.016L49.3368 63.8447C49.698 64.4452 49.6189 65.2403 49.0979 65.7612C48.8054 66.0537 48.4167 66.2146 48.0034 66.2146C47.59 66.2146 47.2013 66.0535 46.909 65.7612L34.988 53.9075C34.3408 53.2604 33.2916 53.2604 32.6443 53.9075C32.6039 53.948 32.566 53.9899 32.5306 54.0333C31.9996 54.6842 32.0376 55.6444 32.6443 56.251L42.8667 66.4733C43.2279 67.0739 43.1486 67.8689 42.6276 68.3899C42.0241 68.9934 41.042 68.9932 40.4387 68.3899L21.8128 49.7638C21.0099 48.9609 20.389 48.0193 19.9674 46.9652L19.8734 46.7302C19.2841 45.2568 18.4163 43.941 17.2943 42.8189L14.8618 40.3863L28.1886 27.0597L29.8329 28.7039C29.8134 28.8664 29.802 29.0314 29.8013 29.1991C29.8013 29.2133 29.8013 29.2278 29.8017 29.2422C29.8806 32.6625 32.6973 35.4452 36.0881 35.4452L39.1889 35.4316L58.1973 54.4401C58.8101 55.0529 58.8101 56.05 58.2029 56.6572ZM66.0643 39.22C64.94 40.3443 64.0718 41.6608 63.4884 43.12L63.3884 43.3666C63.0121 44.3076 62.1165 45.6016 61.2103 46.5078L58.0847 49.6406L49.2781 40.8339C52.341 40.7635 54.0879 39.8953 54.1907 39.8427L52.6812 36.8922L52.6976 36.8839C52.6716 36.8963 50.109 38.0965 45.622 37.1777L41.0465 32.6022L41.0316 32.6086C40.7235 32.3146 40.3135 32.1797 39.886 32.1797C39.8836 32.1797 39.8812 32.1797 39.879 32.1797L36.0814 32.1639C34.4917 32.1639 33.1669 30.8149 33.1164 29.1916C33.1276 28.7036 33.5407 28.2947 34.0291 28.2947L47.3562 28.2761C47.4315 28.2761 47.5067 28.2708 47.5811 28.2606C49.7592 27.9592 51.482 27.1484 52.8479 25.7825L55.1707 23.4601L68.4974 36.7871L66.0643 39.22ZM72.5537 36.1558L72.0132 35.6153C72.0128 35.6149 72.0127 35.6148 72.0124 35.6145L56.3422 19.9443C56.3419 19.944 56.3417 19.9438 56.3414 19.9435L55.6885 19.2906L61.1341 13.8449L77.9992 30.71L72.5537 36.1558Z" fill="white"/>
</svg>
