<svg width="370" height="589" viewBox="0 0 370 589" fill="none" xmlns="http://www.w3.org/2000/svg">
<g clip-path="url(#clip0_301_1673)">
<path d="M90.001 37.1326C95.2342 37.1326 100.446 35.6095 103.866 34.3496C105.771 34.6912 107.769 34.9257 109.863 34.9257H109.869C111.174 34.9257 115.805 34.9257 120.326 34.1577C119.531 34.8539 118.402 35.8136 117 36.9312C114.07 39.2657 109.953 42.2845 105.199 45.0271C100.78 47.5768 94.8306 48.2705 90.001 48.2705C85.1713 48.2705 79.222 47.5768 74.8026 45.0271C70.0487 42.2845 65.9318 39.2657 63.0023 36.9312C61.5998 35.8136 60.4707 34.8539 59.6755 34.1577C64.1969 34.9257 68.8282 34.9257 70.1333 34.9257H70.1389C72.2333 34.9257 74.2313 34.6912 76.1359 34.3496C79.5564 35.6095 84.7677 37.1326 90.001 37.1326Z" stroke="white"/>
<path d="M90.001 30.6149C87.9219 30.6149 85.721 31.07 83.4193 31.6311C82.8365 31.7732 82.2473 31.922 81.6506 32.0727C79.8737 32.5216 78.0307 32.9872 76.0915 33.341C74.1873 33.6883 72.2066 33.9253 70.1389 33.9253C68.8248 33.9253 64.1896 33.9242 59.7229 33.1509C62.5826 31.9281 65.671 30.4015 68.7023 28.903C70.0787 28.2226 71.4432 27.5481 72.7694 26.9104C75.1683 25.7568 77.4444 24.722 79.4591 23.9761C81.485 23.226 83.1973 22.7874 84.4837 22.7874C86.0373 22.7874 86.8054 23.143 87.4494 23.4977C87.5237 23.5386 87.5979 23.5806 87.6728 23.623C88.2776 23.9655 88.9248 24.332 90.001 24.332C91.0772 24.332 91.7244 23.9655 92.3291 23.623C92.404 23.5806 92.4782 23.5386 92.5525 23.4977C93.1965 23.143 93.9646 22.7874 95.5182 22.7874C96.8046 22.7874 98.517 23.226 100.543 23.9761C102.558 24.722 104.834 25.7568 107.233 26.9104C108.559 27.5481 109.923 28.2226 111.3 28.903C114.331 30.4015 117.419 31.9281 120.279 33.1509C115.812 33.9242 111.177 33.9253 109.863 33.9253C107.795 33.9253 105.815 33.6883 103.91 33.341C101.971 32.9872 100.128 32.5216 98.3513 32.0727C97.7547 31.922 97.1655 31.7732 96.5826 31.6311C94.281 31.07 92.08 30.6149 90.001 30.6149Z" stroke="white"/>
</g>
<path d="M70.4905 84.8181H68.3655C68.3049 84.4697 68.1932 84.1609 68.0303 83.892C67.8674 83.6193 67.6648 83.3882 67.4224 83.1988C67.1799 83.0094 66.9034 82.8674 66.5928 82.7727C66.286 82.6742 65.9546 82.625 65.5985 82.625C64.9659 82.625 64.4053 82.784 63.9167 83.1022C63.428 83.4166 63.0455 83.8787 62.769 84.4886C62.4924 85.0947 62.3542 85.8352 62.3542 86.7102C62.3542 87.6003 62.4924 88.3503 62.769 88.9602C63.0493 89.5662 63.4318 90.0246 63.9167 90.3352C64.4053 90.642 64.964 90.7954 65.5928 90.7954C65.9413 90.7954 66.2671 90.75 66.5701 90.659C66.8769 90.5644 67.1515 90.4261 67.394 90.2443C67.6402 90.0625 67.8466 89.839 68.0133 89.5738C68.1837 89.3087 68.3012 89.0056 68.3655 88.6647L70.4905 88.6761C70.411 89.2291 70.2387 89.7481 69.9735 90.2329C69.7121 90.7178 69.3693 91.1458 68.9451 91.517C68.5208 91.8844 68.0246 92.1723 67.4565 92.3806C66.8883 92.5852 66.2576 92.6875 65.5644 92.6875C64.5417 92.6875 63.6288 92.4507 62.8258 91.9772C62.0227 91.5037 61.3902 90.82 60.928 89.9261C60.4659 89.0322 60.2349 87.9602 60.2349 86.7102C60.2349 85.4564 60.4678 84.3844 60.9337 83.4943C61.3996 82.6003 62.0341 81.9166 62.8371 81.4431C63.6402 80.9697 64.5493 80.7329 65.5644 80.7329C66.2121 80.7329 66.8144 80.8238 67.3712 81.0056C67.928 81.1875 68.4243 81.4545 68.8599 81.8068C69.2955 82.1553 69.6534 82.5833 69.9337 83.0909C70.2178 83.5947 70.4034 84.1704 70.4905 84.8181Z" fill="white"/>
<path d="M77.3528 90.1363L79.9437 83.8011H81.6028L78.0744 92.5284H76.6369L73.188 83.8011H74.83L77.3528 90.1363ZM74.313 83.8011V92.5284H72.33V83.8011H74.313ZM80.4778 92.5284V83.8011H82.4437V92.5284H80.4778Z" fill="white"/>
<path d="M87.0289 92.7045C86.4759 92.7045 85.9778 92.606 85.5346 92.409C85.0952 92.2083 84.7467 91.9128 84.4891 91.5227C84.2353 91.1325 84.1084 90.6515 84.1084 90.0795C84.1084 89.5871 84.1994 89.1799 84.3812 88.8579C84.563 88.5359 84.8111 88.2784 85.1255 88.0852C85.4399 87.892 85.794 87.7462 86.188 87.6477C86.5857 87.5454 86.9967 87.4715 87.4209 87.4261C87.9323 87.3731 88.3471 87.3257 88.6653 87.284C88.9834 87.2386 89.2145 87.1704 89.3584 87.0795C89.5062 86.9848 89.58 86.839 89.58 86.642V86.6079C89.58 86.1799 89.4531 85.8484 89.1994 85.6136C88.9456 85.3787 88.58 85.2613 88.1028 85.2613C87.599 85.2613 87.1994 85.3712 86.9039 85.5909C86.6122 85.8106 86.4153 86.07 86.313 86.3693L84.3925 86.0965C84.544 85.5662 84.794 85.1231 85.1425 84.767C85.491 84.4072 85.9172 84.1382 86.4209 83.9602C86.9247 83.7784 87.4816 83.6875 88.0914 83.6875C88.5119 83.6875 88.9304 83.7367 89.3471 83.8352C89.7638 83.9337 90.1444 84.0965 90.4891 84.3238C90.8338 84.5473 91.1103 84.8522 91.3187 85.2386C91.5308 85.625 91.6369 86.1079 91.6369 86.6875V92.5284H89.6596V91.3295H89.5914C89.4664 91.5719 89.2903 91.7992 89.063 92.0113C88.8395 92.2197 88.5573 92.3882 88.2164 92.517C87.8793 92.642 87.4834 92.7045 87.0289 92.7045ZM87.563 91.1931C87.9759 91.1931 88.3338 91.1117 88.6369 90.9488C88.9399 90.7822 89.1728 90.5625 89.3357 90.2897C89.5024 90.017 89.5857 89.7197 89.5857 89.3977V88.3693C89.5213 88.4223 89.4115 88.4715 89.2562 88.517C89.1047 88.5625 88.9342 88.6022 88.7448 88.6363C88.5554 88.6704 88.3679 88.7007 88.1823 88.7272C87.9967 88.7537 87.8357 88.7765 87.6994 88.7954C87.3925 88.8371 87.1179 88.9053 86.8755 89C86.6331 89.0947 86.4418 89.2272 86.3016 89.3977C86.1615 89.5643 86.0914 89.7803 86.0914 90.0454C86.0914 90.4242 86.2297 90.7102 86.5062 90.9034C86.7827 91.0965 87.135 91.1931 87.563 91.1931Z" fill="white"/>
<path d="M100.995 83.8011V92.5284H99.0175V83.8011H100.995ZM100.069 87.7443V89.4261C99.8452 89.5246 99.5914 89.6136 99.3073 89.6931C99.027 89.7689 98.7297 89.8295 98.4153 89.875C98.1047 89.9204 97.7941 89.9431 97.4834 89.9431C96.3168 89.9431 95.3944 89.6818 94.7164 89.159C94.0422 88.6325 93.705 87.8125 93.705 86.6988V83.7897H95.6709V86.6988C95.6709 87.0738 95.7372 87.375 95.8698 87.6022C96.0024 87.8295 96.2031 87.9962 96.4721 88.1022C96.741 88.2045 97.0781 88.2556 97.4834 88.2556C97.938 88.2556 98.3698 88.2102 98.7789 88.1193C99.188 88.0284 99.6179 87.9034 100.069 87.7443Z" fill="white"/>
<path d="M109.059 87.3125V89H104.411V87.3125H109.059ZM105.047 83.8011V92.5284H103.064V83.8011H105.047ZM110.405 83.8011V92.5284H108.428V83.8011H110.405Z" fill="white"/>
<path d="M114.998 92.7045C114.445 92.7045 113.947 92.606 113.503 92.409C113.064 92.2083 112.715 91.9128 112.458 91.5227C112.204 91.1325 112.077 90.6515 112.077 90.0795C112.077 89.5871 112.168 89.1799 112.35 88.8579C112.532 88.5359 112.78 88.2784 113.094 88.0852C113.409 87.892 113.763 87.7462 114.157 87.6477C114.554 87.5454 114.965 87.4715 115.39 87.4261C115.901 87.3731 116.316 87.3257 116.634 87.284C116.952 87.2386 117.183 87.1704 117.327 87.0795C117.475 86.9848 117.549 86.839 117.549 86.642V86.6079C117.549 86.1799 117.422 85.8484 117.168 85.6136C116.914 85.3787 116.549 85.2613 116.072 85.2613C115.568 85.2613 115.168 85.3712 114.873 85.5909C114.581 85.8106 114.384 86.07 114.282 86.3693L112.361 86.0965C112.513 85.5662 112.763 85.1231 113.111 84.767C113.46 84.4072 113.886 84.1382 114.39 83.9602C114.893 83.7784 115.45 83.6875 116.06 83.6875C116.481 83.6875 116.899 83.7367 117.316 83.8352C117.733 83.9337 118.113 84.0965 118.458 84.3238C118.803 84.5473 119.079 84.8522 119.287 85.2386C119.5 85.625 119.606 86.1079 119.606 86.6875V92.5284H117.628V91.3295H117.56C117.435 91.5719 117.259 91.7992 117.032 92.0113C116.808 92.2197 116.526 92.3882 116.185 92.517C115.848 92.642 115.452 92.7045 114.998 92.7045ZM115.532 91.1931C115.945 91.1931 116.303 91.1117 116.606 90.9488C116.909 90.7822 117.142 90.5625 117.304 90.2897C117.471 90.017 117.554 89.7197 117.554 89.3977V88.3693C117.49 88.4223 117.38 88.4715 117.225 88.517C117.073 88.5625 116.903 88.6022 116.714 88.6363C116.524 88.6704 116.337 88.7007 116.151 88.7272C115.965 88.7537 115.804 88.7765 115.668 88.7954C115.361 88.8371 115.087 88.9053 114.844 89C114.602 89.0947 114.411 89.2272 114.27 89.3977C114.13 89.5643 114.06 89.7803 114.06 90.0454C114.06 90.4242 114.198 90.7102 114.475 90.9034C114.751 91.0965 115.104 91.1931 115.532 91.1931Z" fill="white"/>
<g clip-path="url(#clip1_301_1673)">
<path d="M101.313 215.528H78.09C77.7778 215.528 77.4887 215.363 77.3302 215.094L76.0479 212.914C75.9669 212.782 75.9197 212.628 75.9185 212.462C75.9185 212.462 75.9185 212.461 75.9185 212.461C75.9185 212.46 75.9185 212.46 75.9185 212.459C75.9185 212.459 75.9185 212.458 75.9185 212.457C75.9185 212.457 75.9185 212.457 75.9185 212.457C75.9185 212.456 75.9185 212.455 75.9185 212.454V160.055C75.9185 159.317 76.5017 158.572 77.0608 158.028L76.4287 157.383C76.267 157.218 76.1764 156.997 76.1764 156.766V155.231C76.1764 154.744 76.571 154.35 77.0579 154.35H82.8322L89.7267 151.592C90.1793 151.411 90.6918 151.631 90.8727 152.083C91.0534 152.535 90.8335 153.048 90.3817 153.229L87.5793 154.349H102.345C102.832 154.349 103.227 154.744 103.227 155.231V156.766C103.227 156.997 103.136 157.218 102.974 157.383L102.342 158.027C102.901 158.572 103.485 159.317 103.485 160.054V212.454C103.485 212.455 103.485 212.456 103.485 212.457C103.485 212.457 103.485 212.457 103.485 212.457C103.485 212.458 103.485 212.459 103.485 212.459C103.485 212.46 103.485 212.46 103.485 212.461C103.485 212.461 103.485 212.462 103.485 212.462C103.483 212.628 103.436 212.782 103.355 212.914L102.073 215.094C101.914 215.363 101.625 215.528 101.313 215.528ZM78.5941 213.765H100.809L101.062 213.336H78.3413L78.5941 213.765ZM77.6814 211.573H101.722V160.078C101.663 159.864 101.223 159.368 100.744 158.963H78.6586C78.1801 159.368 77.7399 159.864 77.6814 160.078V211.573ZM78.7182 157.2H100.685L101.464 156.406V156.113H83.0222C83.0087 156.113 82.9951 156.113 82.9819 156.113H77.9393V156.406L78.7182 157.2ZM82.825 204.421C82.7008 204.421 82.575 204.395 82.4558 204.34C82.0522 204.153 81.8505 203.695 81.9856 203.271L87.7365 185.225H83.4582C83.1816 185.225 82.921 185.096 82.7544 184.875C82.588 184.654 82.5348 184.368 82.6107 184.102L87.2515 167.859C87.3596 167.481 87.7055 167.22 88.0992 167.22H95.904C96.1949 167.22 96.4673 167.363 96.6316 167.604C96.7959 167.844 96.831 168.15 96.7256 168.421L92.7629 178.611H97.8023C98.1225 178.611 98.4174 178.784 98.5729 179.064C98.7284 179.344 98.7198 179.686 98.5505 179.958L83.5739 204.005C83.4082 204.271 83.1213 204.421 82.825 204.421ZM84.627 183.462H88.9428C89.2242 183.462 89.4887 183.597 89.6546 183.824C89.8205 184.051 89.8681 184.343 89.7828 184.612L85.8086 197.082L96.2146 180.374H91.4741C91.1832 180.374 90.9108 180.23 90.7465 179.99C90.5821 179.75 90.547 179.444 90.6525 179.173L94.6152 168.983H88.7641L84.627 183.462Z" fill="white"/>
</g>
<path d="M48 237.727V226.091H52.4545C53.2955 226.091 53.9943 226.223 54.5511 226.489C55.1117 226.75 55.5303 227.108 55.8068 227.562C56.0871 228.017 56.2273 228.532 56.2273 229.108C56.2273 229.581 56.1364 229.987 55.9545 230.324C55.7727 230.657 55.5284 230.928 55.2216 231.136C54.9148 231.345 54.572 231.494 54.1932 231.585V231.699C54.6061 231.722 55.0019 231.848 55.3807 232.079C55.7633 232.307 56.0758 232.629 56.3182 233.045C56.5606 233.462 56.6818 233.966 56.6818 234.557C56.6818 235.159 56.536 235.701 56.2443 236.182C55.9526 236.659 55.5133 237.036 54.9261 237.312C54.339 237.589 53.6004 237.727 52.7102 237.727H48ZM50.108 235.966H52.375C53.1402 235.966 53.6913 235.82 54.0284 235.528C54.3693 235.233 54.5398 234.854 54.5398 234.392C54.5398 234.047 54.4545 233.737 54.2841 233.46C54.1136 233.18 53.8712 232.96 53.5568 232.801C53.2424 232.638 52.8674 232.557 52.4318 232.557H50.108V235.966ZM50.108 231.04H52.1932C52.5568 231.04 52.8845 230.973 53.1761 230.841C53.4678 230.704 53.697 230.513 53.8636 230.267C54.0341 230.017 54.1193 229.722 54.1193 229.381C54.1193 228.93 53.9602 228.559 53.642 228.267C53.3277 227.975 52.8598 227.829 52.2386 227.829H50.108V231.04Z" fill="white"/>
<path d="M58.4247 237.727V229H60.4815V237.727H58.4247ZM59.4588 227.761C59.133 227.761 58.8527 227.653 58.6179 227.437C58.383 227.218 58.2656 226.954 58.2656 226.648C58.2656 226.337 58.383 226.074 58.6179 225.858C58.8527 225.638 59.133 225.528 59.4588 225.528C59.7884 225.528 60.0687 225.638 60.2997 225.858C60.5346 226.074 60.652 226.337 60.652 226.648C60.652 226.954 60.5346 227.218 60.2997 227.437C60.0687 227.653 59.7884 227.761 59.4588 227.761Z" fill="white"/>
<path d="M61.8239 240.261V236.034H62.517C62.7027 235.89 62.858 235.695 62.983 235.449C63.108 235.199 63.2102 234.905 63.2898 234.568C63.3731 234.227 63.4413 233.847 63.4943 233.426C63.5473 233.002 63.5947 232.545 63.6364 232.057L63.8864 229H70.1932V236.034H71.5455V240.261H69.5568V237.727H63.8466V240.261H61.8239ZM64.6307 236.034H68.2273V230.659H65.6705L65.5341 232.057C65.4583 232.981 65.358 233.773 65.233 234.432C65.108 235.091 64.9072 235.625 64.6307 236.034Z" fill="white"/>
<path d="M79.0753 232.511V234.199H74.4276V232.511H79.0753ZM75.0639 229V237.727H73.081V229H75.0639ZM80.4219 229V237.727H78.4446V229H80.4219Z" fill="white"/>
<path d="M86.3097 237.898C85.4574 237.898 84.7188 237.71 84.0938 237.335C83.4688 236.96 82.9839 236.436 82.6392 235.761C82.2983 235.087 82.1278 234.299 82.1278 233.398C82.1278 232.496 82.2983 231.706 82.6392 231.028C82.9839 230.35 83.4688 229.824 84.0938 229.449C84.7188 229.074 85.4574 228.886 86.3097 228.886C87.1619 228.886 87.9006 229.074 88.5256 229.449C89.1506 229.824 89.6335 230.35 89.9744 231.028C90.3191 231.706 90.4915 232.496 90.4915 233.398C90.4915 234.299 90.3191 235.087 89.9744 235.761C89.6335 236.436 89.1506 236.96 88.5256 237.335C87.9006 237.71 87.1619 237.898 86.3097 237.898ZM86.321 236.25C86.7831 236.25 87.1695 236.123 87.4801 235.869C87.7907 235.612 88.0218 235.267 88.1733 234.835C88.3286 234.403 88.4062 233.922 88.4062 233.392C88.4062 232.858 88.3286 232.375 88.1733 231.943C88.0218 231.507 87.7907 231.161 87.4801 230.903C87.1695 230.646 86.7831 230.517 86.321 230.517C85.8475 230.517 85.4536 230.646 85.1392 230.903C84.8286 231.161 84.5956 231.507 84.4403 231.943C84.2888 232.375 84.2131 232.858 84.2131 233.392C84.2131 233.922 84.2888 234.403 84.4403 234.835C84.5956 235.267 84.8286 235.612 85.1392 235.869C85.4536 236.123 85.8475 236.25 86.321 236.25Z" fill="white"/>
<path d="M92.2372 237.727V229H95.902C96.9361 229 97.7524 229.206 98.3509 229.619C98.9531 230.032 99.2543 230.608 99.2543 231.347C99.2543 231.835 99.0838 232.235 98.7429 232.545C98.4058 232.852 97.9455 233.059 97.3622 233.165C97.8205 233.203 98.2221 233.318 98.5668 233.511C98.9152 233.704 99.188 233.958 99.3849 234.273C99.5819 234.587 99.6804 234.949 99.6804 235.358C99.6804 235.839 99.5535 236.257 99.2997 236.614C99.0497 236.966 98.6842 237.24 98.2031 237.437C97.7259 237.631 97.1463 237.727 96.4645 237.727H92.2372ZM94.1634 236.108H96.4645C96.8433 236.108 97.1406 236.019 97.3565 235.841C97.5724 235.659 97.6804 235.413 97.6804 235.102C97.6804 234.742 97.5724 234.46 97.3565 234.256C97.1406 234.047 96.8433 233.943 96.4645 233.943H94.1634V236.108ZM94.1634 232.614H95.9418C96.2221 232.614 96.4626 232.574 96.6634 232.494C96.8641 232.411 97.0175 232.295 97.1236 232.148C97.2296 231.996 97.2827 231.816 97.2827 231.608C97.2827 231.309 97.1596 231.074 96.9134 230.903C96.6709 230.733 96.3338 230.648 95.902 230.648H94.1634V232.614Z" fill="white"/>
<path d="M100.776 237.727L100.764 236.034H101.065C101.293 236.034 101.484 235.983 101.639 235.881C101.795 235.778 101.923 235.608 102.026 235.369C102.128 235.127 102.207 234.801 102.264 234.392C102.321 233.983 102.361 233.473 102.384 232.864L102.537 229H108.901V237.727H106.912V230.687H104.406L104.27 233.5C104.236 234.227 104.154 234.858 104.026 235.392C103.901 235.922 103.723 236.36 103.491 236.704C103.264 237.049 102.978 237.307 102.634 237.477C102.289 237.644 101.882 237.727 101.412 237.727H100.776Z" fill="white"/>
<path d="M115.58 232.574V234.267H110.881V232.574H115.58ZM112.511 229V237.727H110.449V229H112.511ZM118.216 237.898C117.375 237.898 116.646 237.706 116.028 237.324C115.415 236.941 114.939 236.411 114.602 235.733C114.265 235.055 114.097 234.271 114.097 233.381C114.097 232.49 114.265 231.708 114.602 231.034C114.939 230.36 115.415 229.833 116.028 229.454C116.646 229.076 117.375 228.886 118.216 228.886C119.053 228.886 119.778 229.076 120.392 229.454C121.009 229.833 121.487 230.36 121.824 231.034C122.165 231.708 122.335 232.49 122.335 233.381C122.335 234.271 122.165 235.055 121.824 235.733C121.487 236.411 121.009 236.941 120.392 237.324C119.778 237.706 119.053 237.898 118.216 237.898ZM118.216 236.193C118.712 236.193 119.117 236.068 119.432 235.818C119.746 235.568 119.977 235.231 120.125 234.807C120.273 234.382 120.347 233.907 120.347 233.381C120.347 232.854 120.273 232.379 120.125 231.954C119.977 231.53 119.746 231.195 119.432 230.949C119.117 230.699 118.712 230.574 118.216 230.574C117.716 230.574 117.307 230.699 116.989 230.949C116.674 231.195 116.443 231.53 116.295 231.954C116.148 232.379 116.074 232.854 116.074 233.381C116.074 233.911 116.148 234.388 116.295 234.812C116.443 235.237 116.674 235.574 116.989 235.824C117.307 236.07 117.716 236.193 118.216 236.193Z" fill="white"/>
<path d="M128.239 232.75V234.108H124.688V232.75H128.239ZM131.403 231.75L129.46 232.006C129.354 231.593 129.157 231.252 128.869 230.983C128.581 230.71 128.178 230.574 127.659 230.574C127.197 230.574 126.807 230.689 126.489 230.92C126.174 231.151 125.936 231.477 125.773 231.898C125.61 232.314 125.528 232.803 125.528 233.364C125.528 233.928 125.608 234.422 125.767 234.847C125.93 235.271 126.169 235.602 126.483 235.841C126.801 236.076 127.193 236.193 127.659 236.193C127.977 236.193 128.256 236.138 128.494 236.028C128.733 235.915 128.93 235.759 129.085 235.562C129.244 235.362 129.36 235.129 129.432 234.864L131.386 235.108C131.277 235.657 131.053 236.142 130.716 236.562C130.383 236.979 129.955 237.307 129.432 237.545C128.913 237.78 128.322 237.898 127.659 237.898C126.811 237.898 126.078 237.704 125.46 237.318C124.847 236.932 124.373 236.398 124.04 235.716C123.71 235.034 123.545 234.25 123.545 233.364C123.545 232.489 123.712 231.716 124.045 231.045C124.383 230.371 124.858 229.843 125.472 229.46C126.085 229.078 126.814 228.886 127.659 228.886C128.318 228.886 128.909 229.006 129.432 229.244C129.958 229.479 130.392 229.811 130.733 230.239C131.078 230.667 131.301 231.17 131.403 231.75Z" fill="white"/>
<path d="M64.8274 256.898C63.9524 256.898 63.1967 256.716 62.5604 256.352C61.9278 255.985 61.441 255.466 61.1001 254.795C60.7592 254.121 60.5888 253.328 60.5888 252.415C60.5888 251.517 60.7592 250.729 61.1001 250.051C61.4448 249.369 61.9259 248.839 62.5433 248.46C63.1607 248.078 63.8861 247.886 64.7195 247.886C65.2573 247.886 65.7649 247.973 66.2422 248.148C66.7232 248.318 67.1475 248.583 67.5149 248.943C67.8861 249.303 68.1778 249.761 68.3899 250.318C68.602 250.871 68.7081 251.53 68.7081 252.295V252.926H61.5547V251.54H66.7365C66.7327 251.146 66.6475 250.795 66.4808 250.489C66.3142 250.178 66.0812 249.934 65.782 249.756C65.4865 249.578 65.1418 249.489 64.7479 249.489C64.3274 249.489 63.9581 249.591 63.6399 249.795C63.3217 249.996 63.0736 250.261 62.8956 250.591C62.7214 250.917 62.6323 251.275 62.6286 251.665V252.875C62.6286 253.382 62.7214 253.818 62.907 254.182C63.0926 254.542 63.352 254.818 63.6854 255.011C64.0187 255.201 64.4089 255.295 64.8558 255.295C65.1551 255.295 65.4259 255.254 65.6683 255.17C65.9108 255.083 66.121 254.956 66.299 254.79C66.477 254.623 66.6115 254.417 66.7024 254.17L68.6229 254.386C68.5017 254.894 68.2706 255.337 67.9297 255.716C67.5926 256.091 67.1607 256.382 66.6342 256.591C66.1077 256.795 65.5054 256.898 64.8274 256.898Z" fill="white"/>
<path d="M76.4425 251.511V253.199H71.7947V251.511H76.4425ZM72.4311 248V256.727H70.4482V248H72.4311ZM77.7891 248V256.727H75.8118V248H77.7891Z" fill="white"/>
<path d="M83.7337 256.898C82.8587 256.898 82.103 256.716 81.4666 256.352C80.834 255.985 80.3473 255.466 80.0064 254.795C79.6655 254.121 79.495 253.328 79.495 252.415C79.495 251.517 79.6655 250.729 80.0064 250.051C80.3511 249.369 80.8321 248.839 81.4496 248.46C82.067 248.078 82.7924 247.886 83.6257 247.886C84.1636 247.886 84.6712 247.973 85.1484 248.148C85.6295 248.318 86.0537 248.583 86.4212 248.943C86.7924 249.303 87.084 249.761 87.2962 250.318C87.5083 250.871 87.6143 251.53 87.6143 252.295V252.926H80.4609V251.54H85.6428C85.639 251.146 85.5537 250.795 85.3871 250.489C85.2204 250.178 84.9875 249.934 84.6882 249.756C84.3928 249.578 84.0481 249.489 83.6541 249.489C83.2337 249.489 82.8643 249.591 82.5462 249.795C82.228 249.996 81.9799 250.261 81.8018 250.591C81.6276 250.917 81.5386 251.275 81.5348 251.665V252.875C81.5348 253.382 81.6276 253.818 81.8132 254.182C81.9988 254.542 82.2583 254.818 82.5916 255.011C82.925 255.201 83.3151 255.295 83.7621 255.295C84.0613 255.295 84.3322 255.254 84.5746 255.17C84.817 255.083 85.0272 254.956 85.2053 254.79C85.3833 254.623 85.5178 254.417 85.6087 254.17L87.5291 254.386C87.4079 254.894 87.1768 255.337 86.8359 255.716C86.4988 256.091 86.067 256.382 85.5405 256.591C85.014 256.795 84.4117 256.898 83.7337 256.898Z" fill="white"/>
<path d="M89.3544 260V248H91.3771V249.443H91.4964C91.6025 249.231 91.7521 249.006 91.9453 248.767C92.1385 248.525 92.3999 248.318 92.7294 248.148C93.0589 247.973 93.4794 247.886 93.9908 247.886C94.665 247.886 95.273 248.059 95.8146 248.403C96.3601 248.744 96.7919 249.25 97.1101 249.92C97.4321 250.587 97.593 251.405 97.593 252.375C97.593 253.333 97.4358 254.148 97.1215 254.818C96.8071 255.489 96.379 256 95.8374 256.352C95.2957 256.704 94.6821 256.881 93.9965 256.881C93.4965 256.881 93.0817 256.797 92.7521 256.631C92.4226 256.464 92.1574 256.263 91.9567 256.028C91.7597 255.79 91.6063 255.564 91.4964 255.352H91.4112V260H89.3544ZM91.3714 252.364C91.3714 252.928 91.451 253.422 91.6101 253.847C91.773 254.271 92.0059 254.602 92.309 254.841C92.6158 255.076 92.987 255.193 93.4226 255.193C93.8771 255.193 94.2578 255.072 94.5646 254.829C94.8714 254.583 95.1025 254.248 95.2578 253.824C95.4169 253.396 95.4965 252.909 95.4965 252.364C95.4965 251.822 95.4188 251.341 95.2635 250.92C95.1082 250.5 94.8771 250.17 94.5703 249.932C94.2635 249.693 93.8809 249.574 93.4226 249.574C92.9832 249.574 92.6101 249.689 92.3033 249.92C91.9965 250.151 91.7635 250.475 91.6044 250.892C91.4491 251.309 91.3714 251.799 91.3714 252.364Z" fill="white"/>
<path d="M105.127 248V249.687H101.366V256.727H99.3544V248H105.127Z" fill="white"/>
<path d="M106.776 256.727V248H108.833V256.727H106.776ZM107.81 246.761C107.485 246.761 107.204 246.653 106.969 246.437C106.735 246.218 106.617 245.954 106.617 245.648C106.617 245.337 106.735 245.074 106.969 244.858C107.204 244.638 107.485 244.528 107.81 244.528C108.14 244.528 108.42 244.638 108.651 244.858C108.886 245.074 109.004 245.337 109.004 245.648C109.004 245.954 108.886 246.218 108.651 246.437C108.42 246.653 108.14 246.761 107.81 246.761Z" fill="white"/>
<path d="M115.556 251.574V253.267H110.857V251.574H115.556ZM112.488 248V256.727H110.425V248H112.488ZM118.192 256.898C117.352 256.898 116.622 256.706 116.005 256.324C115.391 255.941 114.916 255.411 114.579 254.733C114.242 254.055 114.073 253.271 114.073 252.381C114.073 251.49 114.242 250.708 114.579 250.034C114.916 249.36 115.391 248.833 116.005 248.454C116.622 248.076 117.352 247.886 118.192 247.886C119.03 247.886 119.755 248.076 120.369 248.454C120.986 248.833 121.463 249.36 121.8 250.034C122.141 250.708 122.312 251.49 122.312 252.381C122.312 253.271 122.141 254.055 121.8 254.733C121.463 255.411 120.986 255.941 120.369 256.324C119.755 256.706 119.03 256.898 118.192 256.898ZM118.192 255.193C118.689 255.193 119.094 255.068 119.408 254.818C119.723 254.568 119.954 254.231 120.102 253.807C120.249 253.382 120.323 252.907 120.323 252.381C120.323 251.854 120.249 251.379 120.102 250.954C119.954 250.53 119.723 250.195 119.408 249.949C119.094 249.699 118.689 249.574 118.192 249.574C117.692 249.574 117.283 249.699 116.965 249.949C116.651 250.195 116.42 250.53 116.272 250.954C116.124 251.379 116.05 251.854 116.05 252.381C116.05 252.911 116.124 253.388 116.272 253.812C116.42 254.237 116.651 254.574 116.965 254.824C117.283 255.07 117.692 255.193 118.192 255.193Z" fill="white"/>
<g clip-path="url(#clip2_301_1673)">
<path d="M69.8025 326.558C69.2984 323.04 70.0028 320.609 72.1575 318.428C73.7601 316.806 76.0328 315.837 78.2366 315.837H81.6884C82.7511 315.837 84.3023 314.39 84.7875 312.453L84.8844 312.067C85.0491 311.412 85.7139 311.014 86.3687 311.179C87.0239 311.344 87.4215 312.008 87.2568 312.663L87.1602 313.048C86.425 315.984 84.0213 318.283 81.6884 318.283H78.2366C76.696 318.283 75.0335 318.998 73.8978 320.147C72.279 321.786 71.8252 323.429 72.224 326.211L73.7998 337.203C73.8957 337.871 73.4313 338.491 72.7627 338.587C72.7039 338.596 72.6454 338.6 72.5875 338.6C71.9889 338.6 71.4658 338.16 71.3784 337.55L69.8025 326.558ZM80.0494 330.84C79.9884 329.717 79.9529 328.549 79.9593 327.354C79.9628 326.678 79.4183 326.128 78.7427 326.124C78.0667 326.124 77.5167 326.665 77.513 327.341C77.4958 330.571 77.7821 333.686 78.0337 336.038C78.1008 336.666 78.6312 337.131 79.2484 337.131C79.2919 337.131 79.3358 337.129 79.3799 337.124C80.0516 337.053 80.538 336.45 80.4662 335.778C80.3993 335.153 80.3323 334.497 80.2698 333.815C81.3305 334.243 82.6057 334.483 83.9619 334.483C86.5109 334.483 88.7726 333.638 89.8645 332.277C90.2873 331.75 90.2031 330.98 89.6762 330.558C89.1494 330.135 88.3795 330.219 87.9567 330.746C87.4578 331.368 85.995 332.037 83.9619 332.037C82.0307 332.036 80.6141 331.433 80.0494 330.84ZM98.476 334.483C101.025 334.483 103.287 333.637 104.379 332.277C104.536 332.08 104.63 331.839 104.645 331.588C104.663 331.299 104.683 331.008 104.703 330.714C104.778 329.613 104.855 328.475 104.849 327.341C104.845 326.668 104.298 326.124 103.626 326.124C103.624 326.124 103.622 326.124 103.619 326.124C102.944 326.128 102.399 326.679 102.403 327.354C102.408 328.399 102.334 329.492 102.262 330.548C102.252 330.695 102.243 330.84 102.233 330.985C101.589 331.528 100.249 332.037 98.476 332.037C96.443 332.037 94.98 331.368 94.4811 330.746C94.0585 330.219 93.2886 330.135 92.7617 330.558C92.2349 330.98 92.1505 331.75 92.5733 332.277C93.6653 333.638 95.927 334.483 98.476 334.483ZM66.803 337.714C66.6324 338.368 67.0241 339.036 67.6778 339.206C67.7813 339.233 67.885 339.246 67.9874 339.246C68.5306 339.246 69.0265 338.881 69.17 338.331C69.8424 335.753 68.5687 332.598 66.0658 330.653C65.9276 330.547 65.784 330.448 65.6361 330.355L65.9388 329.103C66.0975 328.446 65.6939 327.786 65.0372 327.627C64.3808 327.467 63.7196 327.872 63.561 328.528L63.3479 329.41C62.4862 329.179 61.6262 329.045 60.8939 328.93C60.8002 328.916 60.7071 328.901 60.6163 328.887L61.6881 322.17C61.7814 322.185 61.8766 322.2 61.9739 322.215C63.2639 322.416 65.0305 322.692 66.0358 323.462C66.5719 323.873 67.3396 323.771 67.7506 323.235C68.1614 322.699 68.0597 321.931 67.5235 321.52C66.0238 320.372 63.9013 320.04 62.3516 319.798C61.8198 319.715 61.3175 319.636 61.0364 319.551C60.6982 319.448 60.3321 319.497 60.0324 319.684C59.7328 319.872 59.5288 320.18 59.4731 320.529L58.0154 329.661C57.9192 330.264 58.283 330.846 58.8678 331.024C59.3128 331.159 59.8704 331.246 60.5163 331.347C61.8062 331.548 63.5728 331.825 64.5713 332.589C66.2628 333.904 67.2221 336.107 66.803 337.714ZM95.1587 313.047C95.8942 315.983 98.298 318.283 100.631 318.283H104.083C105.623 318.283 107.286 318.997 108.421 320.147C110.04 321.786 110.494 323.429 110.095 326.211L109.31 331.69C109.214 332.358 109.678 332.978 110.347 333.074C110.406 333.083 110.464 333.087 110.522 333.087C111.12 333.087 111.644 332.647 111.731 332.037L112.517 326.558C113.021 323.04 112.316 320.609 110.161 318.428C108.559 316.806 106.286 315.837 104.082 315.837H100.631C99.5678 315.837 98.0166 314.39 97.5312 312.452L97.4347 312.068C97.2703 311.412 96.6054 311.014 95.9506 311.179C95.2955 311.343 94.8975 312.008 95.062 312.663L95.1587 313.047ZM101.836 350.388C101.161 350.403 100.626 350.963 100.642 351.639C100.704 354.3 100.985 356.768 101.501 359.185C101.623 359.76 102.131 360.153 102.696 360.153C102.78 360.153 102.866 360.144 102.952 360.126C103.613 359.985 104.034 359.335 103.893 358.674C103.409 356.408 103.146 354.088 103.088 351.582C103.072 350.907 102.51 350.369 101.836 350.388ZM106.694 355.618C106.049 355.418 105.364 355.78 105.164 356.425C104.964 357.07 105.325 357.755 105.971 357.955C108.803 358.832 109.416 359.673 109.416 359.834C109.416 360.044 108.567 361.103 104.644 362.082C101.063 362.976 96.2816 363.469 91.1812 363.469C86.0809 363.469 81.2998 362.976 77.7187 362.082C73.7956 361.103 72.9464 360.044 72.9464 359.834C72.9464 359.673 73.5595 358.832 76.3916 357.955C77.037 357.755 77.3981 357.07 77.1984 356.425C76.9986 355.78 76.3134 355.418 75.6684 355.618C72.2391 356.679 70.5003 358.098 70.5003 359.834C70.5003 361.803 72.7297 363.358 77.1263 364.456C80.8955 365.397 85.8869 365.915 91.1813 365.915C96.4756 365.915 101.467 365.397 105.236 364.456C109.633 363.358 111.862 361.803 111.862 359.834C111.862 358.098 110.123 356.679 106.694 355.618ZM72.3347 351.979C72.4024 351.969 72.4697 351.959 72.537 351.95L116.282 345.57C116.95 345.472 117.413 344.852 117.316 344.183C117.218 343.515 116.597 343.054 115.929 343.149L113.12 343.559L113.105 342.862C113.091 342.186 112.533 341.656 111.857 341.665C111.181 341.679 110.645 342.238 110.659 342.913L110.68 343.915L103.169 345.01L103.155 344.313C103.141 343.646 102.596 343.115 101.932 343.115C101.924 343.115 101.915 343.116 101.906 343.116C101.231 343.13 100.695 343.689 100.709 344.364L100.73 345.366L93.219 346.461L93.2043 345.764C93.1902 345.098 92.6455 344.567 91.9819 344.567C91.9732 344.567 91.9645 344.567 91.9557 344.567C91.2804 344.581 90.7444 345.14 90.7585 345.816L90.7796 346.817L83.2684 347.913L83.2537 347.215C83.2396 346.54 82.6825 346.007 82.005 346.018C81.3297 346.032 80.7937 346.592 80.8079 347.267L80.8289 348.268L73.3179 349.364L73.3032 348.666C73.2889 347.991 72.7285 347.459 72.0545 347.469C71.3791 347.483 70.8432 348.042 70.8573 348.718L70.8779 349.693C67.3587 350.051 65.9061 349.392 64.9649 347.22C64.1609 345.364 63.4133 341.665 64.1648 339.83C64.3957 339.267 64.6872 339.094 64.8865 339.014C65.5127 338.76 65.8151 338.047 65.5618 337.421C65.3084 336.795 64.5954 336.492 63.9693 336.746C63.0405 337.122 62.3253 337.867 61.9011 338.903C60.7241 341.776 61.9447 346.402 62.7202 348.192C64.1188 351.42 66.6407 352.23 69.3295 352.23C70.2987 352.23 71.2903 352.125 72.2578 351.99C72.2843 351.987 72.3097 351.983 72.3347 351.979ZM120.47 340.25C120.314 339.881 120.167 339.532 120.048 339.23C118.838 336.129 116.552 334.506 113.935 334.888L66.747 341.77C66.0786 341.868 65.6157 342.488 65.7132 343.157C65.8106 343.825 66.4325 344.287 67.1001 344.191L114.288 337.309C116.323 337.011 117.401 339.176 117.77 340.119C117.9 340.453 118.054 340.817 118.216 341.202C118.86 342.725 119.832 345.027 119.483 346.204C119.108 347.466 117.345 348.032 115.479 348.63C113.105 349.392 110.414 350.255 109.961 353.01C109.852 353.677 110.303 354.306 110.97 354.415C111.037 354.426 111.104 354.431 111.17 354.431C111.758 354.431 112.276 354.006 112.375 353.406C112.571 352.214 113.961 351.686 116.226 350.96C118.504 350.229 121.086 349.401 121.828 346.899C122.426 344.882 121.341 342.313 120.47 340.25ZM79.1776 353.64C79.052 355.382 78.8203 357.029 78.469 358.675C78.3279 359.335 78.7492 359.985 79.4098 360.126C79.4959 360.145 79.5817 360.153 79.6664 360.153C80.2312 360.153 80.7388 359.76 80.8614 359.185C81.2364 357.429 81.4838 355.672 81.6174 353.816C81.6659 353.142 81.1592 352.556 80.4854 352.508C79.8101 352.459 79.2261 352.966 79.1776 353.64ZM89.9579 355.211V355.72C89.9579 356.395 90.5054 356.943 91.181 356.943C91.8566 356.943 92.4041 356.395 92.4041 355.72V355.211C92.4041 354.535 91.8566 353.988 91.181 353.988C90.5054 353.988 89.9579 354.535 89.9579 355.211Z" fill="white"/>
</g>
<path d="M2.2207 399.727V388.091H9.70366V389.858H4.32866V392.585H6.57298C7.46313 392.585 8.22639 392.731 8.86275 393.023C9.5029 393.311 9.99343 393.718 10.3343 394.244C10.6752 394.771 10.8457 395.39 10.8457 396.102C10.8457 396.818 10.6752 397.449 10.3343 397.994C9.99343 398.536 9.5029 398.96 8.86275 399.267C8.22639 399.574 7.46313 399.727 6.57298 399.727H2.2207ZM4.32866 398H6.57298C7.04267 398 7.4404 397.911 7.76616 397.733C8.09192 397.555 8.33813 397.32 8.50479 397.028C8.67525 396.737 8.76048 396.42 8.76048 396.079C8.76048 395.587 8.57108 395.168 8.19229 394.824C7.81729 394.475 7.27752 394.301 6.57298 394.301H4.32866V398Z" fill="white"/>
<path d="M16.4622 399.898C15.5872 399.898 14.8315 399.716 14.1951 399.352C13.5626 398.985 13.0758 398.466 12.7349 397.795C12.394 397.121 12.2235 396.328 12.2235 395.415C12.2235 394.517 12.394 393.729 12.7349 393.051C13.0796 392.369 13.5607 391.839 14.1781 391.46C14.7955 391.078 15.5209 390.886 16.3542 390.886C16.8921 390.886 17.3997 390.973 17.877 391.148C18.358 391.318 18.7823 391.583 19.1497 391.943C19.5209 392.303 19.8126 392.761 20.0247 393.318C20.2368 393.871 20.3429 394.53 20.3429 395.295V395.926H13.1895V394.54H18.3713C18.3675 394.146 18.2823 393.795 18.1156 393.489C17.9489 393.178 17.716 392.934 17.4167 392.756C17.1213 392.578 16.7766 392.489 16.3826 392.489C15.9622 392.489 15.5929 392.591 15.2747 392.795C14.9565 392.996 14.7084 393.261 14.5304 393.591C14.3561 393.917 14.2671 394.275 14.2633 394.665V395.875C14.2633 396.382 14.3561 396.818 14.5417 397.182C14.7273 397.542 14.9868 397.818 15.3201 398.011C15.6535 398.201 16.0436 398.295 16.4906 398.295C16.7898 398.295 17.0607 398.254 17.3031 398.17C17.5455 398.083 17.7557 397.956 17.9338 397.79C18.1118 397.623 18.2463 397.417 18.3372 397.17L20.2576 397.386C20.1364 397.894 19.9054 398.337 19.5645 398.716C19.2273 399.091 18.7955 399.382 18.269 399.591C17.7425 399.795 17.1402 399.898 16.4622 399.898Z" fill="white"/>
<path d="M22.0829 403V391H24.1056V392.443H24.225C24.331 392.231 24.4806 392.006 24.6738 391.767C24.867 391.525 25.1284 391.318 25.4579 391.148C25.7875 390.973 26.2079 390.886 26.7193 390.886C27.3935 390.886 28.0015 391.059 28.5431 391.403C29.0886 391.744 29.5204 392.25 29.8386 392.92C30.1606 393.587 30.3216 394.405 30.3216 395.375C30.3216 396.333 30.1644 397.148 29.85 397.818C29.5356 398.489 29.1075 399 28.5659 399.352C28.0242 399.704 27.4106 399.881 26.725 399.881C26.225 399.881 25.8102 399.797 25.4806 399.631C25.1511 399.464 24.8859 399.263 24.6852 399.028C24.4882 398.79 24.3348 398.564 24.225 398.352H24.1397V403H22.0829ZM24.1 395.364C24.1 395.928 24.1795 396.422 24.3386 396.847C24.5015 397.271 24.7344 397.602 25.0375 397.841C25.3443 398.076 25.7155 398.193 26.1511 398.193C26.6056 398.193 26.9863 398.072 27.2931 397.829C27.6 397.583 27.831 397.248 27.9863 396.824C28.1454 396.396 28.225 395.909 28.225 395.364C28.225 394.822 28.1473 394.341 27.992 393.92C27.8367 393.5 27.6056 393.17 27.2988 392.932C26.992 392.693 26.6094 392.574 26.1511 392.574C25.7117 392.574 25.3386 392.689 25.0318 392.92C24.725 393.151 24.492 393.475 24.3329 393.892C24.1776 394.309 24.1 394.799 24.1 395.364Z" fill="white"/>
<path d="M35.9466 399.898C35.0716 399.898 34.3159 399.716 33.6795 399.352C33.0469 398.985 32.5602 398.466 32.2193 397.795C31.8784 397.121 31.7079 396.328 31.7079 395.415C31.7079 394.517 31.8784 393.729 32.2193 393.051C32.564 392.369 33.045 391.839 33.6625 391.46C34.2799 391.078 35.0053 390.886 35.8386 390.886C36.3765 390.886 36.8841 390.973 37.3613 391.148C37.8424 391.318 38.2666 391.583 38.6341 391.943C39.0053 392.303 39.2969 392.761 39.5091 393.318C39.7212 393.871 39.8272 394.53 39.8272 395.295V395.926H32.6738V394.54H37.8556C37.8519 394.146 37.7666 393.795 37.6 393.489C37.4333 393.178 37.2003 392.934 36.9011 392.756C36.6056 392.578 36.2609 392.489 35.867 392.489C35.4466 392.489 35.0772 392.591 34.7591 392.795C34.4409 392.996 34.1928 393.261 34.0147 393.591C33.8405 393.917 33.7515 394.275 33.7477 394.665V395.875C33.7477 396.382 33.8405 396.818 34.0261 397.182C34.2117 397.542 34.4712 397.818 34.8045 398.011C35.1378 398.201 35.528 398.295 35.975 398.295C36.2742 398.295 36.545 398.254 36.7875 398.17C37.0299 398.083 37.2401 397.956 37.4181 397.79C37.5962 397.623 37.7306 397.417 37.8216 397.17L39.742 397.386C39.6208 397.894 39.3897 398.337 39.0488 398.716C38.7117 399.091 38.2799 399.382 37.7534 399.591C37.2269 399.795 36.6246 399.898 35.9466 399.898Z" fill="white"/>
<path d="M46.8145 403C46.5342 403 46.2747 402.977 46.036 402.932C45.8012 402.89 45.6137 402.841 45.4735 402.784L45.9508 401.182C46.2501 401.269 46.5171 401.311 46.752 401.307C46.9868 401.303 47.1932 401.229 47.3713 401.085C47.5531 400.945 47.7065 400.71 47.8315 400.381L48.0076 399.909L44.8429 391H47.0247L49.036 397.591H49.127L51.144 391H53.3315L49.8372 400.784C49.6743 401.246 49.4584 401.642 49.1895 401.972C48.9205 402.305 48.591 402.559 48.2008 402.733C47.8145 402.911 47.3523 403 46.8145 403Z" fill="white"/>
<path d="M61.7946 391V399.727H59.8173V391H61.7946ZM60.8684 394.943V396.625C60.6449 396.723 60.3912 396.812 60.1071 396.892C59.8268 396.968 59.5294 397.028 59.215 397.074C58.9044 397.119 58.5938 397.142 58.2832 397.142C57.1165 397.142 56.1942 396.881 55.5162 396.358C54.8419 395.831 54.5048 395.011 54.5048 393.898V390.989H56.4707V393.898C56.4707 394.273 56.537 394.574 56.6696 394.801C56.8021 395.028 57.0029 395.195 57.2718 395.301C57.5408 395.403 57.8779 395.454 58.2832 395.454C58.7377 395.454 59.1696 395.409 59.5787 395.318C59.9878 395.227 60.4177 395.102 60.8684 394.943Z" fill="white"/>
<path d="M66.3755 399.903C65.8225 399.903 65.3244 399.805 64.8812 399.608C64.4418 399.407 64.0933 399.112 63.8358 398.722C63.582 398.331 63.4551 397.85 63.4551 397.278C63.4551 396.786 63.546 396.379 63.7278 396.057C63.9096 395.735 64.1577 395.477 64.4721 395.284C64.7865 395.091 65.1407 394.945 65.5346 394.847C65.9323 394.744 66.3433 394.67 66.7676 394.625C67.2789 394.572 67.6937 394.525 68.0119 394.483C68.3301 394.437 68.5611 394.369 68.7051 394.278C68.8528 394.184 68.9267 394.038 68.9267 393.841V393.807C68.9267 393.379 68.7998 393.047 68.546 392.812C68.2922 392.578 67.9267 392.46 67.4494 392.46C66.9456 392.46 66.546 392.57 66.2505 392.79C65.9589 393.009 65.7619 393.269 65.6596 393.568L63.7392 393.295C63.8907 392.765 64.1407 392.322 64.4892 391.966C64.8377 391.606 65.2638 391.337 65.7676 391.159C66.2714 390.977 66.8282 390.886 67.438 390.886C67.8585 390.886 68.2771 390.936 68.6937 391.034C69.1104 391.132 69.4911 391.295 69.8358 391.523C70.1805 391.746 70.457 392.051 70.6653 392.437C70.8774 392.824 70.9835 393.307 70.9835 393.886V399.727H69.0062V398.528H68.938C68.813 398.771 68.6369 398.998 68.4096 399.21C68.1861 399.418 67.9039 399.587 67.563 399.716C67.2259 399.841 66.8301 399.903 66.3755 399.903ZM66.9096 398.392C67.3225 398.392 67.6805 398.311 67.9835 398.148C68.2865 397.981 68.5195 397.761 68.6824 397.489C68.849 397.216 68.9324 396.918 68.9324 396.597V395.568C68.868 395.621 68.7581 395.67 68.6028 395.716C68.4513 395.761 68.2808 395.801 68.0914 395.835C67.902 395.869 67.7145 395.9 67.5289 395.926C67.3433 395.953 67.1824 395.975 67.046 395.994C66.7392 396.036 66.4645 396.104 66.2221 396.199C65.9797 396.293 65.7884 396.426 65.6483 396.597C65.5081 396.763 65.438 396.979 65.438 397.244C65.438 397.623 65.5763 397.909 65.8528 398.102C66.1293 398.295 66.4816 398.392 66.9096 398.392Z" fill="white"/>
<path d="M76.8585 399.898C75.9873 399.898 75.2392 399.706 74.6142 399.324C73.993 398.941 73.5138 398.413 73.1767 397.739C72.8433 397.061 72.6767 396.28 72.6767 395.398C72.6767 394.511 72.8471 393.729 73.188 393.051C73.5289 392.369 74.01 391.839 74.6312 391.46C75.2562 391.078 75.9948 390.886 76.8471 390.886C77.5555 390.886 78.1824 391.017 78.7278 391.278C79.277 391.536 79.7145 391.901 80.0403 392.375C80.3661 392.845 80.5517 393.394 80.5971 394.023H78.6312C78.5517 393.602 78.3623 393.252 78.063 392.972C77.7676 392.687 77.3717 392.545 76.8755 392.545C76.4551 392.545 76.0858 392.659 75.7676 392.886C75.4494 393.11 75.2013 393.432 75.0233 393.852C74.849 394.273 74.7619 394.776 74.7619 395.364C74.7619 395.958 74.849 396.47 75.0233 396.898C75.1975 397.322 75.4418 397.65 75.7562 397.881C76.0744 398.108 76.4475 398.222 76.8755 398.222C77.1786 398.222 77.4494 398.165 77.688 398.051C77.9305 397.934 78.1331 397.765 78.296 397.545C78.4589 397.326 78.5706 397.059 78.6312 396.744H80.5971C80.5479 397.362 80.3661 397.909 80.0517 398.386C79.7373 398.86 79.3092 399.231 78.7676 399.5C78.2259 399.765 77.5896 399.898 76.8585 399.898Z" fill="white"/>
<path d="M81.6525 392.687V391H89.2889V392.687H86.465V399.727H84.4764V392.687H81.6525Z" fill="white"/>
<path d="M92.3187 393.841H94.8926C96.0062 393.841 96.868 394.112 97.4778 394.653C98.0877 395.195 98.3945 395.905 98.3983 396.784C98.3945 397.356 98.2543 397.864 97.9778 398.307C97.7051 398.75 97.3073 399.098 96.7846 399.352C96.2657 399.602 95.635 399.727 94.8926 399.727H90.9267V391H92.9096V398.04H94.8926C95.3395 398.04 95.707 397.926 95.9949 397.699C96.2827 397.468 96.4267 397.172 96.4267 396.812C96.4267 396.434 96.2827 396.125 95.9949 395.886C95.707 395.648 95.3395 395.528 94.8926 395.528H92.3187V393.841Z" fill="white"/>
<path d="M105.408 403C105.128 403 104.868 402.977 104.63 402.932C104.395 402.89 104.207 402.841 104.067 402.784L104.545 401.182C104.844 401.269 105.111 401.311 105.346 401.307C105.581 401.303 105.787 401.229 105.965 401.085C106.147 400.945 106.3 400.71 106.425 400.381L106.601 399.909L103.437 391H105.618L107.63 397.591H107.721L109.738 391H111.925L108.431 400.784C108.268 401.246 108.052 401.642 107.783 401.972C107.514 402.305 107.185 402.559 106.795 402.733C106.408 402.911 105.946 403 105.408 403Z" fill="white"/>
<path d="M117.317 399.727V391H124.687V399.727H122.704V392.687H119.283V399.727H117.317Z" fill="white"/>
<path d="M126.802 403V391H128.824V392.443H128.944C129.05 392.231 129.199 392.006 129.393 391.767C129.586 391.525 129.847 391.318 130.177 391.148C130.506 390.973 130.927 390.886 131.438 390.886C132.112 390.886 132.72 391.059 133.262 391.403C133.807 391.744 134.239 392.25 134.557 392.92C134.879 393.587 135.04 394.405 135.04 395.375C135.04 396.333 134.883 397.148 134.569 397.818C134.254 398.489 133.826 399 133.285 399.352C132.743 399.704 132.129 399.881 131.444 399.881C130.944 399.881 130.529 399.797 130.199 399.631C129.87 399.464 129.605 399.263 129.404 399.028C129.207 398.79 129.054 398.564 128.944 398.352H128.858V403H126.802ZM128.819 395.364C128.819 395.928 128.898 396.422 129.057 396.847C129.22 397.271 129.453 397.602 129.756 397.841C130.063 398.076 130.434 398.193 130.87 398.193C131.324 398.193 131.705 398.072 132.012 397.829C132.319 397.583 132.55 397.248 132.705 396.824C132.864 396.396 132.944 395.909 132.944 395.364C132.944 394.822 132.866 394.341 132.711 393.92C132.555 393.5 132.324 393.17 132.018 392.932C131.711 392.693 131.328 392.574 130.87 392.574C130.43 392.574 130.057 392.689 129.751 392.92C129.444 393.151 129.211 393.475 129.052 393.892C128.896 394.309 128.819 394.799 128.819 395.364Z" fill="white"/>
<path d="M140.608 399.898C139.756 399.898 139.018 399.71 138.393 399.335C137.768 398.96 137.283 398.436 136.938 397.761C136.597 397.087 136.427 396.299 136.427 395.398C136.427 394.496 136.597 393.706 136.938 393.028C137.283 392.35 137.768 391.824 138.393 391.449C139.018 391.074 139.756 390.886 140.608 390.886C141.461 390.886 142.199 391.074 142.824 391.449C143.449 391.824 143.932 392.35 144.273 393.028C144.618 393.706 144.79 394.496 144.79 395.398C144.79 396.299 144.618 397.087 144.273 397.761C143.932 398.436 143.449 398.96 142.824 399.335C142.199 399.71 141.461 399.898 140.608 399.898ZM140.62 398.25C141.082 398.25 141.468 398.123 141.779 397.869C142.09 397.612 142.321 397.267 142.472 396.835C142.627 396.403 142.705 395.922 142.705 395.392C142.705 394.858 142.627 394.375 142.472 393.943C142.321 393.507 142.09 393.161 141.779 392.903C141.468 392.646 141.082 392.517 140.62 392.517C140.146 392.517 139.752 392.646 139.438 392.903C139.127 393.161 138.894 393.507 138.739 393.943C138.588 394.375 138.512 394.858 138.512 395.392C138.512 395.922 138.588 396.403 138.739 396.835C138.894 397.267 139.127 397.612 139.438 397.869C139.752 398.123 140.146 398.25 140.62 398.25Z" fill="white"/>
<path d="M153.905 391V398.193H155.241V402.534H153.229V399.727H146.536V391H148.519V398.04H151.939V391H153.905Z" fill="white"/>
<path d="M160.697 399.898C159.822 399.898 159.066 399.716 158.43 399.352C157.797 398.985 157.31 398.466 156.969 397.795C156.628 397.121 156.458 396.328 156.458 395.415C156.458 394.517 156.628 393.729 156.969 393.051C157.314 392.369 157.795 391.839 158.412 391.46C159.03 391.078 159.755 390.886 160.589 390.886C161.126 390.886 161.634 390.973 162.111 391.148C162.592 391.318 163.017 391.583 163.384 391.943C163.755 392.303 164.047 392.761 164.259 393.318C164.471 393.871 164.577 394.53 164.577 395.295V395.926H157.424V394.54H162.606C162.602 394.146 162.517 393.795 162.35 393.489C162.183 393.178 161.95 392.934 161.651 392.756C161.356 392.578 161.011 392.489 160.617 392.489C160.197 392.489 159.827 392.591 159.509 392.795C159.191 392.996 158.943 393.261 158.765 393.591C158.59 393.917 158.501 394.275 158.498 394.665V395.875C158.498 396.382 158.591 396.818 158.776 397.182C158.962 397.542 159.221 397.818 159.555 398.011C159.888 398.201 160.278 398.295 160.725 398.295C161.024 398.295 161.295 398.254 161.537 398.17C161.78 398.083 161.99 397.956 162.168 397.79C162.346 397.623 162.481 397.417 162.572 397.17L164.492 397.386C164.371 397.894 164.14 398.337 163.799 398.716C163.462 399.091 163.03 399.382 162.503 399.591C161.977 399.795 161.375 399.898 160.697 399.898Z" fill="white"/>
<path d="M170.124 399.898C169.253 399.898 168.505 399.706 167.88 399.324C167.259 398.941 166.779 398.413 166.442 397.739C166.109 397.061 165.942 396.28 165.942 395.398C165.942 394.511 166.113 393.729 166.454 393.051C166.795 392.369 167.276 391.839 167.897 391.46C168.522 391.078 169.26 390.886 170.113 390.886C170.821 390.886 171.448 391.017 171.993 391.278C172.543 391.536 172.98 391.901 173.306 392.375C173.632 392.845 173.817 393.394 173.863 394.023H171.897C171.817 393.602 171.628 393.252 171.329 392.972C171.033 392.687 170.637 392.545 170.141 392.545C169.721 392.545 169.351 392.659 169.033 392.886C168.715 393.11 168.467 393.432 168.289 393.852C168.115 394.273 168.028 394.776 168.028 395.364C168.028 395.958 168.115 396.47 168.289 396.898C168.463 397.322 168.707 397.65 169.022 397.881C169.34 398.108 169.713 398.222 170.141 398.222C170.444 398.222 170.715 398.165 170.954 398.051C171.196 397.934 171.399 397.765 171.562 397.545C171.724 397.326 171.836 397.059 171.897 396.744H173.863C173.814 397.362 173.632 397.909 173.317 398.386C173.003 398.86 172.575 399.231 172.033 399.5C171.492 399.765 170.855 399.898 170.124 399.898Z" fill="white"/>
<path d="M175.552 399.727V391H177.608V399.727H175.552ZM176.586 389.761C176.26 389.761 175.98 389.653 175.745 389.437C175.51 389.218 175.393 388.954 175.393 388.648C175.393 388.337 175.51 388.074 175.745 387.858C175.98 387.638 176.26 387.528 176.586 387.528C176.915 387.528 177.196 387.638 177.427 387.858C177.662 388.074 177.779 388.337 177.779 388.648C177.779 388.954 177.662 389.218 177.427 389.437C177.196 389.653 176.915 389.761 176.586 389.761Z" fill="white"/>
<path d="M23.046 418.898C22.1748 418.898 21.4267 418.706 20.8017 418.324C20.1805 417.941 19.7013 417.413 19.3642 416.739C19.0308 416.061 18.8642 415.28 18.8642 414.398C18.8642 413.511 19.0346 412.729 19.3755 412.051C19.7164 411.369 20.1975 410.839 20.8187 410.46C21.4437 410.078 22.1823 409.886 23.0346 409.886C23.743 409.886 24.3699 410.017 24.9153 410.278C25.4645 410.536 25.902 410.901 26.2278 411.375C26.5536 411.845 26.7392 412.394 26.7846 413.023H24.8187C24.7392 412.602 24.5498 412.252 24.2505 411.972C23.9551 411.687 23.5592 411.545 23.063 411.545C22.6426 411.545 22.2733 411.659 21.9551 411.886C21.6369 412.11 21.3888 412.432 21.2108 412.852C21.0365 413.273 20.9494 413.776 20.9494 414.364C20.9494 414.958 21.0365 415.47 21.2108 415.898C21.385 416.322 21.6293 416.65 21.9437 416.881C22.2619 417.108 22.635 417.222 23.063 417.222C23.3661 417.222 23.6369 417.165 23.8755 417.051C24.118 416.934 24.3206 416.765 24.4835 416.545C24.6464 416.326 24.7581 416.059 24.8187 415.744H26.7846C26.7354 416.362 26.5536 416.909 26.2392 417.386C25.9248 417.86 25.4967 418.231 24.9551 418.5C24.4134 418.765 23.777 418.898 23.046 418.898Z" fill="white"/>
<path d="M28.4735 418.727V410H35.8429V418.727H33.8599V411.687H30.4395V418.727H28.4735Z" fill="white"/>
<path d="M40.4693 418.903C39.9163 418.903 39.4181 418.805 38.975 418.608C38.5356 418.407 38.1871 418.112 37.9295 417.722C37.6757 417.331 37.5488 416.85 37.5488 416.278C37.5488 415.786 37.6397 415.379 37.8216 415.057C38.0034 414.735 38.2515 414.477 38.5659 414.284C38.8803 414.091 39.2344 413.945 39.6284 413.847C40.0261 413.744 40.4371 413.67 40.8613 413.625C41.3727 413.572 41.7875 413.525 42.1056 413.483C42.4238 413.437 42.6549 413.369 42.7988 413.278C42.9466 413.184 43.0204 413.038 43.0204 412.841V412.807C43.0204 412.379 42.8935 412.047 42.6397 411.812C42.3859 411.578 42.0204 411.46 41.5431 411.46C41.0394 411.46 40.6397 411.57 40.3443 411.79C40.0526 412.009 39.8556 412.269 39.7534 412.568L37.8329 412.295C37.9844 411.765 38.2344 411.322 38.5829 410.966C38.9314 410.606 39.3575 410.337 39.8613 410.159C40.3651 409.977 40.9219 409.886 41.5318 409.886C41.9522 409.886 42.3708 409.936 42.7875 410.034C43.2041 410.132 43.5848 410.295 43.9295 410.523C44.2742 410.746 44.5507 411.051 44.7591 411.437C44.9712 411.824 45.0772 412.307 45.0772 412.886V418.727H43.1V417.528H43.0318C42.9068 417.771 42.7306 417.998 42.5034 418.21C42.2799 418.418 41.9977 418.587 41.6568 418.716C41.3197 418.841 40.9238 418.903 40.4693 418.903ZM41.0034 417.392C41.4163 417.392 41.7742 417.311 42.0772 417.148C42.3803 416.981 42.6132 416.761 42.7761 416.489C42.9428 416.216 43.0261 415.918 43.0261 415.597V414.568C42.9617 414.621 42.8519 414.67 42.6966 414.716C42.545 414.761 42.3746 414.801 42.1852 414.835C41.9958 414.869 41.8083 414.9 41.6227 414.926C41.4371 414.953 41.2761 414.975 41.1397 414.994C40.8329 415.036 40.5583 415.104 40.3159 415.199C40.0734 415.293 39.8822 415.426 39.742 415.597C39.6019 415.763 39.5318 415.979 39.5318 416.244C39.5318 416.623 39.67 416.909 39.9466 417.102C40.2231 417.295 40.5753 417.392 41.0034 417.392Z" fill="white"/>
<path d="M46.5431 418.727L46.5318 417.034H46.8329C47.0602 417.034 47.2515 416.983 47.4068 416.881C47.5621 416.778 47.6909 416.608 47.7931 416.369C47.8954 416.127 47.975 415.801 48.0318 415.392C48.0886 414.983 48.1284 414.473 48.1511 413.864L48.3045 410H54.6681V418.727H52.6795V411.687H50.1738L50.0375 414.5C50.0034 415.227 49.9219 415.858 49.7931 416.392C49.6681 416.922 49.4901 417.36 49.2591 417.704C49.0318 418.049 48.7458 418.307 48.4011 418.477C48.0564 418.644 47.6492 418.727 47.1795 418.727H46.5431Z" fill="white"/>
<path d="M61.3471 413.574V415.267H56.6483V413.574H61.3471ZM58.2789 410V418.727H56.2164V410H58.2789ZM63.9835 418.898C63.1426 418.898 62.4134 418.706 61.796 418.324C61.1823 417.941 60.707 417.411 60.3699 416.733C60.0327 416.055 59.8642 415.271 59.8642 414.381C59.8642 413.49 60.0327 412.708 60.3699 412.034C60.707 411.36 61.1823 410.833 61.796 410.454C62.4134 410.076 63.1426 409.886 63.9835 409.886C64.8206 409.886 65.546 410.076 66.1596 410.454C66.777 410.833 67.2543 411.36 67.5914 412.034C67.9323 412.708 68.1028 413.49 68.1028 414.381C68.1028 415.271 67.9323 416.055 67.5914 416.733C67.2543 417.411 66.777 417.941 66.1596 418.324C65.546 418.706 64.8206 418.898 63.9835 418.898ZM63.9835 417.193C64.4797 417.193 64.885 417.068 65.1994 416.818C65.5138 416.568 65.7449 416.231 65.8926 415.807C66.0403 415.382 66.1142 414.907 66.1142 414.381C66.1142 413.854 66.0403 413.379 65.8926 412.954C65.7449 412.53 65.5138 412.195 65.1994 411.949C64.885 411.699 64.4797 411.574 63.9835 411.574C63.4835 411.574 63.0744 411.699 62.7562 411.949C62.4418 412.195 62.2108 412.53 62.063 412.954C61.9153 413.379 61.8414 413.854 61.8414 414.381C61.8414 414.911 61.9153 415.388 62.063 415.812C62.2108 416.237 62.4418 416.574 62.7562 416.824C63.0744 417.07 63.4835 417.193 63.9835 417.193Z" fill="white"/>
<path d="M69.9267 418.727V410H73.5914C74.6255 410 75.4418 410.206 76.0403 410.619C76.6426 411.032 76.9437 411.608 76.9437 412.347C76.9437 412.835 76.7733 413.235 76.4324 413.545C76.0952 413.852 75.635 414.059 75.0517 414.165C75.51 414.203 75.9115 414.318 76.2562 414.511C76.6047 414.704 76.8774 414.958 77.0744 415.273C77.2714 415.587 77.3699 415.949 77.3699 416.358C77.3699 416.839 77.243 417.257 76.9892 417.614C76.7392 417.966 76.3736 418.24 75.8926 418.437C75.4153 418.631 74.8358 418.727 74.1539 418.727H69.9267ZM71.8528 417.108H74.1539C74.5327 417.108 74.8301 417.019 75.046 416.841C75.2619 416.659 75.3699 416.413 75.3699 416.102C75.3699 415.742 75.2619 415.46 75.046 415.256C74.8301 415.047 74.5327 414.943 74.1539 414.943H71.8528V417.108ZM71.8528 413.614H73.6312C73.9115 413.614 74.152 413.574 74.3528 413.494C74.5536 413.411 74.707 413.295 74.813 413.148C74.9191 412.996 74.9721 412.816 74.9721 412.608C74.9721 412.309 74.849 412.074 74.6028 411.903C74.3604 411.733 74.0233 411.648 73.5914 411.648H71.8528V413.614Z" fill="white"/>
<path d="M81.5787 418.903C81.0256 418.903 80.5275 418.805 80.0843 418.608C79.6449 418.407 79.2965 418.112 79.0389 417.722C78.7851 417.331 78.6582 416.85 78.6582 416.278C78.6582 415.786 78.7491 415.379 78.9309 415.057C79.1127 414.735 79.3609 414.477 79.6752 414.284C79.9896 414.091 80.3438 413.945 80.7377 413.847C81.1355 413.744 81.5465 413.67 81.9707 413.625C82.4821 413.572 82.8968 413.525 83.215 413.483C83.5332 413.437 83.7643 413.369 83.9082 413.278C84.0559 413.184 84.1298 413.038 84.1298 412.841V412.807C84.1298 412.379 84.0029 412.047 83.7491 411.812C83.4953 411.578 83.1298 411.46 82.6525 411.46C82.1487 411.46 81.7491 411.57 81.4537 411.79C81.162 412.009 80.965 412.269 80.8627 412.568L78.9423 412.295C79.0938 411.765 79.3438 411.322 79.6923 410.966C80.0408 410.606 80.4669 410.337 80.9707 410.159C81.4745 409.977 82.0313 409.886 82.6412 409.886C83.0616 409.886 83.4802 409.936 83.8968 410.034C84.3135 410.132 84.6942 410.295 85.0389 410.523C85.3836 410.746 85.6601 411.051 85.8684 411.437C86.0806 411.824 86.1866 412.307 86.1866 412.886V418.727H84.2093V417.528H84.1412C84.0162 417.771 83.84 417.998 83.6127 418.21C83.3893 418.418 83.1071 418.587 82.7662 418.716C82.429 418.841 82.0332 418.903 81.5787 418.903ZM82.1127 417.392C82.5256 417.392 82.8836 417.311 83.1866 417.148C83.4896 416.981 83.7226 416.761 83.8855 416.489C84.0521 416.216 84.1355 415.918 84.1355 415.597V414.568C84.0711 414.621 83.9612 414.67 83.8059 414.716C83.6544 414.761 83.484 414.801 83.2946 414.835C83.1052 414.869 82.9177 414.9 82.7321 414.926C82.5465 414.953 82.3855 414.975 82.2491 414.994C81.9423 415.036 81.6677 415.104 81.4252 415.199C81.1828 415.293 80.9915 415.426 80.8514 415.597C80.7112 415.763 80.6412 415.979 80.6412 416.244C80.6412 416.623 80.7794 416.909 81.0559 417.102C81.3324 417.295 81.6847 417.392 82.1127 417.392Z" fill="white"/>
<path d="M94.2491 413.511V415.199H89.6014V413.511H94.2491ZM90.2377 410V418.727H88.2548V410H90.2377ZM95.5957 410V418.727H93.6184V410H95.5957Z" fill="white"/>
<path d="M103.671 413.511V415.199H99.0233V413.511H103.671ZM99.6596 410V418.727H97.6767V410H99.6596ZM105.018 410V418.727H103.04V410H105.018Z" fill="white"/>
<path d="M112.258 418.727V411.67H110.394C109.921 411.67 109.557 411.78 109.303 412C109.049 412.22 108.924 412.492 108.928 412.818C108.924 413.144 109.044 413.413 109.286 413.625C109.528 413.837 109.875 413.943 110.326 413.943H112.905V415.443H110.326C109.629 415.443 109.027 415.333 108.519 415.114C108.011 414.894 107.621 414.583 107.349 414.182C107.076 413.78 106.939 413.311 106.939 412.773C106.939 412.212 107.078 411.725 107.354 411.312C107.635 410.896 108.032 410.574 108.547 410.347C109.066 410.115 109.682 410 110.394 410H114.184V418.727H112.258ZM106.621 418.727L109.059 414.25H111.087L108.644 418.727H106.621Z" fill="white"/>
<path d="M119.655 418.727L122.877 414.222L119.684 410H122.059L124.542 413.517H125.03V410H127.087V413.517H127.564L130.047 410H132.422L129.246 414.222L132.451 418.727H130.025L127.542 415.204H127.087V418.727H125.03V415.204H124.576L122.081 418.727H119.655Z" fill="white"/>
<path d="M135.972 415.943L139.466 410H141.58V418.727H139.591V412.778L136.108 418.727H133.989V410H135.972V415.943Z" fill="white"/>
<path d="M143.692 422V410H145.715V411.443H145.834C145.94 411.231 146.09 411.006 146.283 410.767C146.476 410.525 146.738 410.318 147.067 410.148C147.397 409.973 147.817 409.886 148.329 409.886C149.003 409.886 149.611 410.059 150.153 410.403C150.698 410.744 151.13 411.25 151.448 411.92C151.77 412.587 151.931 413.405 151.931 414.375C151.931 415.333 151.774 416.148 151.459 416.818C151.145 417.489 150.717 418 150.175 418.352C149.634 418.704 149.02 418.881 148.334 418.881C147.834 418.881 147.42 418.797 147.09 418.631C146.76 418.464 146.495 418.263 146.295 418.028C146.098 417.79 145.944 417.564 145.834 417.352H145.749V422H143.692ZM145.709 414.364C145.709 414.928 145.789 415.422 145.948 415.847C146.111 416.271 146.344 416.602 146.647 416.841C146.954 417.076 147.325 417.193 147.76 417.193C148.215 417.193 148.596 417.072 148.903 416.829C149.209 416.583 149.44 416.248 149.596 415.824C149.755 415.396 149.834 414.909 149.834 414.364C149.834 413.822 149.757 413.341 149.601 412.92C149.446 412.5 149.215 412.17 148.908 411.932C148.601 411.693 148.219 411.574 147.76 411.574C147.321 411.574 146.948 411.689 146.641 411.92C146.334 412.151 146.101 412.475 145.942 412.892C145.787 413.309 145.709 413.799 145.709 414.364Z" fill="white"/>
<path d="M154.674 422C154.394 422 154.134 421.977 153.895 421.932C153.661 421.89 153.473 421.841 153.333 421.784L153.81 420.182C154.109 420.269 154.376 420.311 154.611 420.307C154.846 420.303 155.053 420.229 155.231 420.085C155.412 419.945 155.566 419.71 155.691 419.381L155.867 418.909L152.702 410H154.884L156.895 416.591H156.986L159.003 410H161.191L157.697 419.784C157.534 420.246 157.318 420.642 157.049 420.972C156.78 421.305 156.45 421.559 156.06 421.733C155.674 421.911 155.212 422 154.674 422Z" fill="white"/>
<g clip-path="url(#clip3_301_1673)">
<path d="M92.3668 478.274C91.7737 477.464 90.9107 477 89.9992 477C89.0901 477 88.2259 477.464 87.6316 478.274C81.4024 486.764 66.915 507.621 66.915 517.916C66.915 530.644 77.271 541 89.9992 541C102.727 541 113.083 530.644 113.083 517.916C113.085 507.621 98.5972 486.764 92.3668 478.274ZM89.9992 538.632C78.5767 538.632 69.2826 529.338 69.2826 517.916C69.2826 510.078 79.7475 493.021 89.5411 479.674C89.6843 479.479 89.8512 479.366 89.9992 479.366C90.1472 479.366 90.3141 479.479 90.4573 479.674C100.251 493.023 110.716 510.078 110.716 517.916C110.717 529.338 101.422 538.632 89.9992 538.632ZM106.533 512.152L105.602 512.621C105.35 512.747 105.219 513.068 105.299 513.338C105.714 514.751 105.925 516.218 105.925 517.713C105.925 526.254 98.976 533.203 90.4349 533.203C86.2028 533.203 82.25 531.528 79.3059 528.487C79.1094 528.286 79.1141 527.963 79.3178 527.766C79.5202 527.571 79.8434 527.576 80.0399 527.778C82.7899 530.619 86.4821 532.184 90.4349 532.184C98.4137 532.184 104.903 525.692 104.903 517.714C104.903 516.381 104.723 515.072 104.368 513.807C104.291 513.534 104.017 513.421 103.764 513.547L102.899 513.984C102.647 514.112 102.456 513.985 102.473 513.705L102.701 509.64C102.718 509.359 102.922 509.256 103.158 509.411L106.563 511.642C106.801 511.795 106.788 512.024 106.533 512.152ZM77.8865 519.496L76.9158 523.449C76.8472 523.722 76.6282 523.786 76.4245 523.591L73.4887 520.772C73.2863 520.578 73.3407 520.354 73.6106 520.276L74.6015 519.99C74.8714 519.91 75.0584 519.62 75.03 519.34C74.9732 518.801 74.946 518.258 74.946 517.714C74.946 509.173 81.8949 502.224 90.436 502.224C93.9022 502.224 97.179 503.343 99.9136 505.461C100.135 505.634 100.178 505.955 100.005 506.178C99.8319 506.401 99.5111 506.442 99.2885 506.268C96.7339 504.291 93.6726 503.245 90.436 503.245C82.4584 503.245 75.9676 509.737 75.964 517.713C75.964 518.16 75.9865 518.606 76.028 519.05C76.054 519.332 76.3026 519.494 76.5737 519.416L77.5184 519.142C77.7906 519.064 77.9552 519.223 77.8865 519.496Z" fill="white"/>
</g>
<path d="M51.4075 556.977C51.4075 558.231 51.1727 559.305 50.703 560.199C50.2371 561.089 49.6007 561.771 48.7939 562.244C47.9909 562.718 47.0799 562.954 46.0609 562.954C45.042 562.954 44.1291 562.718 43.3223 562.244C42.5193 561.767 41.8829 561.083 41.4132 560.193C40.9473 559.299 40.7144 558.227 40.7144 556.977C40.7144 555.723 40.9473 554.651 41.4132 553.761C41.8829 552.867 42.5193 552.184 43.3223 551.71C44.1291 551.237 45.042 551 46.0609 551C47.0799 551 47.9909 551.237 48.7939 551.71C49.6007 552.184 50.2371 552.867 50.703 553.761C51.1727 554.651 51.4075 555.723 51.4075 556.977ZM49.2882 556.977C49.2882 556.095 49.15 555.35 48.8734 554.744C48.6007 554.134 48.2219 553.674 47.7371 553.364C47.2522 553.049 46.6935 552.892 46.0609 552.892C45.4284 552.892 44.8697 553.049 44.3848 553.364C43.9 553.674 43.5193 554.134 43.2428 554.744C42.97 555.35 42.8337 556.095 42.8337 556.977C42.8337 557.86 42.97 558.606 43.2428 559.216C43.5193 559.822 43.9 560.282 44.3848 560.596C44.8697 560.907 45.4284 561.062 46.0609 561.062C46.6935 561.062 47.2522 560.907 47.7371 560.596C48.2219 560.282 48.6007 559.822 48.8734 559.216C49.15 558.606 49.2882 557.86 49.2882 556.977Z" fill="white"/>
<path d="M60.5993 554.068V562.795H58.622V554.068H60.5993ZM59.6732 558.011V559.693C59.4497 559.792 59.1959 559.881 58.9118 559.96C58.6315 560.036 58.3341 560.096 58.0198 560.142C57.7091 560.187 57.3985 560.21 57.0879 560.21C55.9213 560.21 54.9989 559.949 54.3209 559.426C53.6466 558.899 53.3095 558.079 53.3095 556.966V554.057H55.2754V556.966C55.2754 557.341 55.3417 557.642 55.4743 557.869C55.6069 558.096 55.8076 558.263 56.0766 558.369C56.3455 558.471 56.6826 558.523 57.0879 558.523C57.5425 558.523 57.9743 558.477 58.3834 558.386C58.7925 558.295 59.2224 558.17 59.6732 558.011Z" fill="white"/>
<path d="M64.6519 560.011L68.1462 554.068H70.2598V562.795H68.2712V556.846L64.7882 562.795H62.6689V554.068H64.6519V560.011Z" fill="white"/>
<path d="M85.48 561.108L85.3095 565.295H83.372V562.795H82.3436V561.108H85.48ZM72.372 554.068H74.355V561.102H77.0993V554.068H79.0823V561.102H81.8266V554.068H83.8095V562.795H72.372V554.068Z" fill="white"/>
<path d="M88.3848 566.068C88.1045 566.068 87.845 566.045 87.6064 566C87.3716 565.958 87.1841 565.909 87.0439 565.852L87.5212 564.25C87.8204 564.337 88.0875 564.379 88.3223 564.375C88.5572 564.371 88.7636 564.297 88.9416 564.153C89.1234 564.013 89.2769 563.778 89.4019 563.449L89.578 562.977L86.4132 554.068H88.595L90.6064 560.659H90.6973L92.7144 554.068H94.9019L91.4075 563.852C91.2447 564.314 91.0288 564.71 90.7598 565.04C90.4909 565.373 90.1613 565.627 89.7712 565.801C89.3848 565.979 88.9227 566.068 88.3848 566.068Z" fill="white"/>
<path d="M100.108 557.818V559.176H96.5567V557.818H100.108ZM103.273 556.818L101.329 557.074C101.223 556.661 101.026 556.32 100.739 556.051C100.451 555.778 100.047 555.642 99.5283 555.642C99.0662 555.642 98.676 555.757 98.3578 555.989C98.0434 556.22 97.8048 556.545 97.6419 556.966C97.479 557.382 97.3976 557.871 97.3976 558.432C97.3976 558.996 97.4771 559.49 97.6362 559.915C97.7991 560.339 98.0377 560.67 98.3521 560.909C98.6703 561.144 99.0624 561.261 99.5283 561.261C99.8465 561.261 100.125 561.206 100.364 561.096C100.602 560.983 100.799 560.828 100.954 560.631C101.114 560.43 101.229 560.197 101.301 559.932L103.256 560.176C103.146 560.725 102.922 561.21 102.585 561.631C102.252 562.047 101.824 562.375 101.301 562.614C100.782 562.848 100.191 562.966 99.5283 562.966C98.6798 562.966 97.9468 562.773 97.3294 562.386C96.7158 562 96.2423 561.466 95.909 560.784C95.5794 560.102 95.4146 559.318 95.4146 558.432C95.4146 557.557 95.5813 556.784 95.9146 556.114C96.2518 555.439 96.7271 554.911 97.3408 554.528C97.9544 554.146 98.6836 553.954 99.5283 553.954C100.187 553.954 100.778 554.074 101.301 554.312C101.828 554.547 102.261 554.879 102.602 555.307C102.947 555.735 103.17 556.239 103.273 556.818Z" fill="white"/>
<path d="M104.457 555.756V554.068H112.094V555.756H109.27V562.795H107.281V555.756H104.457Z" fill="white"/>
<path d="M115.123 556.909H117.697C118.811 556.909 119.673 557.18 120.283 557.721C120.892 558.263 121.199 558.973 121.203 559.852C121.199 560.424 121.059 560.932 120.783 561.375C120.51 561.818 120.112 562.167 119.589 562.42C119.07 562.67 118.44 562.795 117.697 562.795H113.731V554.068H115.714V561.108H117.697C118.144 561.108 118.512 560.994 118.8 560.767C119.087 560.536 119.231 560.24 119.231 559.881C119.231 559.502 119.087 559.193 118.8 558.954C118.512 558.716 118.144 558.596 117.697 558.596H115.123V556.909Z" fill="white"/>
<path d="M126.773 562.966C125.901 562.966 125.153 562.774 124.528 562.392C123.907 562.009 123.428 561.481 123.091 560.807C122.757 560.129 122.591 559.348 122.591 558.466C122.591 557.579 122.761 556.797 123.102 556.119C123.443 555.437 123.924 554.907 124.545 554.528C125.17 554.146 125.909 553.954 126.761 553.954C127.47 553.954 128.096 554.085 128.642 554.346C129.191 554.604 129.629 554.97 129.954 555.443C130.28 555.913 130.466 556.462 130.511 557.091H128.545C128.466 556.67 128.276 556.32 127.977 556.04C127.682 555.756 127.286 555.614 126.79 555.614C126.369 555.614 126 555.727 125.682 555.954C125.364 556.178 125.115 556.5 124.937 556.92C124.763 557.341 124.676 557.845 124.676 558.432C124.676 559.026 124.763 559.538 124.937 559.966C125.112 560.39 125.356 560.718 125.67 560.949C125.989 561.176 126.362 561.29 126.79 561.29C127.093 561.29 127.364 561.233 127.602 561.119C127.845 561.002 128.047 560.833 128.21 560.614C128.373 560.394 128.485 560.127 128.545 559.812H130.511C130.462 560.43 130.28 560.977 129.966 561.454C129.651 561.928 129.223 562.299 128.682 562.568C128.14 562.833 127.504 562.966 126.773 562.966Z" fill="white"/>
<path d="M137.359 562.795V555.739H135.496C135.022 555.739 134.658 555.848 134.405 556.068C134.151 556.288 134.026 556.56 134.03 556.886C134.026 557.212 134.145 557.481 134.388 557.693C134.63 557.905 134.977 558.011 135.427 558.011H138.007V559.511H135.427C134.73 559.511 134.128 559.401 133.621 559.182C133.113 558.962 132.723 558.651 132.45 558.25C132.177 557.848 132.041 557.379 132.041 556.841C132.041 556.28 132.179 555.793 132.456 555.381C132.736 554.964 133.134 554.642 133.649 554.415C134.168 554.184 134.783 554.068 135.496 554.068H139.285V562.795H137.359ZM131.723 562.795L134.16 558.318H136.189L133.746 562.795H131.723Z" fill="white"/>
<path d="M49.9736 581.795V573.068H57.3429V581.795H55.36V574.756H51.9395V581.795H49.9736Z" fill="white"/>
<path d="M59.458 585.068V573.068H61.4807V574.511H61.6C61.7061 574.299 61.8557 574.074 62.0489 573.835C62.2421 573.593 62.5034 573.386 62.833 573.216C63.1625 573.042 63.583 572.954 64.0943 572.954C64.7686 572.954 65.3765 573.127 65.9182 573.471C66.4636 573.812 66.8955 574.318 67.2136 574.989C67.5356 575.655 67.6966 576.473 67.6966 577.443C67.6966 578.401 67.5394 579.216 67.225 579.886C66.9106 580.557 66.4826 581.068 65.9409 581.42C65.3993 581.773 64.7856 581.949 64.1 581.949C63.6 581.949 63.1852 581.865 62.8557 581.699C62.5261 581.532 62.261 581.331 62.0602 581.096C61.8633 580.858 61.7099 580.632 61.6 580.42H61.5148V585.068H59.458ZM61.475 577.432C61.475 577.996 61.5546 578.49 61.7136 578.915C61.8765 579.339 62.1095 579.67 62.4125 579.909C62.7193 580.144 63.0905 580.261 63.5261 580.261C63.9807 580.261 64.3614 580.14 64.6682 579.898C64.975 579.651 65.2061 579.316 65.3614 578.892C65.5205 578.464 65.6 577.977 65.6 577.432C65.6 576.89 65.5224 576.409 65.3671 575.989C65.2118 575.568 64.9807 575.239 64.6739 575C64.3671 574.761 63.9845 574.642 63.5261 574.642C63.0868 574.642 62.7136 574.757 62.4068 574.989C62.1 575.22 61.8671 575.543 61.708 575.96C61.5527 576.377 61.475 576.867 61.475 577.432Z" fill="white"/>
<path d="M71.4409 579.011L74.9352 573.068H77.0489V581.795H75.0602V575.846L71.5773 581.795H69.458V573.068H71.4409V579.011Z" fill="white"/>
<path d="M79.1611 585.068V573.068H81.1838V574.511H81.3031C81.4092 574.299 81.5588 574.074 81.752 573.835C81.9452 573.593 82.2065 573.386 82.5361 573.216C82.8656 573.042 83.2861 572.954 83.7975 572.954C84.4717 572.954 85.0796 573.127 85.6213 573.471C86.1668 573.812 86.5986 574.318 86.9168 574.989C87.2387 575.655 87.3997 576.473 87.3997 577.443C87.3997 578.401 87.2425 579.216 86.9281 579.886C86.6137 580.557 86.1857 581.068 85.644 581.42C85.1024 581.773 84.4887 581.949 83.8031 581.949C83.3031 581.949 82.8884 581.865 82.5588 581.699C82.2293 581.532 81.9641 581.331 81.7634 581.096C81.5664 580.858 81.413 580.632 81.3031 580.42H81.2179V585.068H79.1611ZM81.1781 577.432C81.1781 577.996 81.2577 578.49 81.4168 578.915C81.5796 579.339 81.8126 579.67 82.1156 579.909C82.4225 580.144 82.7937 580.261 83.2293 580.261C83.6838 580.261 84.0645 580.14 84.3713 579.898C84.6781 579.651 84.9092 579.316 85.0645 578.892C85.2236 578.464 85.3031 577.977 85.3031 577.432C85.3031 576.89 85.2255 576.409 85.0702 575.989C84.9149 575.568 84.6838 575.239 84.377 575C84.0702 574.761 83.6876 574.642 83.2293 574.642C82.7899 574.642 82.4168 574.757 82.11 574.989C81.8031 575.22 81.5702 575.543 81.4111 575.96C81.2558 576.377 81.1781 576.867 81.1781 577.432Z" fill="white"/>
<path d="M92.9679 581.966C92.1156 581.966 91.377 581.778 90.752 581.403C90.127 581.028 89.6422 580.504 89.2975 579.829C88.9565 579.155 88.7861 578.367 88.7861 577.466C88.7861 576.564 88.9565 575.775 89.2975 575.096C89.6422 574.418 90.127 573.892 90.752 573.517C91.377 573.142 92.1156 572.954 92.9679 572.954C93.8202 572.954 94.5588 573.142 95.1838 573.517C95.8088 573.892 96.2918 574.418 96.6327 575.096C96.9774 575.775 97.1497 576.564 97.1497 577.466C97.1497 578.367 96.9774 579.155 96.6327 579.829C96.2918 580.504 95.8088 581.028 95.1838 581.403C94.5588 581.778 93.8202 581.966 92.9679 581.966ZM92.9793 580.318C93.4414 580.318 93.8278 580.191 94.1384 579.937C94.449 579.68 94.68 579.335 94.8315 578.903C94.9868 578.471 95.0645 577.99 95.0645 577.46C95.0645 576.926 94.9868 576.443 94.8315 576.011C94.68 575.576 94.449 575.229 94.1384 574.971C93.8278 574.714 93.4414 574.585 92.9793 574.585C92.5058 574.585 92.1118 574.714 91.7975 574.971C91.4868 575.229 91.2539 575.576 91.0986 576.011C90.9471 576.443 90.8713 576.926 90.8713 577.46C90.8713 577.99 90.9471 578.471 91.0986 578.903C91.2539 579.335 91.4868 579.68 91.7975 579.937C92.1118 580.191 92.5058 580.318 92.9793 580.318Z" fill="white"/>
<path d="M98.1227 584.329V580.102H98.8159C99.0015 579.958 99.1568 579.763 99.2818 579.517C99.4068 579.267 99.5091 578.973 99.5886 578.636C99.672 578.295 99.7402 577.915 99.7932 577.494C99.8462 577.07 99.8936 576.614 99.9352 576.125L100.185 573.068H106.492V580.102H107.844V584.329H105.856V581.795H100.145V584.329H98.1227ZM100.93 580.102H104.526V574.727H101.969L101.833 576.125C101.757 577.049 101.657 577.841 101.532 578.5C101.407 579.159 101.206 579.693 100.93 580.102Z" fill="white"/>
<path d="M113.187 581.966C112.334 581.966 111.596 581.778 110.971 581.403C110.346 581.028 109.861 580.504 109.516 579.829C109.175 579.155 109.005 578.367 109.005 577.466C109.005 576.564 109.175 575.775 109.516 575.096C109.861 574.418 110.346 573.892 110.971 573.517C111.596 573.142 112.334 572.954 113.187 572.954C114.039 572.954 114.778 573.142 115.403 573.517C116.028 573.892 116.511 574.418 116.851 575.096C117.196 575.775 117.368 576.564 117.368 577.466C117.368 578.367 117.196 579.155 116.851 579.829C116.511 580.504 116.028 581.028 115.403 581.403C114.778 581.778 114.039 581.966 113.187 581.966ZM113.198 580.318C113.66 580.318 114.047 580.191 114.357 579.937C114.668 579.68 114.899 579.335 115.05 578.903C115.206 578.471 115.283 577.99 115.283 577.46C115.283 576.926 115.206 576.443 115.05 576.011C114.899 575.576 114.668 575.229 114.357 574.971C114.047 574.714 113.66 574.585 113.198 574.585C112.725 574.585 112.331 574.714 112.016 574.971C111.706 575.229 111.473 575.576 111.317 576.011C111.166 576.443 111.09 576.926 111.09 577.46C111.09 577.99 111.166 578.471 111.317 578.903C111.473 579.335 111.706 579.68 112.016 579.937C112.331 580.191 112.725 580.318 113.198 580.318Z" fill="white"/>
<path d="M123.722 576.642V578.335H119.023V576.642H123.722ZM120.654 573.068V581.795H118.591V573.068H120.654ZM126.359 581.966C125.518 581.966 124.788 581.775 124.171 581.392C123.557 581.009 123.082 580.479 122.745 579.801C122.408 579.123 122.239 578.339 122.239 577.449C122.239 576.559 122.408 575.776 122.745 575.102C123.082 574.428 123.557 573.901 124.171 573.523C124.788 573.144 125.518 572.954 126.359 572.954C127.196 572.954 127.921 573.144 128.535 573.523C129.152 573.901 129.629 574.428 129.966 575.102C130.307 575.776 130.478 576.559 130.478 577.449C130.478 578.339 130.307 579.123 129.966 579.801C129.629 580.479 129.152 581.009 128.535 581.392C127.921 581.775 127.196 581.966 126.359 581.966ZM126.359 580.261C126.855 580.261 127.26 580.136 127.574 579.886C127.889 579.636 128.12 579.299 128.268 578.875C128.415 578.451 128.489 577.975 128.489 577.449C128.489 576.922 128.415 576.447 128.268 576.023C128.12 575.598 127.889 575.263 127.574 575.017C127.26 574.767 126.855 574.642 126.359 574.642C125.859 574.642 125.449 574.767 125.131 575.017C124.817 575.263 124.586 575.598 124.438 576.023C124.29 576.447 124.216 576.922 124.216 577.449C124.216 577.979 124.29 578.456 124.438 578.881C124.586 579.305 124.817 579.642 125.131 579.892C125.449 580.138 125.859 580.261 126.359 580.261Z" fill="white"/>
<path d="M166 46L369 172" stroke="white"/>
<path d="M166 500L369 374" stroke="white"/>
<path d="M166 182L369 239" stroke="white"/>
<path d="M166 359L369 308" stroke="white"/>
<defs>
<clipPath id="clip0_301_1673">
<rect width="64" height="64" fill="white" transform="translate(58 3.52832)"/>
</clipPath>
<clipPath id="clip1_301_1673">
<rect width="64" height="64" fill="white" transform="translate(57.7017 151.528)"/>
</clipPath>
<clipPath id="clip2_301_1673">
<rect width="64" height="64" fill="white" transform="translate(58 306.528)"/>
</clipPath>
<clipPath id="clip3_301_1673">
<rect width="64" height="64" fill="white" transform="translate(58 477)"/>
</clipPath>
</defs>
</svg>
