<svg width="373" height="588" viewBox="0 0 373 588" fill="none" xmlns="http://www.w3.org/2000/svg">
<g clip-path="url(#clip0_301_1756)">
<path d="M311.165 28.1726C311.163 28.1726 311.161 28.1727 311.158 28.1727C309.918 26.0671 307.634 24.1352 304.481 22.5251C306.217 17.1637 305.801 12.8571 303.28 10.3359C301.197 8.25251 297.902 7.59383 293.752 8.43087C290.09 9.16978 285.909 11.0396 281.626 13.8451C279.73 12.6042 277.853 11.5428 276.027 10.6837C276.043 10.5446 276.051 10.4035 276.051 10.2604C276.051 8.14599 274.331 6.42578 272.216 6.42578C270.809 6.42578 269.577 7.18831 268.91 8.32142C265.036 7.65911 261.956 8.34924 259.969 10.3359C257.448 12.8573 257.033 17.1637 258.77 22.5241C253.751 25.0861 251 28.4251 251 31.9914C251 35.5592 253.751 38.8983 258.769 41.4589C257.033 46.8197 257.448 51.1258 259.969 53.6468C261.468 55.1458 263.586 55.9067 266.197 55.9067C267.08 55.9067 268.019 55.8187 269.01 55.6439C269.672 56.7959 270.914 57.574 272.336 57.574C274.45 57.574 276.17 55.8538 276.17 53.7392C276.17 53.5729 276.159 53.4093 276.138 53.2484C277.94 52.3924 279.78 51.3485 281.625 50.1394C285.908 52.9451 290.089 54.8146 293.751 55.5531C294.92 55.7888 296.02 55.9058 297.045 55.9058C299.661 55.9058 301.783 55.1438 303.28 53.6467C305.801 51.1258 306.217 46.8201 304.481 41.4593C307.618 39.8579 309.896 37.9361 311.141 35.8413C311.149 35.8413 311.157 35.842 311.165 35.842C313.28 35.842 315 34.1218 315 32.0074C315 29.8928 313.28 28.1726 311.165 28.1726ZM281.625 47.6128C280.911 47.1175 280.198 46.598 279.49 46.0568C280.2 46.0788 280.912 46.0931 281.625 46.0931C282.339 46.0931 283.051 46.0788 283.761 46.0567C283.052 46.5982 282.339 47.1177 281.625 47.6128ZM281.626 16.3713C282.34 16.866 283.053 17.3859 283.762 17.9282C282.341 17.8846 280.91 17.8848 279.489 17.9284C280.199 17.3853 280.912 16.8653 281.626 16.3713ZM276.731 43.8131C275.508 42.7606 274.3 41.6424 273.137 40.4802C270.425 37.7682 268.028 34.9159 266.004 31.993C268.03 29.0671 270.427 26.2143 273.137 23.5042C274.299 22.3425 275.507 21.2245 276.731 20.1712C279.939 19.9318 283.314 19.9319 286.52 20.1712C287.744 21.2247 288.952 22.343 290.113 23.5042C292.822 26.2132 295.22 29.0657 297.247 31.9916C295.221 34.9173 292.823 37.7702 290.113 40.4802C288.952 41.642 287.744 42.76 286.52 43.8131C283.314 44.0526 279.938 44.0527 276.731 43.8131ZM271.655 22.0216C269.067 24.6092 266.754 27.3262 264.762 30.1149C263.353 27.8821 262.223 25.7026 261.391 23.6101C264.699 22.1893 268.779 21.1298 273.19 20.5375C272.672 21.0244 272.158 21.5179 271.655 22.0216ZM264.762 33.8703C266.752 36.6569 269.066 39.3737 271.655 41.9628C272.159 42.4666 272.672 42.96 273.191 43.4468C268.779 42.8543 264.699 41.7946 261.391 40.3733C262.224 38.279 263.353 36.1 264.762 33.8703ZM291.596 41.9629C294.184 39.3753 296.497 36.6583 298.489 33.8693C299.896 36.0983 301.026 38.2776 301.859 40.373C298.555 41.7932 294.475 42.853 290.061 43.4462C290.579 42.9596 291.093 42.4663 291.596 41.9629ZM298.489 30.114C296.496 27.3247 294.183 24.6082 291.596 22.0214C291.093 21.5181 290.579 21.0248 290.061 20.538C294.474 21.1313 298.554 22.1909 301.859 23.6111C301.028 25.7019 299.899 27.8807 298.489 30.114ZM301.797 11.8187C303.7 13.7212 303.962 17.1822 302.565 21.6341C298.334 19.8293 293.115 18.6263 287.365 18.135C286.097 17.0659 284.804 16.0591 283.505 15.1303C291.486 10.1016 298.731 8.7528 301.797 11.8187ZM272.216 8.52271C273.174 8.52271 273.954 9.3023 273.954 10.2605C273.954 11.2188 273.175 11.9985 272.216 11.9985C271.258 11.9985 270.478 11.2189 270.478 10.2605C270.478 9.3023 271.258 8.52271 272.216 8.52271ZM261.452 11.8187C263.231 10.04 266.05 9.98614 268.384 10.3598C268.437 12.4285 270.135 14.0953 272.216 14.0953C273.439 14.0953 274.528 13.5198 275.231 12.6264C276.704 13.3248 278.216 14.1648 279.746 15.13C278.449 16.0569 277.157 17.0638 275.886 18.135C270.14 18.6246 264.921 19.8272 260.686 21.6328C259.288 17.1822 259.549 13.7212 261.452 11.8187ZM253.097 31.9914C253.097 29.3008 255.358 26.6688 259.492 24.5103C260.463 26.9226 261.799 29.4322 263.476 31.9928C261.799 34.5498 260.464 37.0585 259.492 39.4735C255.358 37.316 253.097 34.6836 253.097 31.9914ZM272.336 55.4772C271.377 55.4772 270.598 54.6976 270.598 53.7392C270.598 52.781 271.377 52.0014 272.336 52.0014C273.294 52.0014 274.074 52.781 274.074 53.7392C274.074 54.6976 273.294 55.4772 272.336 55.4772ZM272.336 49.9047C270.267 49.9047 268.576 51.5521 268.504 53.6038C266.132 54.0016 263.258 53.9697 261.452 52.1643C259.55 50.262 259.287 46.8015 260.684 42.3504C264.919 44.1567 270.139 45.3599 275.886 45.8495C277.151 46.9161 278.444 47.9229 279.746 48.8544C278.251 49.7978 276.766 50.6253 275.309 51.3211C274.605 50.4575 273.534 49.9047 272.336 49.9047ZM301.797 52.1643C298.73 55.2313 291.485 53.8829 283.504 48.8544C284.806 47.9237 286.099 46.917 287.365 45.8494C293.115 45.3581 298.335 44.1551 302.565 42.3506C303.962 46.8014 303.7 50.262 301.797 52.1643ZM303.758 39.4732C302.786 37.0569 301.45 34.5476 299.775 31.9913C301.453 29.4301 302.788 26.9214 303.757 24.5109C306.205 25.7904 308.013 27.2489 309.073 28.7965C308.025 29.4817 307.331 30.6647 307.331 32.0074C307.331 33.3439 308.018 34.5222 309.058 35.2089C307.997 36.749 306.195 38.2003 303.758 39.4732ZM311.165 33.7452C310.207 33.7452 309.428 32.9656 309.428 32.0074C309.428 31.0491 310.207 30.2694 311.165 30.2694C312.124 30.2694 312.903 31.049 312.903 32.0074C312.903 32.9656 312.124 33.7452 311.165 33.7452Z" fill="white"/>
</g>
<path d="M235.4 78.0852H233.275C233.214 77.7367 233.102 77.428 232.94 77.1591C232.777 76.8864 232.574 76.6553 232.332 76.4659C232.089 76.2765 231.813 76.1345 231.502 76.0398C231.195 75.9413 230.864 75.892 230.508 75.892C229.875 75.892 229.315 76.0511 228.826 76.3693C228.337 76.6837 227.955 77.1458 227.678 77.7557C227.402 78.3617 227.263 79.1023 227.263 79.9773C227.263 80.8674 227.402 81.6174 227.678 82.2273C227.958 82.8333 228.341 83.2917 228.826 83.6023C229.315 83.9091 229.873 84.0625 230.502 84.0625C230.851 84.0625 231.176 84.017 231.479 83.9261C231.786 83.8314 232.061 83.6932 232.303 83.5114C232.549 83.3295 232.756 83.1061 232.922 82.8409C233.093 82.5758 233.21 82.2727 233.275 81.9318L235.4 81.9432C235.32 82.4962 235.148 83.0152 234.883 83.5C234.621 83.9848 234.279 84.4129 233.854 84.7841C233.43 85.1515 232.934 85.4394 232.366 85.6477C231.797 85.8523 231.167 85.9545 230.474 85.9545C229.451 85.9545 228.538 85.7178 227.735 85.2443C226.932 84.7708 226.299 84.0871 225.837 83.1932C225.375 82.2992 225.144 81.2273 225.144 79.9773C225.144 78.7235 225.377 77.6515 225.843 76.7614C226.309 75.8674 226.943 75.1837 227.746 74.7102C228.549 74.2367 229.458 74 230.474 74C231.121 74 231.724 74.0909 232.28 74.2727C232.837 74.4545 233.333 74.7216 233.769 75.0739C234.205 75.4223 234.563 75.8504 234.843 76.358C235.127 76.8617 235.313 77.4375 235.4 78.0852Z" fill="white"/>
<path d="M237.239 85.7955V77.0682H239.296V80.5909H240.046L242.671 77.0682H245.148L241.915 81.3523L245.182 85.7955H242.694L240.302 82.5057H239.296V85.7955H237.239Z" fill="white"/>
<path d="M245.746 85.7955L245.735 84.1023H246.036C246.263 84.1023 246.455 84.0511 246.61 83.9489C246.765 83.8466 246.894 83.6761 246.996 83.4375C247.099 83.1951 247.178 82.8693 247.235 82.4602C247.292 82.0511 247.332 81.5417 247.354 80.9318L247.508 77.0682H253.871V85.7955H251.883V78.7557H249.377L249.241 81.5682C249.207 82.2955 249.125 82.9261 248.996 83.4602C248.871 83.9905 248.693 84.428 248.462 84.7727C248.235 85.1174 247.949 85.375 247.604 85.5455C247.26 85.7121 246.852 85.7955 246.383 85.7955H245.746Z" fill="white"/>
<path d="M258.454 85.9716C257.901 85.9716 257.403 85.8731 256.959 85.6761C256.52 85.4754 256.172 85.1799 255.914 84.7898C255.66 84.3996 255.533 83.9186 255.533 83.3466C255.533 82.8542 255.624 82.447 255.806 82.125C255.988 81.803 256.236 81.5455 256.55 81.3523C256.865 81.1591 257.219 81.0133 257.613 80.9148C258.011 80.8125 258.422 80.7386 258.846 80.6932C259.357 80.6402 259.772 80.5928 260.09 80.5511C260.408 80.5057 260.639 80.4375 260.783 80.3466C260.931 80.2519 261.005 80.1061 261.005 79.9091V79.875C261.005 79.447 260.878 79.1155 260.624 78.8807C260.37 78.6458 260.005 78.5284 259.528 78.5284C259.024 78.5284 258.624 78.6383 258.329 78.858C258.037 79.0777 257.84 79.3371 257.738 79.6364L255.817 79.3636C255.969 78.8333 256.219 78.3902 256.567 78.0341C256.916 77.6742 257.342 77.4053 257.846 77.2273C258.35 77.0455 258.906 76.9545 259.516 76.9545C259.937 76.9545 260.355 77.0038 260.772 77.1023C261.189 77.2008 261.569 77.3636 261.914 77.5909C262.259 77.8144 262.535 78.1193 262.744 78.5057C262.956 78.892 263.062 79.375 263.062 79.9545V85.7955H261.084V84.5966H261.016C260.891 84.839 260.715 85.0663 260.488 85.2784C260.264 85.4867 259.982 85.6553 259.641 85.7841C259.304 85.9091 258.908 85.9716 258.454 85.9716ZM258.988 84.4602C259.401 84.4602 259.759 84.3788 260.062 84.2159C260.365 84.0492 260.598 83.8295 260.761 83.5568C260.927 83.2841 261.011 82.9867 261.011 82.6648V81.6364C260.946 81.6894 260.836 81.7386 260.681 81.7841C260.53 81.8295 260.359 81.8693 260.17 81.9034C259.98 81.9375 259.793 81.9678 259.607 81.9943C259.422 82.0208 259.261 82.0436 259.124 82.0625C258.817 82.1042 258.543 82.1723 258.3 82.267C258.058 82.3617 257.867 82.4943 257.726 82.6648C257.586 82.8314 257.516 83.0473 257.516 83.3125C257.516 83.6913 257.655 83.9773 257.931 84.1705C258.208 84.3636 258.56 84.4602 258.988 84.4602Z" fill="white"/>
<path d="M264.357 88.3295V84.1023H265.05C265.236 83.9583 265.391 83.7633 265.516 83.517C265.641 83.267 265.744 82.9735 265.823 82.6364C265.906 82.2955 265.975 81.9148 266.028 81.4943C266.081 81.0701 266.128 80.6136 266.17 80.125L266.42 77.0682H272.726V84.1023H274.079V88.3295H272.09V85.7955H266.38V88.3295H264.357ZM267.164 84.1023H270.761V78.7273H268.204L268.067 80.125C267.992 81.0492 267.891 81.8409 267.766 82.5C267.641 83.1591 267.44 83.6932 267.164 84.1023Z" fill="white"/>
<path d="M278.126 85.9716C277.573 85.9716 277.074 85.8731 276.631 85.6761C276.192 85.4754 275.843 85.1799 275.586 84.7898C275.332 84.3996 275.205 83.9186 275.205 83.3466C275.205 82.8542 275.296 82.447 275.478 82.125C275.66 81.803 275.908 81.5455 276.222 81.3523C276.537 81.1591 276.891 81.0133 277.285 80.9148C277.682 80.8125 278.093 80.7386 278.518 80.6932C279.029 80.6402 279.444 80.5928 279.762 80.5511C280.08 80.5057 280.311 80.4375 280.455 80.3466C280.603 80.2519 280.677 80.1061 280.677 79.9091V79.875C280.677 79.447 280.55 79.1155 280.296 78.8807C280.042 78.6458 279.677 78.5284 279.199 78.5284C278.696 78.5284 278.296 78.6383 278.001 78.858C277.709 79.0777 277.512 79.3371 277.41 79.6364L275.489 79.3636C275.641 78.8333 275.891 78.3902 276.239 78.0341C276.588 77.6742 277.014 77.4053 277.518 77.2273C278.021 77.0455 278.578 76.9545 279.188 76.9545C279.609 76.9545 280.027 77.0038 280.444 77.1023C280.86 77.2008 281.241 77.3636 281.586 77.5909C281.931 77.8144 282.207 78.1193 282.415 78.5057C282.628 78.892 282.734 79.375 282.734 79.9545V85.7955H280.756V84.5966H280.688C280.563 84.839 280.387 85.0663 280.16 85.2784C279.936 85.4867 279.654 85.6553 279.313 85.7841C278.976 85.9091 278.58 85.9716 278.126 85.9716ZM278.66 84.4602C279.073 84.4602 279.431 84.3788 279.734 84.2159C280.037 84.0492 280.27 83.8295 280.432 83.5568C280.599 83.2841 280.682 82.9867 280.682 82.6648V81.6364C280.618 81.6894 280.508 81.7386 280.353 81.7841C280.201 81.8295 280.031 81.8693 279.842 81.9034C279.652 81.9375 279.465 81.9678 279.279 81.9943C279.093 82.0208 278.932 82.0436 278.796 82.0625C278.489 82.1042 278.215 82.1723 277.972 82.267C277.73 82.3617 277.539 82.4943 277.398 82.6648C277.258 82.8314 277.188 83.0473 277.188 83.3125C277.188 83.6913 277.326 83.9773 277.603 84.1705C277.879 84.3636 278.232 84.4602 278.66 84.4602Z" fill="white"/>
<path d="M288.881 80.8182V82.1761H285.33V80.8182H288.881ZM292.046 79.8182L290.103 80.0739C289.997 79.661 289.8 79.3201 289.512 79.0511C289.224 78.7784 288.821 78.642 288.302 78.642C287.84 78.642 287.449 78.7576 287.131 78.9886C286.817 79.2197 286.578 79.5455 286.415 79.9659C286.253 80.3826 286.171 80.8712 286.171 81.4318C286.171 81.9962 286.251 82.4905 286.41 82.9148C286.573 83.339 286.811 83.6705 287.126 83.9091C287.444 84.1439 287.836 84.2614 288.302 84.2614C288.62 84.2614 288.898 84.2064 289.137 84.0966C289.376 83.983 289.573 83.8277 289.728 83.6307C289.887 83.4299 290.003 83.197 290.074 82.9318L292.029 83.1761C291.919 83.7254 291.696 84.2102 291.359 84.6307C291.025 85.0473 290.597 85.375 290.074 85.6136C289.556 85.8485 288.965 85.9659 288.302 85.9659C287.453 85.9659 286.72 85.7727 286.103 85.3864C285.489 85 285.016 84.4659 284.682 83.7841C284.353 83.1023 284.188 82.3182 284.188 81.4318C284.188 80.5568 284.355 79.7841 284.688 79.1136C285.025 78.4394 285.501 77.911 286.114 77.5284C286.728 77.1458 287.457 76.9545 288.302 76.9545C288.961 76.9545 289.552 77.0739 290.074 77.3125C290.601 77.5473 291.035 77.8788 291.376 78.3068C291.72 78.7348 291.944 79.2386 292.046 79.8182Z" fill="white"/>
<path d="M293.231 78.7557V77.0682H300.867V78.7557H298.043V85.7955H296.055V78.7557H293.231Z" fill="white"/>
<path d="M303.897 79.9091H306.471C307.584 79.9091 308.446 80.1799 309.056 80.7216C309.666 81.2633 309.973 81.9735 309.976 82.8523C309.973 83.4242 309.833 83.9318 309.556 84.375C309.283 84.8182 308.886 85.1667 308.363 85.4205C307.844 85.6705 307.213 85.7955 306.471 85.7955H302.505V77.0682H304.488V84.108H306.471C306.918 84.108 307.285 83.9943 307.573 83.767C307.861 83.536 308.005 83.2405 308.005 82.8807C308.005 82.5019 307.861 82.1932 307.573 81.9545C307.285 81.7159 306.918 81.5966 306.471 81.5966H303.897V79.9091Z" fill="white"/>
<path d="M315.546 85.9659C314.675 85.9659 313.927 85.7746 313.302 85.392C312.681 85.0095 312.201 84.4811 311.864 83.8068C311.531 83.1288 311.364 82.3485 311.364 81.4659C311.364 80.5795 311.535 79.7973 311.876 79.1193C312.217 78.4375 312.698 77.9072 313.319 77.5284C313.944 77.1458 314.682 76.9545 315.535 76.9545C316.243 76.9545 316.87 77.0852 317.415 77.3466C317.965 77.6042 318.402 77.9697 318.728 78.4432C319.054 78.9129 319.239 79.4621 319.285 80.0909H317.319C317.239 79.6705 317.05 79.3201 316.751 79.0398C316.455 78.7557 316.059 78.6136 315.563 78.6136C315.143 78.6136 314.773 78.7273 314.455 78.9545C314.137 79.178 313.889 79.5 313.711 79.9205C313.537 80.3409 313.449 80.8447 313.449 81.4318C313.449 82.0265 313.537 82.5379 313.711 82.9659C313.885 83.3902 314.129 83.7178 314.444 83.9489C314.762 84.1761 315.135 84.2898 315.563 84.2898C315.866 84.2898 316.137 84.233 316.376 84.1193C316.618 84.0019 316.821 83.8333 316.984 83.6136C317.146 83.3939 317.258 83.1269 317.319 82.8125H319.285C319.235 83.4299 319.054 83.9773 318.739 84.4545C318.425 84.928 317.997 85.2992 317.455 85.5682C316.914 85.8333 316.277 85.9659 315.546 85.9659Z" fill="white"/>
<path d="M326.133 85.7955V78.7386H324.269C323.796 78.7386 323.432 78.8485 323.178 79.0682C322.924 79.2879 322.799 79.5606 322.803 79.8864C322.799 80.2121 322.919 80.4811 323.161 80.6932C323.404 80.9053 323.75 81.0114 324.201 81.0114H326.78V82.5114H324.201C323.504 82.5114 322.902 82.4015 322.394 82.1818C321.887 81.9621 321.496 81.6515 321.224 81.25C320.951 80.8485 320.815 80.3788 320.815 79.8409C320.815 79.2803 320.953 78.7936 321.229 78.3807C321.51 77.964 321.907 77.642 322.422 77.4148C322.941 77.1837 323.557 77.0682 324.269 77.0682H328.059V85.7955H326.133ZM320.496 85.7955L322.934 81.3182H324.962L322.519 85.7955H320.496Z" fill="white"/>
<path d="M333.616 83.4034H335.655C335.674 83.7292 335.82 83.9811 336.093 84.1591C336.366 84.3371 336.72 84.4261 337.155 84.4261C337.599 84.4261 337.972 84.3295 338.275 84.1364C338.582 83.9394 338.735 83.642 338.735 83.2443C338.735 83.0095 338.676 82.803 338.559 82.625C338.441 82.4432 338.277 82.303 338.065 82.2045C337.852 82.1061 337.602 82.0568 337.315 82.0568H335.979V80.5966H337.315C337.743 80.5966 338.066 80.4981 338.286 80.3011C338.51 80.1042 338.621 79.8561 338.621 79.5568C338.621 79.2348 338.504 78.9735 338.269 78.7727C338.038 78.572 337.718 78.4716 337.309 78.4716C336.9 78.4716 336.559 78.5644 336.286 78.75C336.017 78.9356 335.877 79.1742 335.866 79.4659H333.837C333.845 78.9583 333.996 78.517 334.292 78.142C334.591 77.767 334.993 77.4754 335.496 77.267C336.004 77.0587 336.576 76.9545 337.212 76.9545C337.894 76.9545 338.483 77.0568 338.979 77.2614C339.476 77.4659 339.858 77.7519 340.127 78.1193C340.396 78.483 340.53 78.911 340.53 79.4034C340.53 79.8769 340.383 80.2689 340.087 80.5795C339.792 80.8864 339.394 81.1061 338.894 81.2386V81.3295C339.239 81.3485 339.549 81.447 339.826 81.625C340.102 81.7992 340.322 82.036 340.485 82.3352C340.648 82.6345 340.729 82.9811 340.729 83.375C340.729 83.9091 340.576 84.3712 340.269 84.7614C339.962 85.1477 339.54 85.4451 339.002 85.6534C338.468 85.8617 337.856 85.9659 337.167 85.9659C336.496 85.9659 335.896 85.8655 335.366 85.6648C334.839 85.4602 334.421 85.1667 334.11 84.7841C333.799 84.4015 333.635 83.9413 333.616 83.4034Z" fill="white"/>
<path d="M246.075 104.795V96.0682H248.132V99.5909H248.882L251.507 96.0682H253.984L250.751 100.352L254.018 104.795H251.53L249.138 101.506H248.132V104.795H246.075Z" fill="white"/>
<path d="M258.632 104.966C257.78 104.966 257.041 104.778 256.416 104.403C255.791 104.028 255.306 103.504 254.962 102.83C254.621 102.155 254.45 101.367 254.45 100.466C254.45 99.5644 254.621 98.7746 254.962 98.0966C255.306 97.4186 255.791 96.892 256.416 96.517C257.041 96.142 257.78 95.9545 258.632 95.9545C259.484 95.9545 260.223 96.142 260.848 96.517C261.473 96.892 261.956 97.4186 262.297 98.0966C262.641 98.7746 262.814 99.5644 262.814 100.466C262.814 101.367 262.641 102.155 262.297 102.83C261.956 103.504 261.473 104.028 260.848 104.403C260.223 104.778 259.484 104.966 258.632 104.966ZM258.643 103.318C259.106 103.318 259.492 103.191 259.802 102.938C260.113 102.68 260.344 102.335 260.496 101.903C260.651 101.472 260.729 100.991 260.729 100.46C260.729 99.9261 260.651 99.4432 260.496 99.0114C260.344 98.5758 260.113 98.2292 259.802 97.9716C259.492 97.714 259.106 97.5852 258.643 97.5852C258.17 97.5852 257.776 97.714 257.462 97.9716C257.151 98.2292 256.918 98.5758 256.763 99.0114C256.611 99.4432 256.535 99.9261 256.535 100.46C256.535 100.991 256.611 101.472 256.763 101.903C256.918 102.335 257.151 102.68 257.462 102.938C257.776 103.191 258.17 103.318 258.643 103.318Z" fill="white"/>
<path d="M264.56 108.068V96.0682H266.582V97.5114H266.702C266.808 97.2992 266.957 97.0739 267.15 96.8352C267.344 96.5928 267.605 96.3864 267.935 96.2159C268.264 96.0417 268.685 95.9545 269.196 95.9545C269.87 95.9545 270.478 96.1269 271.02 96.4716C271.565 96.8125 271.997 97.3182 272.315 97.9886C272.637 98.6553 272.798 99.4735 272.798 100.443C272.798 101.402 272.641 102.216 272.327 102.886C272.012 103.557 271.584 104.068 271.043 104.42C270.501 104.773 269.887 104.949 269.202 104.949C268.702 104.949 268.287 104.866 267.957 104.699C267.628 104.532 267.363 104.331 267.162 104.097C266.965 103.858 266.811 103.633 266.702 103.42H266.616V108.068H264.56ZM266.577 100.432C266.577 100.996 266.656 101.491 266.815 101.915C266.978 102.339 267.211 102.67 267.514 102.909C267.821 103.144 268.192 103.261 268.628 103.261C269.082 103.261 269.463 103.14 269.77 102.898C270.077 102.652 270.308 102.316 270.463 101.892C270.622 101.464 270.702 100.977 270.702 100.432C270.702 99.8902 270.624 99.4091 270.469 98.9886C270.313 98.5682 270.082 98.2386 269.775 98C269.469 97.7614 269.086 97.642 268.628 97.642C268.188 97.642 267.815 97.7576 267.508 97.9886C267.202 98.2197 266.969 98.5436 266.81 98.9602C266.654 99.3769 266.577 99.8674 266.577 100.432Z" fill="white"/>
<path d="M276.543 102.011L280.037 96.0682H282.15V104.795H280.162V98.8466L276.679 104.795H274.56V96.0682H276.543V102.011Z" fill="white"/>
<path d="M288.07 104.966C287.198 104.966 286.45 104.775 285.825 104.392C285.204 104.009 284.725 103.481 284.388 102.807C284.054 102.129 283.888 101.348 283.888 100.466C283.888 99.5795 284.058 98.7974 284.399 98.1193C284.74 97.4375 285.221 96.9072 285.842 96.5284C286.467 96.1458 287.206 95.9545 288.058 95.9545C288.766 95.9545 289.393 96.0852 289.939 96.3466C290.488 96.6042 290.926 96.9697 291.251 97.4432C291.577 97.9129 291.763 98.4621 291.808 99.0909H289.842C289.763 98.6705 289.573 98.3201 289.274 98.0398C288.979 97.7557 288.583 97.6136 288.087 97.6136C287.666 97.6136 287.297 97.7273 286.979 97.9545C286.66 98.178 286.412 98.5 286.234 98.9205C286.06 99.3409 285.973 99.8447 285.973 100.432C285.973 101.027 286.06 101.538 286.234 101.966C286.409 102.39 286.653 102.718 286.967 102.949C287.285 103.176 287.659 103.29 288.087 103.29C288.39 103.29 288.66 103.233 288.899 103.119C289.141 103.002 289.344 102.833 289.507 102.614C289.67 102.394 289.782 102.127 289.842 101.812H291.808C291.759 102.43 291.577 102.977 291.263 103.455C290.948 103.928 290.52 104.299 289.979 104.568C289.437 104.833 288.801 104.966 288.07 104.966Z" fill="white"/>
<path d="M299.491 99.5795V101.267H294.844V99.5795H299.491ZM295.48 96.0682V104.795H293.497V96.0682H295.48ZM300.838 96.0682V104.795H298.861V96.0682H300.838Z" fill="white"/>
<path d="M304.902 102.011L308.396 96.0682H310.51V104.795H308.521V98.8466L305.038 104.795H302.919V96.0682H304.902V102.011Z" fill="white"/>
<path d="M314.304 96.0682L316.065 99.2898L317.855 96.0682H320.031L317.4 100.432L320.077 104.795H317.912L316.065 101.653L314.236 104.795H312.054L314.713 100.432L312.122 96.0682H314.304Z" fill="white"/>
<path d="M225.637 121.403L228.228 115.068H229.887L226.359 123.795H224.921L221.472 115.068H223.114L225.637 121.403ZM222.597 115.068V123.795H220.614V115.068H222.597ZM228.762 123.795V115.068H230.728V123.795H228.762Z" fill="white"/>
<path d="M232.802 123.795V115.068H234.859V123.795H232.802ZM233.836 113.83C233.51 113.83 233.23 113.722 232.995 113.506C232.76 113.286 232.643 113.023 232.643 112.716C232.643 112.405 232.76 112.142 232.995 111.926C233.23 111.706 233.51 111.597 233.836 111.597C234.165 111.597 234.446 111.706 234.677 111.926C234.912 112.142 235.029 112.405 235.029 112.716C235.029 113.023 234.912 113.286 234.677 113.506C234.446 113.722 234.165 113.83 233.836 113.83Z" fill="white"/>
<path d="M236.974 123.795V115.068H239.03V118.591H239.78L242.405 115.068H244.883L241.65 119.352L244.917 123.795H242.428L240.036 120.506H239.03V123.795H236.974Z" fill="white"/>
<path d="M246.083 127.068V115.068H248.106V116.511H248.225C248.331 116.299 248.481 116.074 248.674 115.835C248.867 115.593 249.128 115.386 249.458 115.216C249.788 115.042 250.208 114.955 250.719 114.955C251.394 114.955 252.002 115.127 252.543 115.472C253.089 115.813 253.521 116.318 253.839 116.989C254.161 117.655 254.322 118.473 254.322 119.443C254.322 120.402 254.164 121.216 253.85 121.886C253.536 122.557 253.108 123.068 252.566 123.42C252.024 123.773 251.411 123.949 250.725 123.949C250.225 123.949 249.81 123.866 249.481 123.699C249.151 123.532 248.886 123.331 248.685 123.097C248.488 122.858 248.335 122.633 248.225 122.42H248.14V127.068H246.083ZM248.1 119.432C248.1 119.996 248.18 120.491 248.339 120.915C248.502 121.339 248.735 121.67 249.038 121.909C249.344 122.144 249.716 122.261 250.151 122.261C250.606 122.261 250.986 122.14 251.293 121.898C251.6 121.652 251.831 121.316 251.986 120.892C252.146 120.464 252.225 119.977 252.225 119.432C252.225 118.89 252.147 118.409 251.992 117.989C251.837 117.568 251.606 117.239 251.299 117C250.992 116.761 250.61 116.642 250.151 116.642C249.712 116.642 249.339 116.758 249.032 116.989C248.725 117.22 248.492 117.544 248.333 117.96C248.178 118.377 248.1 118.867 248.1 119.432Z" fill="white"/>
<path d="M259.89 123.966C259.038 123.966 258.299 123.778 257.674 123.403C257.049 123.028 256.564 122.504 256.219 121.83C255.878 121.155 255.708 120.367 255.708 119.466C255.708 118.564 255.878 117.775 256.219 117.097C256.564 116.419 257.049 115.892 257.674 115.517C258.299 115.142 259.038 114.955 259.89 114.955C260.742 114.955 261.481 115.142 262.106 115.517C262.731 115.892 263.214 116.419 263.555 117.097C263.899 117.775 264.072 118.564 264.072 119.466C264.072 120.367 263.899 121.155 263.555 121.83C263.214 122.504 262.731 123.028 262.106 123.403C261.481 123.778 260.742 123.966 259.89 123.966ZM259.901 122.318C260.363 122.318 260.75 122.191 261.06 121.938C261.371 121.68 261.602 121.335 261.753 120.903C261.909 120.472 261.986 119.991 261.986 119.46C261.986 118.926 261.909 118.443 261.753 118.011C261.602 117.576 261.371 117.229 261.06 116.972C260.75 116.714 260.363 116.585 259.901 116.585C259.428 116.585 259.034 116.714 258.719 116.972C258.409 117.229 258.176 117.576 258.021 118.011C257.869 118.443 257.793 118.926 257.793 119.46C257.793 119.991 257.869 120.472 258.021 120.903C258.176 121.335 258.409 121.68 258.719 121.938C259.034 122.191 259.428 122.318 259.901 122.318Z" fill="white"/>
<path d="M269.681 123.966C268.806 123.966 268.05 123.784 267.414 123.42C266.781 123.053 266.295 122.534 265.954 121.864C265.613 121.189 265.442 120.396 265.442 119.483C265.442 118.585 265.613 117.797 265.954 117.119C266.298 116.438 266.78 115.907 267.397 115.528C268.014 115.146 268.74 114.955 269.573 114.955C270.111 114.955 270.619 115.042 271.096 115.216C271.577 115.386 272.001 115.652 272.369 116.011C272.74 116.371 273.031 116.83 273.244 117.386C273.456 117.939 273.562 118.598 273.562 119.364V119.994H266.408V118.608H271.59C271.586 118.214 271.501 117.864 271.334 117.557C271.168 117.246 270.935 117.002 270.636 116.824C270.34 116.646 269.995 116.557 269.601 116.557C269.181 116.557 268.812 116.659 268.494 116.864C268.175 117.064 267.927 117.33 267.749 117.659C267.575 117.985 267.486 118.343 267.482 118.733V119.943C267.482 120.451 267.575 120.886 267.761 121.25C267.946 121.61 268.206 121.886 268.539 122.08C268.872 122.269 269.262 122.364 269.709 122.364C270.009 122.364 270.28 122.322 270.522 122.239C270.764 122.152 270.975 122.025 271.153 121.858C271.331 121.691 271.465 121.485 271.556 121.239L273.476 121.455C273.355 121.962 273.124 122.405 272.783 122.784C272.446 123.159 272.014 123.451 271.488 123.659C270.961 123.864 270.359 123.966 269.681 123.966Z" fill="white"/>
<path d="M274.699 123.795L274.688 122.102H274.989C275.217 122.102 275.408 122.051 275.563 121.949C275.718 121.847 275.847 121.676 275.949 121.438C276.052 121.195 276.131 120.869 276.188 120.46C276.245 120.051 276.285 119.542 276.307 118.932L276.461 115.068H282.824V123.795H280.836V116.756H278.33L278.194 119.568C278.16 120.295 278.078 120.926 277.949 121.46C277.824 121.991 277.646 122.428 277.415 122.773C277.188 123.117 276.902 123.375 276.557 123.545C276.213 123.712 275.806 123.795 275.336 123.795H274.699Z" fill="white"/>
<path d="M288.759 123.966C287.884 123.966 287.128 123.784 286.492 123.42C285.86 123.053 285.373 122.534 285.032 121.864C284.691 121.189 284.521 120.396 284.521 119.483C284.521 118.585 284.691 117.797 285.032 117.119C285.377 116.438 285.858 115.907 286.475 115.528C287.092 115.146 287.818 114.955 288.651 114.955C289.189 114.955 289.697 115.042 290.174 115.216C290.655 115.386 291.079 115.652 291.447 116.011C291.818 116.371 292.11 116.83 292.322 117.386C292.534 117.939 292.64 118.598 292.64 119.364V119.994H285.486V118.608H290.668C290.664 118.214 290.579 117.864 290.413 117.557C290.246 117.246 290.013 117.002 289.714 116.824C289.418 116.646 289.074 116.557 288.68 116.557C288.259 116.557 287.89 116.659 287.572 116.864C287.253 117.064 287.005 117.33 286.827 117.659C286.653 117.985 286.564 118.343 286.56 118.733V119.943C286.56 120.451 286.653 120.886 286.839 121.25C287.024 121.61 287.284 121.886 287.617 122.08C287.95 122.269 288.341 122.364 288.788 122.364C289.087 122.364 289.358 122.322 289.6 122.239C289.842 122.152 290.053 122.025 290.231 121.858C290.409 121.691 290.543 121.485 290.634 121.239L292.555 121.455C292.433 121.962 292.202 122.405 291.861 122.784C291.524 123.159 291.092 123.451 290.566 123.659C290.039 123.864 289.437 123.966 288.759 123.966Z" fill="white"/>
<path d="M299.403 121.403L301.994 115.068H303.653L300.124 123.795H298.687L295.238 115.068H296.88L299.403 121.403ZM296.363 115.068V123.795H294.38V115.068H296.363ZM302.528 123.795V115.068H304.494V123.795H302.528Z" fill="white"/>
<path d="M310.431 123.966C309.556 123.966 308.8 123.784 308.164 123.42C307.531 123.053 307.045 122.534 306.704 121.864C306.363 121.189 306.192 120.396 306.192 119.483C306.192 118.585 306.363 117.797 306.704 117.119C307.048 116.438 307.53 115.907 308.147 115.528C308.764 115.146 309.49 114.955 310.323 114.955C310.861 114.955 311.369 115.042 311.846 115.216C312.327 115.386 312.751 115.652 313.119 116.011C313.49 116.371 313.781 116.83 313.994 117.386C314.206 117.939 314.312 118.598 314.312 119.364V119.994H307.158V118.608H312.34C312.336 118.214 312.251 117.864 312.084 117.557C311.918 117.246 311.685 117.002 311.386 116.824C311.09 116.646 310.745 116.557 310.351 116.557C309.931 116.557 309.562 116.659 309.244 116.864C308.925 117.064 308.677 117.33 308.499 117.659C308.325 117.985 308.236 118.343 308.232 118.733V119.943C308.232 120.451 308.325 120.886 308.511 121.25C308.696 121.61 308.956 121.886 309.289 122.08C309.622 122.269 310.012 122.364 310.459 122.364C310.759 122.364 311.03 122.322 311.272 122.239C311.514 122.152 311.725 122.025 311.903 121.858C312.081 121.691 312.215 121.485 312.306 121.239L314.226 121.455C314.105 121.962 313.874 122.405 313.533 122.784C313.196 123.159 312.764 123.451 312.238 123.659C311.711 123.864 311.109 123.966 310.431 123.966Z" fill="white"/>
<path d="M322.046 118.58V120.267H317.398V118.58H322.046ZM318.035 115.068V123.795H316.052V115.068H318.035ZM323.393 115.068V123.795H321.415V115.068H323.393Z" fill="white"/>
<path d="M324.496 116.756V115.068H332.133V116.756H329.309V123.795H327.32V116.756H324.496Z" fill="white"/>
<path d="M333.771 123.795V115.068H335.827V123.795H333.771ZM334.805 113.83C334.479 113.83 334.199 113.722 333.964 113.506C333.729 113.286 333.611 113.023 333.611 112.716C333.611 112.405 333.729 112.142 333.964 111.926C334.199 111.706 334.479 111.597 334.805 111.597C335.134 111.597 335.414 111.706 335.646 111.926C335.88 112.142 335.998 112.405 335.998 112.716C335.998 113.023 335.88 113.286 335.646 113.506C335.414 113.722 335.134 113.83 334.805 113.83Z" fill="white"/>
<path d="M337.942 123.795V115.068H341.607C342.641 115.068 343.458 115.275 344.056 115.688C344.658 116.1 344.959 116.676 344.959 117.415C344.959 117.903 344.789 118.303 344.448 118.614C344.111 118.92 343.651 119.127 343.067 119.233C343.526 119.271 343.927 119.386 344.272 119.58C344.62 119.773 344.893 120.027 345.09 120.341C345.287 120.655 345.386 121.017 345.386 121.426C345.386 121.907 345.259 122.326 345.005 122.682C344.755 123.034 344.389 123.309 343.908 123.506C343.431 123.699 342.851 123.795 342.17 123.795H337.942ZM339.869 122.176H342.17C342.548 122.176 342.846 122.087 343.062 121.909C343.278 121.727 343.386 121.481 343.386 121.17C343.386 120.811 343.278 120.528 343.062 120.324C342.846 120.116 342.548 120.011 342.17 120.011H339.869V122.176ZM339.869 118.682H341.647C341.927 118.682 342.168 118.642 342.369 118.562C342.569 118.479 342.723 118.364 342.829 118.216C342.935 118.064 342.988 117.884 342.988 117.676C342.988 117.377 342.865 117.142 342.619 116.972C342.376 116.801 342.039 116.716 341.607 116.716H339.869V118.682Z" fill="white"/>
<g clip-path="url(#clip1_301_1756)">
<path d="M299.468 237.231C296.349 237.231 293.162 236.132 290.637 234.04C290.078 233.578 289.371 233.299 288.645 233.258H288.645C279.937 232.756 272.029 228.593 266.947 221.836C261.754 214.932 260.051 206.039 262.152 196.798C264.24 187.611 269.856 180.524 277.965 176.842C285.559 173.394 294.541 173.367 300.85 176.771C306.759 179.96 308.856 186.108 308.856 190.403L308.856 190.477C308.852 190.907 309.085 191.294 309.48 191.507C312.525 193.154 314.417 196.321 314.417 199.774V211.187C314.417 212.67 314.109 217.694 310.187 220.624V227.517C310.187 231.328 308.183 234.456 304.688 236.098C303.067 236.861 301.279 237.231 299.468 237.231ZM288.772 231.039C289.968 231.107 291.134 231.566 292.055 232.329C295.396 235.096 300.092 235.803 303.742 234.087C305.319 233.346 307.964 231.506 307.964 227.517V220.481C307.964 219.86 308.26 219.275 308.757 218.917C311.291 217.091 312.194 213.726 312.194 211.187V199.774C312.194 197.139 310.748 194.721 308.422 193.463C307.308 192.861 306.622 191.708 306.633 190.455L306.633 190.403C306.633 186.72 304.842 181.452 299.794 178.728C294.074 175.642 285.867 175.696 278.884 178.867C271.423 182.254 266.25 188.797 264.32 197.291C262.366 205.885 263.93 214.127 268.723 220.5C273.411 226.733 280.719 230.574 288.772 231.039ZM299.654 186.665C297.594 186.665 295.916 188.343 295.916 190.403C295.916 192.463 297.594 194.14 299.654 194.14C301.714 194.14 303.391 192.463 303.391 190.403C303.391 188.343 301.714 186.665 299.654 186.665ZM294.95 195.107H304.284C306.873 195.107 308.952 197.185 308.952 199.774V211.187C308.952 212.08 308.24 212.828 307.311 212.828C306.381 212.828 305.67 212.117 305.67 211.187V200.704C305.67 200.448 305.451 200.23 305.196 200.23C304.941 200.23 304.722 200.448 304.722 200.704V228.999C304.722 230.403 303.683 231.551 302.388 231.551C301.094 231.551 300.055 230.403 300.055 228.999V212.864C300.055 212.609 299.836 212.39 299.581 212.39C299.326 212.39 299.107 212.609 299.107 212.864V228.999C299.107 230.403 298.068 231.551 296.773 231.551C295.479 231.551 294.44 230.403 294.44 228.999V200.704C294.44 200.448 294.221 200.23 293.966 200.23C293.711 200.23 293.492 200.448 293.492 200.704V211.205C293.492 212.098 292.781 212.846 291.851 212.846C290.921 212.846 290.21 212.135 290.21 211.205V199.774C290.283 197.185 292.416 195.107 294.95 195.107ZM261.583 188.443L257.239 187.59L255.817 183.445C255.598 182.805 254.933 182.393 254.274 182.551C253.519 182.732 253.1 183.517 253.346 184.234L254.786 188.432L251.902 191.777C251.439 192.309 251.485 193.113 252.007 193.588C252.544 194.077 253.379 194.029 253.857 193.481L256.741 190.135L261.085 190.987C261.788 191.125 262.469 190.667 262.607 189.964C262.745 189.261 262.286 188.58 261.583 188.443ZM274.682 173.362C274.587 172.591 273.854 172.087 273.114 172.251L268.781 173.212L265.82 169.981C265.363 169.481 264.589 169.37 264.049 169.778C263.429 170.246 263.358 171.133 263.871 171.692L266.869 174.964L265.532 179.196C265.316 179.879 265.695 180.608 266.378 180.823C267.061 181.038 267.79 180.659 268.005 179.976L269.342 175.743L273.62 174.795C274.282 174.648 274.765 174.034 274.682 173.362ZM256.572 172.814C258.072 172.814 259.289 174.03 259.289 175.531C259.289 177.031 258.072 178.248 256.572 178.248C255.071 178.248 253.855 177.031 253.855 175.531C253.855 174.03 255.071 172.814 256.572 172.814Z" fill="white"/>
</g>
<path d="M254.221 248.323V259.959H252.13V250.073H247.039V259.959H244.948V248.323H254.221Z" fill="white"/>
<path d="M256.651 259.959V251.232H258.708V259.959H256.651ZM257.685 249.993C257.36 249.993 257.079 249.885 256.845 249.669C256.61 249.45 256.492 249.186 256.492 248.88C256.492 248.569 256.61 248.306 256.845 248.09C257.079 247.87 257.36 247.76 257.685 247.76C258.015 247.76 258.295 247.87 258.526 248.09C258.761 248.306 258.879 248.569 258.879 248.88C258.879 249.186 258.761 249.45 258.526 249.669C258.295 249.885 258.015 249.993 257.685 249.993Z" fill="white"/>
<path d="M260.051 262.493V258.266H260.744C260.929 258.122 261.085 257.927 261.21 257.681C261.335 257.431 261.437 257.137 261.516 256.8C261.6 256.459 261.668 256.078 261.721 255.658C261.774 255.234 261.821 254.777 261.863 254.289L262.113 251.232H268.42V258.266H269.772V262.493H267.783V259.959H262.073V262.493H260.051ZM262.857 258.266H266.454V252.891H263.897L263.761 254.289C263.685 255.213 263.585 256.005 263.46 256.664C263.335 257.323 263.134 257.857 262.857 258.266Z" fill="white"/>
<path d="M271.308 259.959V251.232H274.972C276.006 251.232 276.823 251.438 277.421 251.851C278.024 252.264 278.325 252.84 278.325 253.578C278.325 254.067 278.154 254.467 277.813 254.777C277.476 255.084 277.016 255.291 276.433 255.397C276.891 255.435 277.292 255.55 277.637 255.743C277.986 255.936 278.258 256.19 278.455 256.505C278.652 256.819 278.751 257.181 278.751 257.59C278.751 258.071 278.624 258.489 278.37 258.846C278.12 259.198 277.755 259.472 277.274 259.669C276.796 259.863 276.217 259.959 275.535 259.959H271.308ZM273.234 258.34H275.535C275.914 258.34 276.211 258.251 276.427 258.073C276.643 257.891 276.751 257.645 276.751 257.334C276.751 256.974 276.643 256.692 276.427 256.488C276.211 256.279 275.914 256.175 275.535 256.175H273.234V258.34ZM273.234 254.846H275.012C275.292 254.846 275.533 254.806 275.734 254.726C275.935 254.643 276.088 254.527 276.194 254.38C276.3 254.228 276.353 254.048 276.353 253.84C276.353 253.541 276.23 253.306 275.984 253.135C275.741 252.965 275.404 252.88 274.972 252.88H273.234V254.846Z" fill="white"/>
<path d="M282.431 257.175L285.926 251.232H288.039V259.959H286.051V254.01L282.568 259.959H280.448V251.232H282.431V257.175Z" fill="white"/>
<path d="M303.259 258.272L303.089 262.459H301.151V259.959H300.123V258.272H303.259ZM290.151 251.232H292.134V258.266H294.879V251.232H296.862V258.266H299.606V251.232H301.589V259.959H290.151V251.232Z" fill="white"/>
<path d="M306.164 263.232C305.884 263.232 305.624 263.209 305.386 263.164C305.151 263.122 304.963 263.073 304.823 263.016L305.301 261.414C305.6 261.501 305.867 261.543 306.102 261.539C306.336 261.535 306.543 261.461 306.721 261.317C306.903 261.177 307.056 260.942 307.181 260.613L307.357 260.141L304.193 251.232H306.374L308.386 257.823H308.477L310.494 251.232H312.681L309.187 261.016C309.024 261.478 308.808 261.874 308.539 262.203C308.27 262.537 307.941 262.791 307.551 262.965C307.164 263.143 306.702 263.232 306.164 263.232Z" fill="white"/>
<path d="M317.887 254.982V256.34H314.336V254.982H317.887ZM321.052 253.982L319.109 254.238C319.003 253.825 318.806 253.484 318.518 253.215C318.23 252.942 317.827 252.806 317.308 252.806C316.845 252.806 316.455 252.921 316.137 253.152C315.823 253.383 315.584 253.709 315.421 254.13C315.258 254.546 315.177 255.035 315.177 255.596C315.177 256.16 315.256 256.654 315.416 257.078C315.578 257.503 315.817 257.834 316.131 258.073C316.45 258.308 316.842 258.425 317.308 258.425C317.626 258.425 317.904 258.37 318.143 258.26C318.381 258.147 318.578 257.991 318.734 257.794C318.893 257.594 319.008 257.361 319.08 257.096L321.035 257.34C320.925 257.889 320.702 258.374 320.364 258.794C320.031 259.211 319.603 259.539 319.08 259.777C318.561 260.012 317.97 260.13 317.308 260.13C316.459 260.13 315.726 259.936 315.109 259.55C314.495 259.164 314.022 258.63 313.688 257.948C313.359 257.266 313.194 256.482 313.194 255.596C313.194 254.721 313.361 253.948 313.694 253.277C314.031 252.603 314.506 252.075 315.12 251.692C315.734 251.31 316.463 251.118 317.308 251.118C317.967 251.118 318.558 251.238 319.08 251.476C319.607 251.711 320.041 252.043 320.381 252.471C320.726 252.899 320.95 253.402 321.052 253.982Z" fill="white"/>
<path d="M253.073 278.959V270.232H255.13V278.959H253.073ZM254.107 268.993C253.782 268.993 253.501 268.885 253.266 268.669C253.032 268.45 252.914 268.186 252.914 267.88C252.914 267.569 253.032 267.306 253.266 267.09C253.501 266.87 253.782 266.76 254.107 266.76C254.437 266.76 254.717 266.87 254.948 267.09C255.183 267.306 255.301 267.569 255.301 267.88C255.301 268.186 255.183 268.45 254.948 268.669C254.717 268.885 254.437 268.993 254.107 268.993Z" fill="white"/>
<path d="M262.268 276.567L264.859 270.232H266.518L262.989 278.959H261.552L258.103 270.232H259.745L262.268 276.567ZM259.228 270.232V278.959H257.245V270.232H259.228ZM265.393 278.959V270.232H267.359V278.959H265.393Z" fill="white"/>
<path d="M270.399 282.232C270.118 282.232 269.859 282.209 269.62 282.164C269.385 282.122 269.198 282.073 269.058 282.016L269.535 280.414C269.834 280.501 270.101 280.543 270.336 280.539C270.571 280.535 270.777 280.461 270.955 280.317C271.137 280.177 271.291 279.942 271.416 279.613L271.592 279.141L268.427 270.232H270.609L272.62 276.823H272.711L274.728 270.232H276.916L273.421 280.016C273.258 280.478 273.042 280.874 272.774 281.203C272.505 281.537 272.175 281.791 271.785 281.965C271.399 282.143 270.936 282.232 270.399 282.232Z" fill="white"/>
<path d="M284.333 273.743V275.431H279.685V273.743H284.333ZM280.322 270.232V278.959H278.339V270.232H280.322ZM285.68 270.232V278.959H283.703V270.232H285.68Z" fill="white"/>
<path d="M287.761 278.959V270.232H289.818V278.959H287.761ZM288.795 268.993C288.469 268.993 288.189 268.885 287.954 268.669C287.719 268.45 287.602 268.186 287.602 267.88C287.602 267.569 287.719 267.306 287.954 267.09C288.189 266.87 288.469 266.76 288.795 266.76C289.124 266.76 289.405 266.87 289.636 267.09C289.871 267.306 289.988 267.569 289.988 267.88C289.988 268.186 289.871 268.45 289.636 268.669C289.405 268.885 289.124 268.993 288.795 268.993Z" fill="white"/>
<path d="M291.455 271.919V270.232H299.092V271.919H296.268V278.959H294.279V271.919H291.455Z" fill="white"/>
<path d="M304.234 279.13C303.359 279.13 302.603 278.948 301.967 278.584C301.334 278.217 300.847 277.698 300.506 277.027C300.166 276.353 299.995 275.56 299.995 274.647C299.995 273.749 300.166 272.961 300.506 272.283C300.851 271.601 301.332 271.071 301.95 270.692C302.567 270.31 303.292 270.118 304.126 270.118C304.664 270.118 305.171 270.205 305.649 270.38C306.13 270.55 306.554 270.815 306.921 271.175C307.292 271.535 307.584 271.993 307.796 272.55C308.008 273.103 308.114 273.762 308.114 274.527V275.158H300.961V273.772H306.143C306.139 273.378 306.054 273.027 305.887 272.721C305.72 272.41 305.488 272.166 305.188 271.988C304.893 271.81 304.548 271.721 304.154 271.721C303.734 271.721 303.364 271.823 303.046 272.027C302.728 272.228 302.48 272.493 302.302 272.823C302.128 273.149 302.039 273.507 302.035 273.897V275.107C302.035 275.614 302.128 276.05 302.313 276.414C302.499 276.774 302.758 277.05 303.092 277.243C303.425 277.433 303.815 277.527 304.262 277.527C304.561 277.527 304.832 277.486 305.075 277.402C305.317 277.315 305.527 277.188 305.705 277.022C305.883 276.855 306.018 276.649 306.109 276.402L308.029 276.618C307.908 277.126 307.677 277.569 307.336 277.948C306.999 278.323 306.567 278.614 306.041 278.823C305.514 279.027 304.912 279.13 304.234 279.13Z" fill="white"/>
<path d="M309.127 271.919V270.232H316.764V271.919H313.94V278.959H311.951V271.919H309.127Z" fill="white"/>
<path d="M306.88 336.692C302.026 332.037 297.173 329.989 292.469 330.605C286.731 331.355 283.031 335.835 281.818 337.534C276.429 336.264 275.334 331.673 275.286 331.459C275.158 330.876 274.584 330.498 273.999 330.631C273.413 330.756 273.04 331.332 273.166 331.919C273.223 332.188 274.666 338.526 282.129 339.809L282.855 339.932L283.239 339.306C283.275 339.247 286.848 333.518 292.766 332.753C296.787 332.232 301.029 334.086 305.379 338.257C314.108 346.626 313.954 357.387 310.9 364.668C310.646 365.273 310.368 365.86 310.075 366.434C309.921 366.35 309.752 366.289 309.564 366.289C308.965 366.289 308.479 366.775 308.479 367.373C308.479 367.768 308.701 368.099 309.017 368.289C308.514 369.097 307.971 369.869 307.389 370.601C307.374 370.015 306.9 369.542 306.31 369.542C305.711 369.542 305.225 370.028 305.225 370.627C305.225 371.226 305.711 371.712 306.31 371.712C306.367 371.712 306.416 371.688 306.47 371.679C305.736 372.498 304.953 373.257 304.126 373.955C304.129 373.929 304.142 373.908 304.142 373.881C304.142 373.282 303.656 372.796 303.057 372.796C302.459 372.796 301.973 373.282 301.973 373.881C301.973 374.42 302.373 374.847 302.889 374.931C302.154 375.472 301.396 375.976 300.606 376.421C300.408 376.197 300.126 376.05 299.804 376.05C299.205 376.05 298.719 376.535 298.719 377.134C298.719 377.207 298.746 377.27 298.761 377.338C295.793 378.662 292.542 379.342 289.172 379.228L289.079 379.226L288.989 379.239C288.91 379.252 280.994 380.272 271.803 374.773L270.982 374.297L270.39 375.039C270.36 375.077 269.629 375.976 268.319 376.05C266.995 376.141 265.419 375.303 263.789 373.675C262.708 372.593 261.197 372.272 259.842 372.83C258.813 373.255 256.423 374.846 256.423 380.413C256.423 381.012 256.909 381.497 257.507 381.497C258.106 381.497 258.592 381.012 258.592 380.413C258.592 376.934 259.666 375.249 260.671 374.833C261.213 374.605 261.791 374.745 262.253 375.207C263.747 376.7 265.219 377.629 266.665 378.012C266.84 378.132 267.039 378.219 267.268 378.219C267.349 378.219 267.421 378.189 267.497 378.173C267.832 378.212 268.166 378.233 268.498 378.212C269.823 378.122 270.804 377.543 271.406 377.055C278.188 380.913 284.166 381.504 287.197 381.504C288.242 381.504 288.937 381.433 289.193 381.402C299.417 381.632 308.732 375.442 312.9 365.508C317.153 355.371 314.846 344.329 306.88 336.692Z" fill="white"/>
<path d="M257.946 367.474C262.197 364.944 268.232 367.46 269.962 368.28C270.036 368.326 270.11 368.365 270.195 368.392C270.346 368.467 270.448 368.519 270.455 368.523L271.227 368.942L271.797 368.275C274.969 364.563 279.828 366.095 280.028 366.159L281.288 366.58L281.448 365.262C281.814 362.266 286.039 360.65 286.082 360.634L286.789 360.37V352.98L286.185 352.681C283.175 351.192 282.995 347.239 282.992 347.203L282.965 346.329L282.106 346.17C269.416 343.816 267.592 334.943 267.521 334.565C267.411 333.98 266.85 333.583 266.26 333.697C265.671 333.804 265.28 334.368 265.387 334.957C265.465 335.385 267.415 345.279 280.914 348.143C281.139 349.624 281.92 352.614 284.62 354.289V358.904C283.295 359.53 280.508 361.127 279.57 363.822C277.666 363.472 273.779 363.245 270.732 366.239C268.504 365.198 261.904 362.599 256.843 365.605C252.966 367.909 251 372.891 251 380.413C251 381.012 251.486 381.497 252.085 381.497C252.683 381.497 253.169 381.012 253.169 380.413C253.169 373.715 254.776 369.361 257.946 367.474Z" fill="white"/>
<path d="M299.804 365.204C300.403 365.204 300.888 364.719 300.888 364.12C300.888 363.521 300.403 363.035 299.804 363.035C299.205 363.035 298.719 363.521 298.719 364.12C298.719 364.719 299.205 365.204 299.804 365.204Z" fill="white"/>
<path d="M306.311 365.204C306.91 365.204 307.395 364.719 307.395 364.12C307.395 363.521 306.91 363.035 306.311 363.035C305.712 363.035 305.226 363.521 305.226 364.12C305.226 364.719 305.712 365.204 306.311 365.204Z" fill="white"/>
<path d="M309.565 361.951C310.163 361.951 310.649 361.465 310.649 360.866C310.649 360.267 310.163 359.782 309.565 359.782C308.966 359.782 308.48 360.267 308.48 360.866C308.48 361.465 308.966 361.951 309.565 361.951Z" fill="white"/>
<path d="M277.028 368.458C277.627 368.458 278.113 367.972 278.113 367.373C278.113 366.774 277.627 366.289 277.028 366.289C276.429 366.289 275.944 366.774 275.944 367.373C275.944 367.972 276.429 368.458 277.028 368.458Z" fill="white"/>
<path d="M283.536 368.458C284.135 368.458 284.62 367.972 284.62 367.373C284.62 366.774 284.135 366.289 283.536 366.289C282.937 366.289 282.451 366.774 282.451 367.373C282.451 367.972 282.937 368.458 283.536 368.458Z" fill="white"/>
<path d="M290.043 368.458C290.642 368.458 291.128 367.972 291.128 367.373C291.128 366.774 290.642 366.289 290.043 366.289C289.444 366.289 288.958 366.774 288.958 367.373C288.958 367.972 289.444 368.458 290.043 368.458Z" fill="white"/>
<path d="M296.55 368.458C297.149 368.458 297.634 367.972 297.634 367.373C297.634 366.774 297.149 366.289 296.55 366.289C295.951 366.289 295.465 366.774 295.465 367.373C295.465 367.972 295.951 368.458 296.55 368.458Z" fill="white"/>
<path d="M303.057 368.458C303.656 368.458 304.142 367.972 304.142 367.373C304.142 366.774 303.656 366.289 303.057 366.289C302.458 366.289 301.973 366.774 301.973 367.373C301.973 367.972 302.458 368.458 303.057 368.458Z" fill="white"/>
<path d="M267.268 371.712C267.867 371.712 268.353 371.226 268.353 370.627C268.353 370.028 267.867 369.542 267.268 369.542C266.669 369.542 266.184 370.028 266.184 370.627C266.184 371.226 266.669 371.712 267.268 371.712Z" fill="white"/>
<path d="M273.775 371.712C274.374 371.712 274.859 371.226 274.859 370.627C274.859 370.028 274.374 369.542 273.775 369.542C273.176 369.542 272.69 370.028 272.69 370.627C272.69 371.226 273.176 371.712 273.775 371.712Z" fill="white"/>
<path d="M277.028 374.965C277.627 374.965 278.113 374.48 278.113 373.881C278.113 373.282 277.627 372.796 277.028 372.796C276.429 372.796 275.944 373.282 275.944 373.881C275.944 374.48 276.429 374.965 277.028 374.965Z" fill="white"/>
<path d="M280.282 371.712C280.881 371.712 281.367 371.226 281.367 370.627C281.367 370.028 280.881 369.542 280.282 369.542C279.683 369.542 279.198 370.028 279.198 370.627C279.198 371.226 279.683 371.712 280.282 371.712Z" fill="white"/>
<path d="M286.789 371.712C287.388 371.712 287.874 371.226 287.874 370.627C287.874 370.028 287.388 369.542 286.789 369.542C286.19 369.542 285.705 370.028 285.705 370.627C285.705 371.226 286.19 371.712 286.789 371.712Z" fill="white"/>
<path d="M280.282 378.219C280.881 378.219 281.367 377.733 281.367 377.134C281.367 376.535 280.881 376.05 280.282 376.05C279.683 376.05 279.198 376.535 279.198 377.134C279.198 377.733 279.683 378.219 280.282 378.219Z" fill="white"/>
<path d="M286.789 378.219C287.388 378.219 287.874 377.733 287.874 377.134C287.874 376.535 287.388 376.05 286.789 376.05C286.19 376.05 285.705 376.535 285.705 377.134C285.705 377.733 286.19 378.219 286.789 378.219Z" fill="white"/>
<path d="M283.536 374.965C284.135 374.965 284.62 374.48 284.62 373.881C284.62 373.282 284.135 372.796 283.536 372.796C282.937 372.796 282.451 373.282 282.451 373.881C282.451 374.48 282.937 374.965 283.536 374.965Z" fill="white"/>
<path d="M290.043 374.965C290.642 374.965 291.128 374.48 291.128 373.881C291.128 373.282 290.642 372.796 290.043 372.796C289.444 372.796 288.958 373.282 288.958 373.881C288.958 374.48 289.444 374.965 290.043 374.965Z" fill="white"/>
<path d="M293.296 371.712C293.895 371.712 294.381 371.226 294.381 370.627C294.381 370.028 293.895 369.542 293.296 369.542C292.697 369.542 292.212 370.028 292.212 370.627C292.212 371.226 292.697 371.712 293.296 371.712Z" fill="white"/>
<path d="M299.804 371.712C300.403 371.712 300.888 371.226 300.888 370.627C300.888 370.028 300.403 369.542 299.804 369.542C299.205 369.542 298.719 370.028 298.719 370.627C298.719 371.226 299.205 371.712 299.804 371.712Z" fill="white"/>
<path d="M293.296 378.219C293.895 378.219 294.381 377.733 294.381 377.134C294.381 376.535 293.895 376.05 293.296 376.05C292.697 376.05 292.212 376.535 292.212 377.134C292.212 377.733 292.697 378.219 293.296 378.219Z" fill="white"/>
<path d="M296.55 374.965C297.149 374.965 297.634 374.48 297.634 373.881C297.634 373.282 297.149 372.796 296.55 372.796C295.951 372.796 295.465 373.282 295.465 373.881C295.465 374.48 295.951 374.965 296.55 374.965Z" fill="white"/>
<path d="M250.73 398V409.636H248.639V399.75H243.548V409.636H241.458V398H250.73Z" fill="white"/>
<path d="M256.967 409.807C256.115 409.807 255.377 409.619 254.752 409.244C254.127 408.869 253.642 408.345 253.297 407.67C252.956 406.996 252.786 406.208 252.786 405.307C252.786 404.405 252.956 403.616 253.297 402.938C253.642 402.259 254.127 401.733 254.752 401.358C255.377 400.983 256.115 400.795 256.967 400.795C257.82 400.795 258.558 400.983 259.183 401.358C259.808 401.733 260.291 402.259 260.632 402.938C260.977 403.616 261.149 404.405 261.149 405.307C261.149 406.208 260.977 406.996 260.632 407.67C260.291 408.345 259.808 408.869 259.183 409.244C258.558 409.619 257.82 409.807 256.967 409.807ZM256.979 408.159C257.441 408.159 257.827 408.032 258.138 407.778C258.449 407.521 258.68 407.176 258.831 406.744C258.986 406.312 259.064 405.831 259.064 405.301C259.064 404.767 258.986 404.284 258.831 403.852C258.68 403.417 258.449 403.07 258.138 402.812C257.827 402.555 257.441 402.426 256.979 402.426C256.505 402.426 256.111 402.555 255.797 402.812C255.486 403.07 255.253 403.417 255.098 403.852C254.947 404.284 254.871 404.767 254.871 405.301C254.871 405.831 254.947 406.312 255.098 406.744C255.253 407.176 255.486 407.521 255.797 407.778C256.111 408.032 256.505 408.159 256.979 408.159Z" fill="white"/>
<path d="M262.895 409.636V400.909H264.952V404.432H265.702L268.327 400.909H270.804L267.571 405.193L270.838 409.636H268.35L265.958 406.347H264.952V409.636H262.895Z" fill="white"/>
<path d="M272.004 412.909V400.909H274.027V402.352H274.146C274.252 402.14 274.402 401.915 274.595 401.676C274.788 401.434 275.05 401.227 275.379 401.057C275.709 400.883 276.129 400.795 276.641 400.795C277.315 400.795 277.923 400.968 278.465 401.312C279.01 401.653 279.442 402.159 279.76 402.83C280.082 403.496 280.243 404.314 280.243 405.284C280.243 406.242 280.086 407.057 279.771 407.727C279.457 408.398 279.029 408.909 278.487 409.261C277.946 409.614 277.332 409.79 276.646 409.79C276.146 409.79 275.732 409.706 275.402 409.54C275.073 409.373 274.807 409.172 274.607 408.938C274.41 408.699 274.256 408.473 274.146 408.261H274.061V412.909H272.004ZM274.021 405.273C274.021 405.837 274.101 406.331 274.26 406.756C274.423 407.18 274.656 407.511 274.959 407.75C275.266 407.985 275.637 408.102 276.073 408.102C276.527 408.102 276.908 407.981 277.215 407.739C277.521 407.492 277.752 407.157 277.908 406.733C278.067 406.305 278.146 405.818 278.146 405.273C278.146 404.731 278.069 404.25 277.913 403.83C277.758 403.409 277.527 403.08 277.22 402.841C276.913 402.602 276.531 402.483 276.073 402.483C275.633 402.483 275.26 402.598 274.953 402.83C274.646 403.061 274.413 403.384 274.254 403.801C274.099 404.218 274.021 404.708 274.021 405.273Z" fill="white"/>
<path d="M284.516 409.812C283.963 409.812 283.465 409.714 283.021 409.517C282.582 409.316 282.234 409.021 281.976 408.631C281.722 408.241 281.595 407.759 281.595 407.188C281.595 406.695 281.686 406.288 281.868 405.966C282.05 405.644 282.298 405.386 282.612 405.193C282.927 405 283.281 404.854 283.675 404.756C284.073 404.653 284.484 404.58 284.908 404.534C285.419 404.481 285.834 404.434 286.152 404.392C286.47 404.347 286.701 404.278 286.845 404.188C286.993 404.093 287.067 403.947 287.067 403.75V403.716C287.067 403.288 286.94 402.956 286.686 402.722C286.432 402.487 286.067 402.369 285.59 402.369C285.086 402.369 284.686 402.479 284.391 402.699C284.099 402.919 283.902 403.178 283.8 403.477L281.879 403.205C282.031 402.674 282.281 402.231 282.629 401.875C282.978 401.515 283.404 401.246 283.908 401.068C284.412 400.886 284.968 400.795 285.578 400.795C285.999 400.795 286.417 400.845 286.834 400.943C287.251 401.042 287.631 401.205 287.976 401.432C288.321 401.655 288.597 401.96 288.806 402.347C289.018 402.733 289.124 403.216 289.124 403.795V409.636H287.146V408.438H287.078C286.953 408.68 286.777 408.907 286.55 409.119C286.326 409.328 286.044 409.496 285.703 409.625C285.366 409.75 284.97 409.812 284.516 409.812ZM285.05 408.301C285.463 408.301 285.821 408.22 286.124 408.057C286.427 407.89 286.66 407.67 286.823 407.398C286.989 407.125 287.073 406.828 287.073 406.506V405.477C287.008 405.53 286.898 405.58 286.743 405.625C286.592 405.67 286.421 405.71 286.232 405.744C286.042 405.778 285.855 405.809 285.669 405.835C285.484 405.862 285.323 405.884 285.186 405.903C284.879 405.945 284.605 406.013 284.362 406.108C284.12 406.203 283.929 406.335 283.788 406.506C283.648 406.672 283.578 406.888 283.578 407.153C283.578 407.532 283.717 407.818 283.993 408.011C284.27 408.205 284.622 408.301 285.05 408.301Z" fill="white"/>
<path d="M304.3 407.949L304.129 412.136H302.192V409.636H301.163V407.949H304.3ZM291.192 400.909H293.175V407.943H295.919V400.909H297.902V407.943H300.646V400.909H302.629V409.636H291.192V400.909Z" fill="white"/>
<path d="M307.205 412.909C306.924 412.909 306.665 412.886 306.426 412.841C306.191 412.799 306.004 412.75 305.864 412.693L306.341 411.091C306.64 411.178 306.907 411.22 307.142 411.216C307.377 411.212 307.583 411.138 307.761 410.994C307.943 410.854 308.097 410.619 308.222 410.29L308.398 409.818L305.233 400.909H307.415L309.426 407.5H309.517L311.534 400.909H313.722L310.227 410.693C310.065 411.155 309.849 411.551 309.58 411.881C309.311 412.214 308.981 412.468 308.591 412.642C308.205 412.82 307.743 412.909 307.205 412.909Z" fill="white"/>
<path d="M318.928 404.659V406.017H315.377V404.659H318.928ZM322.092 403.659L320.149 403.915C320.043 403.502 319.846 403.161 319.558 402.892C319.27 402.619 318.867 402.483 318.348 402.483C317.886 402.483 317.496 402.598 317.178 402.83C316.863 403.061 316.625 403.386 316.462 403.807C316.299 404.223 316.217 404.712 316.217 405.273C316.217 405.837 316.297 406.331 316.456 406.756C316.619 407.18 316.858 407.511 317.172 407.75C317.49 407.985 317.882 408.102 318.348 408.102C318.666 408.102 318.945 408.047 319.183 407.938C319.422 407.824 319.619 407.669 319.774 407.472C319.933 407.271 320.049 407.038 320.121 406.773L322.075 407.017C321.966 407.566 321.742 408.051 321.405 408.472C321.072 408.888 320.644 409.216 320.121 409.455C319.602 409.689 319.011 409.807 318.348 409.807C317.5 409.807 316.767 409.614 316.149 409.227C315.536 408.841 315.062 408.307 314.729 407.625C314.399 406.943 314.235 406.159 314.235 405.273C314.235 404.398 314.401 403.625 314.735 402.955C315.072 402.28 315.547 401.752 316.161 401.369C316.774 400.987 317.503 400.795 318.348 400.795C319.007 400.795 319.598 400.915 320.121 401.153C320.647 401.388 321.081 401.72 321.422 402.148C321.767 402.576 321.99 403.08 322.092 403.659Z" fill="white"/>
<path d="M241.933 421.597V419.909H249.57V421.597H246.746V428.636H244.757V421.597H241.933Z" fill="white"/>
<path d="M251.208 431.909V419.909H253.23V421.352H253.35C253.456 421.14 253.605 420.915 253.798 420.676C253.992 420.434 254.253 420.227 254.583 420.057C254.912 419.883 255.333 419.795 255.844 419.795C256.518 419.795 257.126 419.968 257.668 420.312C258.213 420.653 258.645 421.159 258.963 421.83C259.285 422.496 259.446 423.314 259.446 424.284C259.446 425.242 259.289 426.057 258.975 426.727C258.66 427.398 258.232 427.909 257.69 428.261C257.149 428.614 256.535 428.79 255.85 428.79C255.35 428.79 254.935 428.706 254.605 428.54C254.276 428.373 254.011 428.172 253.81 427.938C253.613 427.699 253.459 427.473 253.35 427.261H253.264V431.909H251.208ZM253.225 424.273C253.225 424.837 253.304 425.331 253.463 425.756C253.626 426.18 253.859 426.511 254.162 426.75C254.469 426.985 254.84 427.102 255.276 427.102C255.73 427.102 256.111 426.981 256.418 426.739C256.725 426.492 256.956 426.157 257.111 425.733C257.27 425.305 257.35 424.818 257.35 424.273C257.35 423.731 257.272 423.25 257.117 422.83C256.961 422.409 256.73 422.08 256.423 421.841C256.117 421.602 255.734 421.483 255.276 421.483C254.836 421.483 254.463 421.598 254.156 421.83C253.85 422.061 253.617 422.384 253.458 422.801C253.302 423.218 253.225 423.708 253.225 424.273Z" fill="white"/>
<path d="M263.719 428.812C263.166 428.812 262.668 428.714 262.225 428.517C261.785 428.316 261.437 428.021 261.179 427.631C260.925 427.241 260.798 426.759 260.798 426.188C260.798 425.695 260.889 425.288 261.071 424.966C261.253 424.644 261.501 424.386 261.815 424.193C262.13 424 262.484 423.854 262.878 423.756C263.276 423.653 263.687 423.58 264.111 423.534C264.622 423.481 265.037 423.434 265.355 423.392C265.673 423.347 265.904 423.278 266.048 423.188C266.196 423.093 266.27 422.947 266.27 422.75V422.716C266.27 422.288 266.143 421.956 265.889 421.722C265.636 421.487 265.27 421.369 264.793 421.369C264.289 421.369 263.889 421.479 263.594 421.699C263.302 421.919 263.105 422.178 263.003 422.477L261.083 422.205C261.234 421.674 261.484 421.231 261.833 420.875C262.181 420.515 262.607 420.246 263.111 420.068C263.615 419.886 264.172 419.795 264.781 419.795C265.202 419.795 265.62 419.845 266.037 419.943C266.454 420.042 266.834 420.205 267.179 420.432C267.524 420.655 267.8 420.96 268.009 421.347C268.221 421.733 268.327 422.216 268.327 422.795V428.636H266.35V427.438H266.281C266.156 427.68 265.98 427.907 265.753 428.119C265.529 428.328 265.247 428.496 264.906 428.625C264.569 428.75 264.173 428.812 263.719 428.812ZM264.253 427.301C264.666 427.301 265.024 427.22 265.327 427.057C265.63 426.89 265.863 426.67 266.026 426.398C266.192 426.125 266.276 425.828 266.276 425.506V424.477C266.211 424.53 266.101 424.58 265.946 424.625C265.795 424.67 265.624 424.71 265.435 424.744C265.245 424.778 265.058 424.809 264.872 424.835C264.687 424.862 264.526 424.884 264.389 424.903C264.083 424.945 263.808 425.013 263.565 425.108C263.323 425.203 263.132 425.335 262.992 425.506C262.851 425.672 262.781 425.888 262.781 426.153C262.781 426.532 262.92 426.818 263.196 427.011C263.473 427.205 263.825 427.301 264.253 427.301Z" fill="white"/>
<path d="M270.395 428.636V419.909H274.06C275.094 419.909 275.91 420.116 276.509 420.528C277.111 420.941 277.412 421.517 277.412 422.256C277.412 422.744 277.242 423.144 276.901 423.455C276.564 423.761 276.103 423.968 275.52 424.074C275.978 424.112 276.38 424.227 276.725 424.42C277.073 424.614 277.346 424.867 277.543 425.182C277.74 425.496 277.838 425.858 277.838 426.267C277.838 426.748 277.711 427.167 277.458 427.523C277.208 427.875 276.842 428.15 276.361 428.347C275.884 428.54 275.304 428.636 274.622 428.636H270.395ZM272.321 427.017H274.622C275.001 427.017 275.298 426.928 275.514 426.75C275.73 426.568 275.838 426.322 275.838 426.011C275.838 425.652 275.73 425.369 275.514 425.165C275.298 424.956 275.001 424.852 274.622 424.852H272.321V427.017ZM272.321 423.523H274.1C274.38 423.523 274.62 423.483 274.821 423.403C275.022 423.32 275.175 423.205 275.281 423.057C275.387 422.905 275.44 422.725 275.44 422.517C275.44 422.218 275.317 421.983 275.071 421.812C274.829 421.642 274.492 421.557 274.06 421.557H272.321V423.523Z" fill="white"/>
<path d="M278.933 428.636L278.922 426.943H279.223C279.45 426.943 279.642 426.892 279.797 426.79C279.952 426.687 280.081 426.517 280.183 426.278C280.286 426.036 280.365 425.71 280.422 425.301C280.479 424.892 280.519 424.383 280.541 423.773L280.695 419.909H287.058V428.636H285.07V421.597H282.564L282.428 424.409C282.394 425.136 282.312 425.767 282.183 426.301C282.058 426.831 281.88 427.269 281.649 427.614C281.422 427.958 281.136 428.216 280.791 428.386C280.447 428.553 280.039 428.636 279.57 428.636H278.933Z" fill="white"/>
<path d="M292.993 428.807C292.118 428.807 291.362 428.625 290.726 428.261C290.093 427.894 289.607 427.375 289.266 426.705C288.925 426.03 288.754 425.237 288.754 424.324C288.754 423.426 288.925 422.638 289.266 421.96C289.61 421.278 290.092 420.748 290.709 420.369C291.326 419.987 292.052 419.795 292.885 419.795C293.423 419.795 293.931 419.883 294.408 420.057C294.889 420.227 295.313 420.492 295.681 420.852C296.052 421.212 296.343 421.67 296.556 422.227C296.768 422.78 296.874 423.439 296.874 424.205V424.835H289.72V423.449H294.902C294.898 423.055 294.813 422.705 294.646 422.398C294.48 422.087 294.247 421.843 293.948 421.665C293.652 421.487 293.307 421.398 292.913 421.398C292.493 421.398 292.124 421.5 291.806 421.705C291.487 421.905 291.239 422.17 291.061 422.5C290.887 422.826 290.798 423.184 290.794 423.574V424.784C290.794 425.292 290.887 425.727 291.073 426.091C291.258 426.451 291.518 426.727 291.851 426.92C292.184 427.11 292.574 427.205 293.021 427.205C293.321 427.205 293.592 427.163 293.834 427.08C294.076 426.992 294.287 426.866 294.465 426.699C294.643 426.532 294.777 426.326 294.868 426.08L296.788 426.295C296.667 426.803 296.436 427.246 296.095 427.625C295.758 428 295.326 428.292 294.8 428.5C294.273 428.705 293.671 428.807 292.993 428.807Z" fill="white"/>
<path d="M304.608 423.42V425.108H299.96V423.42H304.608ZM300.597 419.909V428.636H298.614V419.909H300.597ZM305.955 419.909V428.636H303.977V419.909H305.955Z" fill="white"/>
<path d="M314.03 423.42V425.108H309.382V423.42H314.03ZM310.019 419.909V428.636H308.036V419.909H310.019ZM315.377 419.909V428.636H313.399V419.909H315.377Z" fill="white"/>
<path d="M322.617 428.636V421.58H320.753C320.279 421.58 319.916 421.689 319.662 421.909C319.408 422.129 319.283 422.402 319.287 422.727C319.283 423.053 319.403 423.322 319.645 423.534C319.887 423.746 320.234 423.852 320.685 423.852H323.264V425.352H320.685C319.988 425.352 319.386 425.242 318.878 425.023C318.37 424.803 317.98 424.492 317.708 424.091C317.435 423.689 317.298 423.22 317.298 422.682C317.298 422.121 317.437 421.634 317.713 421.222C317.993 420.805 318.391 420.483 318.906 420.256C319.425 420.025 320.041 419.909 320.753 419.909H324.543V428.636H322.617ZM316.98 428.636L319.418 424.159H321.446L319.003 428.636H316.98Z" fill="white"/>
<g clip-path="url(#clip2_301_1756)">
<path d="M283 478.143C267.043 478.143 254.06 491.125 254.06 507.083C254.06 523.04 267.043 536.023 283 536.023C298.957 536.023 311.94 523.04 311.94 507.083C311.94 491.125 298.957 478.143 283 478.143ZM283 533.879C268.224 533.879 256.204 521.858 256.204 507.083C256.204 492.307 268.224 480.286 283 480.286C297.776 480.286 309.796 492.307 309.796 507.083C309.796 521.858 297.776 533.879 283 533.879Z" fill="white"/>
<path d="M299.078 506.006V508.149H301.208C300.923 517.528 293.108 525.302 283.536 525.302C273.785 525.302 265.851 517.369 265.851 507.617C265.851 507.025 265.371 506.546 264.779 506.546C264.186 506.546 263.707 507.026 263.707 507.618C263.707 518.552 272.602 527.445 283.536 527.445C294.291 527.445 303.066 518.868 303.352 508.149H305.509V506.006H299.078V506.006Z" fill="white"/>
<path d="M274.425 497.436C273.833 497.436 273.354 497.916 273.354 498.508V504.939C273.354 505.532 273.833 506.011 274.425 506.011C275.018 506.011 275.497 505.531 275.497 504.939V498.508C275.497 497.916 275.018 497.436 274.425 497.436Z" fill="white"/>
<path d="M284.072 497.436C283.479 497.436 283 497.916 283 498.508V504.939C283 505.532 283.479 506.011 284.072 506.011C284.664 506.011 285.144 505.531 285.144 504.939V498.508C285.144 497.916 284.664 497.436 284.072 497.436Z" fill="white"/>
</g>
<path d="M252.426 550.166V561.802H250.335V551.916H245.244V561.802H243.153V550.166H252.426Z" fill="white"/>
<path d="M258.663 561.972C257.811 561.972 257.072 561.785 256.447 561.41C255.822 561.035 255.337 560.51 254.992 559.836C254.651 559.162 254.481 558.374 254.481 557.472C254.481 556.571 254.651 555.781 254.992 555.103C255.337 554.425 255.822 553.898 256.447 553.523C257.072 553.148 257.811 552.961 258.663 552.961C259.515 552.961 260.254 553.148 260.879 553.523C261.504 553.898 261.987 554.425 262.328 555.103C262.672 555.781 262.845 556.571 262.845 557.472C262.845 558.374 262.672 559.162 262.328 559.836C261.987 560.51 261.504 561.035 260.879 561.41C260.254 561.785 259.515 561.972 258.663 561.972ZM258.674 560.325C259.136 560.325 259.523 560.198 259.833 559.944C260.144 559.686 260.375 559.342 260.526 558.91C260.682 558.478 260.759 557.997 260.759 557.467C260.759 556.933 260.682 556.45 260.526 556.018C260.375 555.582 260.144 555.236 259.833 554.978C259.523 554.72 259.136 554.592 258.674 554.592C258.201 554.592 257.807 554.72 257.492 554.978C257.182 555.236 256.949 555.582 256.793 556.018C256.642 556.45 256.566 556.933 256.566 557.467C256.566 557.997 256.642 558.478 256.793 558.91C256.949 559.342 257.182 559.686 257.492 559.944C257.807 560.198 258.201 560.325 258.674 560.325Z" fill="white"/>
<path d="M264.59 561.802V553.075H266.647V556.597H267.397L270.022 553.075H272.499L269.266 557.359L272.534 561.802H270.045L267.653 558.512H266.647V561.802H264.59Z" fill="white"/>
<path d="M273.7 565.075V553.075H275.722V554.518H275.842C275.948 554.306 276.097 554.08 276.291 553.842C276.484 553.599 276.745 553.393 277.075 553.222C277.404 553.048 277.825 552.961 278.336 552.961C279.01 552.961 279.618 553.133 280.16 553.478C280.705 553.819 281.137 554.325 281.455 554.995C281.777 555.662 281.938 556.48 281.938 557.45C281.938 558.408 281.781 559.222 281.467 559.893C281.152 560.563 280.724 561.075 280.183 561.427C279.641 561.779 279.027 561.955 278.342 561.955C277.842 561.955 277.427 561.872 277.097 561.705C276.768 561.539 276.503 561.338 276.302 561.103C276.105 560.864 275.952 560.639 275.842 560.427H275.757V565.075H273.7ZM275.717 557.438C275.717 558.003 275.796 558.497 275.955 558.921C276.118 559.345 276.351 559.677 276.654 559.916C276.961 560.15 277.332 560.268 277.768 560.268C278.222 560.268 278.603 560.147 278.91 559.904C279.217 559.658 279.448 559.323 279.603 558.898C279.762 558.47 279.842 557.984 279.842 557.438C279.842 556.897 279.764 556.416 279.609 555.995C279.453 555.575 279.222 555.245 278.916 555.006C278.609 554.768 278.226 554.648 277.768 554.648C277.328 554.648 276.955 554.764 276.649 554.995C276.342 555.226 276.109 555.55 275.95 555.967C275.794 556.383 275.717 556.874 275.717 557.438Z" fill="white"/>
<path d="M286.211 561.978C285.658 561.978 285.16 561.88 284.717 561.683C284.277 561.482 283.929 561.186 283.671 560.796C283.418 560.406 283.291 559.925 283.291 559.353C283.291 558.861 283.382 558.453 283.563 558.131C283.745 557.809 283.993 557.552 284.308 557.359C284.622 557.166 284.976 557.02 285.37 556.921C285.768 556.819 286.179 556.745 286.603 556.7C287.114 556.647 287.529 556.599 287.847 556.558C288.166 556.512 288.397 556.444 288.541 556.353C288.688 556.258 288.762 556.112 288.762 555.916V555.881C288.762 555.453 288.635 555.122 288.382 554.887C288.128 554.652 287.762 554.535 287.285 554.535C286.781 554.535 286.382 554.645 286.086 554.864C285.794 555.084 285.597 555.344 285.495 555.643L283.575 555.37C283.726 554.84 283.976 554.397 284.325 554.041C284.673 553.681 285.099 553.412 285.603 553.234C286.107 553.052 286.664 552.961 287.274 552.961C287.694 552.961 288.113 553.01 288.529 553.109C288.946 553.207 289.327 553.37 289.671 553.597C290.016 553.821 290.293 554.126 290.501 554.512C290.713 554.898 290.819 555.381 290.819 555.961V561.802H288.842V560.603H288.774C288.649 560.845 288.472 561.073 288.245 561.285C288.022 561.493 287.739 561.662 287.399 561.791C287.061 561.916 286.666 561.978 286.211 561.978ZM286.745 560.467C287.158 560.467 287.516 560.385 287.819 560.222C288.122 560.056 288.355 559.836 288.518 559.563C288.685 559.291 288.768 558.993 288.768 558.671V557.643C288.703 557.696 288.594 557.745 288.438 557.791C288.287 557.836 288.116 557.876 287.927 557.91C287.738 557.944 287.55 557.974 287.364 558.001C287.179 558.027 287.018 558.05 286.882 558.069C286.575 558.111 286.3 558.179 286.058 558.273C285.815 558.368 285.624 558.501 285.484 558.671C285.344 558.838 285.274 559.054 285.274 559.319C285.274 559.698 285.412 559.984 285.688 560.177C285.965 560.37 286.317 560.467 286.745 560.467Z" fill="white"/>
<path d="M305.995 560.114L305.825 564.302H303.887V561.802H302.859V560.114H305.995ZM292.887 553.075H294.87V560.109H297.614V553.075H299.597V560.109H302.342V553.075H304.325V561.802H292.887V553.075Z" fill="white"/>
<path d="M308.9 565.075C308.62 565.075 308.36 565.052 308.122 565.006C307.887 564.965 307.699 564.916 307.559 564.859L308.036 563.256C308.336 563.344 308.603 563.385 308.837 563.381C309.072 563.378 309.279 563.304 309.457 563.16C309.639 563.02 309.792 562.785 309.917 562.455L310.093 561.984L306.928 553.075H309.11L311.122 559.666H311.212L313.23 553.075H315.417L311.923 562.859C311.76 563.321 311.544 563.717 311.275 564.046C311.006 564.38 310.676 564.633 310.286 564.808C309.9 564.986 309.438 565.075 308.9 565.075Z" fill="white"/>
<path d="M320.623 556.825V558.183H317.072V556.825H320.623ZM323.788 555.825L321.845 556.08C321.739 555.667 321.542 555.327 321.254 555.058C320.966 554.785 320.562 554.648 320.043 554.648C319.581 554.648 319.191 554.764 318.873 554.995C318.559 555.226 318.32 555.552 318.157 555.972C317.994 556.389 317.913 556.878 317.913 557.438C317.913 558.003 317.992 558.497 318.151 558.921C318.314 559.345 318.553 559.677 318.867 559.916C319.186 560.15 319.578 560.268 320.043 560.268C320.362 560.268 320.64 560.213 320.879 560.103C321.117 559.989 321.314 559.834 321.47 559.637C321.629 559.436 321.744 559.203 321.816 558.938L323.771 559.183C323.661 559.732 323.437 560.217 323.1 560.637C322.767 561.054 322.339 561.381 321.816 561.62C321.297 561.855 320.706 561.972 320.043 561.972C319.195 561.972 318.462 561.779 317.845 561.393C317.231 561.006 316.757 560.472 316.424 559.791C316.095 559.109 315.93 558.325 315.93 557.438C315.93 556.563 316.096 555.791 316.43 555.12C316.767 554.446 317.242 553.917 317.856 553.535C318.47 553.152 319.199 552.961 320.043 552.961C320.703 552.961 321.293 553.08 321.816 553.319C322.343 553.554 322.776 553.885 323.117 554.313C323.462 554.741 323.685 555.245 323.788 555.825Z" fill="white"/>
<path d="M235.741 580.972C234.87 580.972 234.122 580.781 233.497 580.398C232.875 580.016 232.396 579.487 232.059 578.813C231.726 578.135 231.559 577.355 231.559 576.472C231.559 575.586 231.73 574.804 232.07 574.126C232.411 573.444 232.892 572.914 233.514 572.535C234.139 572.152 234.877 571.961 235.73 571.961C236.438 571.961 237.065 572.092 237.61 572.353C238.159 572.611 238.597 572.976 238.923 573.45C239.248 573.919 239.434 574.469 239.48 575.097H237.514C237.434 574.677 237.245 574.327 236.945 574.046C236.65 573.762 236.254 573.62 235.758 573.62C235.337 573.62 234.968 573.734 234.65 573.961C234.332 574.184 234.084 574.506 233.906 574.927C233.731 575.347 233.644 575.851 233.644 576.438C233.644 577.033 233.731 577.544 233.906 577.972C234.08 578.397 234.324 578.724 234.639 578.955C234.957 579.183 235.33 579.296 235.758 579.296C236.061 579.296 236.332 579.239 236.57 579.126C236.813 579.008 237.016 578.84 237.178 578.62C237.341 578.4 237.453 578.133 237.514 577.819H239.48C239.43 578.436 239.248 578.984 238.934 579.461C238.62 579.934 238.192 580.306 237.65 580.575C237.108 580.84 236.472 580.972 235.741 580.972Z" fill="white"/>
<path d="M243.68 580.978C243.127 580.978 242.629 580.88 242.186 580.683C241.746 580.482 241.398 580.186 241.14 579.796C240.886 579.406 240.759 578.925 240.759 578.353C240.759 577.861 240.85 577.453 241.032 577.131C241.214 576.809 241.462 576.552 241.776 576.359C242.091 576.166 242.445 576.02 242.839 575.921C243.237 575.819 243.648 575.745 244.072 575.7C244.583 575.647 244.998 575.599 245.316 575.558C245.634 575.512 245.865 575.444 246.009 575.353C246.157 575.258 246.231 575.112 246.231 574.916V574.881C246.231 574.453 246.104 574.122 245.85 573.887C245.596 573.652 245.231 573.535 244.754 573.535C244.25 573.535 243.85 573.645 243.555 573.864C243.263 574.084 243.066 574.344 242.964 574.643L241.043 574.37C241.195 573.84 241.445 573.397 241.793 573.041C242.142 572.681 242.568 572.412 243.072 572.234C243.576 572.052 244.132 571.961 244.742 571.961C245.163 571.961 245.581 572.01 245.998 572.109C246.415 572.207 246.795 572.37 247.14 572.597C247.485 572.821 247.761 573.126 247.97 573.512C248.182 573.898 248.288 574.381 248.288 574.961V580.802H246.311V579.603H246.242C246.117 579.845 245.941 580.073 245.714 580.285C245.49 580.493 245.208 580.662 244.867 580.791C244.53 580.916 244.134 580.978 243.68 580.978ZM244.214 579.467C244.627 579.467 244.985 579.385 245.288 579.222C245.591 579.056 245.824 578.836 245.987 578.563C246.153 578.291 246.237 577.993 246.237 577.671V576.643C246.172 576.696 246.062 576.745 245.907 576.791C245.756 576.836 245.585 576.876 245.396 576.91C245.206 576.944 245.019 576.974 244.833 577.001C244.648 577.027 244.487 577.05 244.35 577.069C244.043 577.111 243.769 577.179 243.526 577.273C243.284 577.368 243.093 577.501 242.953 577.671C242.812 577.838 242.742 578.054 242.742 578.319C242.742 578.698 242.881 578.984 243.157 579.177C243.434 579.37 243.786 579.467 244.214 579.467Z" fill="white"/>
<path d="M255.379 578.41L257.97 572.075H259.629L256.1 580.802H254.663L251.214 572.075H252.856L255.379 578.41ZM252.339 572.075V580.802H250.356V572.075H252.339ZM258.504 580.802V572.075H260.47V580.802H258.504Z" fill="white"/>
<path d="M266.35 580.972C265.498 580.972 264.759 580.785 264.134 580.41C263.509 580.035 263.025 579.51 262.68 578.836C262.339 578.162 262.168 577.374 262.168 576.472C262.168 575.571 262.339 574.781 262.68 574.103C263.025 573.425 263.509 572.898 264.134 572.523C264.759 572.148 265.498 571.961 266.35 571.961C267.203 571.961 267.941 572.148 268.566 572.523C269.191 572.898 269.674 573.425 270.015 574.103C270.36 574.781 270.532 575.571 270.532 576.472C270.532 577.374 270.36 578.162 270.015 578.836C269.674 579.51 269.191 580.035 268.566 580.41C267.941 580.785 267.203 580.972 266.35 580.972ZM266.362 579.325C266.824 579.325 267.21 579.198 267.521 578.944C267.831 578.686 268.062 578.342 268.214 577.91C268.369 577.478 268.447 576.997 268.447 576.467C268.447 575.933 268.369 575.45 268.214 575.018C268.062 574.582 267.831 574.236 267.521 573.978C267.21 573.72 266.824 573.592 266.362 573.592C265.888 573.592 265.494 573.72 265.18 573.978C264.869 574.236 264.636 574.582 264.481 575.018C264.329 575.45 264.254 575.933 264.254 576.467C264.254 576.997 264.329 577.478 264.481 577.91C264.636 578.342 264.869 578.686 265.18 578.944C265.494 579.198 265.888 579.325 266.362 579.325Z" fill="white"/>
<path d="M272.278 580.802V572.075H279.647V580.802H277.664V573.762H274.244V580.802H272.278Z" fill="white"/>
<path d="M285.569 580.972C284.717 580.972 283.978 580.785 283.353 580.41C282.728 580.035 282.243 579.51 281.899 578.836C281.558 578.162 281.387 577.374 281.387 576.472C281.387 575.571 281.558 574.781 281.899 574.103C282.243 573.425 282.728 572.898 283.353 572.523C283.978 572.148 284.717 571.961 285.569 571.961C286.421 571.961 287.16 572.148 287.785 572.523C288.41 572.898 288.893 573.425 289.234 574.103C289.578 574.781 289.751 575.571 289.751 576.472C289.751 577.374 289.578 578.162 289.234 578.836C288.893 579.51 288.41 580.035 287.785 580.41C287.16 580.785 286.421 580.972 285.569 580.972ZM285.58 579.325C286.043 579.325 286.429 579.198 286.739 578.944C287.05 578.686 287.281 578.342 287.433 577.91C287.588 577.478 287.666 576.997 287.666 576.467C287.666 575.933 287.588 575.45 287.433 575.018C287.281 574.582 287.05 574.236 286.739 573.978C286.429 573.72 286.043 573.592 285.58 573.592C285.107 573.592 284.713 573.72 284.399 573.978C284.088 574.236 283.855 574.582 283.7 575.018C283.548 575.45 283.472 575.933 283.472 576.467C283.472 576.997 283.548 577.478 283.7 577.91C283.855 578.342 284.088 578.686 284.399 578.944C284.713 579.198 285.107 579.325 285.58 579.325Z" fill="white"/>
<path d="M298.786 572.075V580.802H296.809V572.075H298.786ZM297.86 576.018V577.7C297.637 577.798 297.383 577.887 297.099 577.967C296.819 578.042 296.521 578.103 296.207 578.148C295.896 578.194 295.586 578.217 295.275 578.217C294.108 578.217 293.186 577.955 292.508 577.433C291.834 576.906 291.497 576.086 291.497 574.972V572.063H293.462V574.972C293.462 575.347 293.529 575.648 293.661 575.876C293.794 576.103 293.995 576.27 294.264 576.376C294.533 576.478 294.87 576.529 295.275 576.529C295.73 576.529 296.161 576.484 296.57 576.393C296.98 576.302 297.409 576.177 297.86 576.018Z" fill="white"/>
<path d="M301.822 584.075C301.542 584.075 301.282 584.052 301.043 584.006C300.809 583.965 300.621 583.916 300.481 583.859L300.958 582.256C301.257 582.344 301.525 582.385 301.759 582.381C301.994 582.378 302.201 582.304 302.379 582.16C302.56 582.02 302.714 581.785 302.839 581.455L303.015 580.984L299.85 572.075H302.032L304.043 578.666H304.134L306.151 572.075H308.339L304.845 581.859C304.682 582.321 304.466 582.717 304.197 583.046C303.928 583.38 303.598 583.633 303.208 583.808C302.822 583.986 302.36 584.075 301.822 584.075Z" fill="white"/>
<path d="M309.285 573.762V572.075H316.921V573.762H314.097V580.802H312.109V573.762H309.285Z" fill="white"/>
<path d="M318.082 573.762V572.075H325.718V573.762H322.894V580.802H320.906V573.762H318.082Z" fill="white"/>
<path d="M332.515 580.802V573.745H330.651C330.178 573.745 329.814 573.855 329.561 574.075C329.307 574.294 329.182 574.567 329.186 574.893C329.182 575.219 329.301 575.487 329.543 575.7C329.786 575.912 330.132 576.018 330.583 576.018H333.163V577.518H330.583C329.886 577.518 329.284 577.408 328.776 577.188C328.269 576.969 327.879 576.658 327.606 576.256C327.333 575.855 327.197 575.385 327.197 574.847C327.197 574.287 327.335 573.8 327.612 573.387C327.892 572.97 328.29 572.648 328.805 572.421C329.324 572.19 329.939 572.075 330.651 572.075H334.441V580.802H332.515ZM326.879 580.802L329.316 576.325H331.345L328.901 580.802H326.879Z" fill="white"/>
<path d="M1 172L204 46" stroke="white"/>
<path d="M3 374L206 500" stroke="white"/>
<path d="M1 239L204 182" stroke="white"/>
<path d="M2 308L205 359" stroke="white"/>
<defs>
<clipPath id="clip0_301_1756">
<rect width="64" height="64" fill="white" transform="translate(251)"/>
</clipPath>
<clipPath id="clip1_301_1756">
<rect width="64" height="68.7603" fill="white" transform="translate(251 169)"/>
</clipPath>
<clipPath id="clip2_301_1756">
<rect width="57.88" height="57.88" fill="white" transform="translate(254.06 478.143)"/>
</clipPath>
</defs>
</svg>
