<svg width="54" height="54" viewBox="0 0 54 54" fill="none" xmlns="http://www.w3.org/2000/svg">
<path d="M48.948 7.14026H5.05195C2.96367 7.14026 1.21289 8.78557 1.21289 10.9793V43.0207C1.21289 45.109 2.8582 46.8598 5.05195 46.8598H48.9375C51.0258 46.8598 52.7766 45.109 52.7766 42.9153V10.9793C52.7871 8.90159 51.1418 7.14026 48.948 7.14026ZM50.6988 42.9047C50.6988 43.8961 49.9289 44.6555 48.948 44.6555H5.05195C4.06055 44.6555 3.30117 43.8856 3.30117 42.9047V10.9793C3.30117 9.98792 4.07109 9.22854 5.05195 9.22854H48.9375C49.9289 9.22854 50.6883 9.99846 50.6883 10.9793V42.9047H50.6988Z" fill="black"/>
<rect x="3" y="9" width="48" height="36" rx="2" fill="white"/>
<path fill-rule="evenodd" clip-rule="evenodd" d="M6.42154 24.0583C6.33881 24.0816 6.24944 24.0766 6.1929 24.0003C6.14652 23.9378 6.15035 23.8288 6.15035 23.7536C6.15035 23.1926 6.33901 22.703 6.82403 22.3971C7.14364 22.1955 7.50555 22.1136 7.88067 22.1136C8.31219 22.1136 8.70287 22.2418 9.0268 22.5301C9.36288 22.8292 9.50275 23.2269 9.50275 23.6725C9.50275 24.0825 9.38384 24.4589 9.08094 24.7432C8.95181 24.8644 8.77745 24.9617 8.60724 25.0392C8.64498 25.0554 8.6829 25.0712 8.72089 25.0867C8.9291 25.1719 9.13862 25.2898 9.28939 25.4601C9.54936 25.7539 9.63507 26.1368 9.63507 26.5205C9.63507 26.9446 9.5386 27.3596 9.26645 27.6938C9.02894 27.9854 8.72311 28.1606 8.34371 28.1606C8.2214 28.1606 8.10061 28.1411 7.98349 28.1063C7.79555 28.0576 7.6103 27.9982 7.42979 27.9265C7.36913 27.9025 7.30764 27.8787 7.2457 27.8582C7.2259 27.8516 7.19454 27.8406 7.17197 27.8367C7.16209 27.8442 7.14837 27.8662 7.14365 27.8747C7.10339 27.9463 7.09745 28.0797 7.09745 28.1596C7.09745 28.2038 7.10217 28.2492 7.10807 28.293C7.11421 28.3386 7.12148 28.3895 7.12148 28.4355C7.12148 28.5661 7.06046 28.6961 6.91253 28.6961H6.75756L6.73582 28.6896C6.70567 28.6805 6.67449 28.6745 6.64329 28.6705C6.62024 28.6675 6.593 28.6636 6.56976 28.6636C6.53955 28.6636 6.51163 28.6787 6.488 28.6964C6.44206 28.7308 6.38858 28.7623 6.33026 28.7672L6.32138 28.768L6.31244 28.7677C6.18593 28.7638 6.10633 28.668 6.06041 28.5596C6.00489 28.4285 6 28.2263 6 28.0852C6 27.8136 6.04578 27.5309 6.19663 27.2998C6.3232 27.1058 6.50132 26.9658 6.74014 26.9658C6.87826 26.9658 7.0269 27.0235 7.14984 27.0825C7.29099 27.1503 7.43316 27.2159 7.57639 27.2793C7.66586 27.3188 7.7807 27.3701 7.87627 27.3915C7.92273 27.4019 7.97621 27.4121 8.02398 27.4121C8.16205 27.4121 8.22048 27.28 8.2558 27.1647C8.31599 26.9682 8.32715 26.7248 8.32715 26.5205C8.32715 26.4692 8.32715 26.4178 8.32715 26.3664C8.32715 26.3096 8.32715 26.2528 8.32715 26.196C8.32715 26.1692 8.32689 26.1399 8.32282 26.1133L8.32173 26.1067L8.32144 26.1001C8.31109 25.9324 8.27365 25.7352 8.15697 25.6066C8.06414 25.5043 7.95218 25.4586 7.81452 25.4586H7.16469L7.14431 24.702H7.30339C7.48527 24.702 7.89609 24.6886 8.03577 24.5486C8.17234 24.4118 8.18885 24.0789 8.18885 23.8997V23.6482C8.18885 23.447 8.17992 23.1907 8.11811 22.9978C8.07299 22.8571 8.00272 22.7485 7.84458 22.7485C7.74172 22.7485 7.65554 22.7782 7.58455 22.8538C7.45222 22.9948 7.42817 23.2458 7.42817 23.4291C7.42817 23.4824 7.42899 23.5369 7.43358 23.59C7.43716 23.631 7.44103 23.672 7.44537 23.7129L7.44617 23.7211V23.7293C7.44617 23.8692 7.3563 23.9737 7.21316 23.9737H7.11095C7.01273 23.9737 6.91157 23.9752 6.81381 23.9851C6.68697 23.9979 6.54649 24.0307 6.42151 24.0583L6.42154 24.0583ZM13.2257 27.2424C13.291 27.2056 13.3674 27.193 13.443 27.193C13.5543 27.193 13.6441 27.2516 13.6998 27.3468C13.7465 27.4265 13.7662 27.5159 13.7662 27.6078C13.7662 27.6513 13.7631 27.6961 13.7527 27.7384C13.7322 27.8213 13.7057 27.9059 13.6819 27.9879C13.6316 28.161 13.5969 28.345 13.5662 28.5226C13.5541 28.627 13.5419 28.7315 13.5289 28.8359C13.5237 28.8786 13.5193 28.933 13.5094 28.9746C13.4714 29.1342 13.3816 29.2965 13.1964 29.2965C13.0656 29.2965 12.9649 29.2231 12.9212 29.1C12.8895 29.0105 12.8754 28.91 12.8679 28.8156C12.8392 28.5672 12.7657 28.1827 12.5471 28.0262C12.4251 27.9388 12.1979 27.9253 12.0539 27.9253H11.4646C11.2916 27.9253 10.9047 27.9365 10.7627 28.0526C10.6245 28.1656 10.5527 28.4845 10.5225 28.65L10.522 28.6529L10.5214 28.6558C10.4974 28.764 10.4759 28.8727 10.4566 28.9818L10.4547 28.9923L10.4514 29.0024C10.4046 29.1478 10.3128 29.2965 10.1417 29.2965C9.9909 29.2965 9.90241 29.1818 9.8615 29.0493C9.83601 28.9668 9.82695 28.8482 9.81911 28.7619C9.80592 28.6166 9.78501 28.4715 9.76057 28.3276C9.73656 28.1865 9.70443 28.045 9.65836 27.9094L9.65673 27.9046L9.65534 27.8998C9.64158 27.8488 9.62775 27.7978 9.6136 27.7468C9.59806 27.6909 9.58986 27.6334 9.58986 27.5754C9.58986 27.4576 9.62812 27.3468 9.72563 27.2756C9.79694 27.2234 9.87854 27.193 9.9672 27.193C10.0156 27.193 10.0654 27.2022 10.1123 27.2137C10.1261 27.2171 10.1477 27.2225 10.1651 27.2246C10.1759 27.2053 10.1855 27.168 10.1887 27.1531L10.1893 27.1508L10.1898 27.1486C10.1985 27.1133 10.2031 27.0706 10.2077 27.0345C10.218 26.9531 10.2262 26.8713 10.2341 26.7897C10.2827 26.2813 10.3921 25.7787 10.5407 25.2906C10.6638 24.8867 10.816 24.4909 10.9862 24.1048C11.0595 23.9384 11.1348 23.7648 11.1911 23.5919C11.2472 23.4195 11.2917 23.23 11.2917 23.0477C11.2917 23.0069 11.287 22.9243 11.254 22.8936C11.2181 22.8603 11.1561 22.854 11.1098 22.854H10.6423V22.2191H12.8401V22.854H12.5281C12.5438 23.0377 12.5632 23.2214 12.5836 23.4045C12.6208 23.7372 12.6626 24.0695 12.7065 24.4013C12.7952 25.0725 12.8966 25.7438 13.0238 26.4088C13.0654 26.6268 13.1101 26.8494 13.1693 27.0633C13.1788 27.0974 13.2016 27.1783 13.2257 27.2423L13.2257 27.2424ZM15.5116 22C15.6294 22 15.7154 22.0906 15.7774 22.1807L15.7803 22.185L15.7831 22.1895C15.8118 22.238 15.8429 22.2851 15.8765 22.3304L15.8776 22.3318L15.8784 22.3331C15.9393 22.419 16.0017 22.5084 16.0679 22.5903C16.1789 22.7277 16.297 22.8625 16.4113 22.9972C16.6788 23.3123 16.9389 23.685 17.0715 24.0802C17.1738 24.3849 17.2119 24.7112 17.2119 25.0316C17.2119 25.3827 17.1654 25.736 17.0464 26.0673C16.9418 26.3583 16.7768 26.6328 16.596 26.8822C16.3979 27.1555 16.1933 27.4239 15.9899 27.6933C15.9135 27.7946 15.83 27.9014 15.7392 27.9901C15.6703 28.0574 15.5827 28.1281 15.4816 28.1281C15.3746 28.1281 15.2806 28.0587 15.2065 27.9881C15.1502 27.9344 15.0961 27.876 15.0436 27.8187C14.9542 27.7211 14.867 27.6214 14.7808 27.521C14.6321 27.3476 14.4852 27.171 14.3471 26.989C14.2563 26.8694 14.1626 26.741 14.0895 26.6096C13.8395 26.1601 13.7332 25.6659 13.7332 25.1533C13.7332 24.5681 13.8829 24.016 14.1608 23.5025C14.3549 23.1439 14.6177 22.8124 14.8925 22.5127L14.8938 22.5111L14.8955 22.5096C14.9411 22.4625 14.9883 22.4145 15.0315 22.3652C15.0633 22.3289 15.0928 22.2875 15.1207 22.2481C15.1633 22.1878 15.2125 22.1298 15.27 22.0832C15.3395 22.0269 15.4226 22 15.5117 22L15.5116 22ZM19.0339 25.7506V27.2904H19.5089V27.9253H17.3592V27.2904H17.8345L17.8402 24.6218V22.8936C17.8402 22.5442 18.1104 22.3476 18.4141 22.2436C18.7173 22.1399 19.0656 22.1136 19.3841 22.1136C19.8475 22.1136 20.2594 22.2614 20.5703 22.612C20.868 22.9478 20.9822 23.3671 20.9822 23.8104C20.9822 24.2137 20.905 24.6177 20.685 24.9613C20.4953 25.2574 20.2285 25.4586 19.8682 25.4586C19.7313 25.4586 19.6024 25.4255 19.4843 25.3562L19.4768 25.3518L19.4697 25.3465C19.4222 25.3109 19.3747 25.2752 19.3272 25.2396L19.0339 25.7506ZM24.4065 27.2904L24.4007 24.046C24.3999 23.6042 24.4282 22.8608 24.7332 22.508C25.0357 22.1581 25.6733 22.1136 26.101 22.1136C26.4962 22.1136 26.8391 22.2499 27.1013 22.5491C27.3411 22.8227 27.4465 23.1518 27.4465 23.5143C27.4465 23.8972 27.3267 24.241 27.041 24.5013C26.8733 24.6542 26.667 24.7797 26.4347 24.7849C26.4042 24.7903 26.3734 24.7941 26.3425 24.7968C26.3165 24.7989 26.2894 24.8014 26.2634 24.8014C26.1634 24.8014 26.0699 24.7657 25.986 24.714L25.8663 24.7975C25.9743 24.8985 26.0921 24.9906 26.2194 25.063C26.2788 25.0967 26.3464 25.1226 26.411 25.1439C26.4996 25.1731 26.5883 25.2018 26.6781 25.2271C26.7477 25.2467 26.8173 25.2662 26.8865 25.287C26.921 25.2974 26.9656 25.3097 26.9986 25.3262C27.1821 25.4114 27.3288 25.5443 27.396 25.7398C27.4386 25.8639 27.4465 26.0168 27.4465 26.1473V27.3563C27.4465 27.5329 27.362 27.6777 27.2277 27.7885C27.1044 27.8902 26.9595 27.9577 26.7976 27.9577L23.9317 27.9234V27.2904H24.4065ZM29.076 25.0027C29.0881 25.1034 29.1004 25.2042 29.1132 25.3049C29.1206 25.3626 29.1274 25.4217 29.1371 25.4791C29.1553 25.5876 29.1855 25.7018 29.2104 25.8093C29.2599 26.0228 29.3037 26.2389 29.336 26.4557C29.3671 26.6645 29.3768 26.879 29.3768 27.0899C29.3768 27.1651 29.3768 27.2477 29.3663 27.3222C29.3629 27.3463 29.3584 27.3707 29.3531 27.3951C29.3619 27.3957 29.3704 27.3959 29.3783 27.3959C29.6561 27.3959 29.8715 27.292 30.0344 27.0654C30.1414 26.9166 30.2095 26.7357 30.2535 26.554H29.9991V25.9191H31.8061V26.54L31.5461 26.5501C31.3801 26.9282 31.1518 27.2704 30.846 27.5517C30.5483 27.8257 30.1913 28.0307 29.7772 28.0307C29.6055 28.0307 29.4337 28.0173 29.2638 27.9926C29.1041 27.9694 28.9433 27.933 28.7927 27.874L28.6943 27.8355V27.7295C28.6943 27.6646 28.6943 27.5997 28.6943 27.5348C28.6943 27.364 28.6635 27.1995 28.6023 27.0401C28.5427 26.8848 28.4543 26.7282 28.3681 26.5864C28.2532 26.3975 28.1406 26.2055 28.0383 26.0093C27.9667 25.8721 27.8954 25.726 27.8456 25.5792C27.7551 25.3127 27.7261 25.0198 27.7261 24.7395C27.7261 23.993 27.8812 23.2083 28.4343 22.6676C28.8215 22.2889 29.2974 22.1136 29.8353 22.1136C30.1651 22.1136 30.4804 22.1872 30.7668 22.3536C31.1474 22.5747 31.3899 22.9154 31.53 23.3226H31.8422V23.9575H30.1194V23.3226H30.2652C30.2353 23.2067 30.1916 23.0928 30.1272 22.9956C30.0228 22.838 29.888 22.7485 29.697 22.7485C29.432 22.7485 29.2911 22.9803 29.2036 23.2021C29.0716 23.5366 29.034 23.9241 29.034 24.2811C29.034 24.2899 29.034 24.2987 29.034 24.3075C29.1131 24.244 29.1986 24.1891 29.2907 24.1476C29.469 24.0674 29.6578 24.0285 29.8532 24.0285C30.1286 24.0285 30.3731 24.1285 30.5853 24.3012C30.7877 24.466 30.9235 24.6791 31.0076 24.9211H31.2829V25.556H29.5541V24.9211H29.7051C29.6888 24.8888 29.6696 24.8586 29.6466 24.8323C29.6323 24.816 29.5817 24.7632 29.5586 24.7608C29.4586 24.7608 29.3631 24.7912 29.2748 24.8368C29.1952 24.878 29.1291 24.9329 29.0759 25.0027L29.076 25.0027ZM33.5079 25.1097V27.2904H33.9048V27.9253H31.8392V27.2904H32.3143V22.854H31.8392V22.2191H33.9048V22.854H33.5079V24.4261H34.461V22.854H34.0762V22.2191H36.1297V22.854H35.6546V27.2904H36.1297V27.9253H34.0762V27.2904H34.461V25.1097H33.5079ZM37.9337 22.854V24.5418C38.0833 24.7148 38.2868 24.8411 38.4925 24.935C38.6436 25.004 38.8463 25.0826 39.0151 25.0833L39.2343 25.0758C39.2735 25.0687 39.315 25.0671 39.3543 25.0671C39.5157 25.0671 39.6468 25.1438 39.704 25.2981C39.7521 25.4281 39.7617 25.5878 39.7617 25.7254V27.2346C39.7617 27.392 39.7555 27.6461 39.6523 27.7742C39.5566 27.893 39.4031 27.9253 39.2582 27.9253H36.265V27.2904H36.7401V22.854H36.265V22.2191H38.4088V22.854H37.9337ZM42.0584 24.7526C42.5855 24.9421 43.0305 25.2635 43.2875 25.7836C43.5128 26.2396 43.59 26.7801 43.6024 27.2904H43.947V27.9253H42.0859V27.2904H42.3076C42.3049 27.0261 42.2942 26.7596 42.2658 26.4978C42.2444 26.2992 42.2113 26.0775 42.1432 25.8891C42.0327 25.5828 41.842 25.3734 41.5658 25.2526V27.2904H41.9205V27.9253H39.8971V27.2904H40.3721V22.854H39.8971V22.2191H41.9626V22.854H41.5658V24.478L41.6493 24.2212L41.771 23.8832C41.8645 23.6326 41.9588 23.3819 42.0579 23.1335C42.1077 23.0087 42.1614 22.8673 42.2244 22.7489C42.3955 22.4274 42.6583 22.1136 43.0526 22.1136C43.2606 22.1136 43.4583 22.1634 43.6347 22.2758L43.7313 22.3373L43.7009 22.4479C43.6612 22.5926 43.6215 22.7373 43.5818 22.882C43.5686 22.9442 43.5682 23.0255 43.5682 23.0883V23.0955L43.5675 23.1026C43.5565 23.2219 43.5502 23.3417 43.5502 23.4615V23.6167H43.2431L43.0119 23.4959L43.0019 23.4884C42.9745 23.4679 42.9426 23.4524 42.9107 23.4404C42.8727 23.426 42.8283 23.422 42.7887 23.4219C42.7654 23.4246 42.7154 23.4725 42.7004 23.4882C42.6268 23.5651 42.5622 23.6681 42.509 23.7599C42.4208 23.9122 42.3438 24.0738 42.2723 24.2346C42.1964 24.4051 42.1258 24.5784 42.0584 24.7526ZM45.369 22.7485H44.9182V22.1136H47.0018V22.7485H46.5938L47.5732 27.2904H48V27.9253H45.9765V27.2904H46.3728L46.1363 26.1849C46.0484 26.503 45.9346 26.8137 45.7894 27.1108C45.6011 27.4958 45.273 28.0308 44.7844 28.0308C44.5554 28.0308 44.361 27.9412 44.2182 27.7612C44.0366 27.5322 43.9861 27.2288 43.9861 26.9438C43.9861 26.459 44.0984 25.9665 44.2528 25.5093C44.4218 25.009 44.6478 24.5133 44.8799 24.0396C44.9937 23.8072 45.1117 23.577 45.2274 23.3456C45.3062 23.165 45.3692 22.9624 45.3692 22.7637C45.3692 22.7587 45.3692 22.7536 45.3689 22.7485H45.369ZM11.9976 27.2904L11.9203 26.901C11.8344 26.4869 11.7561 26.0711 11.6848 25.6542C11.6172 25.2591 11.557 24.8626 11.5053 24.467C11.3349 24.8383 11.2034 25.2333 11.0967 25.6206C11.0277 25.871 10.9651 26.1255 10.9198 26.3814C10.8875 26.5643 10.8618 26.7564 10.8618 26.9425C10.8618 27.0021 10.8683 27.1905 10.9158 27.2357C10.9665 27.284 11.1237 27.2904 11.188 27.2904H11.9976ZM15.241 23.7696C15.1637 23.6519 15.0862 23.5189 15.0325 23.382C14.9183 23.4408 14.834 23.5435 14.7684 23.6597C14.6537 23.8628 14.596 24.0801 14.596 24.3135C14.596 24.5654 14.6906 24.8248 14.8021 25.0472C14.9691 25.3806 15.2006 25.708 15.4247 26.0051C15.5027 26.1086 15.58 26.2131 15.6537 26.3198C15.7043 26.3931 15.7555 26.4695 15.7979 26.5479C15.8285 26.6042 15.8536 26.6625 15.8734 26.7223C15.9609 26.6464 16.0373 26.5569 16.104 26.463C16.2242 26.2938 16.3006 26.1072 16.326 25.901V25.8991L16.3263 25.8973C16.3314 25.863 16.3367 25.825 16.3367 25.7903C16.3367 25.7556 16.3314 25.7175 16.3263 25.6833L16.326 25.6814V25.6795C16.2936 25.4169 16.121 25.1057 15.9828 24.8845C15.8524 24.6881 15.722 24.4916 15.5932 24.2941C15.5089 24.1701 15.4246 24.0459 15.341 23.9214C15.3091 23.8739 15.2695 23.8197 15.241 23.7696ZM19.0339 24.6742L19.2222 24.3516L19.3633 24.5232C19.3763 24.539 19.4288 24.5965 19.4523 24.5965C19.525 24.5965 19.5655 24.4916 19.5848 24.4365C19.6534 24.2408 19.6683 24.0001 19.6683 23.7942C19.6683 23.5589 19.6624 23.2306 19.5921 23.0046C19.5537 22.8813 19.4912 22.7485 19.3451 22.7485C19.1616 22.7485 19.1039 23.019 19.0796 23.1561C19.0578 23.2786 19.0514 23.4153 19.0459 23.5395C19.0359 23.7619 19.0339 23.9854 19.0339 24.208V24.6742ZM25.6004 27.2904H26.1531C26.1702 27.2904 26.2084 27.2904 26.2187 27.2719C26.2498 27.2165 26.2528 26.9903 26.2528 26.9262V26.058C26.2528 26.0134 26.2507 25.9176 26.2315 25.8766C26.2113 25.8363 26.1048 25.7557 26.0686 25.7295C25.931 25.6302 25.7787 25.524 25.6517 25.4116C25.6343 25.3961 25.6171 25.3803 25.6004 25.3642V27.2904ZM25.6004 24.284L25.8228 24.0648L25.9303 24.1527C25.9338 24.1556 25.937 24.1583 25.9417 24.1583C25.9759 24.1583 26.0088 24.149 26.0394 24.1338C26.0531 24.1271 26.0787 24.1144 26.0923 24.1036C26.1289 24.0493 26.1728 23.9886 26.2053 23.9326C26.2515 23.7868 26.2528 23.5316 26.2528 23.3845C26.2528 23.2321 26.2383 23.003 26.1501 22.8722C26.1009 22.7992 26.0413 22.7485 25.9507 22.7485C25.7736 22.7485 25.704 23.0219 25.675 23.1541C25.6452 23.2895 25.6302 23.4325 25.6199 23.5706C25.6049 23.7715 25.6004 23.9741 25.6004 24.1756C25.6004 24.2117 25.6004 24.2479 25.6004 24.284ZM37.9337 27.2904H38.296C38.3364 27.2904 38.4495 27.2871 38.4849 27.2651C38.559 27.2189 38.5681 27.0924 38.5681 27.0155V25.912C38.5681 25.8755 38.5654 25.766 38.5476 25.7314C38.5232 25.7014 38.4229 25.6553 38.3891 25.6407C38.2599 25.5849 38.135 25.5192 38.0186 25.4399C37.9897 25.4203 37.9614 25.3999 37.9337 25.3788V27.2904ZM45.8127 24.8933L45.6377 23.9506C45.5788 24.0578 45.5199 24.165 45.4617 24.2726C45.3677 24.4462 45.2847 24.6245 45.2105 24.8074C45.1098 25.0554 45.0321 25.3222 44.9642 25.5809C44.9217 25.7429 44.8827 25.9073 44.8541 26.0723C44.8352 26.1812 44.819 26.2976 44.819 26.4083C44.819 26.4976 44.8286 26.6236 44.8814 26.6997C44.905 26.7336 44.9331 26.763 44.9768 26.763C45.0399 26.763 45.0778 26.7202 45.108 26.669C45.2576 26.4146 45.3849 26.1396 45.5023 25.869C45.6254 25.5854 45.7778 25.2063 45.8127 24.8933Z" fill="#003D76"/>
<path fill-rule="evenodd" clip-rule="evenodd" d="M7.31532 25.303L7.30331 24.8567C7.73226 24.8567 8.01288 24.7904 8.14519 24.6579C8.27749 24.5254 8.34363 24.2725 8.34363 23.8993V23.6477C8.34363 23.3448 8.31754 23.1122 8.26543 22.9499C8.18928 22.7119 8.04894 22.5929 7.8445 22.5929C7.69215 22.5929 7.5679 22.6443 7.4717 22.7471C7.3394 22.8877 7.27323 23.1149 7.27323 23.4286C7.27323 23.499 7.27516 23.5571 7.27926 23.6031C7.28327 23.6491 7.28727 23.691 7.29128 23.7289C7.29128 23.7884 7.26525 23.8181 7.21313 23.8181H7.1109C6.98261 23.8181 6.87838 23.8222 6.79819 23.8303C6.71802 23.8384 6.5797 23.8641 6.38326 23.9074C6.34718 23.9182 6.32515 23.9182 6.31712 23.9074C6.30911 23.8965 6.30511 23.8452 6.30511 23.7532C6.30511 23.1906 6.50555 22.7822 6.90642 22.528C7.18305 22.3549 7.50777 22.2683 7.88059 22.2683C8.29351 22.2683 8.64129 22.3941 8.9239 22.6456C9.20653 22.8972 9.34784 23.2393 9.34784 23.6721C9.34784 24.0778 9.22358 24.3969 8.97503 24.6295C8.85477 24.7431 8.66032 24.854 8.39172 24.9622L8.3376 24.9865V25.1245C8.41378 25.1353 8.47691 25.1515 8.52703 25.1732C8.57713 25.1948 8.62225 25.2137 8.66232 25.23C8.88683 25.3219 9.0572 25.4328 9.17345 25.5626C9.37791 25.7952 9.48013 26.1144 9.48013 26.5201C9.48013 26.9637 9.36889 27.322 9.14638 27.5952C8.92388 27.8684 8.65631 28.005 8.34363 28.005C8.23938 28.005 8.13316 27.9887 8.02492 27.9563C7.83649 27.9076 7.65709 27.8495 7.48672 27.7818C7.31634 27.7142 7.21111 27.6804 7.17104 27.6804C7.10689 27.6804 7.05274 27.7196 7.00866 27.7981C6.96458 27.8765 6.94251 27.9969 6.94251 28.1591C6.94251 28.2024 6.94651 28.2538 6.95454 28.3133C6.96254 28.3728 6.96657 28.4134 6.96657 28.435C6.96657 28.5053 6.94853 28.5405 6.91245 28.5405H6.78015C6.74407 28.5297 6.70499 28.5216 6.6629 28.5161C6.62078 28.5107 6.58973 28.508 6.56968 28.508C6.50956 28.508 6.45142 28.5297 6.39529 28.5716C6.35924 28.5986 6.33315 28.6108 6.31712 28.6122C6.27303 28.6108 6.23494 28.5743 6.20288 28.4986C6.17081 28.4228 6.15479 28.2849 6.15479 28.0848C6.15479 27.7926 6.21188 27.56 6.32616 27.3842C6.44139 27.2084 6.5787 27.1205 6.74007 27.1205C6.82826 27.1205 6.9425 27.1543 7.08281 27.222C7.22413 27.2896 7.36747 27.3558 7.51379 27.4208C7.66111 27.4857 7.77034 27.5262 7.84253 27.5425C7.91567 27.5587 7.97581 27.5668 8.02391 27.5668C8.20431 27.5668 8.33159 27.4478 8.40375 27.2098C8.45587 27.0421 8.4819 26.8122 8.4819 26.5201C8.4819 26.4714 8.4819 26.42 8.4819 26.3659C8.4819 26.3118 8.4819 26.255 8.4819 26.1955C8.4819 26.1522 8.48 26.1171 8.4759 26.09C8.45987 25.8304 8.39171 25.6343 8.27146 25.5018C8.15117 25.3692 7.99886 25.303 7.81444 25.303H7.31532ZM12.6852 22.3738V22.6984H12.3605C12.3886 23.0878 12.4527 23.6626 12.5529 24.4213C12.6532 25.1799 12.7594 25.852 12.8717 26.4376C12.9999 27.1097 13.1041 27.4451 13.1843 27.4451C13.2084 27.4451 13.2385 27.4289 13.2745 27.3964C13.3106 27.364 13.3668 27.3477 13.4429 27.3477C13.495 27.3477 13.5361 27.3734 13.5662 27.4248C13.5963 27.4762 13.6113 27.5371 13.6113 27.6074C13.6113 27.6452 13.6083 27.6763 13.6023 27.7007C13.5963 27.725 13.5732 27.8062 13.5331 27.9441C13.493 28.0821 13.4529 28.2673 13.4128 28.4999C13.3808 28.7758 13.3627 28.9219 13.3587 28.9381C13.3267 29.0733 13.2725 29.1409 13.1964 29.1409C13.1322 29.1409 13.0891 29.1098 13.0671 29.0476C13.045 28.9854 13.03 28.9029 13.022 28.8002C12.9699 28.3458 12.8416 28.0455 12.6371 27.8995C12.5169 27.8129 12.3224 27.7697 12.0538 27.7697H11.4645C11.0636 27.7697 10.797 27.8238 10.6647 27.9319C10.5324 28.0401 10.4343 28.27 10.3701 28.6216C10.3461 28.7298 10.324 28.8407 10.3039 28.9543C10.2639 29.0787 10.2098 29.1409 10.1416 29.1409C10.0815 29.1409 10.0374 29.095 10.0093 29.003C9.9973 28.9651 9.98525 28.8799 9.97323 28.7474C9.96121 28.6149 9.94116 28.4661 9.91308 28.3011C9.88503 28.1361 9.84896 27.9887 9.80485 27.8589C9.78881 27.7994 9.77477 27.748 9.76276 27.7047C9.75074 27.6615 9.74473 27.6182 9.74473 27.5749C9.74473 27.4938 9.76875 27.4356 9.81688 27.4005C9.86497 27.3653 9.91512 27.3477 9.96723 27.3477C9.99528 27.3477 10.0314 27.3531 10.0755 27.364C10.1196 27.3748 10.1536 27.3802 10.1777 27.3802C10.2578 27.3802 10.312 27.3153 10.34 27.1855C10.3521 27.1368 10.3681 27.0096 10.3881 26.8041C10.4322 26.3389 10.5325 25.8493 10.6888 25.3354C10.8011 24.9676 10.9474 24.5781 11.1278 24.167C11.224 23.9506 11.2942 23.7748 11.3382 23.6396C11.4104 23.4178 11.4465 23.2204 11.4465 23.0473C11.4465 22.9229 11.4174 22.8336 11.3593 22.7795C11.3012 22.7254 11.218 22.6984 11.1097 22.6984H10.797V22.3738H12.6852ZM11.1879 27.4451H12.1861L12.0719 26.869C11.9877 26.4633 11.9095 26.0495 11.8374 25.6275C11.7652 25.2056 11.7031 24.7918 11.6509 24.3861L11.5908 23.9642C11.3382 24.3969 11.1238 24.9351 10.9474 25.5789C10.787 26.1577 10.7068 26.6121 10.7068 26.942C10.7068 27.1476 10.7409 27.2828 10.8091 27.3477C10.8772 27.4126 11.0035 27.4451 11.1879 27.4451ZM15.5115 22.1547C15.5516 22.1547 15.5977 22.1926 15.6498 22.2683C15.6819 22.3224 15.7159 22.3738 15.752 22.4225C15.8402 22.5469 15.9053 22.6348 15.9475 22.6875C15.9895 22.7389 16.1048 22.8755 16.2932 23.0973C16.6099 23.4706 16.8204 23.8154 16.9246 24.1291C17.0128 24.3888 17.0569 24.6904 17.0569 25.0312C17.0569 25.3936 17.0048 25.7222 16.9005 26.0143C16.8124 26.2577 16.669 26.516 16.4706 26.7906C16.2722 27.0637 16.0707 27.3328 15.8663 27.5993C15.6819 27.8481 15.5536 27.9725 15.4814 27.9725C15.4373 27.9725 15.3812 27.9401 15.313 27.8751C15.2449 27.8102 15.1066 27.6588 14.8981 27.4194C14.5533 27.0137 14.3289 26.7189 14.2247 26.5336C14.0001 26.1279 13.8879 25.6681 13.8879 25.1529C13.8879 24.6065 14.0242 24.0805 14.2968 23.576C14.4611 23.2731 14.6977 22.954 15.0064 22.6172C15.0745 22.5469 15.1216 22.4969 15.1477 22.4671C15.1738 22.4374 15.2068 22.3941 15.2469 22.3373C15.287 22.2805 15.3271 22.2359 15.3672 22.2034C15.4073 22.1709 15.4554 22.1547 15.5115 22.1547ZM15.1327 23.1852C14.9282 23.2231 14.7618 23.3556 14.6335 23.5828C14.5053 23.81 14.4411 24.0534 14.4411 24.3131C14.4411 24.5511 14.5153 24.8188 14.6636 25.1164C14.7999 25.3868 15.0124 25.7141 15.301 26.0982C15.4814 26.3362 15.6017 26.5106 15.6618 26.6215C15.7219 26.7324 15.758 26.8528 15.7701 26.9826C15.9384 26.8906 16.0918 26.7473 16.2301 26.5525C16.3684 26.3578 16.4516 26.1468 16.4796 25.9196C16.4877 25.8656 16.4917 25.8223 16.4917 25.7898C16.4917 25.7574 16.4877 25.7141 16.4796 25.66C16.4516 25.4328 16.3293 25.1461 16.1128 24.7999C15.9404 24.5403 15.8101 24.3428 15.7219 24.2076C15.5015 23.883 15.3852 23.7099 15.3732 23.6883C15.2449 23.4935 15.1647 23.3259 15.1327 23.1852ZM18.8789 25.7087V27.4451H19.354V27.7697H17.5139V27.4451H17.989L17.995 24.6214V22.8931C17.995 22.6659 18.1513 22.4982 18.464 22.39C18.7046 22.3089 19.0112 22.2683 19.384 22.2683C19.833 22.2683 20.1898 22.4171 20.4544 22.7146C20.703 22.9959 20.8272 23.361 20.8272 23.81C20.8272 24.2373 20.736 24.593 20.5547 24.877C20.3722 25.161 20.1437 25.303 19.8682 25.303C19.7559 25.303 19.6547 25.2759 19.5625 25.2218C19.4903 25.1677 19.4362 25.1272 19.4001 25.1001L19.2748 25.019L18.8789 25.7087ZM18.8789 25.2462L19.2438 24.6214C19.3149 24.7079 19.3851 24.7512 19.4522 24.7512C19.5765 24.7512 19.6687 24.6633 19.7308 24.4875C19.792 24.3117 19.823 24.0805 19.823 23.7938C19.823 23.4151 19.795 23.1365 19.7399 22.958C19.6637 22.7146 19.5324 22.5929 19.345 22.5929C19.1295 22.5929 18.9902 22.7714 18.9271 23.1284C18.895 23.3069 18.8789 23.6666 18.8789 24.2076V25.2462ZM24.5615 27.4451L24.5555 24.0453C24.5555 23.315 24.6537 22.8363 24.8502 22.6091C25.0466 22.3819 25.4635 22.2683 26.1009 22.2683C26.4657 22.2683 26.7604 22.3954 26.9849 22.651C27.1893 22.885 27.2916 23.1717 27.2916 23.5138C27.2916 23.8776 27.1733 24.1684 26.9368 24.3861C26.7564 24.5484 26.584 24.6295 26.4196 24.6295C26.3916 24.6349 26.3615 24.639 26.3295 24.6417C26.2974 24.6444 26.2753 24.6457 26.2633 24.6457C26.1791 24.6457 26.0869 24.6052 25.9867 24.524L25.6259 24.7756C25.7983 24.9595 25.9706 25.1001 26.143 25.1975C26.1991 25.23 26.2723 25.2611 26.3625 25.2908C26.4527 25.3206 26.5439 25.349 26.6361 25.376C26.8125 25.4247 26.9107 25.4544 26.9308 25.4653C27.0952 25.541 27.2014 25.6492 27.2495 25.7898C27.2776 25.871 27.2916 25.99 27.2916 26.1468V27.0962V27.3558C27.2916 27.4748 27.2374 27.579 27.1292 27.6682C27.021 27.7575 26.9097 27.8021 26.7975 27.8021L24.0865 27.7697V27.4451H24.5615ZM25.4455 27.4451H26.153C26.2503 27.4451 26.3164 27.4126 26.3535 27.3477C26.3896 27.2828 26.4076 27.1422 26.4076 26.9258V26.0576C26.4076 25.944 26.3956 25.8615 26.3715 25.8101C26.3475 25.7587 26.2763 25.6897 26.159 25.6032C25.9616 25.4626 25.8263 25.3598 25.7542 25.2949C25.6369 25.1921 25.5347 25.0677 25.4455 24.9216V27.4451ZM25.4455 24.6539L25.8323 24.2725C25.8654 24.2995 25.9015 24.3131 25.9416 24.3131C25.9977 24.3131 26.0538 24.2995 26.1079 24.2725C26.163 24.2454 26.1982 24.2211 26.2142 24.1995C26.2944 24.0791 26.3395 24.0115 26.3475 23.9953C26.3876 23.8803 26.4076 23.6775 26.4076 23.384C26.4076 23.1122 26.3645 22.912 26.2783 22.7849C26.1921 22.6564 26.0829 22.5929 25.9506 22.5929C25.7421 22.5929 25.5998 22.7687 25.5236 23.1203C25.4715 23.3529 25.4455 23.7045 25.4455 24.1751C25.4455 24.2617 25.4455 24.3442 25.4455 24.4226C25.4455 24.501 25.4455 24.5781 25.4455 24.6539ZM29.7089 25.0758H29.9194C29.8873 24.927 29.8352 24.8121 29.763 24.7296C29.6909 24.6471 29.6227 24.6052 29.5586 24.6052C29.4423 24.6052 29.3241 24.6363 29.2038 24.6985C29.0836 24.7607 28.9873 24.8486 28.9152 24.9622C28.9512 25.2638 28.9743 25.445 28.9843 25.5045C28.9943 25.564 29.0194 25.6762 29.0595 25.8439C29.1156 26.0914 29.1567 26.3037 29.1827 26.4782C29.2088 26.654 29.2218 26.8582 29.2218 27.0894C29.2218 27.1868 29.2188 27.2571 29.2128 27.3004C29.2068 27.3437 29.1918 27.4072 29.1677 27.4938C29.2198 27.5316 29.29 27.5506 29.3782 27.5506C29.7109 27.5506 29.9715 27.4194 30.1599 27.1557C30.2962 26.9677 30.3904 26.7148 30.4425 26.3984H30.1539V26.0738H31.6512V26.3903L31.4417 26.3984C31.2704 26.8203 31.0369 27.1665 30.7412 27.437C30.4255 27.7291 30.1048 27.8751 29.7771 27.8751C29.6177 27.8751 29.4534 27.863 29.286 27.8386C29.1186 27.8143 28.9733 27.7778 28.849 27.7291C28.849 27.6425 28.849 27.5776 28.849 27.5343C28.849 27.345 28.8149 27.1625 28.7468 26.9839C28.6987 26.8595 28.6165 26.7 28.5003 26.5052C28.2357 26.0738 28.0663 25.7479 27.9921 25.5288C27.9179 25.3111 27.8809 25.0474 27.8809 24.7391C27.8809 23.8641 28.1014 23.2109 28.5424 22.7782C28.8911 22.4387 29.3221 22.2683 29.8352 22.2683C30.1519 22.2683 30.4366 22.3414 30.6891 22.4874C31.0419 22.693 31.2844 23.0229 31.4167 23.4773H31.6873V23.8019H30.2742V23.4773H30.4546C30.4185 23.2447 30.3524 23.0554 30.2562 22.9093C30.1158 22.6984 29.9294 22.5929 29.6969 22.5929C29.4163 22.5929 29.2038 22.7768 29.0595 23.1446C28.9392 23.4476 28.8791 23.8262 28.8791 24.2806C28.8791 24.4104 28.8851 24.5376 28.8971 24.662C29.0454 24.4835 29.1978 24.359 29.3541 24.2887C29.5105 24.2184 29.6769 24.1832 29.8533 24.1832C30.0818 24.1832 30.2932 24.263 30.4877 24.4213C30.6821 24.5795 30.8174 24.7972 30.8936 25.0758H31.1281V25.4004H29.7089V25.0758ZM33.353 24.9541V27.4451H33.7499V27.7697H31.994V27.4451H32.469V22.6984H31.994V22.3738H33.7499V22.6984H33.353V24.5808H34.6158V22.6984H34.2309V22.3738H35.9748V22.6984H35.4997V27.4451H35.9748V27.7697H34.2309V27.4451H34.6158V24.9541H33.353ZM38.2538 22.3738V22.6984H37.7788V24.5971C37.9271 24.7864 38.1436 24.946 38.4282 25.0758C38.6647 25.184 38.8612 25.2381 39.0175 25.2381L39.252 25.23C39.2761 25.2245 39.3102 25.2218 39.3543 25.2218C39.4585 25.2218 39.5267 25.2651 39.5587 25.3517C39.5908 25.4382 39.6068 25.5626 39.6068 25.7249V27.2341C39.6068 27.4667 39.5818 27.6141 39.5317 27.6763C39.4815 27.7386 39.3904 27.7697 39.2581 27.7697H36.4198V27.4451H36.8948V22.6984H36.4198V22.3738H38.2538ZM37.7788 27.4451H38.2959C38.4242 27.4451 38.5144 27.4289 38.5665 27.3964C38.6708 27.3315 38.7229 27.2044 38.7229 27.0151V26.0982V25.9115C38.7229 25.7871 38.7088 25.7006 38.6808 25.6519C38.6527 25.6032 38.5756 25.5518 38.4503 25.4977C38.325 25.4436 38.2107 25.3814 38.1055 25.3111C37.9802 25.2245 37.872 25.1299 37.7788 25.0271V27.4451ZM41.4108 24.7593H41.6213L41.7055 24.5484L41.7957 24.2711L41.9159 23.9371C42.1485 23.3137 42.2968 22.9418 42.3609 22.8214C42.5574 22.4522 42.7879 22.2683 43.0525 22.2683C43.2409 22.2683 43.4073 22.3143 43.5516 22.4063C43.5115 22.5523 43.4714 22.6984 43.4313 22.8444C43.4193 22.8985 43.4133 22.9797 43.4133 23.0878C43.4013 23.2177 43.3952 23.3421 43.3952 23.4611H43.281L43.0946 23.3637C43.0585 23.3367 43.0154 23.3137 42.9653 23.2947C42.9152 23.2758 42.856 23.2664 42.7879 23.2664C42.5634 23.2664 42.2527 23.7938 41.8558 24.8486C42.4812 25.0379 42.9122 25.3719 43.1487 25.852C43.3491 26.2564 43.4493 26.7865 43.4493 27.4451H43.7921V27.7697H42.2407V27.4451H42.4632C42.4632 26.6959 42.405 26.159 42.2888 25.8358C42.1365 25.4152 41.8438 25.1488 41.4108 25.0352V27.4451H41.7656V27.7697H40.0518V27.4451H40.5269V22.6984H40.0518V22.3738H41.8077V22.6984H41.4108V24.7593ZM45.5119 22.5929H45.0729V22.2683H46.8469V22.5929H46.4019L47.4482 27.4451H47.8451V27.7697H46.1313V27.4451H46.5642L46.1373 25.449C46.0411 26.0427 45.8787 26.5728 45.6502 27.0421C45.3776 27.5979 45.089 27.8751 44.7843 27.8751C44.5999 27.8751 44.4516 27.8048 44.3393 27.6642C44.207 27.4965 44.1409 27.2571 44.1409 26.9434C44.1409 26.5336 44.2271 26.0711 44.3994 25.5586C44.5317 25.1691 44.7382 24.6863 45.0188 24.1075C45.1351 23.8763 45.2513 23.6437 45.3676 23.4111C45.4718 23.173 45.5239 22.958 45.5239 22.7633C45.5239 22.7254 45.5199 22.6686 45.5119 22.5929ZM44.664 26.4078C44.664 26.5755 44.6941 26.7013 44.7542 26.7879C44.8144 26.8744 44.8885 26.9177 44.9767 26.9177C45.085 26.9177 45.1732 26.8609 45.2413 26.7473C45.3696 26.5269 45.5039 26.2537 45.6442 25.9305C45.8366 25.4869 45.9449 25.1393 45.9689 24.8865L45.7104 23.4935C45.5821 23.7316 45.4538 23.9655 45.3255 24.1981C45.2173 24.4023 45.1311 24.5862 45.0669 24.7485C44.9868 24.9419 44.9026 25.207 44.8144 25.541C44.7141 25.9251 44.664 26.2131 44.664 26.4078Z" fill="#FFEC00"/>
<path fill-rule="evenodd" clip-rule="evenodd" d="M24.0022 28.8995C24.4152 28.8995 24.8057 28.972 25.1522 29.101C26.5793 29.5903 27.5971 30.5215 27.7808 31.6172C27.7697 31.5992 27.4856 31.2504 27.0533 31.2216C26.3595 31.1756 25.6773 31.265 24.9772 31.265C24.1019 31.265 23.3923 30.6206 23.3923 29.8256C23.3923 29.5604 23.4713 29.312 23.609 29.0987C22.4037 29.2363 21.4716 29.9969 21.4159 30.9285C21.4142 30.8992 21.4131 30.8697 21.4131 30.84C21.4131 29.7683 22.5723 28.8995 24.0022 28.8995Z" fill="#A1C300"/>
<path fill-rule="evenodd" clip-rule="evenodd" d="M20.5696 28.8995C20.1566 28.8995 19.7661 28.972 19.4196 29.101C17.9925 29.5903 16.9747 30.5215 16.791 31.6172C16.8021 31.5992 17.0862 31.2504 17.5185 31.2216C18.2123 31.1756 18.8944 31.265 19.5946 31.265C20.4699 31.265 21.1795 30.6206 21.1795 29.8256C21.1795 29.5604 21.1005 29.312 20.9628 29.0987C22.1681 29.2363 23.1001 29.9969 23.1559 30.9285C23.1575 30.8992 23.1587 30.8697 23.1587 30.84C23.1587 29.7683 21.9995 28.8995 20.5696 28.8995Z" fill="#A1C300"/>
<path fill-rule="evenodd" clip-rule="evenodd" d="M22.3053 22.3869C22.7272 24.2342 23.9929 25.1579 23.9929 26.0816C23.9929 27.0052 23.571 27.9289 22.3053 27.9289C21.0396 27.9289 20.6177 27.0052 20.6177 26.0816C20.6177 25.1579 21.8834 24.2342 22.3053 22.3869Z" fill="#008BD0"/>
</svg>
