<svg width="25" height="26" viewBox="0 0 25 26" fill="none" xmlns="http://www.w3.org/2000/svg">
<g clip-path="url(#clip0_154_3140)">
<path d="M12.5 2.91699C15.7861 2.91699 16.1719 2.93164 17.4707 2.99023C18.6719 3.04395 19.3213 3.24414 19.7559 3.41504C20.332 3.63965 20.7422 3.90332 21.1719 4.33301C21.6016 4.7627 21.8701 5.17285 22.0898 5.74902C22.2559 6.18359 22.4609 6.83301 22.5146 8.03418C22.5732 9.33301 22.5879 9.71875 22.5879 13.0049C22.5879 16.291 22.5732 16.6768 22.5146 17.9756C22.4609 19.1768 22.2607 19.8262 22.0898 20.2607C21.8652 20.8369 21.6016 21.2471 21.1719 21.6768C20.7422 22.1064 20.332 22.375 19.7559 22.5947C19.3213 22.7607 18.6719 22.9658 17.4707 23.0195C16.1719 23.0781 15.7861 23.0928 12.5 23.0928C9.21387 23.0928 8.82812 23.0781 7.5293 23.0195C6.32812 22.9658 5.67871 22.7656 5.24414 22.5947C4.66797 22.3701 4.25781 22.1064 3.82813 21.6768C3.39844 21.2471 3.12988 20.8369 2.91016 20.2607C2.74414 19.8262 2.53906 19.1768 2.48535 17.9756C2.42676 16.6768 2.41211 16.291 2.41211 13.0049C2.41211 9.71875 2.42676 9.33301 2.48535 8.03418C2.53906 6.83301 2.73926 6.18359 2.91016 5.74902C3.13477 5.17285 3.39844 4.7627 3.82813 4.33301C4.25781 3.90332 4.66797 3.63477 5.24414 3.41504C5.67871 3.24902 6.32812 3.04395 7.5293 2.99023C8.82812 2.92676 9.21387 2.91699 12.5 2.91699ZM12.5 0.700195C9.16016 0.700195 8.74023 0.714844 7.42676 0.773438C6.11816 0.832031 5.22461 1.04199 4.44336 1.34473C3.63281 1.65723 2.94922 2.08203 2.26563 2.76563C1.58203 3.44922 1.16211 4.1377 0.844727 4.94336C0.541992 5.72461 0.332031 6.61816 0.273438 7.93164C0.214844 9.24023 0.200195 9.66016 0.200195 13C0.200195 16.3398 0.214844 16.7598 0.273438 18.0732C0.332031 19.3818 0.541992 20.2754 0.844727 21.0615C1.15723 21.8721 1.58203 22.5557 2.26563 23.2393C2.94922 23.9229 3.6377 24.3428 4.44336 24.6602C5.22461 24.9629 6.11816 25.1729 7.43164 25.2314C8.74512 25.29 9.16016 25.3047 12.5049 25.3047C15.8496 25.3047 16.2646 25.29 17.5781 25.2314C18.8867 25.1729 19.7803 24.9629 20.5664 24.6602C21.377 24.3477 22.0605 23.9229 22.7441 23.2393C23.4277 22.5557 23.8477 21.8672 24.165 21.0615C24.4678 20.2803 24.6777 19.3867 24.7363 18.0732C24.7949 16.7598 24.8096 16.3447 24.8096 13C24.8096 9.65527 24.7949 9.24023 24.7363 7.92676C24.6777 6.61816 24.4678 5.72461 24.165 4.93848C23.8525 4.12793 23.4277 3.44434 22.7441 2.76074C22.0605 2.07715 21.3721 1.65723 20.5664 1.33984C19.7852 1.03711 18.8916 0.827148 17.5781 0.768555C16.2598 0.714844 15.8398 0.700195 12.5 0.700195Z" fill="#008BD0"/>
<path d="M12.5 6.68164C9.01367 6.68164 6.18164 9.50879 6.18164 13C6.18164 16.4912 9.01367 19.3184 12.5 19.3184C15.9863 19.3184 18.8184 16.4863 18.8184 13C18.8184 9.51367 15.9863 6.68164 12.5 6.68164ZM12.5 17.1016C10.2344 17.1016 8.39844 15.2656 8.39844 13C8.39844 10.7344 10.2344 8.89844 12.5 8.89844C14.7656 8.89844 16.6016 10.7344 16.6016 13C16.6016 15.2656 14.7656 17.1016 12.5 17.1016Z" fill="#008BD0"/>
<path d="M19.0674 7.90723C19.8818 7.90723 20.542 7.24702 20.542 6.43262C20.542 5.61821 19.8818 4.95801 19.0674 4.95801C18.253 4.95801 17.5928 5.61821 17.5928 6.43262C17.5928 7.24702 18.253 7.90723 19.0674 7.90723Z" fill="#008BD0"/>
</g>
<defs>
<clipPath id="clip0_154_3140">
<rect width="25" height="25" fill="white" transform="translate(0 0.5)"/>
</clipPath>
</defs>
</svg>
