<svg width="25" height="25" viewBox="0 0 25 25" fill="none" xmlns="http://www.w3.org/2000/svg">
<path d="M12.5 2.41699C15.7861 2.41699 16.1719 2.43164 17.4707 2.49023C18.6719 2.54395 19.3213 2.74414 19.7559 2.91504C20.332 3.13965 20.7422 3.40332 21.1719 3.83301C21.6016 4.2627 21.8701 4.67285 22.0898 5.24902C22.2559 5.68359 22.4609 6.33301 22.5146 7.53418C22.5732 8.83301 22.5879 9.21875 22.5879 12.5049C22.5879 15.791 22.5732 16.1768 22.5146 17.4756C22.4609 18.6768 22.2607 19.3262 22.0898 19.7607C21.8652 20.3369 21.6016 20.7471 21.1719 21.1768C20.7422 21.6064 20.332 21.875 19.7559 22.0947C19.3213 22.2607 18.6719 22.4658 17.4707 22.5195C16.1719 22.5781 15.7861 22.5928 12.5 22.5928C9.21387 22.5928 8.82812 22.5781 7.5293 22.5195C6.32812 22.4658 5.67871 22.2656 5.24414 22.0947C4.66797 21.8701 4.25781 21.6064 3.82813 21.1768C3.39844 20.7471 3.12988 20.3369 2.91016 19.7607C2.74414 19.3262 2.53906 18.6768 2.48535 17.4756C2.42676 16.1768 2.41211 15.791 2.41211 12.5049C2.41211 9.21875 2.42676 8.83301 2.48535 7.53418C2.53906 6.33301 2.73926 5.68359 2.91016 5.24902C3.13477 4.67285 3.39844 4.2627 3.82813 3.83301C4.25781 3.40332 4.66797 3.13477 5.24414 2.91504C5.67871 2.74902 6.32812 2.54395 7.5293 2.49023C8.82812 2.42676 9.21387 2.41699 12.5 2.41699ZM12.5 0.200195C9.16016 0.200195 8.74023 0.214844 7.42676 0.273438C6.11816 0.332031 5.22461 0.541992 4.44336 0.844727C3.63281 1.15723 2.94922 1.58203 2.26563 2.26563C1.58203 2.94922 1.16211 3.6377 0.844727 4.44336C0.541992 5.22461 0.332031 6.11816 0.273438 7.43164C0.214844 8.74023 0.200195 9.16016 0.200195 12.5C0.200195 15.8398 0.214844 16.2598 0.273438 17.5732C0.332031 18.8818 0.541992 19.7754 0.844727 20.5615C1.15723 21.3721 1.58203 22.0557 2.26563 22.7393C2.94922 23.4229 3.6377 23.8428 4.44336 24.1602C5.22461 24.4629 6.11816 24.6729 7.43164 24.7314C8.74512 24.79 9.16016 24.8047 12.5049 24.8047C15.8496 24.8047 16.2646 24.79 17.5781 24.7314C18.8867 24.6729 19.7803 24.4629 20.5664 24.1602C21.377 23.8477 22.0605 23.4229 22.7441 22.7393C23.4277 22.0557 23.8477 21.3672 24.165 20.5615C24.4678 19.7803 24.6777 18.8867 24.7363 17.5732C24.7949 16.2598 24.8096 15.8447 24.8096 12.5C24.8096 9.15527 24.7949 8.74023 24.7363 7.42676C24.6777 6.11816 24.4678 5.22461 24.165 4.43848C23.8525 3.62793 23.4277 2.94434 22.7441 2.26074C22.0605 1.57715 21.3721 1.15723 20.5664 0.839844C19.7852 0.537109 18.8916 0.327148 17.5781 0.268555C16.2598 0.214844 15.8398 0.200195 12.5 0.200195Z" fill="#006597"/>
<path d="M12.5 6.18164C9.01367 6.18164 6.18164 9.00879 6.18164 12.5C6.18164 15.9912 9.01367 18.8184 12.5 18.8184C15.9863 18.8184 18.8184 15.9863 18.8184 12.5C18.8184 9.01367 15.9863 6.18164 12.5 6.18164ZM12.5 16.6016C10.2344 16.6016 8.39844 14.7656 8.39844 12.5C8.39844 10.2344 10.2344 8.39844 12.5 8.39844C14.7656 8.39844 16.6016 10.2344 16.6016 12.5C16.6016 14.7656 14.7656 16.6016 12.5 16.6016Z" fill="#006597"/>
<path d="M19.0674 7.40723C19.8818 7.40723 20.542 6.74702 20.542 5.93262C20.542 5.11821 19.8818 4.45801 19.0674 4.45801C18.253 4.45801 17.5928 5.11821 17.5928 5.93262C17.5928 6.74702 18.253 7.40723 19.0674 7.40723Z" fill="#006597"/>
</svg>
