<svg width="255" height="59" viewBox="0 0 255 59" fill="none" xmlns="http://www.w3.org/2000/svg">
<path fill-rule="evenodd" clip-rule="evenodd" d="M2.55933 12.4966C2.05703 12.6381 1.51443 12.6079 1.17116 12.1447C0.889586 11.7649 0.912866 11.1032 0.912866 10.6471C0.912866 7.24058 2.05825 4.26848 5.00303 2.41095C6.94355 1.18691 9.14087 0.689737 11.4184 0.689737C14.0383 0.689737 16.4103 1.46784 18.377 3.21826C20.4175 5.03424 21.2667 7.44908 21.2667 10.1545C21.2667 12.6438 20.5448 14.9289 18.7057 16.6551C17.9217 17.3912 16.8631 17.9817 15.8296 18.4525C16.0588 18.5506 16.289 18.6465 16.5197 18.7409C17.7838 19.2578 19.0559 19.9736 19.9713 21.008C21.5497 22.7916 22.0701 25.1162 22.0701 27.4461C22.0701 30.0208 21.4844 32.5404 19.832 34.5693C18.39 36.3396 16.5332 37.4035 14.2297 37.4035C13.4871 37.4035 12.7537 37.2852 12.0426 37.0737C10.9016 36.7781 9.77685 36.4176 8.68089 35.9826C8.31258 35.8364 7.93927 35.6921 7.56317 35.5674C7.44294 35.5276 7.25253 35.461 7.11556 35.4373C7.05553 35.4824 6.97227 35.6165 6.94358 35.6676C6.69915 36.1023 6.66309 36.9124 6.66309 37.3975C6.66309 37.6659 6.69173 37.9416 6.72755 38.2074C6.76486 38.4841 6.809 38.7935 6.809 39.0724C6.809 39.8656 6.43848 40.6549 5.54035 40.6549H4.59947L4.46749 40.6153C4.28441 40.5604 4.09509 40.5238 3.90571 40.4994C3.76575 40.4815 3.60036 40.4578 3.45924 40.4578C3.27583 40.4578 3.10633 40.5492 2.96289 40.6566C2.68396 40.8653 2.35921 41.0568 2.00516 41.0867L1.95124 41.0914L1.89699 41.0897C1.12887 41.0661 0.645556 40.4846 0.366798 39.8263C0.029669 39.03 0 37.8027 0 36.946C0 35.297 0.277965 33.5803 1.19383 32.1772C1.96228 30.9997 3.04372 30.1497 4.49372 30.1497C5.33232 30.1497 6.23475 30.4996 6.98115 30.858C7.83815 31.2696 8.70132 31.6682 9.57092 32.0526C10.1142 32.2929 10.8114 32.6044 11.3916 32.734C11.6737 32.797 11.9984 32.8592 12.2885 32.8592C13.1267 32.8592 13.4815 32.0573 13.6959 31.3572C14.0614 30.1643 14.1291 28.6863 14.1291 27.4462C14.1291 27.1342 14.1291 26.8222 14.1291 26.5102C14.1291 26.1653 14.1291 25.8205 14.1291 25.4757C14.1291 25.313 14.1276 25.1348 14.1029 24.9737L14.0962 24.9337L14.0944 24.8934C14.0316 23.8754 13.8043 22.6781 13.0959 21.8974C12.5323 21.2762 11.8525 20.9986 11.0167 20.9986H7.07135L6.94763 16.405H7.91345C9.0177 16.405 11.512 16.3236 12.36 15.4739C13.1892 14.6432 13.2894 12.6218 13.2894 11.534V10.0067C13.2894 8.78523 13.2352 7.22911 12.86 6.05805C12.586 5.20366 12.1594 4.5445 11.1992 4.5445C10.5747 4.5445 10.0515 4.72493 9.62047 5.1839C8.81704 6.03974 8.67101 7.56362 8.67101 8.67664C8.67101 9.00051 8.67603 9.331 8.70388 9.6538C8.72561 9.90263 8.7491 10.1514 8.77546 10.3998L8.78032 10.4495V10.4994C8.78032 11.3486 8.2347 11.9833 7.3656 11.9833H6.74504C6.14872 11.9833 5.53451 11.9923 4.94101 12.0525C4.1709 12.1304 3.318 12.3292 2.55917 12.4966L2.55933 12.4966ZM43.8705 31.8286C44.267 31.6056 44.7308 31.5291 45.1895 31.5291C45.8651 31.5291 46.4107 31.8847 46.7489 32.4626C47.0323 32.9469 47.1519 33.4894 47.1519 34.0475C47.1519 34.3115 47.133 34.5834 47.0697 34.8403C46.9455 35.3434 46.7846 35.8573 46.6399 36.3554C46.3344 37.4061 46.1239 38.523 45.9379 39.6014C45.8641 40.2356 45.7899 40.87 45.7115 41.5037C45.6795 41.7628 45.653 42.0932 45.5928 42.3456C45.3619 43.3148 44.817 44.3005 43.6927 44.3005C42.8985 44.3005 42.2868 43.8546 42.0218 43.1072C41.8293 42.564 41.7435 41.9538 41.6979 41.3804C41.5236 39.8723 41.0772 37.5377 39.7504 36.5874C39.0098 36.0568 37.63 35.9748 36.7559 35.9748H33.178C32.1275 35.9748 29.7783 36.0432 28.9165 36.7479C28.0772 37.4342 27.6413 39.3703 27.458 40.3749L27.4548 40.3927L27.4514 40.4103C27.3055 41.067 27.1751 41.727 27.058 42.3894L27.0464 42.4532L27.0265 42.5147C26.7422 43.3972 26.1847 44.3005 25.146 44.3005C24.2305 44.3005 23.6932 43.6038 23.4448 42.7993C23.2901 42.2982 23.2351 41.5781 23.1875 41.0544C23.1074 40.172 22.9804 39.2911 22.832 38.4179C22.6862 37.5612 22.4912 36.7016 22.2114 35.8783L22.2016 35.8495L22.1931 35.8203C22.1096 35.5104 22.0256 35.2006 21.9397 34.8914C21.8454 34.5519 21.7956 34.2029 21.7956 33.8505C21.7956 33.1356 22.0279 32.4629 22.6199 32.0302C23.0528 31.7137 23.5483 31.5291 24.0866 31.5291C24.3803 31.5291 24.6828 31.5848 24.9674 31.6546C25.0516 31.6753 25.1824 31.708 25.2879 31.7207C25.3537 31.6038 25.4118 31.3771 25.4313 31.2864L25.4347 31.2729L25.438 31.2594C25.4909 31.0449 25.5188 30.786 25.5466 30.5664C25.6093 30.0726 25.6594 29.576 25.7068 29.0805C26.002 25.9934 26.666 22.9421 27.5688 19.9785C28.3159 17.5262 29.2398 15.1236 30.2732 12.7789C30.7185 11.7689 31.1755 10.7151 31.5174 9.66511C31.8582 8.6184 32.1281 7.46757 32.1281 6.3611C32.1281 6.11319 32.0994 5.61201 31.8991 5.42564C31.6814 5.2231 31.3049 5.18475 31.0237 5.18475H28.1852V1.3301H41.5293V5.18475H39.6351C39.7303 6.30056 39.8477 7.41579 39.9719 8.52759C40.1975 10.5474 40.4517 12.5646 40.7178 14.5794C41.2563 18.6544 41.8722 22.7304 42.6443 26.7679C42.8973 28.0912 43.1687 29.4425 43.5282 30.7412C43.5855 30.9487 43.7243 31.4397 43.8703 31.8285L43.8705 31.8286ZM57.7488 4.0568e-05C58.464 4.0568e-05 58.9861 0.550095 59.3625 1.097L59.3805 1.12325L59.3972 1.15063C59.5716 1.44513 59.7605 1.73117 59.9643 2.00621L59.9709 2.0142L59.9759 2.02235C60.3459 2.5442 60.7246 3.0869 61.1265 3.58422C61.8006 4.41798 62.5172 5.23678 63.2114 6.05457C64.8355 7.96772 66.4148 10.2303 67.2199 12.6295C67.8408 14.4796 68.0721 16.4606 68.0721 18.4063C68.0721 20.5375 67.7901 22.6829 67.0674 24.6945C66.4326 26.461 65.4303 28.1276 64.333 29.6418C63.1304 31.3014 61.8876 32.9308 60.653 34.5665C60.1889 35.1816 59.6822 35.8297 59.1306 36.3687C58.7127 36.777 58.181 37.2065 57.5666 37.2065C56.9174 37.2065 56.3467 36.7848 55.8965 36.3561C55.5545 36.0303 55.2265 35.6759 54.9077 35.3278C54.3647 34.7355 53.8351 34.13 53.3122 33.5203C52.4093 32.4675 51.5173 31.3954 50.6785 30.2904C50.1273 29.5643 49.5588 28.7846 49.115 27.9869C47.5968 25.2576 46.9515 22.2572 46.9515 19.1452C46.9515 15.5918 47.8602 12.2403 49.5477 9.12244C50.7262 6.94496 52.3219 4.93251 53.9899 3.1129L53.9984 3.10325L54.0082 3.09379C54.2853 2.80789 54.5716 2.51684 54.834 2.21732C55.027 1.99689 55.2065 1.74581 55.3755 1.50653C55.6342 1.13994 55.9328 0.787907 56.2824 0.504909C56.7039 0.163603 57.2085 0 57.7494 0L57.7488 4.0568e-05ZM79.1341 22.7713V32.1202H82.0185V35.9748H68.9663V32.1202H71.8526L71.8871 15.9183V5.42515C71.8871 3.30409 73.5276 2.11016 75.3711 1.47923C77.2123 0.849143 79.3267 0.689737 81.2608 0.689737C84.0742 0.689737 86.5752 1.58705 88.4623 3.71566C90.27 5.75472 90.9632 8.30018 90.9632 10.992C90.9632 13.4401 90.4949 15.8935 89.1591 17.979C88.0075 19.777 86.3873 20.9986 84.2 20.9986C83.3689 20.9986 82.5861 20.7976 81.8689 20.3768L81.8232 20.35L81.7806 20.3182C81.4921 20.1018 81.2034 19.8854 80.9149 19.6691L79.1341 22.7713ZM111.754 32.1202L111.719 12.4223C111.714 9.7398 111.885 5.2261 113.737 3.08402C115.574 0.959713 119.445 0.689737 122.042 0.689737C124.441 0.689737 126.523 1.517 128.115 3.33383C129.571 4.99508 130.211 6.99288 130.211 9.19384C130.211 11.5187 129.483 13.6059 127.749 15.1866C126.731 16.1147 125.478 16.877 124.068 16.9086C123.883 16.9413 123.696 16.9645 123.508 16.9803C123.35 16.9936 123.186 17.0082 123.028 17.0082C122.421 17.0082 121.853 16.7918 121.343 16.4781L120.617 16.9847C121.273 17.5982 121.988 18.1574 122.761 18.5966C123.121 18.8012 123.532 18.9584 123.924 19.0878C124.462 19.2652 125.001 19.4394 125.546 19.5931C125.968 19.7121 126.391 19.8307 126.811 19.9569C127.02 20.0197 127.291 20.0943 127.491 20.1945C128.606 20.7123 129.497 21.5193 129.904 22.7058C130.163 23.4597 130.211 24.3879 130.211 25.18V32.5203C130.211 33.5924 129.698 34.4719 128.882 35.1444C128.134 35.7617 127.254 36.1719 126.271 36.1719L108.871 35.9636V32.1202H111.754ZM140.104 18.2305C140.178 18.8424 140.252 19.4542 140.33 20.0655C140.375 20.416 140.416 20.7748 140.475 21.1231C140.586 21.782 140.769 22.4751 140.92 23.1277C141.221 24.4239 141.487 25.7362 141.683 27.0527C141.871 28.3202 141.93 29.6224 141.93 30.9028C141.93 31.3595 141.93 31.8612 141.867 32.3136C141.846 32.4595 141.819 32.6076 141.786 32.7561C141.84 32.7594 141.892 32.7606 141.939 32.7606C143.627 32.7606 144.934 32.1298 145.923 30.7545C146.573 29.851 146.987 28.7527 147.253 27.6492H145.709V23.7945H156.68V27.5642L155.101 27.6254C154.094 29.9215 152.707 31.9986 150.851 33.7068C149.043 35.3703 146.876 36.6153 144.361 36.6153C143.319 36.6153 142.276 36.5338 141.244 36.3838C140.275 36.2427 139.299 36.022 138.384 35.6638L137.787 35.4296V34.7865C137.787 34.3923 137.787 33.9982 137.787 33.6041C137.787 32.5672 137.6 31.5686 137.228 30.6005C136.867 29.6577 136.33 28.7068 135.806 27.8461C135.109 26.6989 134.425 25.5332 133.804 24.3423C133.369 23.5091 132.937 22.6222 132.634 21.7311C132.084 20.1126 131.909 18.3346 131.909 16.6327C131.909 12.1004 132.85 7.33605 136.208 4.05298C138.559 1.7541 141.448 0.689737 144.714 0.689737C146.717 0.689737 148.631 1.13666 150.37 2.1469C152.681 3.48907 154.153 5.55757 155.004 8.03006H156.899V11.8847H146.439V8.03006H147.325C147.143 7.32632 146.878 6.63488 146.487 6.04459C145.853 5.0877 145.034 4.54438 143.874 4.54438C142.266 4.54438 141.41 5.9516 140.879 7.29854C140.078 9.32916 139.849 11.682 139.849 13.8493C139.849 13.9027 139.849 13.9561 139.849 14.0095C140.329 13.624 140.848 13.2907 141.408 13.0391C142.49 12.5523 143.637 12.316 144.823 12.316C146.495 12.316 147.979 12.9233 149.268 13.9719C150.497 14.972 151.321 16.2662 151.832 17.7351H153.503V21.5897H143.007V17.7351H143.924C143.825 17.539 143.708 17.3555 143.569 17.1961C143.482 17.0972 143.175 16.7766 143.034 16.7618C142.427 16.7618 141.847 16.9463 141.311 17.2234C140.828 17.4735 140.427 17.8067 140.104 18.2305L140.104 18.2305ZM167.012 18.8802V32.1202H169.422V35.9748H156.881V32.1202H159.765V5.18483H156.881V1.33014H169.422V5.18483H167.012V14.73H172.799V5.18483H170.462V1.33014H182.931V5.18483H180.046V32.1202H182.931V35.9748H170.462V32.1202H172.799V18.8802H167.012ZM193.883 5.18483V15.4325C194.792 16.4827 196.027 17.2495 197.276 17.8199C198.193 18.2387 199.424 18.7157 200.449 18.7203L201.779 18.6743C202.018 18.6314 202.27 18.6218 202.509 18.6218C203.488 18.6218 204.284 19.0876 204.631 20.0243C204.924 20.8134 204.982 21.7828 204.982 22.6183V31.7813C204.982 32.7373 204.944 34.2797 204.317 35.0579C203.736 35.7788 202.804 35.9748 201.925 35.9748H183.752V32.1202H186.636V5.18483H183.752V1.33014H196.768V5.18483H193.883ZM218.926 16.7124C222.126 17.8626 224.828 19.814 226.389 22.9721C227.757 25.7407 228.225 29.0222 228.3 32.1202H230.393V35.9748H219.093V32.1202H220.439C220.422 30.5155 220.357 28.8974 220.185 27.3082C220.055 26.1025 219.854 24.7564 219.441 23.6121C218.77 21.753 217.612 20.4813 215.935 19.7476V32.1202H218.089V35.9748H205.804V32.1202H208.688V5.18483H205.804V1.33014H218.344V5.18483H215.935V15.0447L216.442 13.4858L217.181 11.434C217.749 9.91247 218.321 8.39017 218.923 6.88191C219.225 6.12431 219.551 5.26571 219.934 4.54665C220.973 2.59501 222.568 0.689737 224.962 0.689737C226.225 0.689737 227.425 0.991809 228.497 1.67432L229.083 2.04791L228.899 2.71911C228.657 3.59776 228.416 4.47636 228.175 5.35501C228.095 5.73254 228.093 6.22613 228.093 6.60747V6.65108L228.089 6.69453C228.021 7.41866 227.983 8.14623 227.983 8.87359V9.81566H226.119L224.715 9.08248L224.654 9.03664C224.488 8.91211 224.294 8.81825 224.101 8.74515C223.87 8.65792 223.6 8.63333 223.36 8.63315C223.219 8.6491 222.915 8.93988 222.824 9.03526C222.377 9.50237 221.985 10.1276 221.662 10.6851C221.126 11.6101 220.659 12.5912 220.225 13.5674C219.764 14.6027 219.335 15.6545 218.926 16.7124ZM239.026 4.54442H236.289V0.689737H248.939V4.54442H246.463L252.409 32.1202H255V35.9748H242.715V32.1202H245.12L243.685 25.4084C243.151 27.3399 242.46 29.2259 241.578 31.0298C240.436 33.3674 238.443 36.6153 235.477 36.6153C234.087 36.6153 232.906 36.0718 232.039 34.9785C230.937 33.5886 230.63 31.7461 230.63 30.0161C230.63 27.0727 231.312 24.0825 232.249 21.3063C233.275 18.269 234.648 15.2591 236.057 12.3831C236.748 10.9725 237.464 9.57463 238.167 8.16966C238.645 7.07303 239.027 5.84316 239.027 4.63688C239.027 4.60625 239.027 4.57541 239.025 4.54442H239.026ZM36.4139 32.1202L35.9449 29.7562C35.4232 27.2417 34.9478 24.7176 34.515 22.1862C34.1047 19.7872 33.7387 17.3803 33.4251 14.978C32.3905 17.2324 31.592 19.6307 30.9443 21.9822C30.5256 23.5025 30.1454 25.0477 29.8705 26.6012C29.6741 27.7118 29.5179 28.8782 29.5179 30.0079C29.5179 30.3698 29.5577 31.5134 29.8462 31.7883C30.1538 32.0814 31.108 32.1202 31.4985 32.1202H36.4139ZM56.1062 10.7441C55.6369 10.0293 55.1665 9.22173 54.8403 8.39079C54.147 8.74792 53.6347 9.37135 53.2366 10.0765C52.5403 11.3098 52.1903 12.6293 52.1903 14.0463C52.1903 15.5758 52.7645 17.1506 53.4411 18.5007C54.4555 20.525 55.8609 22.5126 57.2212 24.3166C57.6949 24.945 58.1643 25.5798 58.6117 26.2275C58.919 26.6725 59.2297 27.1364 59.4875 27.6122C59.6729 27.9541 59.8253 28.3077 59.9453 28.6714C60.4767 28.2102 60.9409 27.6671 61.3456 27.097C62.0756 26.0693 62.5391 24.9369 62.6938 23.6848V23.6734L62.6954 23.6621C62.7264 23.4539 62.7583 23.2232 62.7583 23.0124C62.7583 22.8016 62.7264 22.5708 62.6954 22.3626L62.6938 22.3513V22.3399C62.4968 20.7455 61.4489 18.8562 60.6098 17.5131C59.8181 16.3207 59.0263 15.1276 58.2445 13.9287C57.7327 13.1753 57.2209 12.4217 56.7131 11.6657C56.5195 11.3773 56.2791 11.0481 56.1062 10.7441ZM79.1341 16.2362L80.2778 14.2774L81.1346 15.3194C81.2134 15.4153 81.5319 15.7645 81.6747 15.7645C82.1158 15.7645 82.3621 15.1274 82.4794 14.7933C82.8959 13.6048 82.9859 12.1437 82.9859 10.8934C82.9859 9.46453 82.9504 7.47159 82.5234 6.09964C82.2904 5.35053 81.911 4.54442 81.0235 4.54442C79.9097 4.54442 79.5596 6.18707 79.4117 7.01903C79.2795 7.76277 79.2407 8.59286 79.207 9.34702C79.1465 10.6972 79.1341 12.0545 79.1341 13.4059V16.2362ZM119.002 32.1202H122.358C122.462 32.1202 122.694 32.1202 122.757 32.0079C122.945 31.6715 122.964 30.2982 122.964 29.9093V24.6381C122.964 24.3673 122.95 23.7852 122.834 23.5366C122.712 23.2919 122.065 22.8023 121.845 22.6436C121.01 22.0405 120.085 21.3957 119.314 20.7132C119.208 20.6193 119.104 20.5233 119.002 20.4252V32.1202ZM119.002 13.8671L120.353 12.5363L121.005 13.0701C121.027 13.0877 121.046 13.1043 121.074 13.1043C121.282 13.1043 121.482 13.0475 121.668 12.9555C121.751 12.9143 121.906 12.8371 121.989 12.7718C122.211 12.4422 122.478 12.0737 122.675 11.7336C122.956 10.8483 122.964 9.29903 122.964 8.4056C122.964 7.48089 122.875 6.0895 122.34 5.29574C122.041 4.85241 121.68 4.54442 121.129 4.54442C120.054 4.54442 119.631 6.2043 119.455 7.00698C119.275 7.82886 119.183 8.69738 119.121 9.5357C119.03 10.7556 119.002 11.9859 119.002 13.2088C119.002 13.4283 119.002 13.6477 119.002 13.8671ZM193.883 32.1202H196.083C196.328 32.1202 197.015 32.1002 197.23 31.9665C197.68 31.6863 197.735 30.9182 197.735 30.4512V23.7513C197.735 23.5296 197.718 22.8648 197.61 22.6551C197.462 22.4728 196.853 22.1927 196.648 22.104C195.864 21.7654 195.106 21.3663 194.398 20.8851C194.223 20.7659 194.052 20.6423 193.883 20.5144V32.1202ZM241.72 17.5662L240.657 11.8427C240.3 12.4936 239.942 13.1446 239.589 13.7977C239.018 14.8517 238.514 15.9344 238.063 17.045C237.452 18.5509 236.981 20.1705 236.568 21.7412C236.31 22.7245 236.073 23.7227 235.9 24.7249C235.785 25.3861 235.686 26.0924 235.686 26.7646C235.686 27.3071 235.745 28.0718 236.066 28.5336C236.209 28.7399 236.38 28.918 236.645 28.918C237.028 28.918 237.258 28.6586 237.441 28.3472C238.35 26.8027 239.122 25.1335 239.835 23.4906C240.583 21.7686 241.508 19.4669 241.72 17.5662Z" fill="#003D76"/>
<path fill-rule="evenodd" clip-rule="evenodd" d="M7.98652 20.0565L7.91364 17.3471C10.518 17.3471 12.2217 16.9448 13.025 16.1401C13.8283 15.3355 14.2299 13.8 14.2299 11.5339V10.0067C14.2299 8.16753 14.0714 6.75529 13.755 5.77001C13.2927 4.32491 12.4407 3.60242 11.1994 3.60242C10.2745 3.60242 9.52003 3.91439 8.93598 4.53841C8.13271 5.39227 7.73097 6.77169 7.73097 8.67658C7.73097 9.10353 7.7427 9.4566 7.76757 9.73573C7.79195 10.0149 7.81623 10.2695 7.84061 10.4994C7.84061 10.8606 7.68252 11.0412 7.36612 11.0412H6.74539C5.9665 11.0412 5.33366 11.0659 4.84679 11.1151C4.36008 11.1644 3.52026 11.3204 2.32762 11.5831C2.10856 11.6488 1.97476 11.6488 1.92601 11.5831C1.87742 11.5174 1.85313 11.2055 1.85313 10.6471C1.85313 7.23151 3.07009 4.7519 5.50395 3.20827C7.18346 2.15733 9.15499 1.63183 11.4185 1.63183C13.9255 1.63183 16.0371 2.39542 17.7529 3.92263C19.4689 5.44981 20.3268 7.52711 20.3268 10.1545C20.3268 12.6177 19.5724 14.5554 18.0633 15.9677C17.3332 16.6574 16.1526 17.3306 14.5218 17.9875L14.1933 18.1352V18.9728C14.6558 19.0384 15.0391 19.137 15.3434 19.2684C15.6475 19.3997 15.9215 19.5146 16.1647 19.6132C17.5278 20.1715 18.5623 20.8448 19.268 21.633C20.5094 23.0452 21.13 24.983 21.13 27.4461C21.13 30.1392 20.4547 32.3151 19.1037 33.9736C17.7528 35.6322 16.1283 36.4615 14.2299 36.4615C13.5969 36.4615 12.952 36.363 12.2948 36.1659C11.1508 35.8703 10.0616 35.5173 9.02715 35.1067C7.99272 34.6962 7.35384 34.4909 7.11057 34.4909C6.72104 34.4909 6.39232 34.729 6.12467 35.2053C5.85702 35.6815 5.72306 36.4122 5.72306 37.3975C5.72306 37.6602 5.74734 37.9722 5.79609 38.3335C5.84468 38.6948 5.86913 38.9411 5.86913 39.0725C5.86913 39.4994 5.75961 39.7129 5.54055 39.7129H4.73732C4.51826 39.6472 4.28096 39.598 4.02542 39.5651C3.76971 39.5322 3.58115 39.5158 3.45943 39.5158C3.09445 39.5158 2.74144 39.6472 2.40066 39.9017C2.18177 40.066 2.02335 40.1398 1.92601 40.1481C1.65836 40.1398 1.42709 39.9182 1.23241 39.4584C1.03773 38.9986 0.94043 38.1611 0.94043 36.9459C0.94043 35.1724 1.28708 33.7602 1.98091 32.6928C2.68054 31.6254 3.5142 31.0917 4.49392 31.0917C5.02938 31.0917 5.72301 31.297 6.57487 31.7075C7.43287 32.118 8.30318 32.5203 9.19153 32.9145C10.086 33.3086 10.7492 33.5549 11.1875 33.6534C11.6315 33.752 11.9966 33.8012 12.2887 33.8012C13.384 33.8012 14.1568 33.0787 14.5949 31.6336C14.9113 30.6155 15.0694 29.2197 15.0694 27.4461C15.0694 27.1506 15.0694 26.8386 15.0694 26.5101C15.0694 26.1817 15.0694 25.8368 15.0694 25.4756C15.0694 25.2128 15.0578 24.9994 15.0329 24.8352C14.9356 23.2587 14.5218 22.0682 13.7916 21.2635C13.0613 20.4589 12.1366 20.0565 11.0169 20.0565H7.98652ZM40.5896 2.27224V4.24279H38.6181C38.7884 6.60747 39.178 10.097 39.7864 14.7032C40.395 19.3094 41.0399 23.3901 41.7214 26.9453C42.5003 31.026 43.133 33.0622 43.6199 33.0622C43.7658 33.0622 43.9485 32.9637 44.1675 32.7667C44.3866 32.5696 44.7274 32.4711 45.1897 32.4711C45.5061 32.4711 45.7556 32.6271 45.9382 32.9391C46.1208 33.2511 46.2121 33.6206 46.2121 34.0475C46.2121 34.2775 46.1938 34.4663 46.1573 34.6141C46.1208 34.7619 45.9807 35.2545 45.7374 36.092C45.494 36.9295 45.2507 38.0543 45.0072 39.4665C44.8125 41.1415 44.703 42.0283 44.6786 42.1269C44.484 42.9479 44.1552 43.3584 43.6929 43.3584C43.3034 43.3584 43.0416 43.1696 42.9078 42.7919C42.774 42.4142 42.6829 41.9134 42.6341 41.2894C42.3177 38.5305 41.5388 36.7078 40.2976 35.821C39.5673 35.2955 38.3867 35.0328 36.7561 35.0328H33.1782C30.7442 35.0328 29.1255 35.3613 28.3224 36.0181C27.5191 36.6749 26.9229 38.0708 26.5335 40.2056C26.3875 40.8624 26.2535 41.5357 26.1318 42.2254C25.8883 42.9808 25.5599 43.3584 25.146 43.3584C24.781 43.3584 24.5133 43.0792 24.343 42.5209C24.27 42.291 24.1968 41.7738 24.1239 40.9691C24.0509 40.1645 23.9291 39.2613 23.7587 38.2596C23.5884 37.2579 23.3693 36.3629 23.1015 35.5747C23.0042 35.2134 22.9189 34.9014 22.846 34.6387C22.773 34.376 22.7365 34.1132 22.7365 33.8505C22.7365 33.3579 22.8824 33.0048 23.1745 32.7913C23.4666 32.5778 23.771 32.4711 24.0874 32.4711C24.2577 32.4711 24.4768 32.504 24.7446 32.5696C25.0122 32.6353 25.219 32.6682 25.365 32.6682C25.8518 32.6682 26.1804 32.274 26.3509 31.4858C26.4238 31.1902 26.5213 30.4184 26.6429 29.1704C26.9107 26.3459 27.5192 23.3737 28.4684 20.2536C29.15 18.0203 30.0382 15.6556 31.1335 13.1596C31.7177 11.8459 32.1437 10.7785 32.4114 9.95744C32.8495 8.61087 33.0685 7.41214 33.0685 6.36121C33.0685 5.60583 32.8922 5.06389 32.5393 4.73545C32.1863 4.40705 31.6812 4.24279 31.024 4.24279H29.1256V2.27224H40.5896ZM31.4987 33.0622H37.5592L36.8656 29.5645C36.3545 27.1013 35.8799 24.5888 35.4418 22.0271C35.0037 19.4654 34.6264 16.9529 34.31 14.4897L33.9448 11.928C32.4114 14.5554 31.1094 17.8232 30.0383 21.7316C29.0647 25.2457 28.5779 28.0045 28.5779 30.0079C28.5779 31.2559 28.7847 32.077 29.1986 32.4711C29.6124 32.8652 30.3792 33.0622 31.4987 33.0622ZM57.749 0.942139C57.9924 0.942139 58.2722 1.17204 58.5886 1.63183C58.7835 1.96025 58.9903 2.27225 59.2093 2.56786C59.7448 3.32325 60.1402 3.8569 60.3959 4.17715C60.6514 4.48916 61.3511 5.31843 62.4951 6.66494C64.4179 8.93108 65.6958 11.0248 66.3286 12.9297C66.8641 14.5062 67.1319 16.3371 67.1319 18.4062C67.1319 20.6067 66.8155 22.6019 66.1826 24.3754C65.6473 25.8533 64.777 27.4215 63.5722 29.0883C62.3673 30.7468 61.1443 32.3808 59.9029 33.9983C58.7834 35.509 58.0046 36.2644 57.5664 36.2644C57.2986 36.2644 56.958 36.0674 56.5441 35.6733C56.1304 35.2791 55.2905 34.3596 54.0249 32.9062C51.9317 30.4431 50.5689 28.6531 49.9361 27.5282C48.573 25.0651 47.8916 22.2734 47.8916 19.1452C47.8916 15.8281 48.719 12.6341 50.3741 9.57155C51.3719 7.73234 52.8079 5.79465 54.6821 3.75017C55.0958 3.32324 55.382 3.01941 55.5402 2.83877C55.6984 2.65813 55.8992 2.39542 56.1427 2.05058C56.3859 1.70575 56.6294 1.43474 56.8729 1.23772C57.1161 1.04064 57.4082 0.942139 57.749 0.942139ZM55.4489 7.19865C54.2075 7.42856 53.1975 8.23321 52.4186 9.61261C51.6397 10.992 51.2502 12.4699 51.2502 14.0464C51.2502 15.4915 51.7005 17.1171 52.6012 18.9235C53.4286 20.5656 54.7186 22.5526 56.4711 24.8844C57.5664 26.3295 58.2965 27.3887 58.6617 28.0619C59.0266 28.7352 59.2459 29.466 59.319 30.2542C60.3411 29.6959 61.2721 28.8255 62.1118 27.6432C62.9516 26.4608 63.4566 25.18 63.627 23.8006C63.6757 23.4722 63.7 23.2094 63.7 23.0124C63.7 22.8153 63.6757 22.5526 63.627 22.2242C63.4566 20.8448 62.7143 19.1041 61.3999 17.0022C60.3534 15.4257 59.5621 14.227 59.0267 13.406C57.6881 11.4354 56.9823 10.3844 56.9093 10.253C56.1304 9.07071 55.6436 8.05256 55.4489 7.19865ZM78.1941 22.5198V33.0622H81.0786V35.0328H69.9066V33.0622H72.7908L72.8274 15.9184V5.42518C72.8274 4.04579 73.7767 3.02767 75.6751 2.37078C77.1356 1.87815 78.9974 1.63183 81.261 1.63183C83.987 1.63183 86.1533 2.53504 87.7597 4.34137C89.2689 6.04919 90.0231 8.26606 90.0231 10.992C90.0231 13.5865 89.4695 15.7459 88.3683 17.4702C87.2607 19.1944 85.8734 20.0565 84.2002 20.0565C83.5186 20.0565 82.904 19.8923 82.3442 19.5639C81.9061 19.2355 81.5773 18.9892 81.3583 18.825L80.5978 18.3323L78.1941 22.5198ZM78.1941 19.7117L80.4091 15.9184C80.8411 16.4438 81.2671 16.7066 81.6749 16.7066C82.4292 16.7066 82.9891 16.1729 83.3664 15.1055C83.7377 14.0381 83.9262 12.6341 83.9262 10.8935C83.9262 8.5945 83.7559 6.90308 83.4213 5.81926C82.9588 4.34134 82.1616 3.60242 81.0237 3.60242C79.7155 3.60242 78.8698 4.68618 78.4864 6.85382C78.2917 7.93761 78.1941 10.1217 78.1941 13.406V19.7117ZM112.696 33.0622L112.659 12.4207C112.659 7.9869 113.255 5.08026 114.448 3.70088C115.641 2.32148 118.172 1.63183 122.042 1.63183C124.257 1.63183 126.046 2.40367 127.409 3.95545C128.65 5.37592 129.271 7.11655 129.271 9.19387C129.271 11.4025 128.553 13.1678 127.117 14.4897C126.022 15.475 124.975 15.9677 123.977 15.9677C123.807 16.0005 123.624 16.0251 123.429 16.0416C123.235 16.058 123.101 16.0662 123.028 16.0662C122.517 16.0662 121.957 15.8199 121.348 15.3272L119.158 16.8544C120.204 17.9711 121.251 18.825 122.297 19.4161C122.638 19.6132 123.083 19.802 123.63 19.9826C124.178 20.1633 124.732 20.3357 125.291 20.4999C126.362 20.7955 126.959 20.9762 127.08 21.0418C128.078 21.5016 128.723 22.1585 129.015 23.0124C129.186 23.5051 129.271 24.2276 129.271 25.18V30.9439V32.5203C129.271 33.2429 128.942 33.8751 128.285 34.417C127.628 34.9589 126.952 35.2299 126.271 35.2299L109.811 35.0328V33.0622H112.696ZM118.062 33.0622H122.358C122.949 33.0622 123.35 32.8652 123.575 32.4711C123.794 32.077 123.904 31.2231 123.904 29.9094V24.6381C123.904 23.9484 123.831 23.4476 123.685 23.1356C123.539 22.8236 123.107 22.4048 122.395 21.8793C121.196 21.0254 120.375 20.4014 119.937 20.0073C119.225 19.3833 118.604 18.6279 118.062 17.7411V33.0622ZM118.062 16.1154L120.411 13.8C120.612 13.9642 120.831 14.0464 121.075 14.0464C121.415 14.0464 121.756 13.9642 122.085 13.8C122.419 13.6358 122.632 13.488 122.73 13.3567C123.216 12.6259 123.49 12.2154 123.539 12.1168C123.782 11.4189 123.904 10.1874 123.904 8.40563C123.904 6.7553 123.642 5.54008 123.119 4.76827C122.596 3.98825 121.933 3.60242 121.129 3.60242C119.864 3.60242 119 4.66982 118.537 6.80457C118.221 8.21681 118.062 10.3515 118.062 13.2089C118.062 13.7343 118.062 14.2352 118.062 14.7114C118.062 15.1876 118.062 15.6556 118.062 16.1154ZM143.948 18.6772H145.226C145.031 17.774 144.714 17.0761 144.276 16.5752C143.838 16.0744 143.424 15.8198 143.035 15.8198C142.329 15.8198 141.611 16.0087 140.881 16.3864C140.151 16.7641 139.567 17.2978 139.128 17.9875C139.347 19.8185 139.487 20.9187 139.548 21.28C139.609 21.6412 139.761 22.3227 140.005 23.3408C140.345 24.8434 140.595 26.1324 140.753 27.1916C140.911 28.259 140.99 29.4988 140.99 30.9028C140.99 31.494 140.972 31.9209 140.936 32.1837C140.899 32.4465 140.808 32.8323 140.662 33.3578C140.978 33.5877 141.404 33.7027 141.94 33.7027C143.96 33.7027 145.542 32.9062 146.686 31.3052C147.513 30.1639 148.085 28.6285 148.402 26.7072H146.649V24.7366H155.74V26.6579L154.468 26.7072C153.428 29.2689 152.01 31.3708 150.215 33.013C148.298 34.7865 146.351 35.6733 144.362 35.6733C143.394 35.6733 142.396 35.5994 141.38 35.4516C140.364 35.3038 139.481 35.0821 138.727 34.7865C138.727 34.261 138.727 33.8669 138.727 33.6041C138.727 32.4547 138.52 31.3462 138.106 30.2624C137.814 29.507 137.315 28.5382 136.609 27.3559C135.003 24.7366 133.974 22.7579 133.524 21.4277C133.074 20.1058 132.849 18.5048 132.849 16.6327C132.849 11.3204 134.188 7.35466 136.865 4.72725C138.982 2.66639 141.599 1.63183 144.714 1.63183C146.637 1.63183 148.365 2.07523 149.899 2.96198C152.041 4.21 153.513 6.21338 154.316 8.97216H155.959V10.9427H147.38V8.97216H148.475C148.256 7.55995 147.854 6.41044 147.27 5.52364C146.418 4.24278 145.286 3.60242 143.875 3.60242C142.171 3.60242 140.881 4.71906 140.005 6.95232C139.275 8.79152 138.909 11.0905 138.909 13.8493C138.909 14.6375 138.946 15.4094 139.019 16.1647C139.919 15.0809 140.844 14.3255 141.794 13.8985C142.743 13.4716 143.753 13.2581 144.824 13.2581C146.211 13.2581 147.495 13.7425 148.676 14.7032C149.856 15.6638 150.678 16.9858 151.14 18.6772H152.564V20.6477H143.948V18.6772ZM166.072 17.9382V33.0622H168.482V35.0328H157.821V33.0622H160.706V4.24279H157.821V2.27224H168.482V4.24279H166.072V15.6721H173.739V4.24279H171.403V2.27224H181.991V4.24279H179.106V33.0622H181.991V35.0328H171.403V33.0622H173.739V17.9382H166.072ZM195.827 2.27224V4.24279H192.943V15.7706C193.844 16.9201 195.158 17.8889 196.886 18.6772C198.322 19.334 199.515 19.6624 200.464 19.6624L201.888 19.6132C202.034 19.5803 202.241 19.5639 202.509 19.5639C203.142 19.5639 203.555 19.8266 203.75 20.3522C203.945 20.8776 204.042 21.633 204.042 22.6183V31.7814C204.042 33.1936 203.89 34.0886 203.586 34.4663C203.281 34.844 202.728 35.0328 201.925 35.0328H184.692V33.0622H187.576V4.24279H184.692V2.27224H195.827ZM192.943 33.0622H196.083C196.862 33.0622 197.41 32.9637 197.726 32.7667C198.359 32.3726 198.675 31.6007 198.675 30.4513V24.8844V23.7514C198.675 22.996 198.59 22.4705 198.42 22.1749C198.249 21.8793 197.781 21.5673 197.02 21.2389C196.26 20.9105 195.566 20.5328 194.927 20.1058C194.166 19.5804 193.509 19.0056 192.943 18.3816V33.0622ZM214.995 16.7559H216.273L216.784 15.475L217.332 13.7918L218.062 11.7638C219.473 7.97868 220.374 5.72072 220.763 4.98997C221.956 2.74847 223.356 1.63183 224.962 1.63183C226.106 1.63183 227.116 1.91102 227.992 2.46932C227.749 3.35607 227.506 4.24282 227.262 5.12956C227.189 5.45801 227.153 5.95066 227.153 6.6075C227.08 7.39571 227.043 8.15106 227.043 8.87362H226.349L225.218 8.28251C224.999 8.11827 224.737 7.97867 224.433 7.86368C224.128 7.74876 223.769 7.69131 223.356 7.69131C221.993 7.69131 220.106 10.8934 217.697 17.2978C221.494 18.4472 224.11 20.4753 225.546 23.3901C226.763 25.8451 227.372 29.0637 227.372 33.0622H229.453V35.0328H220.033V33.0622H221.384C221.384 28.5135 221.031 25.2539 220.325 23.2916C219.401 20.738 217.624 19.1205 214.995 18.4309V33.0622H217.149V35.0328H206.744V33.0622H209.628V4.24279H206.744V2.27224H217.405V4.24279H214.995V16.7559ZM239.894 3.60242H237.229V1.63183H247.999V3.60242H245.298L251.65 33.0622H254.06V35.0328H243.655V33.0622H246.284L243.691 20.9433C243.107 24.5478 242.121 27.7664 240.734 30.6155C239.079 33.9901 237.327 35.6733 235.477 35.6733C234.357 35.6733 233.457 35.2463 232.775 34.3924C231.972 33.3743 231.57 31.921 231.57 30.0161C231.57 27.5283 232.094 24.7203 233.14 21.6084C233.943 19.2437 235.197 16.3125 236.901 12.7983C237.606 11.3943 238.312 9.98208 239.018 8.56985C239.651 7.12475 239.967 5.81926 239.967 4.63691C239.967 4.40705 239.943 4.06219 239.894 3.60242ZM234.747 26.7647C234.747 27.7828 234.929 28.5464 235.294 29.0719C235.659 29.5974 236.11 29.8601 236.645 29.8601C237.302 29.8601 237.838 29.5153 238.252 28.8256C239.03 27.4872 239.846 25.8287 240.698 23.8663C241.866 21.1732 242.523 19.0631 242.669 17.5277L241.099 9.0707C240.32 10.5157 239.541 11.9362 238.763 13.3484C238.105 14.5882 237.582 15.7049 237.193 16.6902C236.706 17.8643 236.195 19.4736 235.659 21.5017C235.051 23.8335 234.747 25.5823 234.747 26.7647Z" fill="#FFEC00"/>
<path fill-rule="evenodd" clip-rule="evenodd" d="M109.296 41.8911C111.804 41.8911 114.174 42.3313 116.278 43.1143C124.943 46.0851 131.122 51.7389 132.237 58.3914C132.17 58.2817 130.445 56.1639 127.82 55.9897C123.608 55.71 119.466 56.2529 115.215 56.2529C109.901 56.2529 105.593 52.3402 105.593 47.5136C105.593 45.9037 106.072 44.3956 106.909 43.1003C99.5903 43.936 93.9316 48.5537 93.593 54.2097C93.5831 54.0317 93.5762 53.8528 93.5762 53.6728C93.5762 47.1659 100.614 41.8911 109.296 41.8911Z" fill="#A1C300"/>
<path fill-rule="evenodd" clip-rule="evenodd" d="M88.4654 41.8911C85.9576 41.8911 83.5868 42.3313 81.4833 43.1143C72.8184 46.0851 66.6393 51.7389 65.5239 58.3914C65.5911 58.2817 67.316 56.1639 69.9409 55.9897C74.1529 55.71 78.2948 56.2529 82.5458 56.2529C87.8599 56.2529 92.168 52.3402 92.168 47.5136C92.168 45.9037 91.6885 44.3956 90.8524 43.1003C98.1706 43.936 103.829 48.5537 104.168 54.2097C104.178 54.0317 104.185 53.8528 104.185 53.6728C104.185 47.1659 97.147 41.8911 88.4654 41.8911Z" fill="#A1C300"/>
<path fill-rule="evenodd" clip-rule="evenodd" d="M99.0001 2.35254C101.562 13.5685 109.246 19.1764 109.246 24.7844C109.246 30.3924 106.685 36.0003 99.0001 36.0003C91.3155 36.0003 88.7539 30.3924 88.7539 24.7844C88.7539 19.1764 96.4386 13.5685 99.0001 2.35254Z" fill="#008BD0"/>
</svg>
