<svg width="20" height="20" viewBox="0 0 20 20" fill="none" xmlns="http://www.w3.org/2000/svg">
<path d="M18.163 19.3334C8.21018 19.3474 0.656015 11.7034 0.666515 1.83691C0.666515 1.19175 1.18918 0.666748 1.83318 0.666748H4.91318C5.49068 0.666748 5.98185 1.09141 6.06701 1.66308C6.27013 3.03398 6.66892 4.36864 7.25118 5.62625L7.37135 5.88525C7.45207 6.05954 7.46943 6.25653 7.42045 6.44225C7.37146 6.62797 7.25919 6.79078 7.10301 6.90258C6.14868 7.58391 5.78468 8.95475 6.52785 10.0234C7.4635 11.369 8.63128 12.5371 9.97651 13.4732C11.0463 14.2152 12.4172 13.8512 13.0973 12.8981C13.209 12.7414 13.372 12.6287 13.558 12.5795C13.744 12.5303 13.9413 12.5477 14.1158 12.6286L14.3737 12.7476C15.6313 13.3309 16.966 13.7299 18.3368 13.9329C18.9085 14.0181 19.3332 14.5092 19.3332 15.0879V18.1667C19.3332 18.3201 19.303 18.4719 19.2443 18.6135C19.1856 18.7551 19.0995 18.8838 18.9911 18.9921C18.8826 19.1005 18.7539 19.1864 18.6122 19.2449C18.4705 19.3035 18.3187 19.3336 18.1653 19.3334H18.163Z" fill="black"/>
</svg>
