<svg width="55" height="54" viewBox="0 0 55 54" fill="none" xmlns="http://www.w3.org/2000/svg">
<path d="M6.0985 3.375H4.2085V5.265H6.0985V3.375Z" fill="black"/>
<path d="M7.9885 3.375H6.0985V5.265H7.9885V3.375Z" fill="black"/>
<path d="M9.8785 3.375H7.9885V5.265H9.8785V3.375Z" fill="black"/>
<path d="M11.7685 3.375H9.8785V5.265H11.7685V3.375Z" fill="black"/>
<path d="M13.6585 3.375H11.7685V5.265H13.6585V3.375Z" fill="black"/>
<path d="M15.5485 3.375H13.6585V5.265H15.5485V3.375Z" fill="black"/>
<path d="M17.4385 3.375H15.5485V5.265H17.4385V3.375Z" fill="black"/>
<path d="M21.2185 3.375H19.3285V5.265H21.2185V3.375Z" fill="black"/>
<path d="M26.8885 3.375H24.9985V5.265H26.8885V3.375Z" fill="black"/>
<path d="M30.6685 3.375H28.7785V5.265H30.6685V3.375Z" fill="black"/>
<path d="M32.5585 3.375H30.6685V5.265H32.5585V3.375Z" fill="black"/>
<path d="M34.4485 3.375H32.5585V5.265H34.4485V3.375Z" fill="black"/>
<path d="M36.3385 3.375H34.4485V5.265H36.3385V3.375Z" fill="black"/>
<path d="M40.1185 3.375H38.2285V5.265H40.1185V3.375Z" fill="black"/>
<path d="M42.0085 3.375H40.1185V5.265H42.0085V3.375Z" fill="black"/>
<path d="M43.8985 3.375H42.0085V5.265H43.8985V3.375Z" fill="black"/>
<path d="M45.7885 3.375H43.8985V5.265H45.7885V3.375Z" fill="black"/>
<path d="M47.6785 3.375H45.7885V5.265H47.6785V3.375Z" fill="black"/>
<path d="M49.5685 3.375H47.6785V5.265H49.5685V3.375Z" fill="black"/>
<path d="M51.4585 3.375H49.5685V5.265H51.4585V3.375Z" fill="black"/>
<path d="M6.0985 5.265H4.2085V7.155H6.0985V5.265Z" fill="black"/>
<path d="M17.4385 5.265H15.5485L15.5485 7.155H17.4385V5.265Z" fill="black"/>
<path d="M32.5585 5.265H30.6685V7.155H32.5585V5.265Z" fill="black"/>
<path d="M40.1185 5.265H38.2285V7.155H40.1185V5.265Z" fill="black"/>
<path d="M51.4585 5.265H49.5685V7.155H51.4585V5.265Z" fill="black"/>
<path d="M6.0985 7.155H4.2085V9.045H6.0985V7.155Z" fill="black"/>
<path d="M9.8785 7.155H7.9885V9.045H9.8785V7.155Z" fill="black"/>
<path d="M11.7685 7.155H9.8785V9.045H11.7685V7.155Z" fill="black"/>
<path d="M13.6585 7.155H11.7685V9.045H13.6585V7.155Z" fill="black"/>
<path d="M17.4385 7.155H15.5485V9.045H17.4385V7.155Z" fill="black"/>
<path d="M23.1085 7.155H21.2185V9.045H23.1085V7.155Z" fill="black"/>
<path d="M24.9985 7.155H23.1085V9.045H24.9985V7.155Z" fill="black"/>
<path d="M26.8885 7.155H24.9985V9.045H26.8885V7.155Z" fill="black"/>
<path d="M28.7785 7.155H26.8885V9.045H28.7785V7.155Z" fill="black"/>
<path d="M36.3385 7.155H34.4485V9.045H36.3385V7.155Z" fill="black"/>
<path d="M40.1185 7.155H38.2285V9.045H40.1185V7.155Z" fill="black"/>
<path d="M43.8985 7.155H42.0085V9.045H43.8985V7.155Z" fill="black"/>
<path d="M45.7885 7.155H43.8985V9.045H45.7885V7.155Z" fill="black"/>
<path d="M47.6785 7.155H45.7885V9.045H47.6785V7.155Z" fill="black"/>
<path d="M51.4585 7.155H49.5685V9.045H51.4585V7.155Z" fill="black"/>
<path d="M6.0985 9.045H4.2085V10.935H6.0985V9.045Z" fill="black"/>
<path d="M9.8785 9.045H7.9885V10.935H9.8785V9.045Z" fill="black"/>
<path d="M11.7685 9.045H9.8785V10.935H11.7685V9.045Z" fill="black"/>
<path d="M13.6585 9.045H11.7685V10.935H13.6585V9.045Z" fill="black"/>
<path d="M17.4385 9.045H15.5485V10.935H17.4385V9.045Z" fill="black"/>
<path d="M21.2185 9.045H19.3285V10.935H21.2185V9.045Z" fill="black"/>
<path d="M28.7785 9.045H26.8885V10.935H28.7785V9.045Z" fill="black"/>
<path d="M30.6685 9.045H28.7785V10.935H30.6685V9.045Z" fill="black"/>
<path d="M40.1185 9.045H38.2285V10.935H40.1185V9.045Z" fill="black"/>
<path d="M43.8985 9.045H42.0085V10.935H43.8985V9.045Z" fill="black"/>
<path d="M45.7885 9.045H43.8985V10.935H45.7885V9.045Z" fill="black"/>
<path d="M47.6785 9.045H45.7885V10.935H47.6785V9.045Z" fill="black"/>
<path d="M51.4585 9.045H49.5685V10.935H51.4585V9.045Z" fill="black"/>
<path d="M6.0985 10.935H4.2085V12.825H6.0985V10.935Z" fill="black"/>
<path d="M9.8785 10.935H7.9885V12.825H9.8785V10.935Z" fill="black"/>
<path d="M11.7685 10.935H9.8785V12.825H11.7685V10.935Z" fill="black"/>
<path d="M13.6585 10.935H11.7685V12.825H13.6585V10.935Z" fill="black"/>
<path d="M17.4385 10.935H15.5485V12.825H17.4385V10.935Z" fill="black"/>
<path d="M21.2185 10.935H19.3285V12.825H21.2185V10.935Z" fill="black"/>
<path d="M24.9985 10.935H23.1085V12.825H24.9985V10.935Z" fill="black"/>
<path d="M26.8885 10.935H24.9985V12.825H26.8885V10.935Z" fill="black"/>
<path d="M28.7785 10.935H26.8885V12.825H28.7785V10.935Z" fill="black"/>
<path d="M30.6685 10.935H28.7785V12.825H30.6685V10.935Z" fill="black"/>
<path d="M32.5585 10.935H30.6685V12.825H32.5585V10.935Z" fill="black"/>
<path d="M34.4485 10.935H32.5585V12.825H34.4485V10.935Z" fill="black"/>
<path d="M36.3385 10.935H34.4485V12.825H36.3385V10.935Z" fill="black"/>
<path d="M40.1185 10.935H38.2285V12.825H40.1185V10.935Z" fill="black"/>
<path d="M43.8985 10.935H42.0085V12.825H43.8985V10.935Z" fill="black"/>
<path d="M45.7885 10.935H43.8985V12.825H45.7885V10.935Z" fill="black"/>
<path d="M47.6785 10.935H45.7885V12.825H47.6785V10.935Z" fill="black"/>
<path d="M51.4585 10.935H49.5685V12.825H51.4585V10.935Z" fill="black"/>
<path d="M6.0985 12.825H4.2085V14.715H6.0985V12.825Z" fill="black"/>
<path d="M17.4385 12.825H15.5485V14.715H17.4385V12.825Z" fill="black"/>
<path d="M21.2185 12.825H19.3285V14.715H21.2185V12.825Z" fill="black"/>
<path d="M26.8885 12.825H24.9985V14.715H26.8885V12.825Z" fill="black"/>
<path d="M36.3385 12.825H34.4485V14.715H36.3385V12.825Z" fill="black"/>
<path d="M40.1185 12.825H38.2285V14.715H40.1185V12.825Z" fill="black"/>
<path d="M51.4585 12.825H49.5685V14.715H51.4585V12.825Z" fill="black"/>
<path d="M6.0985 14.715H4.2085V16.605H6.0985V14.715Z" fill="black"/>
<path d="M7.9885 14.715L6.0985 14.715V16.605H7.9885V14.715Z" fill="black"/>
<path d="M9.8785 14.715H7.9885V16.605H9.8785V14.715Z" fill="black"/>
<path d="M11.7685 14.715H9.8785V16.605H11.7685V14.715Z" fill="black"/>
<path d="M13.6585 14.715H11.7685V16.605H13.6585V14.715Z" fill="black"/>
<path d="M15.5485 14.715L13.6585 14.715V16.605H15.5485L15.5485 14.715Z" fill="black"/>
<path d="M17.4385 14.715H15.5485L15.5485 16.605H17.4385V14.715Z" fill="black"/>
<path d="M21.2185 14.715H19.3285V16.605H21.2185V14.715Z" fill="black"/>
<path d="M24.9985 14.715L23.1085 14.715V16.605H24.9985V14.715Z" fill="black"/>
<path d="M28.7785 14.715L26.8885 14.715V16.605H28.7785V14.715Z" fill="black"/>
<path d="M32.5585 14.715H30.6685V16.605H32.5585V14.715Z" fill="black"/>
<path d="M36.3385 14.715H34.4485V16.605H36.3385V14.715Z" fill="black"/>
<path d="M40.1185 14.715H38.2285V16.605H40.1185V14.715Z" fill="black"/>
<path d="M42.0085 14.715L40.1185 14.715V16.605H42.0085V14.715Z" fill="black"/>
<path d="M43.8985 14.715H42.0085V16.605H43.8985V14.715Z" fill="black"/>
<path d="M45.7885 14.715H43.8985V16.605H45.7885V14.715Z" fill="black"/>
<path d="M47.6785 14.715H45.7885V16.605H47.6785V14.715Z" fill="black"/>
<path d="M49.5685 14.715L47.6785 14.715V16.605H49.5685V14.715Z" fill="black"/>
<path d="M51.4585 14.715H49.5685V16.605H51.4585V14.715Z" fill="black"/>
<path d="M21.2185 16.605H19.3285V18.495H21.2185V16.605Z" fill="black"/>
<path d="M26.8885 16.605H24.9985V18.495H26.8885V16.605Z" fill="black"/>
<path d="M30.6685 16.605H28.7785V18.495H30.6685V16.605Z" fill="black"/>
<path d="M32.5585 16.605H30.6685V18.495H32.5585V16.605Z" fill="black"/>
<path d="M36.3385 16.605H34.4485V18.495H36.3385V16.605Z" fill="black"/>
<path d="M6.0985 18.495H4.2085V20.385H6.0985V18.495Z" fill="black"/>
<path d="M7.9885 18.495H6.0985V20.385H7.9885V18.495Z" fill="black"/>
<path d="M9.8785 18.495H7.9885V20.385H9.8785V18.495Z" fill="black"/>
<path d="M13.6585 18.495H11.7685V20.385H13.6585V18.495Z" fill="black"/>
<path d="M17.4385 18.495H15.5485V20.385H17.4385V18.495Z" fill="black"/>
<path d="M21.2185 18.495H19.3285V20.385H21.2185V18.495Z" fill="black"/>
<path d="M23.1085 18.495H21.2185V20.385H23.1085V18.495Z" fill="black"/>
<path d="M38.2285 18.495H36.3385V20.385H38.2285V18.495Z" fill="black"/>
<path d="M40.1185 18.495H38.2285V20.385H40.1185V18.495Z" fill="black"/>
<path d="M42.0085 18.495H40.1185V20.385H42.0085V18.495Z" fill="black"/>
<path d="M43.8985 18.495H42.0085V20.385H43.8985V18.495Z" fill="black"/>
<path d="M45.7885 18.495H43.8985V20.385H45.7885V18.495Z" fill="black"/>
<path d="M51.4585 18.495H49.5685V20.385H51.4585V18.495Z" fill="black"/>
<path d="M7.9885 20.385H6.0985V22.275H7.9885V20.385Z" fill="black"/>
<path d="M9.8785 20.385H7.9885V22.275H9.8785V20.385Z" fill="black"/>
<path d="M11.7685 20.385H9.8785V22.275H11.7685V20.385Z" fill="black"/>
<path d="M13.6585 20.385H11.7685V22.275H13.6585V20.385Z" fill="black"/>
<path d="M19.3285 20.385H17.4385V22.275H19.3285V20.385Z" fill="black"/>
<path d="M23.1085 20.385H21.2185V22.275H23.1085V20.385Z" fill="black"/>
<path d="M26.8885 20.385H24.9985V22.275H26.8885V20.385Z" fill="black"/>
<path d="M28.7785 20.385H26.8885V22.275H28.7785V20.385Z" fill="black"/>
<path d="M38.2285 20.385H36.3385V22.275H38.2285V20.385Z" fill="black"/>
<path d="M40.1185 20.385H38.2285V22.275H40.1185V20.385Z" fill="black"/>
<path d="M43.8985 20.385H42.0085V22.275H43.8985V20.385Z" fill="black"/>
<path d="M51.4585 20.385H49.5685V22.275H51.4585V20.385Z" fill="black"/>
<path d="M7.9885 22.275H6.0985V24.165H7.9885V22.275Z" fill="black"/>
<path d="M11.7685 22.275H9.8785V24.165H11.7685V22.275Z" fill="black"/>
<path d="M13.6585 22.275H11.7685V24.165H13.6585V22.275Z" fill="black"/>
<path d="M15.5485 22.275H13.6585V24.165H15.5485V22.275Z" fill="black"/>
<path d="M17.4385 22.275H15.5485V24.165H17.4385V22.275Z" fill="black"/>
<path d="M24.9985 22.275H23.1085V24.165H24.9985V22.275Z" fill="black"/>
<path d="M26.8885 22.275H24.9985V24.165H26.8885V22.275Z" fill="black"/>
<path d="M30.6685 22.275H28.7785V24.165H30.6685V22.275Z" fill="black"/>
<path d="M34.4485 22.275H32.5585V24.165H34.4485V22.275Z" fill="black"/>
<path d="M36.3385 22.275H34.4485V24.165H36.3385V22.275Z" fill="black"/>
<path d="M40.1185 22.275H38.2285V24.165H40.1185V22.275Z" fill="black"/>
<path d="M43.8985 22.275H42.0085V24.165H43.8985V22.275Z" fill="black"/>
<path d="M6.0985 24.165H4.2085V26.055H6.0985V24.165Z" fill="black"/>
<path d="M11.7685 24.165H9.8785V26.055H11.7685V24.165Z" fill="black"/>
<path d="M13.6585 24.165H11.7685V26.055H13.6585V24.165Z" fill="black"/>
<path d="M15.5485 24.165H13.6585V26.055H15.5485V24.165Z" fill="black"/>
<path d="M19.3285 24.165H17.4385V26.055H19.3285V24.165Z" fill="black"/>
<path d="M21.2185 24.165H19.3285V26.055H21.2185V24.165Z" fill="black"/>
<path d="M24.9985 24.165H23.1085V26.055H24.9985V24.165Z" fill="black"/>
<path d="M28.7785 24.165H26.8885V26.055H28.7785V24.165Z" fill="black"/>
<path d="M32.5585 24.165H30.6685V26.055H32.5585L32.5585 24.165Z" fill="black"/>
<path d="M34.4485 24.165H32.5585L32.5585 26.055H34.4485V24.165Z" fill="black"/>
<path d="M38.2285 24.165H36.3385V26.055H38.2285V24.165Z" fill="black"/>
<path d="M40.1185 24.165H38.2285V26.055H40.1185V24.165Z" fill="black"/>
<path d="M45.7885 24.165H43.8985V26.055H45.7885V24.165Z" fill="black"/>
<path d="M49.5685 24.165H47.6785V26.055H49.5685V24.165Z" fill="black"/>
<path d="M51.4585 24.165H49.5685V26.055H51.4585V24.165Z" fill="black"/>
<path d="M6.0985 26.055H4.2085V27.945H6.0985V26.055Z" fill="black"/>
<path d="M9.8785 26.055H7.9885V27.945H9.8785V26.055Z" fill="black"/>
<path d="M17.4385 26.055H15.5485L15.5485 27.945H17.4385V26.055Z" fill="black"/>
<path d="M19.3285 26.055H17.4385V27.945H19.3285V26.055Z" fill="black"/>
<path d="M21.2185 26.055H19.3285V27.945H21.2185V26.055Z" fill="black"/>
<path d="M23.1085 26.055H21.2185V27.945H23.1085V26.055Z" fill="black"/>
<path d="M24.9985 26.055H23.1085V27.945H24.9985V26.055Z" fill="black"/>
<path d="M26.8885 26.055H24.9985V27.945H26.8885V26.055Z" fill="black"/>
<path d="M28.7785 26.055H26.8885V27.945H28.7785V26.055Z" fill="black"/>
<path d="M32.5585 26.055H30.6685V27.945H32.5585V26.055Z" fill="black"/>
<path d="M36.3385 26.055H34.4485V27.945H36.3385V26.055Z" fill="black"/>
<path d="M38.2285 26.055H36.3385V27.945H38.2285V26.055Z" fill="black"/>
<path d="M40.1185 26.055H38.2285V27.945H40.1185V26.055Z" fill="black"/>
<path d="M42.0085 26.055H40.1185V27.945H42.0085V26.055Z" fill="black"/>
<path d="M45.7885 26.055H43.8985V27.945H45.7885V26.055Z" fill="black"/>
<path d="M47.6785 26.055H45.7885V27.945H47.6785V26.055Z" fill="black"/>
<path d="M49.5685 26.055H47.6785V27.945H49.5685V26.055Z" fill="black"/>
<path d="M6.0985 27.945H4.2085V29.835H6.0985V27.945Z" fill="black"/>
<path d="M7.9885 27.945H6.0985V29.835H7.9885V27.945Z" fill="black"/>
<path d="M11.7685 27.945H9.8785V29.835H11.7685V27.945Z" fill="black"/>
<path d="M13.6585 27.945H11.7685V29.835H13.6585V27.945Z" fill="black"/>
<path d="M21.2185 27.945H19.3285V29.835H21.2185V27.945Z" fill="black"/>
<path d="M26.8885 27.945H24.9985V29.835H26.8885V27.945Z" fill="black"/>
<path d="M28.7785 27.945H26.8885V29.835H28.7785V27.945Z" fill="black"/>
<path d="M32.5585 27.945H30.6685V29.835H32.5585V27.945Z" fill="black"/>
<path d="M34.4485 27.945H32.5585V29.835H34.4485V27.945Z" fill="black"/>
<path d="M40.1185 27.945H38.2285V29.835H40.1185V27.945Z" fill="black"/>
<path d="M45.7885 27.945H43.8985V29.835H45.7885V27.945Z" fill="black"/>
<path d="M47.6785 27.945H45.7885V29.835H47.6785V27.945Z" fill="black"/>
<path d="M49.5685 27.945H47.6785V29.835H49.5685V27.945Z" fill="black"/>
<path d="M51.4585 27.945H49.5685V29.835H51.4585V27.945Z" fill="black"/>
<path d="M7.9885 29.835H6.0985V31.725H7.9885V29.835Z" fill="black"/>
<path d="M11.7685 29.835H9.8785V31.725H11.7685V29.835Z" fill="black"/>
<path d="M15.5485 29.835H13.6585V31.725H15.5485V29.835Z" fill="black"/>
<path d="M17.4385 29.835H15.5485V31.725H17.4385V29.835Z" fill="black"/>
<path d="M21.2185 29.835H19.3285V31.725H21.2185V29.835Z" fill="black"/>
<path d="M24.9985 29.835H23.1085V31.725H24.9985V29.835Z" fill="black"/>
<path d="M26.8885 29.835H24.9985V31.725H26.8885V29.835Z" fill="black"/>
<path d="M28.7785 29.835H26.8885V31.725H28.7785V29.835Z" fill="black"/>
<path d="M30.6685 29.835H28.7785V31.725H30.6685V29.835Z" fill="black"/>
<path d="M32.5585 29.835H30.6685V31.725H32.5585V29.835Z" fill="black"/>
<path d="M34.4485 29.835H32.5585V31.725H34.4485V29.835Z" fill="black"/>
<path d="M38.2285 29.835H36.3385V31.725H38.2285V29.835Z" fill="black"/>
<path d="M40.1185 29.835H38.2285V31.725H40.1185V29.835Z" fill="black"/>
<path d="M42.0085 29.835H40.1185V31.725H42.0085V29.835Z" fill="black"/>
<path d="M47.6785 29.835H45.7885V31.725H47.6785V29.835Z" fill="black"/>
<path d="M6.0985 31.725L4.2085 31.725V33.615H6.0985V31.725Z" fill="black"/>
<path d="M7.9885 31.725H6.0985V33.615H7.9885V31.725Z" fill="black"/>
<path d="M9.8785 31.725H7.9885V33.615H9.8785V31.725Z" fill="black"/>
<path d="M13.6585 31.725H11.7685V33.615H13.6585V31.725Z" fill="black"/>
<path d="M15.5485 31.725H13.6585V33.615H15.5485V31.725Z" fill="black"/>
<path d="M21.2185 31.725H19.3285V33.615H21.2185V31.725Z" fill="black"/>
<path d="M26.8885 31.725H24.9985V33.615H26.8885V31.725Z" fill="black"/>
<path d="M28.7785 31.725H26.8885V33.615H28.7785V31.725Z" fill="black"/>
<path d="M30.6685 31.725H28.7785V33.615H30.6685V31.725Z" fill="black"/>
<path d="M36.3385 31.725H34.4485V33.615H36.3385V31.725Z" fill="black"/>
<path d="M38.2285 31.725H36.3385V33.615H38.2285V31.725Z" fill="black"/>
<path d="M40.1185 31.725H38.2285V33.615H40.1185V31.725Z" fill="black"/>
<path d="M42.0085 31.725H40.1185V33.615H42.0085V31.725Z" fill="black"/>
<path d="M49.5685 31.725L47.6785 31.725V33.615H49.5685V31.725Z" fill="black"/>
<path d="M51.4585 31.725H49.5685V33.615H51.4585V31.725Z" fill="black"/>
<path d="M17.4385 33.615H15.5485L15.5485 35.505H17.4385V33.615Z" fill="black"/>
<path d="M26.8885 33.615H24.9985V35.505H26.8885V33.615Z" fill="black"/>
<path d="M32.5585 33.615H30.6685V35.505H32.5585V33.615Z" fill="black"/>
<path d="M34.4485 33.615H32.5585V35.505H34.4485V33.615Z" fill="black"/>
<path d="M36.3385 33.615H34.4485V35.505H36.3385V33.615Z" fill="black"/>
<path d="M38.2285 33.615H36.3385V35.505H38.2285V33.615Z" fill="black"/>
<path d="M40.1185 33.615H38.2285V35.505H40.1185V33.615Z" fill="black"/>
<path d="M42.0085 33.615H40.1185V35.505H42.0085V33.615Z" fill="black"/>
<path d="M43.8985 33.615H42.0085V35.505H43.8985V33.615Z" fill="black"/>
<path d="M47.6785 33.615H45.7885V35.505H47.6785V33.615Z" fill="black"/>
<path d="M21.2185 35.505H19.3285V37.395H21.2185V35.505Z" fill="black"/>
<path d="M23.1085 35.505H21.2185V37.395H23.1085V35.505Z" fill="black"/>
<path d="M24.9985 35.505H23.1085V37.395H24.9985V35.505Z" fill="black"/>
<path d="M28.7785 35.505H26.8885V37.395H28.7785V35.505Z" fill="black"/>
<path d="M36.3385 35.505H34.4485V37.395H36.3385V35.505Z" fill="black"/>
<path d="M43.8985 35.505H42.0085V37.395H43.8985V35.505Z" fill="black"/>
<path d="M45.7885 35.505H43.8985V37.395H45.7885V35.505Z" fill="black"/>
<path d="M49.5685 35.505H47.6785V37.395H49.5685V35.505Z" fill="black"/>
<path d="M51.4585 35.505H49.5685V37.395H51.4585V35.505Z" fill="black"/>
<path d="M6.0985 37.395H4.2085V39.285H6.0985V37.395Z" fill="black"/>
<path d="M7.9885 37.395H6.0985V39.285H7.9885V37.395Z" fill="black"/>
<path d="M9.8785 37.395H7.9885V39.285H9.8785V37.395Z" fill="black"/>
<path d="M11.7685 37.395H9.8785V39.285H11.7685V37.395Z" fill="black"/>
<path d="M13.6585 37.395H11.7685V39.285H13.6585V37.395Z" fill="black"/>
<path d="M15.5485 37.395H13.6585V39.285H15.5485V37.395Z" fill="black"/>
<path d="M17.4385 37.395H15.5485V39.285H17.4385V37.395Z" fill="black"/>
<path d="M23.1085 37.395H21.2185V39.285H23.1085V37.395Z" fill="black"/>
<path d="M24.9985 37.395H23.1085V39.285H24.9985V37.395Z" fill="black"/>
<path d="M26.8885 37.395H24.9985V39.285H26.8885V37.395Z" fill="black"/>
<path d="M30.6685 37.395H28.7785V39.285H30.6685V37.395Z" fill="black"/>
<path d="M32.5585 37.395H30.6685V39.285H32.5585V37.395Z" fill="black"/>
<path d="M34.4485 37.395H32.5585V39.285H34.4485V37.395Z" fill="black"/>
<path d="M36.3385 37.395H34.4485V39.285H36.3385V37.395Z" fill="black"/>
<path d="M40.1185 37.395H38.2285V39.285H40.1185V37.395Z" fill="black"/>
<path d="M43.8985 37.395H42.0085V39.285H43.8985V37.395Z" fill="black"/>
<path d="M47.6785 37.395H45.7885V39.285H47.6785V37.395Z" fill="black"/>
<path d="M49.5685 37.395H47.6785V39.285H49.5685V37.395Z" fill="black"/>
<path d="M51.4585 37.395H49.5685V39.285H51.4585V37.395Z" fill="black"/>
<path d="M6.0985 39.285H4.2085V41.175H6.0985V39.285Z" fill="black"/>
<path d="M17.4385 39.285H15.5485L15.5485 41.175H17.4385V39.285Z" fill="black"/>
<path d="M23.1085 39.285H21.2185V41.175H23.1085V39.285Z" fill="black"/>
<path d="M26.8885 39.285H24.9985V41.175H26.8885V39.285Z" fill="black"/>
<path d="M30.6685 39.285H28.7785V41.175H30.6685V39.285Z" fill="black"/>
<path d="M32.5585 39.285H30.6685V41.175H32.5585V39.285Z" fill="black"/>
<path d="M36.3385 39.285H34.4485V41.175H36.3385V39.285Z" fill="black"/>
<path d="M43.8985 39.285H42.0085V41.175H43.8985V39.285Z" fill="black"/>
<path d="M45.7885 39.285H43.8985V41.175H45.7885V39.285Z" fill="black"/>
<path d="M47.6785 39.285H45.7885V41.175H47.6785V39.285Z" fill="black"/>
<path d="M6.0985 41.175H4.2085V43.065H6.0985V41.175Z" fill="black"/>
<path d="M9.8785 41.175H7.9885V43.065H9.8785V41.175Z" fill="black"/>
<path d="M11.7685 41.175H9.8785V43.065H11.7685V41.175Z" fill="black"/>
<path d="M13.6585 41.175H11.7685V43.065H13.6585V41.175Z" fill="black"/>
<path d="M17.4385 41.175H15.5485V43.065H17.4385V41.175Z" fill="black"/>
<path d="M21.2185 41.175H19.3285V43.065H21.2185V41.175Z" fill="black"/>
<path d="M26.8885 41.175H24.9985V43.065H26.8885V41.175Z" fill="black"/>
<path d="M34.4485 41.175H32.5585L32.5585 43.065H34.4485V41.175Z" fill="black"/>
<path d="M36.3385 41.175H34.4485V43.065H36.3385V41.175Z" fill="black"/>
<path d="M38.2285 41.175H36.3385V43.065H38.2285V41.175Z" fill="black"/>
<path d="M40.1185 41.175H38.2285V43.065H40.1185V41.175Z" fill="black"/>
<path d="M42.0085 41.175H40.1185V43.065H42.0085V41.175Z" fill="black"/>
<path d="M43.8985 41.175H42.0085V43.065H43.8985V41.175Z" fill="black"/>
<path d="M45.7885 41.175H43.8985V43.065H45.7885V41.175Z" fill="black"/>
<path d="M51.4585 41.175H49.5685V43.065H51.4585V41.175Z" fill="black"/>
<path d="M6.0985 43.065H4.2085V44.955H6.0985V43.065Z" fill="black"/>
<path d="M9.8785 43.065H7.9885V44.955H9.8785V43.065Z" fill="black"/>
<path d="M11.7685 43.065H9.8785V44.955H11.7685V43.065Z" fill="black"/>
<path d="M13.6585 43.065H11.7685V44.955H13.6585V43.065Z" fill="black"/>
<path d="M17.4385 43.065H15.5485V44.955H17.4385V43.065Z" fill="black"/>
<path d="M23.1085 43.065H21.2185V44.955H23.1085V43.065Z" fill="black"/>
<path d="M26.8885 43.065H24.9985V44.955H26.8885V43.065Z" fill="black"/>
<path d="M32.5585 43.065H30.6685V44.955H32.5585L32.5585 43.065Z" fill="black"/>
<path d="M38.2285 43.065H36.3385V44.955H38.2285V43.065Z" fill="black"/>
<path d="M42.0085 43.065H40.1185V44.955H42.0085V43.065Z" fill="black"/>
<path d="M47.6785 43.065H45.7885V44.955H47.6785V43.065Z" fill="black"/>
<path d="M6.0985 44.955H4.2085V46.845H6.0985V44.955Z" fill="black"/>
<path d="M9.8785 44.955H7.9885V46.845H9.8785V44.955Z" fill="black"/>
<path d="M11.7685 44.955H9.8785V46.845H11.7685V44.955Z" fill="black"/>
<path d="M13.6585 44.955H11.7685V46.845H13.6585V44.955Z" fill="black"/>
<path d="M17.4385 44.955H15.5485V46.845H17.4385V44.955Z" fill="black"/>
<path d="M21.2185 44.955H19.3285V46.845H21.2185V44.955Z" fill="black"/>
<path d="M24.9985 44.955H23.1085V46.845H24.9985V44.955Z" fill="black"/>
<path d="M28.7785 44.955H26.8885V46.845H28.7785V44.955Z" fill="black"/>
<path d="M32.5585 44.955H30.6685V46.845H32.5585V44.955Z" fill="black"/>
<path d="M38.2285 44.955H36.3385V46.845H38.2285V44.955Z" fill="black"/>
<path d="M42.0085 44.955H40.1185V46.845H42.0085V44.955Z" fill="black"/>
<path d="M43.8985 44.955H42.0085V46.845H43.8985V44.955Z" fill="black"/>
<path d="M45.7885 44.955H43.8985V46.845H45.7885V44.955Z" fill="black"/>
<path d="M6.0985 46.845H4.2085V48.735H6.0985V46.845Z" fill="black"/>
<path d="M17.4385 46.845H15.5485V48.735H17.4385V46.845Z" fill="black"/>
<path d="M21.2185 46.845H19.3285V48.735H21.2185V46.845Z" fill="black"/>
<path d="M23.1085 46.845H21.2185V48.735H23.1085V46.845Z" fill="black"/>
<path d="M24.9985 46.845H23.1085V48.735H24.9985V46.845Z" fill="black"/>
<path d="M28.7785 46.845H26.8885V48.735H28.7785V46.845Z" fill="black"/>
<path d="M30.6685 46.845H28.7785V48.735H30.6685V46.845Z" fill="black"/>
<path d="M34.4485 46.845H32.5585L32.5585 48.735H34.4485V46.845Z" fill="black"/>
<path d="M38.2285 46.845H36.3385V48.735H38.2285V46.845Z" fill="black"/>
<path d="M42.0085 46.845H40.1185V48.735H42.0085V46.845Z" fill="black"/>
<path d="M45.7885 46.845H43.8985V48.735H45.7885V46.845Z" fill="black"/>
<path d="M47.6785 46.845H45.7885V48.735H47.6785V46.845Z" fill="black"/>
<path d="M49.5685 46.845H47.6785V48.735H49.5685V46.845Z" fill="black"/>
<path d="M6.0985 48.735H4.2085V50.625H6.0985V48.735Z" fill="black"/>
<path d="M7.9885 48.735H6.0985V50.625H7.9885V48.735Z" fill="black"/>
<path d="M9.8785 48.735H7.9885V50.625H9.8785V48.735Z" fill="black"/>
<path d="M11.7685 48.735H9.8785V50.625H11.7685V48.735Z" fill="black"/>
<path d="M13.6585 48.735H11.7685V50.625H13.6585V48.735Z" fill="black"/>
<path d="M15.5485 48.735H13.6585V50.625H15.5485L15.5485 48.735Z" fill="black"/>
<path d="M17.4385 48.735H15.5485L15.5485 50.625H17.4385V48.735Z" fill="black"/>
<path d="M21.2185 48.735H19.3285V50.625H21.2185V48.735Z" fill="black"/>
<path d="M42.0085 48.735H40.1185V50.625H42.0085V48.735Z" fill="black"/>
<path d="M45.7885 48.735H43.8985V50.625H45.7885V48.735Z" fill="black"/>
<path d="M47.6785 48.735H45.7885V50.625H47.6785V48.735Z" fill="black"/>
<path d="M49.5685 48.735H47.6785V50.625H49.5685V48.735Z" fill="black"/>
<path d="M51.4585 48.735H49.5685V50.625H51.4585V48.735Z" fill="black"/>
</svg>
