<svg width="51" height="51" viewBox="0 0 51 51" fill="none" xmlns="http://www.w3.org/2000/svg">
<g clip-path="url(#clip0_154_3604)">
<path d="M48.7723 42.8193L38.997 33.0442C38.9588 33.0061 38.9177 32.9727 38.8744 32.944L38.8805 31.8611L41.8033 31.4521C42.0296 31.4204 42.231 31.2921 42.3554 31.1006C42.4799 30.9089 42.5152 30.6727 42.4519 30.453L41.6366 27.6166L44.3257 26.4007C44.5339 26.3065 44.691 26.1268 44.7565 25.9078C44.8219 25.6889 44.7891 25.4522 44.6666 25.2594L43.0852 22.7676L45.3227 20.8433C45.496 20.6943 45.5962 20.4775 45.5973 20.2491C45.5983 20.0207 45.5003 19.8028 45.3284 19.6522L43.1091 17.7068L44.7138 15.2302C44.838 15.0384 44.873 14.8022 44.8098 14.5826C44.7464 14.363 44.591 14.1817 44.3837 14.0856L41.7062 12.8442L42.5483 10.0156C42.6136 9.79669 42.5805 9.56012 42.4579 9.36728C42.3353 9.17453 42.1351 9.04444 41.909 9.01058L38.9903 8.57389L39.0014 5.62268C39.0022 5.39417 38.9039 5.17653 38.7319 5.02602C38.5601 4.87551 38.3317 4.80748 38.1048 4.83826L35.1813 5.24157L34.3605 2.4069C34.2969 2.18746 34.1413 2.00617 33.9339 1.91035C33.7265 1.81463 33.4877 1.81323 33.2793 1.90696L30.5879 3.11751L29.0017 0.629278C28.8789 0.436634 28.6785 0.306645 28.4526 0.272977C28.2266 0.239508 27.997 0.305549 27.8235 0.454166L25.5821 2.37413L23.3591 0.433148C23.1869 0.282838 22.958 0.214506 22.7317 0.246082C22.5054 0.277559 22.3038 0.405656 22.1792 0.597104L20.5695 3.07069L17.8896 1.83465C17.6822 1.73892 17.4433 1.73793 17.235 1.83196C17.0268 1.92599 16.8693 2.10558 16.8037 2.32442L15.956 5.15133L13.0365 4.72032C12.8107 4.68735 12.581 4.75329 12.4075 4.9022C12.2342 5.05102 12.1338 5.26777 12.1325 5.49617L12.1157 8.44749L9.19307 8.85658C8.96676 8.88836 8.76535 9.01655 8.64094 9.2082C8.51642 9.39985 8.48116 9.63602 8.54441 9.85576L9.35971 12.6921L6.67067 13.9081C6.46259 14.0023 6.3053 14.182 6.23986 14.4011C6.17442 14.62 6.20719 14.8566 6.32971 15.0495L7.9111 17.5412L5.67358 19.4654C5.50036 19.6145 5.40016 19.8313 5.39906 20.0597C5.39797 20.2881 5.49598 20.506 5.66791 20.6566L7.88729 22.6019L6.28249 25.0787C6.15828 25.2704 6.12322 25.5066 6.18657 25.7263C6.24992 25.9459 6.40541 26.1272 6.6127 26.2233L9.29019 27.4645L8.44809 30.2931C8.38285 30.5121 8.41592 30.7486 8.53854 30.9415C8.66116 31.1342 8.86137 31.2643 9.08738 31.2982L12.0061 31.735L12.0011 33.06C11.9658 33.0851 11.9316 33.1128 11.8998 33.1444L9.58612 35.4582C9.27813 35.7663 9.27813 36.2656 9.58612 36.5737C9.74012 36.7277 9.94203 36.8047 10.1438 36.8047C10.3456 36.8047 10.5476 36.7277 10.7015 36.5737L12.1366 35.1386C12.1731 35.1911 12.2153 35.2398 12.2643 35.2826C12.4362 35.4333 12.6649 35.5016 12.8914 35.4704L15.815 35.0671L16.6359 37.9018C16.6994 38.1212 16.855 38.3025 17.0624 38.3983C17.2699 38.4941 17.5087 38.4956 17.717 38.4017L20.4084 37.1911L20.8474 37.8797L10.2501 48.4767L9.81403 43.8972C9.77817 43.5207 9.48014 43.2227 9.10362 43.1868L4.5241 42.7507L8.07247 39.2024C8.38046 38.8942 8.38046 38.3949 8.07247 38.0868C7.76448 37.7789 7.26504 37.7789 6.95705 38.0868L2.22452 42.8194C1.76164 43.2822 2.05728 44.1004 2.70743 44.1624L8.30535 44.6956L8.83846 50.2935C8.90032 50.9428 9.71851 51.2393 10.1815 50.7765L21.7159 39.2419C21.8217 39.4079 21.918 39.5872 22.0396 39.7424C22.3124 40.0905 22.837 40.1423 23.173 39.8544L25.4144 37.9344L27.6376 39.8754C28.0038 40.1955 28.5584 40.0973 28.8229 39.7032C28.9462 39.5193 29.0645 39.332 29.1852 39.1465L40.8153 50.7765C41.2783 51.2393 42.0965 50.9428 42.1584 50.2935L42.6915 44.6956L48.2894 44.1624C48.9394 44.1003 49.2352 43.2822 48.7723 42.8193ZM29.4769 35.8057L27.9905 38.0895L25.9379 36.2975C25.7894 36.1678 25.6043 36.1028 25.4192 36.1028C25.2365 36.1028 25.0537 36.1661 24.9061 36.2926L22.8366 38.0651L22.7085 37.8641C22.6957 37.6811 22.6201 37.5017 22.4801 37.3617C22.4267 37.3083 22.3673 37.2648 22.3043 37.2299L21.372 35.7672C21.1614 35.4368 20.7403 35.311 20.3832 35.4718L17.8983 36.5895L17.1406 33.9723C17.0316 33.5961 16.663 33.3566 16.2752 33.4103L13.5759 33.7827L13.586 31.058C13.5875 30.6663 13.3013 30.3329 12.914 30.2751L10.219 29.8718L10.9966 27.2602C11.1083 26.8849 10.9277 26.4843 10.5724 26.3196L8.10026 25.1737L9.58194 22.8869C9.79491 22.5583 9.73444 22.123 9.4399 21.8649L7.39084 20.0688L9.45673 18.292C9.75377 18.0365 9.81831 17.6021 9.60834 17.2713L8.14827 14.9707L10.631 13.848C10.9878 13.6866 11.1722 13.2878 11.0641 12.9114L10.3114 10.2927L13.01 9.91503C13.3979 9.86064 13.6871 9.53004 13.6893 9.13838L13.7048 6.41347L16.4004 6.81141C16.7881 6.86869 17.1585 6.63271 17.2711 6.25758L18.0536 3.64753L20.5279 4.78885C20.8836 4.95271 21.3057 4.83088 21.5193 4.50277L23.0055 2.21884L25.0581 4.0109C25.3532 4.26859 25.7926 4.27068 26.0899 4.01588L28.1594 2.24334L29.624 4.54112C29.8345 4.87143 30.2554 4.99733 30.6127 4.83656L33.0977 3.71885L33.8557 6.33618C33.9646 6.7125 34.3337 6.95216 34.7211 6.89817L37.4204 6.52573L37.4102 9.25054C37.4087 9.6423 37.6949 9.97569 38.0824 10.0335L40.7772 10.4367L39.9996 13.0482C39.8879 13.4236 40.0686 13.8242 40.4239 13.9888L42.8961 15.1348L41.4144 17.4216C41.2014 17.7502 41.2619 18.1855 41.5564 18.4435L43.6055 20.2397L41.5396 22.0164C41.2426 22.2719 41.178 22.7064 41.388 23.0371L42.8481 25.3378L40.3653 26.4605C40.0084 26.6218 39.824 27.0206 39.9322 27.3971L40.6848 30.0158L37.9863 30.3934C37.5985 30.4478 37.3092 30.7784 37.307 31.1701L37.2916 33.895L34.5959 33.4971C34.2089 33.4405 33.8378 33.6757 33.7253 34.0509L32.9427 36.6609L30.4684 35.5196C30.1125 35.3556 29.6905 35.4775 29.4769 35.8057ZM41.8929 43.1868C41.5164 43.2227 41.2183 43.5207 41.1825 43.8972L40.7464 48.4767L30.0645 37.7947L30.427 37.2378L33.1069 38.4738C33.3144 38.5696 33.5532 38.5706 33.7615 38.4765C33.9698 38.3825 34.1272 38.2029 34.1928 37.984L35.0405 35.1571L37.96 35.5881C38.1863 35.6215 38.4157 35.5553 38.589 35.4063C38.6896 35.3198 38.7647 35.2101 38.8111 35.089L46.4727 42.7505L41.8929 43.1868Z" fill="white"/>
<path d="M25.4997 4.22095C16.7142 4.22095 9.56689 11.3684 9.56689 20.1537C9.56689 28.939 16.7142 36.0866 25.4997 36.0866C28.5251 36.0866 31.4691 35.2348 34.0134 33.6233C36.4889 32.0555 38.484 29.8417 39.783 27.2211C39.9765 26.8308 39.8168 26.3576 39.4266 26.164C39.0364 25.9706 38.5631 26.1302 38.3695 26.5204C35.9269 31.4479 30.9954 34.5089 25.4997 34.5089C17.5841 34.5089 11.1443 28.0691 11.1443 20.1535C11.1443 12.2379 17.5841 5.79836 25.4997 5.79836C33.4152 5.79836 39.855 12.2381 39.855 20.1536C39.855 21.0887 39.7646 22.0238 39.5863 22.933C39.5025 23.3604 39.781 23.775 40.2085 23.8588C40.6356 23.9428 41.0505 23.664 41.1343 23.2366C41.3321 22.2277 41.4324 21.1904 41.4324 20.1537C41.4324 11.3684 34.2851 4.22095 25.4997 4.22095Z" fill="white"/>
<path d="M37.307 17.8145L32.8899 11.0838C32.7443 10.8616 32.4964 10.7278 32.2306 10.7278H18.7693C18.5036 10.7278 18.2558 10.8616 18.1098 11.0838L13.6928 17.8145C13.5016 18.1059 13.5242 18.4883 13.7486 18.755L24.8964 32.0061C25.0463 32.1843 25.2672 32.2871 25.4999 32.2871C25.7326 32.2871 25.9536 32.1842 26.1034 32.0061L37.2512 18.755C37.4756 18.4883 37.4983 18.1059 37.307 17.8145ZM32.3122 13.0785L35.0486 17.2482H30.16L32.3122 13.0785ZM30.9361 12.3053L28.8539 16.3394L26.7024 12.3053H30.9361ZM27.5508 17.2482H23.4493L25.5 13.403L27.5508 17.2482ZM24.2976 12.3053L22.1346 16.3609L19.9717 12.3053H24.2976ZM18.6374 13.1554L20.8201 17.2482H15.9514L18.6374 13.1554ZM15.8696 18.8257H21.5261L24.0888 28.5955L15.8696 18.8257ZM25.5001 27.7584L23.157 18.8257H27.8431L25.5001 27.7584ZM26.9114 28.5955L29.474 18.8257H35.1304L26.9114 28.5955Z" fill="white"/>
<path d="M50.2129 4.63567C49.6774 4.56445 48.3279 4.26632 47.3645 3.03795C46.68 2.16467 46.5157 1.21729 46.4786 0.730403C46.4472 0.319218 46.1045 0.00146484 45.692 0.00146484C45.2795 0.00146484 44.9368 0.319218 44.9055 0.730403C44.8683 1.21739 44.704 2.16477 44.0196 3.03795C43.056 4.26642 41.7065 4.56455 41.1711 4.63567C40.7791 4.68777 40.4863 5.02206 40.4863 5.4176C40.4863 5.81315 40.7792 6.14734 41.1711 6.19953C41.7066 6.27075 43.0561 6.56888 44.0196 7.79726C44.7041 8.67053 44.8684 9.61792 44.9055 10.1048C44.9369 10.516 45.2795 10.8337 45.692 10.8337C46.1045 10.8337 46.4472 10.516 46.4785 10.1048C46.5157 9.61782 46.68 8.67043 47.3643 7.79736C48.3279 6.56878 49.6774 6.27065 50.2128 6.19953C50.6049 6.14744 50.8977 5.81315 50.8977 5.4176C50.8978 5.02206 50.605 4.68777 50.2129 4.63567ZM46.123 6.82398C45.9589 7.03326 45.8162 7.24473 45.6921 7.4557C45.5679 7.24473 45.425 7.03316 45.261 6.82388C44.7659 6.19266 44.1992 5.74083 43.6455 5.4176C44.1993 5.09437 44.7661 4.64255 45.261 4.01132L45.2611 4.01122C45.4251 3.80195 45.5679 3.59048 45.692 3.3795C45.8162 3.59048 45.959 3.80205 46.1231 4.01132C46.6182 4.64255 47.1849 5.09437 47.7386 5.4176C47.1849 5.74083 46.6181 6.19276 46.123 6.82398Z" fill="white"/>
<path d="M9.83013 4.63567C9.29473 4.56445 7.94523 4.26632 6.98172 3.03795C6.2972 2.16467 6.13285 1.21729 6.09579 0.730403C6.06442 0.319218 5.72166 0.00146484 5.30928 0.00146484C4.8968 0.00146484 4.55404 0.319218 4.52277 0.730403C4.48561 1.21739 4.32126 2.16477 3.63695 3.03785C2.67333 4.26642 1.32383 4.56455 0.788427 4.63567C0.396366 4.68787 0.103516 5.02206 0.103516 5.4176C0.103516 5.81315 0.396366 6.14734 0.788327 6.19953C1.32383 6.27065 2.67333 6.56878 3.63675 7.79726C4.32126 8.67053 4.48561 9.61792 4.52267 10.1048C4.55414 10.516 4.8969 10.8337 5.30918 10.8337C5.72156 10.8337 6.06442 10.516 6.09569 10.1048C6.13285 9.61782 6.2972 8.67043 6.98152 7.79736C7.94513 6.56878 9.29463 6.27065 9.83003 6.19953C10.2221 6.14744 10.5148 5.81315 10.5148 5.4176C10.515 5.02206 10.2221 4.68777 9.83013 4.63567ZM5.74009 6.82398C5.57603 7.03326 5.43329 7.24473 5.30918 7.4557C5.18497 7.24473 5.04213 7.03316 4.87807 6.82388C4.38312 6.19266 3.81634 5.74083 3.26261 5.4176C3.81634 5.09437 4.38331 4.64245 4.87827 4.01122C5.04233 3.80195 5.18507 3.59048 5.30918 3.3795C5.43329 3.59048 5.57613 3.80195 5.74009 4.01122L5.74019 4.01132C6.23524 4.64255 6.80212 5.09437 7.35575 5.4176C6.80212 5.74083 6.23525 6.19276 5.74009 6.82398Z" fill="white"/>
<path d="M30.02 44.386C29.4846 44.3148 28.1351 44.0167 27.1716 42.7883C26.487 41.915 26.3227 40.9677 26.2856 40.4808C26.2543 40.0696 25.9116 39.7518 25.4991 39.7518C25.0866 39.7518 24.7439 40.0696 24.7126 40.4808C24.6755 40.9678 24.5111 41.9151 23.8268 42.7882C22.8632 44.0168 21.5137 44.3149 20.9783 44.386C20.5862 44.4381 20.2935 44.7724 20.2935 45.168C20.2935 45.5635 20.5863 45.8977 20.9783 45.9499C21.5138 46.0211 22.8633 46.3192 23.8267 47.5476C24.5112 48.4209 24.6756 49.3683 24.7126 49.8552C24.744 50.2664 25.0866 50.5841 25.4991 50.5841C25.9116 50.5841 26.2544 50.2664 26.2856 49.8552C26.3228 49.3682 26.4871 48.4208 27.1715 47.5477C28.1351 46.3191 29.4846 46.021 30.02 45.9499C30.412 45.8978 30.7048 45.5635 30.7048 45.168C30.7048 44.7724 30.412 44.4381 30.02 44.386ZM25.9299 46.5743C25.7659 46.7836 25.6231 46.9951 25.499 47.2061C25.3748 46.9951 25.232 46.7835 25.0679 46.5742C24.5729 45.943 24.0061 45.4912 23.4525 45.168C24.0062 44.8446 24.5731 44.3928 25.0681 43.7616C25.2322 43.5523 25.3749 43.3408 25.499 43.1299C25.6231 43.3408 25.766 43.5523 25.9299 43.7616L25.93 43.7617C26.4251 44.3929 26.9919 44.8447 27.5455 45.168C26.992 45.4912 26.425 45.9431 25.9299 46.5743Z" fill="white"/>
</g>
<defs>
<clipPath id="clip0_154_3604">
<rect width="51" height="51" fill="white"/>
</clipPath>
</defs>
</svg>
