<svg width="20" height="20" viewBox="0 0 20 20" fill="none" xmlns="http://www.w3.org/2000/svg">
<path d="M11.759 5.84619C11.759 9.04033 9.16094 11.6294 5.95664 11.6294C2.75195 11.6294 0.154297 9.03994 0.154297 5.84619C0.154297 2.65205 2.75234 0.0629883 5.95664 0.0629883C9.16133 0.0629883 11.759 2.65205 11.759 5.84619Z" fill="url(#paint0_linear_385_2119)"/>
<path d="M19.8457 14.1519C19.8457 17.3472 17.2469 19.937 14.041 19.937C10.8352 19.937 8.23633 17.3468 8.23633 14.1519C8.23633 10.9569 10.8352 8.3667 14.041 8.3667C17.2469 8.3667 19.8457 10.9565 19.8457 14.1519Z" fill="url(#paint1_linear_385_2119)"/>
<path opacity="0.05" fill-rule="evenodd" clip-rule="evenodd" d="M0.174805 6.34102C0.438086 9.53438 3.24043 11.9098 6.43379 11.6465C9.62715 11.3832 12.0025 8.58086 11.7393 5.3875C11.5135 2.65195 9.40176 0.448828 6.67832 0.107422C3.68731 1.10781 1.30137 3.39492 0.174805 6.34102Z" fill="black"/>
<path opacity="0.05" fill-rule="evenodd" clip-rule="evenodd" d="M19.8306 13.7363C19.6115 10.5382 16.8415 8.12377 13.6435 8.34291C10.4455 8.56205 8.031 11.332 8.25014 14.53C8.44506 17.3742 10.6763 19.6554 13.5154 19.9132C16.4232 18.8777 18.7314 16.6203 19.8306 13.7359V13.7363Z" fill="black"/>
<path opacity="0.1" fill-rule="evenodd" clip-rule="evenodd" d="M0.446777 7.66358C1.44209 10.7081 4.71709 12.3694 7.76162 11.3741C10.8062 10.3788 12.4675 7.10381 11.4722 4.05928C10.9249 2.38506 9.64639 1.05029 7.99717 0.431152C4.30498 1.20068 1.37451 4.00772 0.446777 7.66358Z" fill="black"/>
<path opacity="0.1" fill-rule="evenodd" clip-rule="evenodd" d="M19.5667 12.3766C18.5949 9.32348 15.3316 7.63599 12.2785 8.60786C9.22534 9.57974 7.53784 12.843 8.50972 15.8965C9.06636 17.645 10.4171 19.027 12.1523 19.6235C15.796 18.8055 18.666 16.0008 19.5667 12.3766Z" fill="black"/>
<path opacity="0.1" fill-rule="evenodd" clip-rule="evenodd" d="M0.660156 8.21182C1.95937 11.1388 5.38516 12.4587 8.3125 11.1599C11.2398 9.86104 12.5594 6.43486 11.2605 3.50752C10.7125 2.27236 9.75 1.26729 8.53984 0.666504C4.59101 1.28096 1.44492 4.29346 0.660156 8.21182Z" fill="black"/>
<path opacity="0.1" fill-rule="evenodd" clip-rule="evenodd" d="M19.3527 11.817C18.071 8.88107 14.6523 7.53966 11.7159 8.8213C8.78 10.1029 7.43859 13.5217 8.72023 16.458C9.28664 17.7561 10.3085 18.8022 11.5933 19.3986C15.5062 18.7334 18.5972 15.7135 19.3527 11.817Z" fill="black"/>
<path d="M19.191 10.0431C19.191 15.1021 15.0762 19.2028 10.0008 19.2028C4.925 19.2028 0.810547 15.1017 0.810547 10.0431C0.810547 4.98408 4.92539 0.883301 10.0008 0.883301C15.0766 0.88291 19.191 4.98408 19.191 10.0431Z" fill="url(#paint2_linear_385_2119)"/>
<path fill-rule="evenodd" clip-rule="evenodd" d="M7.41644 9.72473C7.04495 9.4802 6.73518 9.15325 6.51096 8.76965C6.29456 8.36418 6.18753 7.9091 6.20081 7.44934C6.1844 6.86613 6.38362 6.29739 6.7598 5.85129C7.1512 5.40364 7.65394 5.0677 8.21722 4.87746C8.82972 4.66106 9.47542 4.55246 10.125 4.55598C10.55 4.55207 10.9746 4.58449 11.3942 4.65324C11.6946 4.69973 11.9895 4.7759 12.2746 4.88059C12.5364 4.96926 12.7731 5.12004 12.9637 5.32043C13.1043 5.48528 13.1797 5.69543 13.1762 5.91184C13.1864 6.13879 13.1059 6.36067 12.9524 6.52864C12.8071 6.68332 12.6024 6.76887 12.3899 6.76301C12.2453 6.76184 12.1028 6.72981 11.9719 6.66887C11.6489 6.52434 11.316 6.40246 10.9762 6.30442C10.6633 6.222 10.3407 6.18176 10.0168 6.18528C9.59495 6.16965 9.17776 6.27668 8.81526 6.4927C8.50354 6.68215 8.31995 7.0259 8.33558 7.39036C8.33323 7.62512 8.42268 7.85168 8.58479 8.0216C8.77737 8.22121 9.00472 8.3841 9.25589 8.50207C9.53714 8.64153 9.95667 8.82668 10.5145 9.05715C10.5762 9.07668 10.6364 9.1009 10.6946 9.12942C11.2387 9.34465 11.7606 9.61301 12.2528 9.9302C12.6414 10.1833 12.9688 10.5197 13.2121 10.9146C13.4516 11.3298 13.5715 11.8029 13.5586 12.2818C13.5785 12.8681 13.4106 13.4458 13.0789 13.9298C12.741 14.388 12.2739 14.7349 11.7375 14.9255C11.091 15.1564 10.4075 15.2681 9.72112 15.254C8.77776 15.2872 7.8387 15.1095 6.97268 14.7341C6.7512 14.6357 6.55706 14.4845 6.40706 14.2943C6.28245 14.12 6.21761 13.9099 6.22307 13.6954C6.21057 13.4665 6.29886 13.2439 6.46487 13.0861C6.63675 12.9357 6.85979 12.8568 7.08831 12.8661C7.34261 12.8697 7.59261 12.9337 7.81683 13.0536C8.09612 13.1931 8.31604 13.2978 8.47737 13.3677C8.66136 13.4447 8.85198 13.5052 9.0469 13.5478C9.28714 13.6005 9.53284 13.6259 9.77893 13.6232C10.2141 13.6544 10.6473 13.5388 11.009 13.2954C11.284 13.0802 11.4383 12.7458 11.4239 12.397C11.4242 12.1532 11.3313 11.9185 11.1641 11.7411C10.943 11.513 10.6844 11.3247 10.3996 11.1845C10.0625 11.0068 9.5887 10.7907 8.97815 10.5353C8.43167 10.3189 7.90862 10.047 7.41644 9.72473Z" fill="white"/>
<defs>
<linearGradient id="paint0_linear_385_2119" x1="5.05129" y1="0.133926" x2="6.86131" y2="11.5606" gradientUnits="userSpaceOnUse">
<stop offset="0.012" stop-color="#00B7F0"/>
<stop offset="0.339" stop-color="#009DE5"/>
<stop offset="0.755" stop-color="#0082D9"/>
<stop offset="1" stop-color="#0078D4"/>
</linearGradient>
<linearGradient id="paint1_linear_385_2119" x1="9.01743" y1="17.053" x2="19.0646" y2="11.2526" gradientUnits="userSpaceOnUse">
<stop stop-color="#0078D4"/>
<stop offset="0.37" stop-color="#007AD5"/>
<stop offset="0.573" stop-color="#0082D9"/>
<stop offset="0.735" stop-color="#0090DF"/>
<stop offset="0.875" stop-color="#00A3E7"/>
<stop offset="1" stop-color="#00BCF2"/>
</linearGradient>
<linearGradient id="paint2_linear_385_2119" x1="6.41444" y1="3.83249" x2="15.5836" y2="19.7137" gradientUnits="userSpaceOnUse">
<stop stop-color="#00B7F0"/>
<stop offset="1" stop-color="#007CC1"/>
</linearGradient>
</defs>
</svg>
