<svg width="51" height="51" viewBox="0 0 51 51" fill="none" xmlns="http://www.w3.org/2000/svg">
<path d="M13.9752 34.5609L13.9752 34.5608C10.2392 31.8032 6.99546 28.7613 4.6814 26.4021C4.31162 26.0251 3.96598 25.6659 3.6463 25.3286C6.41633 25.6981 8.84328 25.698 9.65536 25.698L9.67241 25.698C11.311 25.698 12.8676 25.4801 14.3369 25.1611C17.1144 26.4395 21.2705 27.948 25.5 27.948C29.7295 27.948 33.8857 26.4395 36.6631 25.1611C38.1324 25.4801 39.689 25.698 41.3276 25.698L41.3446 25.698C42.1567 25.698 44.5837 25.6981 47.3537 25.3286C47.034 25.6659 46.6884 26.0251 46.3186 26.4021C44.0045 28.7613 40.7608 31.8032 37.0248 34.5608L37.8103 35.6251L37.0248 34.5609C33.7478 36.9797 29.2628 37.6773 25.5 37.6773C21.7372 37.6773 17.2522 36.9797 13.9752 34.5609Z" stroke="white" stroke-width="2.6455"/>
<path d="M25.5 19.6771C23.6756 19.6771 21.793 20.1856 19.9558 20.7586C19.471 20.9098 18.9889 21.0656 18.5059 21.2217C17.1001 21.676 15.6878 22.1324 14.1867 22.4827C12.7199 22.825 11.2212 23.0521 9.67241 23.0521C8.84317 23.0521 6.43294 23.0492 3.76773 22.6754C5.51786 21.6451 7.32939 20.4994 9.09875 19.3804C10.1861 18.6927 11.2575 18.015 12.289 17.3805C14.1946 16.2081 15.9717 15.1759 17.5273 14.4391C19.1242 13.6827 20.3171 13.3228 21.1034 13.3228C22.075 13.3228 22.4913 13.5828 22.897 13.8687C22.9454 13.9028 22.9978 13.9413 23.0543 13.9829C23.529 14.332 24.298 14.8976 25.5 14.8976C26.702 14.8976 27.471 14.332 27.9457 13.9829C28.0022 13.9413 28.0546 13.9028 28.103 13.8687C28.5087 13.5828 28.925 13.3228 29.8966 13.3228C30.6829 13.3228 31.8758 13.6827 33.4727 14.4391C35.0283 15.1759 36.8054 16.2081 38.711 17.3805C39.7425 18.015 40.8139 18.6927 41.9013 19.3804C43.6706 20.4994 45.4821 21.6451 47.2323 22.6754C44.5671 23.0492 42.1568 23.0521 41.3276 23.0521C39.7788 23.0521 38.2801 22.825 36.8133 22.4827C35.3122 22.1324 33.8999 21.676 32.4941 21.2217C32.0111 21.0656 31.529 20.9098 31.0442 20.7586C29.207 20.1856 27.3244 19.6771 25.5 19.6771Z" stroke="white" stroke-width="2.6455"/>
</svg>
