<svg width="67" height="23" viewBox="0 0 67 23" fill="none" xmlns="http://www.w3.org/2000/svg">
<path d="M1.00391 10.4839C1.94774 7.0518 5.19777 4.63179 8.10316 2.85224C10.5055 1.38078 13.3365 1.07253 16.0983 1.05207C19.8008 1.02464 22.7096 2.01366 25.9274 3.85797C29.0932 5.67252 32.0948 7.69314 35.3085 9.4275C41.0337 12.5173 47.4254 13.9703 53.8004 12.1489C57.1362 11.1958 59.9864 8.70634 62.5815 6.49483C63.5224 5.69302 64.4365 4.75789 65.1677 3.75655C65.2712 3.61472 65.81 2.75431 65.81 2.87759" stroke="#008BD0" stroke-width="1.78344" stroke-linecap="round"/>
<path d="M1.00391 19.4839C1.94774 16.0518 5.19777 13.6318 8.10316 11.8522C10.5055 10.3808 13.3365 10.0725 16.0983 10.0521C19.8008 10.0246 22.7096 11.0137 25.9274 12.858C29.0932 14.6725 32.0948 16.6931 35.3085 18.4275C41.0337 21.5173 47.4254 22.9703 53.8004 21.1489C57.1362 20.1958 59.9864 17.7063 62.5815 15.4948C63.5224 14.693 64.4365 13.7579 65.1677 12.7565C65.2712 12.6147 65.81 11.7543 65.81 11.8776" stroke="#008BD0" stroke-width="1.78344" stroke-linecap="round"/>
</svg>
