<svg width="54" height="54" viewBox="0 0 54 54" fill="none" xmlns="http://www.w3.org/2000/svg">
<path d="M27.558 16.7991C22.2659 16.7991 17.9604 21.1044 17.9604 26.3964C17.9604 31.6886 22.2659 35.994 27.558 35.994C32.8501 35.994 37.1555 31.6886 37.1555 26.3964C37.1555 21.1045 32.8501 16.7991 27.558 16.7991ZM27.558 33.311C23.7453 33.311 20.6435 30.2093 20.6435 26.3965C20.6435 22.584 23.7453 19.4823 27.558 19.4823C31.3707 19.4823 34.4724 22.584 34.4724 26.3965C34.4724 30.2092 31.3707 33.311 27.558 33.311Z" fill="black"/>
<path d="M12.1109 22.2697C9.83543 22.2697 7.98438 24.1208 7.98438 26.3963C7.98438 28.6716 9.83543 30.5227 12.1109 30.5227C14.3863 30.5227 16.2374 28.6716 16.2374 26.3963C16.2374 24.1208 14.3863 22.2697 12.1109 22.2697ZM12.1109 27.8395C11.3151 27.8395 10.6674 27.1921 10.6674 26.3961C10.6674 25.6002 11.315 24.9527 12.1109 24.9527C12.9069 24.9527 13.5543 25.6002 13.5543 26.3961C13.5543 27.1921 12.9069 27.8395 12.1109 27.8395Z" fill="black"/>
<path d="M43.0019 22.2697C40.7266 22.2697 38.8755 24.1208 38.8755 26.3963C38.8755 28.6716 40.7266 30.5227 43.0019 30.5227C45.2774 30.5227 47.1286 28.6716 47.1286 26.3963C47.1286 24.1208 45.2774 22.2697 43.0019 22.2697ZM43.0019 27.8395C42.2059 27.8395 41.5586 27.1921 41.5586 26.3961C41.5586 25.6002 42.2059 24.9527 43.0019 24.9527C43.7979 24.9527 44.4455 25.6002 44.4455 26.3961C44.4455 27.1921 43.798 27.8395 43.0019 27.8395Z" fill="black"/>
<path d="M50.5595 12.2366H3.44046C1.5434 12.2366 0 13.78 0 15.677V37.7672C0 39.6644 1.5434 41.2079 3.44046 41.2079H50.5595C52.4566 41.2079 54 39.6644 54 37.7672V15.6769C54 13.78 52.4566 12.2366 50.5595 12.2366ZM43.9043 38.5247H10.0985C9.7431 34.5249 6.6333 31.3073 2.68319 30.7843V22.294C6.51193 21.787 9.55069 18.7482 10.0575 14.9195H43.9453C44.4521 18.7475 47.4895 21.7857 51.3169 22.2937V30.7846C47.3682 31.3087 44.2597 34.5259 43.9043 38.5247ZM51.3169 15.6769V19.5773C48.9713 19.1185 47.1193 17.2657 46.6614 14.9195H50.5595C50.9772 14.9196 51.3169 15.2594 51.3169 15.6769ZM3.44046 14.9196H7.34125C6.88334 17.2667 5.03011 19.1199 2.68306 19.5779V15.6769C2.68319 15.2594 3.02292 14.9196 3.44046 14.9196ZM2.68319 37.7672V33.5005C5.15085 33.982 7.07218 36.0061 7.40015 38.5247H3.44046C3.02292 38.5247 2.68319 38.1849 2.68319 37.7672ZM50.5595 38.5247H46.6027C46.9305 36.007 48.8504 33.9833 51.3168 33.501V37.7672C51.3169 38.1849 50.9772 38.5247 50.5595 38.5247Z" fill="black"/>
</svg>
