<svg width="20" height="20" viewBox="0 0 20 20" fill="none" xmlns="http://www.w3.org/2000/svg">
<path d="M9.77012 1.20011C9.2248 1.20324 8.67793 1.23605 8.12637 1.30324C7.07168 1.43293 6.02637 1.64855 5.02324 2.10949C3.42793 2.8423 2.29668 4.08605 1.96856 5.89386C1.82949 6.65636 1.71699 7.4298 1.65293 8.20793C1.52949 9.71886 1.60606 11.2345 2.03418 12.7236C2.37168 13.897 2.99356 14.9517 4.08262 15.6361C4.54356 15.9251 5.15137 16.0657 5.46856 16.2126C5.55762 16.2548 5.57949 16.2798 5.58418 16.2861C5.58887 16.2907 5.60137 16.3017 5.59981 16.3954C5.58887 17.3517 5.59981 19.2017 5.59981 19.2017L5.60137 19.6001H6.31543L6.43106 19.4876C6.43106 19.4876 8.24512 17.7423 8.90137 17.0236C9.02012 16.8954 9.08106 16.8236 9.09355 16.8157C9.10449 16.8079 9.08574 16.8032 9.20762 16.8001C10.0686 16.7829 10.9279 16.7501 11.7873 16.7032C12.9201 16.6407 14.0748 16.5329 15.1857 16.0689C16.1529 15.6642 16.9607 15.0032 17.4498 14.0126C17.9498 12.997 18.217 11.9204 18.317 10.8064C18.4826 8.95168 18.4248 7.09386 17.9123 5.26261C17.6107 4.18918 17.0045 3.28136 16.0748 2.64074C14.9623 1.87511 13.7076 1.58761 12.4795 1.4048C11.7623 1.29855 11.0404 1.22824 10.3154 1.20636C10.1342 1.20168 9.95293 1.19855 9.77012 1.20011ZM10.2936 2.00636C10.9826 2.02511 11.6717 2.0923 12.3623 2.19543C13.5467 2.37199 14.6639 2.64074 15.6217 3.30011C16.3982 3.83449 16.8826 4.55636 17.142 5.47668C17.6201 7.18918 17.6811 8.94386 17.5201 10.7361C17.4279 11.7689 17.1826 12.7423 16.7311 13.6595C16.3326 14.4689 15.7107 14.9829 14.8764 15.3314C13.9076 15.7361 12.8545 15.8439 11.7451 15.9048C10.8951 15.9517 10.0436 15.9829 9.19199 16.0001C8.97793 16.0048 8.76856 16.0611 8.62012 16.1704C8.47168 16.2798 8.40449 16.3814 8.3123 16.4814C7.84355 16.9939 6.90918 17.8954 6.39981 18.3892C6.39668 17.7923 6.39199 17.0704 6.39981 16.4048C6.40293 16.2001 6.35606 15.9907 6.23887 15.8251C6.12168 15.6595 5.96074 15.5595 5.80606 15.4876C5.35449 15.2782 4.76387 15.1189 4.50762 14.9579C3.61231 14.3954 3.10449 13.5517 2.80293 12.5017C2.40762 11.1282 2.33262 9.71418 2.44981 8.27511C2.51231 7.52824 2.62012 6.7798 2.75606 6.03761C3.04043 4.47355 3.93418 3.48918 5.35606 2.83605C6.25449 2.42355 7.21387 2.22043 8.2248 2.09699C8.91387 2.01261 9.60293 1.98605 10.2936 2.00636ZM10.4623 4.00011C10.1326 4.00011 9.81231 4.03761 9.50137 4.10636C9.2873 4.15636 9.15137 4.37043 9.1998 4.58605C9.24824 4.80168 9.46387 4.93605 9.67949 4.88761C9.93106 4.8298 10.1936 4.80011 10.4623 4.80011C12.4154 4.80011 13.9904 6.37511 13.9904 8.32668C13.9904 8.59699 13.9607 8.85949 13.9029 9.11261C13.8545 9.32668 13.9889 9.5423 14.2045 9.59074C14.4201 9.63918 14.6342 9.50324 14.6826 9.28761C14.7529 8.97824 14.7904 8.65793 14.7904 8.32668C14.7904 5.9423 12.8482 4.00011 10.4623 4.00011ZM6.47168 4.80168C6.40605 4.79855 6.33887 4.80324 6.26856 4.81886C5.54199 4.9798 4.82012 5.50636 4.79981 6.44699C4.82012 6.57824 4.81856 6.71886 4.86699 6.83761C5.10449 7.41886 5.31074 8.01886 5.60762 8.56886C7.05293 11.2407 9.23887 13.0986 12.0248 14.2782C12.3576 14.4189 12.7014 14.4486 13.0373 14.3079C13.4998 14.1157 13.892 13.8189 14.1529 13.3923C14.5107 12.8064 14.5154 12.4001 13.9264 11.9673C13.5404 11.6829 13.1607 11.3907 12.7701 11.1126C12.1748 10.6907 11.5311 10.6173 11.0873 11.3579C11.0639 11.3954 11.0295 11.4267 10.9998 11.4579C10.7717 11.7001 10.492 11.7595 10.1951 11.6376C9.06855 11.1736 8.19824 10.4251 7.67324 9.31105C7.36387 8.65636 7.44824 8.32824 8.02637 7.8923C8.08418 7.85011 8.13887 7.8048 8.19199 7.75636C8.44512 7.52511 8.51231 7.25011 8.36231 6.93918C8.02324 6.2298 7.57168 5.59699 6.9998 5.05168C6.84512 4.9048 6.66855 4.81261 6.47168 4.80168ZM10.4561 5.20011C10.2795 5.20011 10.1045 5.21418 9.93262 5.24386C9.7873 5.26261 9.66387 5.35949 9.61074 5.49543C9.55762 5.63293 9.58418 5.78761 9.67793 5.90011C9.77324 6.01105 9.92324 6.06261 10.067 6.03136C10.192 6.01105 10.3232 6.00011 10.4561 6.00011C11.7561 6.00011 12.7998 7.04386 12.7998 8.34386C12.7998 8.47668 12.7889 8.60793 12.7686 8.73293C12.7373 8.87668 12.7889 9.02668 12.8998 9.12199C13.0123 9.21574 13.167 9.2423 13.3045 9.18918C13.4404 9.13605 13.5373 9.01261 13.5561 8.8673C13.5857 8.69543 13.5998 8.52043 13.5998 8.34386C13.5998 6.61261 12.1873 5.20011 10.4561 5.20011ZM10.3998 6.40011C10.2561 6.39855 10.1217 6.47355 10.0482 6.59855C9.97637 6.72355 9.97637 6.87668 10.0482 7.00168C10.1217 7.12668 10.2561 7.20168 10.3998 7.20011C11.067 7.20011 11.5998 7.73293 11.5998 8.40011C11.5982 8.54386 11.6732 8.67824 11.7982 8.75168C11.9232 8.82355 12.0764 8.82355 12.2014 8.75168C12.3264 8.67824 12.4014 8.54386 12.3998 8.40011C12.3998 7.30011 11.4998 6.40011 10.3998 6.40011Z" fill="#9731BB"/>
</svg>
