<svg width="55" height="54" viewBox="0 0 55 54" fill="none" xmlns="http://www.w3.org/2000/svg">
<path d="M39.7513 0.677251C38.8805 0.348751 37.5238 0 35.8363 0C31.5163 0 28.4675 2.178 28.445 5.29875C28.418 7.59375 30.614 8.88525 32.2723 9.65475C33.9755 10.4423 34.5448 10.9373 34.5402 11.646C34.529 12.7193 33.179 13.2053 31.9258 13.2053C30.2022 13.2053 29.2572 12.9645 27.806 12.3615L27.2683 12.1118L26.6585 15.7073C27.707 16.146 29.597 16.5218 31.5522 16.551C36.1445 16.551 39.146 14.3888 39.182 11.0633C39.218 9.234 38.0345 7.84575 35.5348 6.70275C34.0182 5.96025 33.0732 5.463 33.0732 4.70925C33.0732 4.04325 33.881 3.33225 35.5685 3.33225C37.0198 3.30975 38.0345 3.6225 38.8423 3.9465L39.2473 4.12875L39.857 0.654751L39.7513 0.677251ZM50.963 0.294751H47.588C46.5373 0.294751 45.752 0.5805 45.2907 1.6245L38.7995 16.326H43.3918L44.3098 13.9185L49.9123 13.923C50.0495 14.4855 50.4523 16.326 50.4523 16.326H54.5L50.963 0.294751ZM22.235 0.15975H26.6067L23.873 16.2H19.499L22.235 0.155251V0.15975ZM11.1223 9L11.5767 11.2275L15.854 0.294751H20.4868L13.5995 16.3035H8.978L5.198 2.745C5.11925 2.51325 5.0225 2.35575 4.793 2.21175C3.515 1.5435 2.08625 0.999 0.5 0.621L0.55625 0.283501H7.601C8.555 0.319501 9.3245 0.621001 9.58775 1.6425L11.1223 9.00675V9ZM45.5652 10.6358L47.309 6.14925C47.2865 6.19425 47.669 5.22225 47.8895 4.61925L48.1888 6.003L49.199 10.6313H45.5652V10.6358Z" fill="black"/>
<path d="M16.25 53.051C24.9485 53.051 32 45.9995 32 37.301C32 28.6025 24.9485 21.551 16.25 21.551C7.55152 21.551 0.5 28.6025 0.5 37.301C0.5 45.9995 7.55152 53.051 16.25 53.051Z" fill="#EA001B"/>
<path d="M38.75 53.051C47.4485 53.051 54.5 45.9995 54.5 37.301C54.5 28.6025 47.4485 21.551 38.75 21.551C30.0515 21.551 23 28.6025 23 37.301C23 45.9995 30.0515 53.051 38.75 53.051Z" fill="#FFA200" fill-opacity="0.8"/>
</svg>
