<svg width="82" height="82" viewBox="0 0 82 82" fill="none" xmlns="http://www.w3.org/2000/svg">
<g clip-path="url(#clip0_154_3154)">
<path d="M67.3105 30.1098C64.7914 24.6569 61.2843 19.286 56.8861 14.1461C49.4152 5.41528 42.0497 0.432758 41.7398 0.225013C41.2923 -0.0750043 40.7076 -0.0750043 40.2601 0.225013C39.9503 0.432758 32.5847 5.41528 25.1138 14.1461C20.7156 19.2859 17.2084 24.6569 14.6894 30.1098C11.5233 36.9637 9.91797 43.9645 9.91797 50.918C9.91797 68.0567 23.8612 82.0001 41 82.0001C58.1389 82.0001 72.0821 68.0567 72.0821 50.918C72.0821 43.9645 70.4767 36.9637 67.3105 30.1098ZM41 79.3435C25.3262 79.3435 12.5746 66.5919 12.5746 50.918C12.5746 44.3647 14.0916 37.7514 17.0837 31.2619C19.4927 26.0371 22.8579 20.878 27.0855 15.9283C32.9842 9.02239 38.9548 4.43995 41.0004 2.95492C43.0392 4.43358 48.9739 8.98573 54.8678 15.8734C59.1073 20.8281 62.4823 25.9927 64.8991 31.2242C67.9024 37.7259 69.4255 44.352 69.4255 50.918C69.4255 66.5919 56.6739 79.3435 41 79.3435Z" fill="white"/>
<path d="M64.7254 55.2949C64.012 55.1223 63.2945 55.5604 63.1218 56.2733C61.5998 62.5597 57.4396 67.9258 51.7077 70.9957C51.0611 71.342 50.8176 72.1471 51.164 72.7937C51.4035 73.2407 51.862 73.495 52.3361 73.495C52.5476 73.495 52.7624 73.4444 52.962 73.3374C59.3599 69.9108 64.0042 63.9189 65.7037 56.8983C65.8764 56.1854 65.4384 55.4674 64.7254 55.2949Z" fill="white"/>
<path d="M66.3063 47.9865C66.2521 47.2551 65.617 46.7069 64.8836 46.7599C64.152 46.8141 63.603 47.4509 63.657 48.1826C63.7243 49.0906 63.7583 50.0108 63.7583 50.9178C63.7583 51.6515 64.3528 52.2461 65.0866 52.2461C65.8203 52.2461 66.4149 51.6515 66.4149 50.9178C66.4149 49.9457 66.3784 48.9594 66.3063 47.9865Z" fill="white"/>
<path d="M35.3325 38.2549C34.5988 38.2549 34.0042 38.8494 34.0042 39.5832V46.756H25.326V39.5832C25.326 38.8494 24.7315 38.2549 23.9977 38.2549C23.264 38.2549 22.6694 38.8494 22.6694 39.5832V56.5853C22.6694 57.3191 23.264 57.9136 23.9977 57.9136C24.7315 57.9136 25.326 57.3191 25.326 56.5853V49.4125H34.0042V56.5853C34.0042 57.3191 34.5988 57.9136 35.3325 57.9136C36.0662 57.9136 36.6608 57.3191 36.6608 56.5853V39.5832C36.6608 38.8494 36.0661 38.2549 35.3325 38.2549Z" fill="white"/>
<path d="M59.3307 50.9179V45.2506C59.3307 41.3932 56.1924 38.2549 52.335 38.2549C48.4777 38.2549 45.3394 41.3932 45.3394 45.2506V50.9179C45.3394 54.7753 48.4777 57.9136 52.335 57.9136C56.1924 57.9136 59.3307 54.7753 59.3307 50.9179ZM47.9959 50.9179V45.2506C47.9959 42.8579 49.9423 40.9115 52.335 40.9115C54.7277 40.9115 56.6741 42.8579 56.6741 45.2506V50.9179C56.6741 53.3106 54.7277 55.257 52.335 55.257C49.9423 55.257 47.9959 53.3106 47.9959 50.9179Z" fill="white"/>
<path d="M41.7084 62.1642H42.4169C44.3211 62.1642 45.8704 60.6149 45.8704 58.7106C45.8704 56.8064 44.3211 55.2571 42.4169 55.2571H41C39.4863 55.2571 38.2549 56.4885 38.2549 58.0022C38.2549 58.736 38.8494 59.3305 39.5832 59.3305C40.3169 59.3305 40.9115 58.736 40.9115 58.0022C40.9115 57.9535 40.9513 57.9137 41 57.9137H42.4169C42.8563 57.9137 43.2138 58.2712 43.2138 58.7106C43.2138 59.15 42.8563 59.5076 42.4169 59.5076H41.7084C39.8042 59.5076 38.2549 61.0569 38.2549 62.9612V65.0865C38.2549 65.8202 38.8494 66.4147 39.5832 66.4147H44.5421C45.2759 66.4147 45.8704 65.8202 45.8704 65.0865C45.8704 64.3527 45.2759 63.7582 44.5421 63.7582H40.9115V62.9612C40.9115 62.5216 41.2689 62.1642 41.7084 62.1642Z" fill="white"/>
</g>
<defs>
<clipPath id="clip0_154_3154">
<rect width="82" height="82" fill="white"/>
</clipPath>
</defs>
</svg>
