<svg width="20" height="20" viewBox="0 0 20 20" fill="none" xmlns="http://www.w3.org/2000/svg">
<path d="M10.0096 1.66675C5.42127 1.66675 1.68607 5.39873 1.68441 9.98706C1.68357 11.4537 2.06773 12.8856 2.79606 14.1472L1.6665 18.3334L6.02686 17.3031C7.24269 17.9665 8.61139 18.3147 10.0047 18.3155H10.008C14.5955 18.3155 18.329 14.5827 18.3315 9.9952C18.3332 7.77103 17.4683 5.67986 15.8966 4.10653C14.325 2.53403 12.2363 1.66758 10.0096 1.66675ZM10.008 3.33341C11.788 3.33425 13.4608 4.02825 14.7183 5.28491C15.9758 6.54325 16.6665 8.21524 16.6649 9.99357C16.6632 13.6636 13.678 16.6488 10.0063 16.6488C8.89551 16.648 7.79518 16.3691 6.82601 15.8399L6.26449 15.5339L5.64437 15.6804L4.00374 16.0678L4.40413 14.5802L4.5848 13.9128L4.23975 13.3139C3.65808 12.3072 3.35024 11.1562 3.35107 9.98706C3.35274 6.31873 6.33881 3.33341 10.008 3.33341ZM7.06364 6.14591C6.92447 6.14591 6.69946 6.198 6.50863 6.40633C6.31779 6.61383 5.77946 7.1164 5.77946 8.13973C5.77946 9.16306 6.5249 10.1523 6.62907 10.2914C6.7324 10.4298 8.06796 12.5961 10.1821 13.4294C11.9388 14.1219 12.2956 13.9853 12.6772 13.9503C13.0589 13.9161 13.9085 13.4482 14.0819 12.9623C14.2552 12.4765 14.2556 12.0586 14.2039 11.9727C14.1523 11.8861 14.0135 11.8344 13.8052 11.7302C13.5977 11.6261 12.5751 11.1239 12.3843 11.0548C12.1934 10.9856 12.0539 10.9506 11.9155 11.1589C11.7772 11.3673 11.3796 11.8344 11.258 11.9727C11.1363 12.1119 11.0155 12.1306 10.8071 12.0264C10.5988 11.9214 9.92895 11.7013 9.13395 10.9929C8.51562 10.4421 8.09839 9.76245 7.97673 9.55412C7.85589 9.34662 7.96533 9.23265 8.0695 9.12931C8.16283 9.03598 8.2762 8.8864 8.38037 8.76473C8.4837 8.64306 8.51954 8.55638 8.5887 8.41805C8.65787 8.27972 8.62247 8.15763 8.5708 8.05347C8.51913 7.9493 8.11452 6.92216 7.92952 6.5105C7.77369 6.16466 7.60911 6.15663 7.46077 6.1508C7.33994 6.1458 7.20197 6.14591 7.06364 6.14591Z" fill="#A1C300"/>
</svg>
